<svg width="44" height="44" viewBox="0 0 44 44" fill="none" xmlns="http://www.w3.org/2000/svg">
<g clip-path="url(#clip0_856:2532)">
<path d="M23.6284 22.8971C23.357 22.8971 23.1369 22.6771 23.1369 22.4057V20.1597H20.7484V22.4057C20.7484 22.6771 20.5284 22.8971 20.257 22.8971H18.011V25.2807H20.257C20.5284 25.2807 20.7484 25.5008 20.7484 25.7722V28.0182H23.132V25.7722C23.132 25.5008 23.3521 25.2807 23.6235 25.2807H25.8744V22.8971H23.6284Z" fill="#66A182"/>
<path d="M30.4947 15.4957H13.3918C11.829 15.4957 10.0007 16.3853 10.0007 18.8868V29.5663C10.0007 32.0679 11.829 32.9574 13.3918 32.9574H30.4947C32.0576 32.9574 33.8858 32.0679 33.8858 29.5663V18.8868C33.8858 16.3853 32.0625 15.4957 30.4947 15.4957ZM26.8579 25.5314C26.8579 25.9358 26.53 26.2637 26.1256 26.2637H24.1205V28.2688C24.1205 28.6733 23.7926 29.0011 23.3882 29.0011H20.4984C20.094 29.0011 19.7661 28.6733 19.7661 28.2688V26.2637H17.7658C17.3614 26.2664 17.0314 25.9407 17.0287 25.5363C17.0287 25.5347 17.0287 25.533 17.0287 25.5314V22.6465C17.0287 22.2421 17.3565 21.9142 17.7609 21.9142H19.7661V19.9091C19.7661 19.5047 20.094 19.1768 20.4984 19.1768H23.3833C23.7877 19.1768 24.1155 19.5047 24.1155 19.9091V21.9142H26.1207C26.5251 21.9115 26.8552 22.2372 26.8579 22.6416C26.8579 22.6433 26.8579 22.6449 26.8579 22.6465V25.5314Z" fill="#66A182"/>
<path d="M25.1005 10.93C25.0466 10.9269 24.9925 10.9269 24.9386 10.93H18.9427C18.1541 10.8853 17.4786 11.4884 17.4339 12.2769C17.4309 12.3309 17.4309 12.3849 17.4339 12.4388V14.6504H18.4169L18.4218 12.4388C18.4218 12.2963 18.4218 11.9129 18.9477 11.9129H24.9386C25.4645 11.9129 25.4645 12.2914 25.4645 12.4388V14.6504H26.4474V12.4388C26.4921 11.6502 25.889 10.9747 25.1005 10.93Z" fill="#66A182"/>
</g>
<rect x="0.5" y="0.5" width="42.8851" height="42.8851" rx="21.4425" stroke="#EFEFEF"/>
<defs>
<clipPath id="clip0_856:2532">
<rect width="23.8851" height="23.8851" fill="white" transform="translate(10 10)"/>
</clipPath>
</defs>
</svg>
