<svg width="80" height="80" viewBox="0 0 80 80" fill="none" xmlns="http://www.w3.org/2000/svg">
<rect width="80" height="80" rx="10" fill="#374483"/>
<path d="M20.5117 22.6667V60H28.1383V22.6667H20.5117ZM25.1517 29.12H32.565C34.5917 29.12 36.1917 29.5822 37.365 30.5067C38.5383 31.3956 39.125 32.7467 39.125 34.56C39.125 36.3378 38.5383 37.6889 37.365 38.6133C36.1917 39.5378 34.5917 40 32.565 40H25.1517V46.4533H32.565C35.5161 46.4533 38.0228 45.9733 40.085 45.0133C42.1828 44.0533 43.7828 42.6844 44.885 40.9067C45.9872 39.0933 46.5383 36.9778 46.5383 34.56C46.5383 32.1067 45.9872 29.9911 44.885 28.2133C43.7828 26.4356 42.1828 25.0667 40.085 24.1067C38.0228 23.1467 35.5161 22.6667 32.565 22.6667H25.1517V29.12Z" fill="white"/>
<path d="M49.7721 56.8533C49.7721 57.9911 50.181 58.9867 50.9988 59.84C51.8521 60.6933 52.901 61.12 54.1454 61.12C55.4254 61.12 56.4743 60.6933 57.2921 59.84C58.1099 58.9867 58.5188 57.9911 58.5188 56.8533C58.5188 55.6444 58.1099 54.6311 57.2921 53.8133C56.4743 52.96 55.4254 52.5333 54.1454 52.5333C52.901 52.5333 51.8521 52.96 50.9988 53.8133C50.181 54.6311 49.7721 55.6444 49.7721 56.8533Z" fill="#66A182"/>
</svg>
