<svg width="56" height="56" viewBox="0 0 56 56" fill="none" xmlns="http://www.w3.org/2000/svg">
<g clip-path="url(#clip0_1501:2558)">
<path d="M46.9051 26.9647C46.7251 25.7662 45.6976 24.9025 44.4883 24.9025H24.8985L21.3408 20.6915C20.5868 19.8061 19.48 19.2483 18.3157 19.2483H5.58756C4.68059 19.2483 3.81861 19.673 3.23195 20.3676C2.6471 21.064 2.39697 22.0178 2.54993 22.9122L2.88824 24.9025H2.6651C1.95248 24.9025 1.27765 25.1922 0.816967 25.732C0.349085 26.2737 0.145737 26.9791 0.255509 27.6828L4.20731 53.3227C4.44665 54.8649 5.77471 56.0004 7.33491 56.0004H48.3591C49.0717 56.0004 49.7466 55.6873 50.2072 55.1528C50.6697 54.6129 50.8785 53.9129 50.7723 53.2093L46.9051 26.9647Z" fill="#ECEDED"/>
<path d="M37.1515 7.83008H21.8284C20.772 7.83008 19.9155 8.78384 19.9155 9.84197C19.9155 10.9001 20.7738 11.8539 21.8284 11.8539H37.1515C38.2114 11.8539 39.0662 10.9001 39.0662 9.84197C39.0662 8.78384 38.2078 7.83008 37.1515 7.83008Z" fill="#ECEDED"/>
<path d="M55.2045 21.9296C54.7637 21.4167 54.1176 21.0946 53.4392 21.0946H49.0915L50.0812 30.2633L52.444 46.281L55.7516 23.8011C55.8434 23.1317 55.649 22.4443 55.2045 21.9296Z" fill="#ECEDED"/>
<path d="M16.2391 3.69831H42.9875V21.8575H46.6874V2.35225C46.6856 1.06377 45.6094 0.000244141 44.321 0.000244141H14.7401C13.3256 0.000244141 12.2171 1.16455 12.2171 2.57899V16.637H16.2391V3.69831Z" fill="#ECEDED"/>
<path d="M37.1516 15.2244H21.8284C20.9089 15.2244 20.1423 15.9514 19.9569 16.8422C21.2688 17.1769 22.4619 17.8913 23.3598 18.944L23.6388 19.2463H37.1516C38.2115 19.2463 39.0663 18.2926 39.0663 17.2345C39.0663 16.1763 38.2079 15.2244 37.1516 15.2244Z" fill="#ECEDED"/>
</g>
<defs>
<clipPath id="clip0_1501:2558">
<rect width="56" height="56" fill="white"/>
</clipPath>
</defs>
</svg>
