<svg width="27" height="28" viewBox="0 0 27 28" fill="none" xmlns="http://www.w3.org/2000/svg">
<rect y="0.654785" width="26.5294" height="26.5294" rx="4.11765" fill="#F8F8F9"/>
<path d="M15.298 13.6861C15.2092 13.5092 15.0286 13.3974 14.8307 13.3974H13.7866V8.17689C13.7866 7.88871 13.5532 7.65484 13.2646 7.65484C12.9759 7.65484 12.7425 7.88871 12.7425 8.17689V13.3974H11.6984C11.5005 13.3974 11.3199 13.5091 11.2312 13.6861C11.1435 13.8631 11.1623 14.0745 11.2808 14.2327L12.8469 16.3209C12.8537 16.3298 12.8642 16.3329 12.8715 16.3413C12.9059 16.382 12.9467 16.4133 12.9921 16.442C13.0109 16.4535 13.0255 16.4686 13.0458 16.478C13.1127 16.5094 13.1857 16.5297 13.2646 16.5297C13.3434 16.5297 13.4165 16.5094 13.4838 16.478C13.5037 16.4686 13.5188 16.4535 13.5371 16.442C13.5825 16.4133 13.6232 16.382 13.6577 16.3413C13.6645 16.3329 13.6754 16.3298 13.6822 16.3209L15.2484 14.2327C15.3674 14.0745 15.3862 13.8631 15.298 13.6861Z" fill="#5398DF"/>
<path d="M19.0073 15.4857C18.7186 15.4857 18.4853 15.7195 18.4853 16.0077V17.5739C18.4853 18.4373 17.7826 19.14 16.9191 19.14H9.61034C8.74687 19.14 8.04418 18.4373 8.04418 17.5739V16.0077C8.04418 15.7195 7.81082 15.4857 7.52213 15.4857C7.23342 15.4857 7.00006 15.7195 7.00006 16.0077V17.5739C7.00006 19.0132 8.17104 20.1841 9.61034 20.1841H16.9191C18.3584 20.1841 19.5294 19.0132 19.5294 17.5739V16.0077C19.5294 15.7195 19.296 15.4857 19.0073 15.4857Z" fill="#5398DF"/>
</svg>
