<svg width="44" height="44" viewBox="0 0 44 44" fill="none" xmlns="http://www.w3.org/2000/svg">
<g clip-path="url(#clip0_856:2553)">
<rect width="23.89" height="23.89" transform="translate(9.99976 10)" fill="white"/>
<path d="M27.9241 10C27.9241 10 25.9585 11.907 23.8328 12.6758C8.09071 18.3698 14.7298 29.4657 14.9464 29.5023C14.9464 29.5023 15.8291 27.9651 17.0216 27.0883C24.5883 21.5256 26.1263 15.1227 26.1263 15.1227C26.1263 15.1227 24.4283 22.8274 17.6965 27.6215C16.2097 28.6798 15.203 31.2856 14.7768 33.89C14.7768 33.89 15.8307 33.4642 16.2839 33.3488C16.4607 32.1956 16.8302 31.0913 17.4548 30.1048C26.8633 31.2249 29.9447 23.6437 30.3473 21.0002C31.2974 14.7568 27.9241 10 27.9241 10Z" fill="#66A182"/>
</g>
<rect x="0.499756" y="0.5" width="42.89" height="42.89" rx="21.445" stroke="#EFEFEF"/>
<defs>
<clipPath id="clip0_856:2553">
<rect width="23.89" height="23.89" fill="white" transform="translate(9.99976 10)"/>
</clipPath>
</defs>
</svg>
