<svg width="44" height="44" viewBox="0 0 44 44" fill="none" xmlns="http://www.w3.org/2000/svg">
<g clip-path="url(#clip0_856:2513)">
<path d="M17.9603 24.9283C18.7848 24.9283 19.4532 24.2599 19.4532 23.4354C19.4532 22.611 18.7848 21.9426 17.9603 21.9426C17.1359 21.9426 16.4675 22.611 16.4675 23.4354C16.4675 24.2599 17.1359 24.9283 17.9603 24.9283Z" fill="#66A182"/>
<path d="M32.1765 20.9116C32.29 19.9323 32.3945 18.8166 32.3945 18.0493C32.3945 12.5488 25.9853 10.4987 21.9447 10.4987C19.3234 10.4987 17.4315 11.9049 16.7955 12.4513C14.8051 12.5657 11.495 13.8326 11.495 18.0493C11.495 18.8276 11.5985 19.9382 11.711 20.9126C10.7028 21.3246 10.0022 22.2999 10.0022 23.4364C10.0022 24.8735 11.1198 26.0429 12.529 26.1524C13.8776 30.0665 17.5847 32.8909 21.9447 32.8909C26.3048 32.8909 30.0119 30.0675 31.3605 26.1524C32.7707 26.0429 33.8873 24.8735 33.8873 23.4364C33.8873 22.2989 33.1867 21.3236 32.1765 20.9116ZM30.0806 25.2547C30.0806 25.2567 30.0786 25.2577 30.0786 25.2596V25.2626C29.0575 28.8006 25.8012 31.3981 21.9447 31.3981C17.74 31.3981 14.2508 28.31 13.5939 24.2814L14.5871 20.8071C15.4739 20.5254 17.4603 19.7283 18.3301 18.0454C19.6687 19.3103 22.6683 20.8628 29.3432 20.9454L30.2966 24.2764C30.2428 24.6088 30.1722 24.9352 30.0806 25.2547Z" fill="#66A182"/>
<path d="M25.924 24.9283C26.7484 24.9283 27.4168 24.2599 27.4168 23.4354C27.4168 22.611 26.7484 21.9426 25.924 21.9426C25.0995 21.9426 24.4312 22.611 24.4312 23.4354C24.4312 24.2599 25.0995 24.9283 25.924 24.9283Z" fill="#66A182"/>
<path d="M23.9123 27.1277C22.8266 28.1776 21.0591 28.1776 19.9733 27.1277C19.6777 26.844 19.204 26.85 18.9174 27.1476C18.6308 27.4441 18.6397 27.9159 18.9363 28.2035C19.7653 29.0036 20.8541 29.4027 21.9428 29.4027C23.0316 29.4027 24.1203 29.0036 24.9494 28.2035C25.2459 27.9169 25.2539 27.4441 24.9683 27.1476C24.6816 26.85 24.2089 26.844 23.9123 27.1277Z" fill="#66A182"/>
</g>
<rect x="0.5" y="0.5" width="42.8851" height="42.8851" rx="21.4425" stroke="#EFEFEF"/>
<defs>
<clipPath id="clip0_856:2513">
<rect width="23.8851" height="23.8851" fill="white" transform="translate(10 10)"/>
</clipPath>
</defs>
</svg>
