<svg width="66" height="66" viewBox="0 0 66 66" fill="none" xmlns="http://www.w3.org/2000/svg">
<path d="M60.7109 32.3103L36.1089 7.72105L34.4598 6.072C34.0841 5.69874 33.576 5.48926 33.0464 5.48926C32.5167 5.48926 32.0086 5.69874 31.6329 6.072L5.38183 32.3103C4.99682 32.6938 4.69255 33.1506 4.48696 33.6536C4.28138 34.1566 4.17865 34.6958 4.18483 35.2391C4.2103 37.4803 6.07583 39.2694 8.31701 39.2694H11.023V60.0067H55.0698V39.2694H57.833C58.9218 39.2694 59.9469 38.8428 60.7173 38.0724C61.0966 37.6943 61.3972 37.2447 61.6015 36.7496C61.8059 36.2545 61.91 35.7238 61.9079 35.1882C61.9079 34.1058 61.4813 33.0807 60.7109 32.3103V32.3103ZM36.6119 55.4225H29.4809V42.4338H36.6119V55.4225ZM50.4855 34.6852V55.4225H40.6867V40.9057C40.6867 39.4986 39.547 38.359 38.1399 38.359H27.9528C26.5457 38.359 25.406 39.4986 25.406 40.9057V55.4225H15.6072V34.6852H9.4949L33.0527 11.1465L34.5235 12.6173L56.6042 34.6852H50.4855Z" fill="#ECEDED"/>
</svg>
