<svg width="29" height="30" viewBox="0 0 29 30" fill="none" xmlns="http://www.w3.org/2000/svg">
<g clip-path="url(#clip0_745:2157)">
<path d="M3.62571 0.654785H19.0256L27.1882 8.78568V27.8423C27.1882 28.8437 26.3762 29.6548 25.3757 29.6548H3.62571C2.62519 29.6548 1.81323 28.8437 1.81323 27.8423V2.46727C1.81323 1.4659 2.62528 0.654785 3.62571 0.654785Z" fill="#FE494E"/>
<path d="M27.1612 8.81113H20.8437C19.8432 8.81113 19.0312 7.99917 19.0312 6.99865V0.673008L27.1612 8.81113Z" fill="#E03135"/>
<path d="M20.3902 14.3963C20.6939 14.3963 20.8425 14.1317 20.8425 13.8752C20.8425 13.6097 20.6875 13.3532 20.3902 13.3532H18.6611C18.3231 13.3532 18.1346 13.6332 18.1346 13.9423V18.1917C18.1346 18.5705 18.3503 18.7807 18.6421 18.7807C18.9321 18.7807 19.1487 18.5705 19.1487 18.1917V17.0253H20.1945C20.519 17.0253 20.6812 16.7598 20.6812 16.4961C20.6812 16.2379 20.519 15.9813 20.1945 15.9813H19.1487V14.3963C19.1487 14.3963 20.3902 14.3963 20.3902 14.3963ZM14.5458 13.3532H13.2807C12.9372 13.3532 12.6934 13.5889 12.6934 13.9386V18.1953C12.6934 18.6294 13.0441 18.7653 13.2951 18.7653H14.6228C16.1942 18.7653 17.2319 17.7313 17.2319 16.1354C17.231 14.448 16.2541 13.3532 14.5458 13.3532ZM14.6066 17.716H13.8353V14.4027H14.5305C15.5827 14.4027 16.0403 15.1087 16.0403 16.0829C16.0403 16.9946 15.5907 17.716 14.6066 17.716ZM9.97201 13.3532H8.71868C8.36432 13.3532 8.16675 13.587 8.16675 13.9423V18.1917C8.16675 18.5705 8.3933 18.7807 8.69777 18.7807C9.00224 18.7807 9.22879 18.5705 9.22879 18.1917V16.951H10.0145C10.9842 16.951 11.7844 16.264 11.7844 15.1593C11.7845 14.0782 11.0124 13.3532 9.97201 13.3532ZM9.95119 15.9542H9.22888V14.351H9.95119C10.3971 14.351 10.6807 14.699 10.6807 15.153C10.6798 15.6062 10.3971 15.9542 9.95119 15.9542Z" fill="white"/>
</g>
<defs>
<clipPath id="clip0_745:2157">
<rect width="29" height="29" fill="white" transform="translate(0 0.654785)"/>
</clipPath>
</defs>
</svg>
