<svg width="44" height="44" viewBox="0 0 44 44" fill="none" xmlns="http://www.w3.org/2000/svg">
<g clip-path="url(#clip0_856:2567)">
<path d="M33.7239 18.7797C33.6671 18.6144 33.4658 18.4858 33.2978 18.4858C32.5701 18.4858 31.8425 18.4858 31.1148 18.4858C30.9469 18.4858 30.7455 18.6144 30.6887 18.7797C30.6331 18.9415 30.5916 19.0859 30.564 19.2217L29.1058 15.1876C28.8653 14.5224 28.2284 14.0754 27.5211 14.0754H16.3685C15.6612 14.0754 15.0243 14.5224 14.7837 15.1877L13.3255 19.2222C13.2978 19.0863 13.2563 18.9417 13.2007 18.7797C13.1439 18.6144 12.9425 18.4858 12.7746 18.4858C12.0469 18.4858 11.3193 18.4858 10.5916 18.4858C10.4236 18.4858 10.2223 18.6144 10.1655 18.7797C9.94443 19.4234 9.94456 19.7919 10.1656 20.4356C10.2224 20.6009 10.4237 20.7295 10.5917 20.7295C11.3194 20.7295 12.047 20.7295 12.7746 20.7295C12.7767 20.7295 12.7789 20.729 12.781 20.7289L12.7481 20.8201C12.3029 20.968 11.9816 21.387 11.9816 21.8818V25.26V25.5384V29.2766C11.9816 29.5737 12.2224 29.8145 12.5195 29.8145H15.2271C15.5242 29.8145 15.7651 29.5737 15.7651 29.2766V26.6577H28.1245V29.2766C28.1245 29.5737 28.3653 29.8145 28.6624 29.8145H31.37C31.6672 29.8145 31.908 29.5737 31.908 29.2766V25.5384V25.26V21.8818C31.908 21.3872 31.5867 20.9682 31.1418 20.8202L31.1088 20.7289C31.1108 20.729 31.1129 20.7294 31.1149 20.7294C31.8426 20.7294 32.5702 20.7294 33.2979 20.7294C33.4659 20.7294 33.6672 20.6009 33.724 20.4355C33.945 19.7919 33.9448 19.4234 33.7239 18.7797ZM16.5745 16.0552H27.3135L29.0151 20.7625H14.8731L16.5745 16.0552ZM16.8741 24.0787H14.609C14.123 24.0787 13.7291 23.6848 13.7291 23.1988C13.7291 22.7129 14.1229 22.3189 14.609 22.3189H16.8741C17.36 22.3189 17.7539 22.7128 17.7539 23.1988C17.754 23.6848 17.36 24.0787 16.8741 24.0787ZM29.2804 24.0787H27.0153C26.5294 24.0787 26.1354 23.6848 26.1354 23.1988C26.1354 22.7129 26.5294 22.3189 27.0153 22.3189H29.2804C29.7664 22.3189 30.1603 22.7128 30.1603 23.1988C30.1603 23.6848 29.7664 24.0787 29.2804 24.0787Z" fill="#66A182"/>
</g>
<rect x="0.499756" y="0.5" width="42.89" height="42.89" rx="21.445" stroke="#EFEFEF"/>
<defs>
<clipPath id="clip0_856:2567">
<rect width="23.89" height="23.89" fill="white" transform="translate(9.99976 10)"/>
</clipPath>
</defs>
</svg>
