<svg viewBox="0 0 16 17" xmlns="http://www.w3.org/2000/svg">
<path d="M13.75 3.5899H11.125V2.5899C11.125 2.52115 11.0687 2.4649 11 2.4649H10.125C10.0562 2.4649 10 2.52115 10 2.5899V3.5899H6V2.5899C6 2.52115 5.94375 2.4649 5.875 2.4649H5C4.93125 2.4649 4.875 2.52115 4.875 2.5899V3.5899H2.25C1.97344 3.5899 1.75 3.81334 1.75 4.0899V14.4649C1.75 14.7415 1.97344 14.9649 2.25 14.9649H13.75C14.0266 14.9649 14.25 14.7415 14.25 14.4649V4.0899C14.25 3.81334 14.0266 3.5899 13.75 3.5899ZM10.8516 7.47584L7.52969 12.0493C7.50633 12.0812 7.47577 12.1072 7.44047 12.1252C7.40518 12.1431 7.36615 12.1524 7.32656 12.1524C7.28698 12.1524 7.24795 12.1431 7.21265 12.1252C7.17736 12.1072 7.14679 12.0812 7.12344 12.0493L5.14844 9.33053C5.08906 9.24772 5.14844 9.13209 5.25 9.13209H6.1125C6.19219 9.13209 6.26875 9.17115 6.31562 9.23522L7.32656 10.6258L9.68437 7.37897C9.73125 7.3149 9.80625 7.27584 9.8875 7.27584H10.75C10.8516 7.2774 10.9109 7.39303 10.8516 7.47584V7.47584Z"/>

</svg>
