<svg width="66" height="66" viewBox="0 0 66 66" fill="none" xmlns="http://www.w3.org/2000/svg">
<path d="M32.5989 4.18573L8.14966 12.3355V36.7847C8.14966 50.289 19.0945 61.2339 32.5989 61.2339C46.1032 61.2339 57.0481 50.289 57.0481 36.7847V12.3355L32.5989 4.18573ZM52.4638 36.7847C52.4638 47.755 43.5692 56.6497 32.5989 56.6497C21.6286 56.6497 12.7339 47.755 12.7339 36.7847V15.7736L32.5989 8.76996L52.4638 15.7736V36.7847Z" fill="#EEEFEF"/>
<path d="M24.0929 30.3603C23.8804 30.1469 23.6279 29.9776 23.3498 29.862C23.0718 29.7465 22.7736 29.687 22.4725 29.687C22.1713 29.687 21.8732 29.7465 21.5951 29.862C21.317 29.9776 21.0645 30.1469 20.8521 30.3603C20.6387 30.5728 20.4693 30.8253 20.3537 31.1033C20.2382 31.3814 20.1787 31.6796 20.1787 31.9807C20.1787 32.2818 20.2382 32.58 20.3537 32.8581C20.4693 33.1361 20.6387 33.3887 20.8521 33.6011L29.091 41.8399L29.2247 41.9736C29.4256 42.175 29.6643 42.3347 29.9271 42.4437C30.1898 42.5527 30.4715 42.6087 30.7559 42.6087C31.0404 42.6087 31.3221 42.5527 31.5848 42.4437C31.8476 42.3347 32.0862 42.175 32.2872 41.9736L46.5174 27.7435C46.7188 27.5425 46.8785 27.3039 46.9875 27.0411C47.0965 26.7784 47.1526 26.4967 47.1526 26.2122C47.1526 25.9278 47.0965 25.6461 46.9875 25.3834C46.8785 25.1206 46.7188 24.8819 46.5174 24.681L46.3392 24.5027C46.1382 24.3014 45.8995 24.1417 45.6368 24.0327C45.374 23.9237 45.0924 23.8676 44.8079 23.8676C44.5234 23.8676 44.2418 23.9237 43.979 24.0327C43.7163 24.1417 43.4776 24.3014 43.2766 24.5027L30.7528 37.0202L24.0929 30.3603Z" fill="#EEEFEF"/>
</svg>
