<svg width="66" height="66" viewBox="0 0 66 66" fill="none" xmlns="http://www.w3.org/2000/svg">
<path d="M32.5989 4.18573L8.14966 12.3355V36.7847C8.14966 50.289 19.0945 61.2339 32.5989 61.2339C46.1032 61.2339 57.0481 50.289 57.0481 36.7847V12.3355L32.5989 4.18573ZM52.4638 36.7847C52.4638 47.755 43.5692 56.6497 32.5989 56.6497C21.6286 56.6497 12.7339 47.755 12.7339 36.7847V15.7736L32.5989 8.76996L52.4638 15.7736V36.7847Z" fill="#EEEFEF"/>
<path d="M24.0926 30.3603C23.8802 30.1469 23.6277 29.9776 23.3496 29.862C23.0715 29.7465 22.7734 29.687 22.4722 29.687C22.1711 29.687 21.8729 29.7465 21.5949 29.862C21.3168 29.9776 21.0643 30.1469 20.8518 30.3603C20.6384 30.5728 20.4691 30.8253 20.3535 31.1033C20.238 31.3814 20.1785 31.6796 20.1785 31.9807C20.1785 32.2818 20.238 32.58 20.3535 32.8581C20.4691 33.1361 20.6384 33.3887 20.8518 33.6011L29.0907 41.8399L29.2244 41.9736C29.4254 42.175 29.6641 42.3347 29.9268 42.4437C30.1896 42.5527 30.4712 42.6088 30.7557 42.6088C31.0401 42.6088 31.3218 42.5527 31.5846 42.4437C31.8473 42.3347 32.086 42.175 32.287 41.9736L46.5172 27.7435C46.7185 27.5425 46.8783 27.3039 46.9872 27.0411C47.0962 26.7784 47.1523 26.4967 47.1523 26.2122C47.1523 25.9278 47.0962 25.6461 46.9872 25.3834C46.8783 25.1206 46.7185 24.8819 46.5172 24.681L46.3389 24.5027C46.138 24.3014 45.8993 24.1417 45.6365 24.0327C45.3738 23.9237 45.0921 23.8676 44.8077 23.8676C44.5232 23.8676 44.2415 23.9237 43.9788 24.0327C43.716 24.1417 43.4773 24.3014 43.2764 24.5027L30.7525 37.0202L24.0926 30.3603Z" fill="#EEEFEF"/>
</svg>
