<svg viewBox="0 0 16 16" fill="none" xmlns="http://www.w3.org/2000/svg">
<path d="M8.29458 1.19122C4.61904 1.19122 1.63879 4.17147 1.63879 7.84701C1.63879 11.5225 4.61904 14.5028 8.29458 14.5028C11.9701 14.5028 14.9504 11.5225 14.9504 7.84701C14.9504 4.17147 11.9701 1.19122 8.29458 1.19122ZM8.29458 13.3737C5.24302 13.3737 2.7679 10.8986 2.7679 7.84701C2.7679 4.79545 5.24302 2.32033 8.29458 2.32033C11.3461 2.32033 13.8213 4.79545 13.8213 7.84701C13.8213 10.8986 11.3461 13.3737 8.29458 13.3737Z" fill="#6B7885"/>
<path d="M10.89 9.72785L8.77146 8.19613V4.51912C8.77146 4.45375 8.71798 4.40027 8.65261 4.40027H7.93801C7.87264 4.40027 7.81915 4.45375 7.81915 4.51912V8.61063C7.81915 8.64926 7.83698 8.68492 7.86818 8.7072L10.3255 10.4989C10.3789 10.5375 10.4532 10.5257 10.4919 10.4737L10.9168 9.89424C10.9554 9.83928 10.9435 9.76499 10.89 9.72785V9.72785Z" fill="#6B7885"/>
</svg>
