<svg width="20" height="20" viewBox="0 0 20 20" fill="none" xmlns="http://www.w3.org/2000/svg">
<path d="M7.6094 11.2914C7.5309 11.2914 5.88419 11.2919 5.12471 11.2911C4.73372 11.2909 4.59422 11.1504 4.59422 10.7569C4.59372 9.74616 4.59347 8.73544 4.59422 7.72471C4.59447 7.33622 4.74197 7.18798 5.12796 7.18773C5.88744 7.18723 7.52515 7.18748 7.6094 7.18748C7.6094 7.11823 7.60915 5.65902 7.6094 4.98703C7.6099 3.99356 7.78714 3.04258 8.29188 2.17185C8.80862 1.28062 9.5606 0.670138 10.5243 0.317146C11.1416 0.0909019 11.7823 0.000654246 12.4373 0.000154258C13.2568 -0.000345729 14.0762 0.000404244 14.896 0.00190421C15.2482 0.0024042 15.4045 0.15815 15.4052 0.512892C15.4067 1.46362 15.4067 2.41434 15.4052 3.36482C15.4047 3.72331 15.255 3.86731 14.8947 3.87131C14.223 3.87856 13.5508 3.87406 12.8798 3.90106C12.202 3.90106 11.8455 4.23205 11.8455 4.93353C11.8293 5.67551 11.8388 6.41825 11.8388 7.18723C11.9023 7.18723 13.831 7.18698 14.7325 7.18723C15.142 7.18723 15.282 7.32797 15.282 7.73971C15.282 8.74494 15.2817 9.75041 15.281 10.7556C15.2807 11.1614 15.1492 11.2909 14.7372 11.2911C13.8357 11.2916 11.9145 11.2914 11.8305 11.2914V19.4274C11.8305 19.8612 11.694 19.9994 11.2661 19.9994C10.2226 19.9994 9.17886 19.9997 8.13539 19.9994C7.75715 19.9994 7.60965 19.8524 7.60965 19.4742C7.6094 16.8245 7.6094 11.3844 7.6094 11.2914Z" fill="#BEBEBE"/>
</svg>
