<svg width="66" height="66" viewBox="0 0 66 66" fill="none" xmlns="http://www.w3.org/2000/svg">
<g clip-path="url(#clip0_658:2307)">
<path d="M13.5984 17.7146C16.4393 18.1126 19.0435 19.2892 21.1288 21.1172C24.6687 24.22 29.2224 26.0389 33.9515 26.2392C34.2418 26.2514 34.5314 26.2577 34.8212 26.2575C39.3178 26.2575 43.7324 24.7845 47.3379 22.0653C48.7995 20.963 50.0956 19.6837 51.2108 18.2556C52.4786 19.3971 53.6367 20.6615 54.6564 22.0276C54.9065 22.3624 55.2897 22.5393 55.6777 22.5393C55.9425 22.5393 56.2097 22.4569 56.4384 22.2863C57.002 21.8656 57.1177 21.0678 56.697 20.5043C55.3614 18.7151 53.8093 17.0851 52.0937 15.6537C51.396 13.5887 50.3731 11.6423 49.0488 9.86331C46.3314 6.21268 42.5807 3.61476 38.2022 2.3503C33.9668 1.12736 29.3634 1.28409 25.24 2.79199C24.5795 3.0334 24.24 3.76462 24.4815 4.42505C24.7229 5.08535 25.454 5.42505 26.1146 5.18352C29.7339 3.85986 33.7758 3.7226 37.4957 4.79683C41.3351 5.90557 44.6238 8.18327 47.0061 11.3838C47.341 11.8336 47.651 12.2969 47.9415 12.7696C47.5795 12.5631 47.2144 12.3622 46.8438 12.1721C43.1389 10.2724 39.1593 9.23458 34.9995 9.07581L32.1027 6.52194C31.5752 6.05696 30.7708 6.1075 30.3057 6.63501C29.8407 7.16251 29.8912 7.96707 30.4187 8.43206L31.2568 9.17079C29.3227 9.34726 27.417 9.71943 25.5647 10.284C24.892 10.489 24.5128 11.2005 24.7179 11.8731C24.9228 12.5458 25.6351 12.9252 26.307 12.7198C28.7492 11.9755 31.295 11.5981 33.8739 11.5981C36.1132 11.5981 38.2974 11.8774 40.4109 12.427L37.3496 14.9375C36.806 15.3834 36.7266 16.1857 37.1725 16.7295C37.4244 17.0365 37.7895 17.1954 38.1578 17.1954C38.4417 17.1954 38.7277 17.1008 38.9645 16.9066L43.2878 13.361C44.0984 13.6784 44.8974 14.0357 45.682 14.4381C46.9234 15.0746 48.1128 15.8166 49.2382 16.6476C48.2525 17.9177 47.102 19.0534 45.8043 20.0323C42.4365 22.5724 38.2647 23.873 34.0589 23.6951C29.9078 23.5194 25.912 21.9238 22.8072 19.2024C20.7274 17.3794 18.2164 16.1065 15.475 15.4745C16.0353 14.0793 16.7627 12.7645 17.6465 11.5519C18.0606 10.9836 17.9357 10.1871 17.3674 9.77304C16.7992 9.35911 16.0025 9.48388 15.5884 10.0523C14.259 11.8768 13.2401 13.9025 12.5599 16.0733C12.4481 16.4303 12.4989 16.8184 12.6989 17.1345C12.899 17.4504 13.2279 17.6627 13.5984 17.7146V17.7146Z" fill="#ECEDED"/>
<path d="M25.7788 53.4404C26.6959 48.8235 25.9944 43.9703 23.8031 39.7746C21.5817 35.5209 17.9209 32.1449 13.4952 30.2686C11.81 29.554 10.0544 29.0682 8.26007 28.8166C8.61454 27.1487 9.13045 25.5147 9.80323 23.9494C10.0809 23.3033 9.78222 22.5545 9.13631 22.2768C8.48963 21.999 7.74135 22.2978 7.46365 22.9439C6.58206 24.9952 5.94646 27.1544 5.56462 29.3558C4.12522 30.9924 2.95091 32.8517 2.07238 34.888C-0.120397 39.9703 -0.192081 45.613 1.87044 50.7766C3.94366 55.9675 7.91655 60.0347 13.0574 62.2294C15.6409 63.3324 18.3771 63.8896 21.1402 63.8896C22.6572 63.8896 24.1828 63.7215 25.6947 63.3835C26.0597 63.3019 26.3706 63.0638 26.5443 62.7325C26.7182 62.4012 26.7376 62.0102 26.5973 61.6635C25.5216 59.0037 25.2385 56.1603 25.7788 53.4404V53.4404ZM14.0573 59.8872C9.54387 57.9604 6.05558 54.3893 4.23536 49.8319C2.42583 45.3016 2.48809 40.3526 4.41055 35.8965C4.63273 35.3816 4.87872 34.8815 5.14305 34.3936C5.14521 34.8103 5.15362 35.2269 5.17437 35.6429C5.38165 39.8013 6.47269 43.7668 8.41527 47.4486L7.65197 51.2342C7.51293 51.9236 7.95907 52.5951 8.6484 52.734C8.73333 52.7511 8.818 52.7593 8.9014 52.7593C9.49498 52.7593 10.0263 52.3418 10.1482 51.7376L10.3689 50.6426C11.4887 52.2292 12.764 53.6936 14.179 55.0154C14.4245 55.2447 14.7365 55.3581 15.0478 55.3581C15.3883 55.3581 15.7279 55.2224 15.9786 54.954C16.4587 54.4401 16.4312 53.6344 15.9173 53.1544C14.0518 51.4116 12.452 49.3956 11.1624 47.1622C10.0427 45.2229 9.19259 43.1916 8.61173 41.0865L12.3166 42.4824C12.4644 42.5381 12.6162 42.5645 12.7652 42.5645C13.2799 42.5645 13.7647 42.25 13.9568 41.7398C14.2047 41.0818 13.8724 40.3473 13.2142 40.0994L7.98199 38.128C7.85148 37.2673 7.76146 36.3967 7.71754 35.516C7.64815 34.1227 7.69589 32.7215 7.85288 31.3315C9.44571 31.5501 11.0047 31.9784 12.5011 32.6129C16.3847 34.2594 19.5969 37.2215 21.5458 40.9533C23.4692 44.6362 24.0853 48.8945 23.2809 52.9441C22.742 55.657 22.8951 58.4678 23.7186 61.1581C20.4357 61.6277 17.123 61.1959 14.0573 59.8872V59.8872Z" fill="#ECEDED"/>
<path d="M65.4187 39.8744C64.8973 35.5543 63.058 31.5702 60.0995 28.3531C59.8462 28.0776 59.4819 27.9272 59.1109 27.9427C58.737 27.9578 58.3889 28.1365 58.1587 28.4314C56.3934 30.6928 54.0724 32.3596 51.4466 33.2516C46.9898 34.7658 43.1375 37.8 40.5997 41.7955C38.0266 45.8461 36.9332 50.7046 37.5211 55.4755C37.7449 57.2923 38.2019 59.0555 38.8812 60.7353C37.2596 61.2622 35.5865 61.6325 33.8944 61.8324C33.1962 61.9149 32.6969 62.548 32.7794 63.2462C32.8559 63.8938 33.4059 64.3701 34.0422 64.3701C34.0921 64.3701 34.1426 64.3672 34.1934 64.3612C36.4115 64.0991 38.5998 63.5696 40.6978 62.7992C42.0342 63.0668 43.3937 63.2027 44.7638 63.2027C45.584 63.2027 46.4081 63.1546 47.2329 63.0583C52.7307 62.4161 57.6532 59.6569 61.0939 55.2889C64.5527 50.8979 66.0885 45.4236 65.4187 39.8744V39.8744ZM59.0936 53.7131C56.0749 57.5453 51.7578 59.9659 46.9375 60.529C46.3804 60.5941 45.8243 60.6311 45.2695 60.6463C45.6293 60.4361 45.986 60.2204 46.3357 59.9945C49.8335 57.7359 52.7222 54.8082 54.9395 51.285L58.5996 50.0533C59.266 49.829 59.6245 49.1069 59.4002 48.4405C59.176 47.7742 58.4542 47.4153 57.7874 47.6399L56.7287 47.9963C57.5428 46.2332 58.1733 44.3967 58.6105 42.5103C58.7694 41.8253 58.3428 41.1411 57.6578 40.9824C56.9729 40.8235 56.2888 41.2501 56.13 41.9351C55.5534 44.4225 54.6072 46.8161 53.3179 49.0492C52.1982 50.9885 50.8641 52.7404 49.3315 54.2959L48.6879 50.3894C48.5736 49.6957 47.9204 49.226 47.2246 49.34C46.5308 49.4544 46.061 50.1095 46.1753 50.8034L47.0843 56.3203C46.4041 56.8637 45.6952 57.377 44.9544 57.8553C43.7824 58.6122 42.5452 59.2713 41.2628 59.8304C40.6557 58.3417 40.2472 56.7774 40.0485 55.1642C39.5327 50.9776 40.4917 46.7148 42.7491 43.161C44.9769 39.6539 48.3566 36.991 52.2658 35.6629C54.8846 34.7732 57.2426 33.2352 59.1606 31.1769C61.2092 33.7855 62.4912 36.8703 62.8907 40.1796C63.4786 45.0516 62.1301 49.858 59.0936 53.7131V53.7131Z" fill="#ECEDED"/>
<path d="M20.6414 7.99729C21.3446 7.99729 21.9146 7.42724 21.9146 6.72405C21.9146 6.02085 21.3446 5.45081 20.6414 5.45081C19.9382 5.45081 19.3682 6.02085 19.3682 6.72405C19.3682 7.42724 19.9382 7.99729 20.6414 7.99729Z" fill="#ECEDED"/>
</g>
<defs>
<clipPath id="clip0_658:2307">
<rect width="65.1979" height="65.1979" fill="white" transform="translate(0.374756 0.353516)"/>
</clipPath>
</defs>
</svg>
