<svg width="66" height="66" viewBox="0 0 66 66" fill="none" xmlns="http://www.w3.org/2000/svg">
<g clip-path="url(#clip0_658:2314)">
<path d="M63.2668 11.2267C62.8347 8.8568 61.7519 6.65317 60.1353 4.8527C60.1322 4.84922 60.1292 4.84558 60.126 4.8421C59.298 3.90714 57.9258 2.6217 56.0917 1.80715L56.0499 1.78864C54.2797 0.939594 52.38 0.509216 50.4039 0.509216C47.4814 0.509216 44.7172 1.45257 42.41 3.23752C42.4077 3.23926 42.3973 3.24749 42.3944 3.24955C40.4109 4.79843 39.1019 7.01171 38.9399 7.29367C38.9326 7.30601 38.9255 7.31851 38.9187 7.33101C37.878 9.23891 37.328 11.4016 37.328 13.5852C37.328 14.0387 37.3518 14.4977 37.3989 14.9493C37.4427 15.3713 37.6953 15.7431 38.0711 15.9398C38.309 16.0644 38.5578 16.168 38.8133 16.25C39.832 19.368 42.0568 21.8616 44.8853 23.264C43.6728 23.8833 42.5838 24.7021 41.6419 25.7035C41.163 26.2127 41.1875 27.0138 41.6968 27.4928C42.206 27.9716 43.0071 27.947 43.4861 27.4379C43.9387 26.9565 44.4341 26.529 44.9685 26.1581C45.7348 28.3292 47.7098 29.9197 49.9561 29.9197H50.145C52.3952 29.9197 54.3683 28.2151 55.0893 25.9086C57.7622 27.5842 59.4724 30.5696 59.4724 33.7631V46.9116L47.9591 54.3823C47.3726 54.7629 47.2057 55.5467 47.5863 56.1331C47.8288 56.5067 48.2349 56.71 48.6493 56.71C48.8855 56.71 49.1243 56.644 49.3371 56.5059L61.4271 48.661C61.7867 48.4276 62.004 48.0279 62.004 47.5991V33.7631C62.004 29.2804 59.5015 25.2624 55.5464 23.2575C59.2918 21.3882 61.9404 17.6154 62.1999 13.2213C62.5571 12.8974 62.8677 12.5169 63.1162 12.0889C63.2676 11.8288 63.3209 11.5229 63.2668 11.2267ZM50.1452 27.3882H49.9563C48.4414 27.3882 47.1615 25.9198 47.1615 24.1817C47.1615 24.16 47.161 24.1385 47.1599 24.117C48.1414 24.3751 49.168 24.5116 50.2207 24.5116C51.1203 24.5116 51.9983 24.4113 52.8428 24.2213C52.7438 25.9326 51.5257 27.3882 50.1452 27.3882ZM50.2205 21.98C46.4036 21.98 43.0193 19.7063 41.5367 16.2981C43.2943 15.8009 44.6387 14.3098 44.9223 12.4732C45.6775 12.5702 46.4428 12.6191 47.2107 12.6191C49.7854 12.6191 52.2658 12.0794 54.4871 11.0459C55.0596 13.0118 56.8779 14.4527 59.0263 14.4527C59.183 14.4527 59.3387 14.4447 59.4929 14.4292C58.6004 18.7298 54.7703 21.98 50.2205 21.98ZM59.0263 11.9212C57.816 11.9212 56.8314 10.9368 56.8314 9.72673V9.0223C56.8314 8.5617 56.5812 8.1375 56.1781 7.91455C55.7747 7.69145 55.2823 7.70522 54.8925 7.95031C52.6651 9.34857 50.0088 10.0876 47.2106 10.0876C46.1163 10.0876 45.0292 9.9723 43.9797 9.74477C43.6058 9.6636 43.215 9.75616 42.9169 9.9965C42.619 10.2369 42.4457 10.599 42.4457 10.9818V11.7497C42.4457 12.9596 41.4612 13.9441 40.2511 13.9441C40.1682 13.9441 40.0862 13.9395 40.0052 13.9305C39.9864 13.9277 39.9676 13.9253 39.9487 13.9234C39.9204 13.9196 39.8924 13.915 39.8644 13.9101C39.8611 13.8015 39.8593 13.6933 39.8593 13.5854C39.8593 11.8291 40.3 10.0905 41.1339 8.55648C41.1372 8.55031 41.1407 8.5443 41.1433 8.53971C41.1541 8.52025 42.2975 6.53814 43.9505 5.24653C43.9538 5.24384 43.958 5.24068 43.9588 5.24004C45.8186 3.80129 48.0473 3.04085 50.4039 3.04085C51.998 3.04085 53.5294 3.38752 54.9551 4.07122C54.9798 4.08309 55.0164 4.0997 55.0642 4.12075C56.4719 4.74606 57.5527 5.75808 58.2157 6.50349C58.223 6.51203 58.2304 6.52042 58.238 6.52896C59.4326 7.85443 60.2674 9.45125 60.6706 11.1736C60.2565 11.6425 59.6578 11.9212 59.0263 11.9212ZM39.4396 44.3077C42.3079 42.6199 44.2373 39.4998 44.2373 35.938C44.2373 34.3351 43.8465 32.8215 43.1555 31.4878C43.1307 31.4318 43.1024 31.3785 43.0707 31.3279C41.4274 28.2972 38.2169 26.2344 34.5337 26.2344C30.8497 26.2344 27.6387 28.2978 25.9958 31.3299C25.9651 31.3793 25.9374 31.4314 25.9132 31.4858C25.2213 32.82 24.8303 34.3342 24.8303 35.938C24.8303 39.4992 26.7588 42.6186 29.6263 44.3066C26.0768 46.1416 23.8284 49.7839 23.8284 53.8149V58.4317C23.8284 58.8644 24.0495 59.2671 24.4145 59.4995L33.8541 65.509C34.0616 65.641 34.2977 65.7069 34.5339 65.7069C34.7687 65.7069 35.0035 65.6418 35.21 65.5112L44.672 59.5332C45.041 59.3002 45.2637 58.8935 45.2617 58.4571L45.2394 53.8089C45.2201 49.7684 42.974 46.1381 39.4396 44.3077ZM34.5337 28.766C36.737 28.766 38.7111 29.7644 40.0278 31.3328C38.3222 31.8215 36.4516 32.0764 34.5341 32.0764C32.6159 32.0764 30.7451 31.8215 29.0396 31.3328C30.3564 29.7644 32.3306 28.766 34.5337 28.766ZM27.3618 35.938C27.3618 35.1157 27.5009 34.325 27.7569 33.5888C29.8456 34.2578 32.1635 34.6081 34.5341 34.6081C36.904 34.6081 39.2215 34.2578 41.3106 33.5888C41.5666 34.325 41.7057 35.1157 41.7057 35.938C41.7057 39.8925 38.4885 43.1099 34.5337 43.1099C30.5792 43.1099 27.3618 39.8925 27.3618 35.938ZM36.7806 45.3791C36.6223 46.5765 35.572 47.386 34.6217 47.386H34.4676C33.4611 47.386 32.3434 46.5347 32.1986 45.3575C32.9467 45.543 33.729 45.6416 34.5336 45.6416C35.3067 45.6416 36.0592 45.5506 36.7806 45.3791ZM34.5364 62.9424L26.3599 57.7371V53.8151C26.3599 51.0317 27.7662 48.4903 30.0426 46.9925C30.8336 48.7974 32.6981 49.9176 34.4676 49.9176H34.6217C36.532 49.9176 38.2206 48.6744 38.95 46.9472C41.2593 48.4362 42.6941 50.9975 42.7076 53.8211L42.7266 57.7679L34.5364 62.9424ZM25.4442 28.9651C25.8132 28.3712 25.6309 27.5907 25.0373 27.2217C24.6518 26.9822 24.2521 26.7649 23.842 26.5716C25.4063 25.7719 26.7899 24.6265 27.8884 23.1937C28.3407 23.3507 28.8263 23.4361 29.3314 23.4361C31.7638 23.4361 33.7428 21.4572 33.7428 19.0248V15.8791C33.7428 11.8804 32.2152 8.09319 29.4417 5.21552C26.676 2.34623 22.9631 0.679469 18.9868 0.522191C18.9865 0.522191 18.986 0.522191 18.9857 0.522191C18.6402 0.5089 18.3185 0.505735 18.0022 0.513488C14.0437 0.609058 10.3097 2.21126 7.488 5.02486C4.59514 7.90933 3.00195 11.7642 3.00195 15.8792V19.0249C3.00195 21.4574 4.9809 23.4363 7.41348 23.4363C7.91854 23.4363 8.40398 23.351 8.85619 23.1941C10.0662 24.7722 11.6225 26.0018 13.385 26.8046C9.47913 28.8587 7.06332 32.835 7.06332 37.2381V47.5995C7.06332 48.0283 7.28041 48.4279 7.64022 48.6613L19.1235 56.1124C19.3364 56.2505 19.5751 56.3165 19.8113 56.3165C20.2257 56.3165 20.6321 56.113 20.8743 55.7396C21.2549 55.1531 21.0879 54.3692 20.5015 53.9888L9.59495 46.912V37.2381C9.59495 34.3093 10.9587 31.6203 13.2433 29.885C14.0269 32.1587 16.0389 33.8671 18.2636 33.8671H18.4525C20.8686 33.8671 22.7971 31.6801 23.4762 29.2367C23.5517 29.2807 23.6265 29.3258 23.7007 29.3719C24.2947 29.7412 25.0752 29.5587 25.4442 28.9651ZM10.5442 11.2786C9.72581 12.6685 9.29321 14.2593 9.29321 15.8792V19.0249C9.29321 19.6246 9.01094 20.1596 8.57217 20.504C8.53452 20.5286 8.4986 20.5548 8.46442 20.5827C8.16427 20.786 7.8024 20.9047 7.41332 20.9047C6.37678 20.9047 5.53358 20.0615 5.53358 19.0249V15.8791C5.53358 8.85173 11.0373 3.21411 18.0628 3.04417C18.3254 3.03768 18.5952 3.04053 18.8876 3.05177C25.7979 3.32566 31.211 8.95996 31.211 15.8791V19.0248C31.211 20.0613 30.3676 20.9045 29.3311 20.9045C28.942 20.9045 28.58 20.7857 28.2797 20.5824C28.2456 20.5547 28.2099 20.5286 28.1724 20.504C27.7336 20.1596 27.4512 19.6245 27.4512 19.0248V15.8791C27.4512 11.4111 24.1227 7.55 19.7088 6.89795C19.3618 6.84636 19.0091 6.94162 18.7349 7.16029C18.4607 7.37896 18.2894 7.70142 18.2618 8.0511C18.1924 8.93591 18.0319 9.80837 17.7837 10.655H11.6348C11.1866 10.655 10.7715 10.8922 10.5442 11.2786ZM18.4525 31.3355H18.2636C16.8326 31.3355 15.428 29.5983 15.428 27.8282C15.428 27.719 15.4139 27.6116 15.387 27.5086C16.3484 27.753 17.3495 27.8804 18.3724 27.8804C19.3408 27.8804 20.2898 27.7662 21.2039 27.5467C21.1178 29.3874 19.7248 31.3355 18.4525 31.3355ZM18.3724 25.3488C15.4221 25.3488 12.6992 24.0056 10.9103 21.7112C11.4834 20.9667 11.8247 20.0347 11.8247 19.0248V15.8791C11.8247 14.9466 12.0231 14.0281 12.4025 13.1867H18.6973C19.2272 13.1867 19.7009 12.8568 19.8846 12.3596C20.2011 11.5036 20.4398 10.6206 20.5987 9.72119C23.133 10.6437 24.9197 13.0982 24.9197 15.8791V19.0248C24.9197 20.0347 25.261 20.9667 25.8343 21.7112C24.0455 24.0058 21.3227 25.3488 18.3724 25.3488Z" fill="#ECEDED"/>
</g>
<defs>
<clipPath id="clip0_658:2314">
<rect width="65.1979" height="65.1979" fill="white" transform="translate(0.546143 0.509277)"/>
</clipPath>
</defs>
</svg>
