<svg width="103" height="104" viewBox="0 0 103 104" fill="none" xmlns="http://www.w3.org/2000/svg">
<g filter="url(#filter0_d_1700:4347)">
<circle cx="51.5" cy="48.0312" r="21.5" fill="#374483"/>
</g>
<g clip-path="url(#clip0_1700:4347)">
<path d="M50.9469 53.7034C50.247 53.7034 49.5699 53.5668 48.9326 53.2937C48.3181 53.032 47.7662 52.6564 47.2882 52.1842C46.816 51.7119 46.4405 51.1543 46.1787 50.5398C45.9056 49.9025 45.769 49.2254 45.769 48.5256C45.769 47.8257 45.9056 47.1486 46.1787 46.5114C46.4405 45.8969 46.8103 45.3449 47.2882 44.867C47.7662 44.3947 48.3181 44.0192 48.9326 43.7575C49.5699 43.4843 50.247 43.3478 50.9469 43.3478C51.6467 43.3478 52.3238 43.4843 52.9611 43.7575C53.5756 44.0192 54.1275 44.389 54.6055 44.867C55.0777 45.3392 55.4533 45.8969 55.715 46.5114C55.9881 47.1486 56.1247 47.8257 56.1247 48.5256C56.1247 49.2254 55.9881 49.8968 55.715 50.5398C55.4533 51.1543 55.0834 51.7062 54.6055 52.1842C54.1275 52.6564 53.5756 53.032 52.9611 53.2937C52.3238 53.5668 51.6467 53.7034 50.9469 53.7034ZM50.9469 44.8215C50.4461 44.8215 49.9625 44.9182 49.5073 45.1116C49.0635 45.2994 48.6709 45.5668 48.3238 45.9082C47.9824 46.2496 47.715 46.6479 47.5272 47.086C47.3338 47.5412 47.237 48.0306 47.237 48.5256C47.237 49.0263 47.3338 49.5099 47.5272 49.9651C47.715 50.4089 47.9824 50.8072 48.3238 51.1429C48.6652 51.4843 49.0635 51.7518 49.5016 51.9395C50.4177 52.3264 51.4703 52.3264 52.3864 51.9395C52.8302 51.7518 53.2228 51.4843 53.5642 51.1429C53.9056 50.8015 54.173 50.4032 54.3608 49.9651C54.5542 49.5099 54.651 49.0206 54.651 48.5256C54.651 48.0249 54.5542 47.5412 54.3608 47.086C54.173 46.6422 53.9056 46.2439 53.5642 45.9082C53.2228 45.5668 52.8245 45.2994 52.3864 45.1116C51.9312 44.9182 51.4476 44.8215 50.9469 44.8215Z" fill="white"/>
<path d="M60.6596 52.6338C60.1304 53.8912 59.368 55.0178 58.4007 55.9851C57.4334 56.9524 56.3068 57.7149 55.0493 58.244C53.752 58.7959 52.3694 59.069 50.9469 59.069C49.5244 59.069 48.1418 58.7902 46.8445 58.244C45.8146 57.8059 44.8758 57.2141 44.0337 56.4858L46.4576 54.0619C46.2641 53.9083 46.0821 53.7433 45.9057 53.5669C45.2513 52.9126 44.7336 52.1501 44.3751 51.3023C44.0052 50.4261 43.8175 49.4929 43.8175 48.5313C43.8175 47.5698 44.0052 46.6366 44.3751 45.7604C44.7336 44.9126 45.2513 44.1501 45.9057 43.4958C46.56 42.8414 47.3225 42.3237 48.1703 41.9652C48.358 41.8855 48.5458 41.8173 48.7392 41.7547V40.2355C48.3523 40.3379 47.9711 40.4631 47.6013 40.6224C46.5771 41.0548 45.661 41.675 44.8701 42.4659C44.0792 43.2568 43.4647 44.1729 43.0266 45.1971C42.5885 46.2497 42.3609 47.3763 42.3609 48.5313C42.3609 49.6864 42.5885 50.813 43.038 51.8713C43.3737 52.6736 43.8289 53.4076 44.3865 54.0619L41.9683 56.4858C42.1276 56.6679 42.2926 56.8443 42.4633 57.015C43.5671 58.1188 44.8474 58.9837 46.2755 59.5868C47.7549 60.2127 49.3253 60.5314 50.9469 60.5314C52.5685 60.5314 54.139 60.2127 55.6183 59.5868C57.0465 58.9837 58.3324 58.1188 59.4306 57.015C60.5344 55.9112 61.3993 54.6309 62.0024 53.2028C62.3438 52.4005 62.5885 51.5698 62.7421 50.7163H61.2513C61.1205 51.3706 60.9213 52.0136 60.6596 52.6338Z" fill="white"/>
<path d="M41.2398 52.6337C40.6879 51.3364 40.4148 49.9538 40.4148 48.5313C40.4148 47.1088 40.6936 45.7262 41.2398 44.4289C41.769 43.1771 42.5257 42.0505 43.4987 41.0832C44.466 40.1159 45.5926 39.3535 46.85 38.8243C47.9198 38.3691 49.052 38.1074 50.2128 38.0277V41.4531C50.4574 41.4303 50.7021 41.4132 50.9525 41.4132C51.9141 41.4132 52.8472 41.601 53.7235 41.9708C54.5712 42.3293 55.3337 42.8471 55.988 43.5014C56.6424 44.1558 57.1601 44.9182 57.5186 45.766C57.5983 45.9538 57.6666 46.1415 57.7291 46.335H59.254C59.1516 45.9481 59.0264 45.5669 58.8671 45.197C58.4347 44.1728 57.8145 43.2568 57.0236 42.4659C56.2327 41.675 55.3166 41.0548 54.2924 40.6223C53.456 40.2696 52.5798 40.0533 51.6808 39.9794V36.5597C51.4418 36.5484 51.1971 36.537 50.9582 36.537C49.3365 36.537 47.7661 36.8556 46.2867 37.4815C44.8586 38.0846 43.5727 38.9495 42.4745 40.0533C41.3707 41.1572 40.5058 42.4374 39.9027 43.8656C39.2654 45.3393 38.9468 46.9097 38.9468 48.5313C38.9468 50.1529 39.2654 51.7233 39.8913 53.2027C40.2099 53.9538 40.6025 54.665 41.0577 55.3307L42.1104 54.2781C41.7747 53.7546 41.4788 53.2084 41.2398 52.6337Z" fill="white"/>
<path d="M62.0024 43.8598C61.3993 42.4317 60.5344 41.1458 59.4305 40.0476C58.3267 38.9438 57.0465 38.0789 55.6183 37.4758C54.816 37.1344 53.9853 36.8897 53.1318 36.7361V38.2268C53.7862 38.3634 54.4234 38.5625 55.0436 38.8243C56.3011 39.3534 57.4277 40.1159 58.395 41.0832C59.3623 42.0505 60.1247 43.1771 60.6539 44.4345C61.1091 45.5099 61.3765 46.6365 61.4562 47.7973L58.0308 47.7916C58.0536 48.0362 58.0707 48.2809 58.0707 48.5312C58.0707 49.4928 57.8829 50.4203 57.5131 51.3022C57.1546 52.15 56.6368 52.9125 55.9825 53.5668C55.3281 54.2212 54.5657 54.7389 53.7179 55.0974C52.8416 55.4672 51.9085 55.655 50.9469 55.655C49.9853 55.655 49.0579 55.4672 48.1759 55.0974C48.0166 55.0291 47.863 54.9551 47.715 54.8812L46.6396 55.9566C46.9526 56.1386 47.2712 56.3037 47.6069 56.4459C48.6653 56.8954 49.7919 57.123 50.9469 57.123C52.102 57.123 53.2286 56.8954 54.2869 56.4459C55.3111 56.0135 56.2271 55.3933 57.018 54.6024C57.8089 53.8115 58.4234 52.8954 58.8616 51.8712C59.2143 51.0348 59.4305 50.1586 59.5045 49.2596H62.9241C62.9355 49.0206 62.9469 48.7759 62.9469 48.5369C62.9469 46.9096 62.6283 45.3392 62.0024 43.8598Z" fill="white"/>
</g>
<defs>
<filter id="filter0_d_1700:4347" x="0" y="0.53125" width="103" height="103" filterUnits="userSpaceOnUse" color-interpolation-filters="sRGB">
<feFlood flood-opacity="0" result="BackgroundImageFix"/>
<feColorMatrix in="SourceAlpha" type="matrix" values="0 0 0 0 0 0 0 0 0 0 0 0 0 0 0 0 0 0 127 0" result="hardAlpha"/>
<feOffset dy="4"/>
<feGaussianBlur stdDeviation="15"/>
<feColorMatrix type="matrix" values="0 0 0 0 0 0 0 0 0 0 0 0 0 0 0 0 0 0 0.1 0"/>
<feBlend mode="normal" in2="BackgroundImageFix" result="effect1_dropShadow_1700:4347"/>
<feBlend mode="normal" in="SourceGraphic" in2="effect1_dropShadow_1700:4347" result="shape"/>
</filter>
<clipPath id="clip0_1700:4347">
<rect width="24" height="24" fill="white" transform="translate(39 36.5312)"/>
</clipPath>
</defs>
</svg>
