<svg width="16" height="15" viewBox="0 0 16 15" fill="none" xmlns="http://www.w3.org/2000/svg">
<path d="M15.667 11.221L10.0174 1.75845C9.59033 1.03945 8.83601 0.610046 7.9997 0.610046C7.16339 0.610046 6.40907 1.03945 5.98198 1.75845L0.332949 11.221C-0.103301 11.9552 -0.111551 12.8369 0.31048 13.5792C0.73348 14.3221 1.49554 14.7652 2.35017 14.7652H13.6492C14.5039 14.7652 15.266 14.3221 15.6889 13.5792C16.111 12.8369 16.1028 11.9552 15.667 11.221ZM7.99973 3.50308C8.51807 3.50308 8.93823 3.92323 8.93823 4.44158V8.19564C8.93823 8.71392 8.51807 9.13414 7.99973 9.13414C7.48139 9.13414 7.06123 8.71389 7.06123 8.19564V4.44158C7.0612 3.92323 7.48139 3.50308 7.99973 3.50308ZM7.99973 12.8882C7.22345 12.8882 6.59195 12.2567 6.59195 11.4804C6.59195 10.7041 7.22345 10.0726 7.99973 10.0726C8.77601 10.0726 9.40751 10.7041 9.40751 11.4804C9.40748 12.2567 8.77601 12.8882 7.99973 12.8882Z"/>
<defs>
</defs>
</svg>
