<svg width="20" height="20" viewBox="0 0 20 20" fill="none" xmlns="http://www.w3.org/2000/svg">
<g clip-path="url(#clip0_745:1885)">
<path d="M0.43494 14.895C0.843273 16.3434 2.09244 16.6084 2.17577 16.6592C4.23161 17.2192 15.7549 17.2209 17.8416 16.6592C19.2708 16.2459 19.5333 14.9784 19.5824 14.895C20.1266 12 20.1624 8.22587 19.5574 4.94087L19.5824 5.10421C19.1741 3.65587 17.9249 3.39087 17.8416 3.34004C15.8133 2.78921 4.25994 2.76837 2.17577 3.34004C0.746606 3.75421 0.484107 5.02087 0.43494 5.10421C-0.14756 8.14671 -0.176727 11.6375 0.43494 14.895ZM8.00661 13.0425V6.96504L13.2283 10.0084L8.00661 13.0425Z" fill="#BEBEBE"/>
</g>
<defs>
<clipPath id="clip0_745:1885">
<rect width="20" height="20" fill="white"/>
</clipPath>
</defs>
</svg>
