<?xml version="1.0" encoding="utf-8"?><svg xmlns="http://www.w3.org/2000/svg" xmlns:xlink="http://www.w3.org/1999/xlink"><symbol viewBox="0 0 12.65 9.7" id="arrow-left-promote" xmlns="http://www.w3.org/2000/svg"><path d="M.54 4.451a.65.65 0 000 .92l4.137 4.136a.65.65 0 10.92-.92L1.918 4.912l3.677-3.677a.65.65 0 00-.919-.92L.54 4.451zM13 4.261H1v1.3h12v-1.3z"/></symbol><symbol viewBox="0 0 12.65 9.7" id="arrow-right-promote" xmlns="http://www.w3.org/2000/svg"><path d="M12.46 4.451a.65.65 0 010 .92L8.323 9.506a.65.65 0 11-.92-.92l3.678-3.676-3.677-3.677a.65.65 0 01.919-.92L12.46 4.45zM0 4.261h12v1.3H0v-1.3z"/></symbol><symbol viewBox="0 0 3.33 4.27" id="arrow-up" xmlns="http://www.w3.org/2000/svg"><path d="M2.116.323a.224.224 0 00-.316 0L.376 1.746a.224.224 0 10.317.317L1.958.797l1.266 1.266a.224.224 0 00.316-.317L2.116.323zm.066 4.185V.48h-.448v4.027h.448z"/></symbol><symbol viewBox="0 0 16 17" id="cal" xmlns="http://www.w3.org/2000/svg"><path d="M13.75 3.59h-2.625v-1A.125.125 0 0011 2.465h-.875A.125.125 0 0010 2.59v1H6v-1a.125.125 0 00-.125-.125H5a.125.125 0 00-.125.125v1H2.25a.5.5 0 00-.5.5v10.375a.5.5 0 00.5.5h11.5a.5.5 0 00.5-.5V4.09a.5.5 0 00-.5-.5zm-2.898 3.886L7.53 12.049a.253.253 0 01-.317.076.253.253 0 01-.09-.076L5.148 9.331a.125.125 0 01.102-.199h.862c.08 0 .157.04.204.103l1.01 1.39L9.685 7.38a.252.252 0 01.204-.103h.862c.102.001.16.117.102.2z"/></symbol><symbol viewBox="0 0 48.9 57.05" id="check" xmlns="http://www.w3.org/2000/svg"><path d="M32.599 4.186l-24.45 8.15v24.449c0 13.504 10.946 24.449 24.45 24.449s24.45-10.945 24.45-24.45V12.337l-24.45-8.15zm19.865 32.599c0 10.97-8.895 19.865-19.865 19.865-10.97 0-19.865-8.895-19.865-19.865V15.774L32.599 8.77l19.865 7.004v21.01z"/><path d="M24.093 30.36a2.286 2.286 0 00-3.241 0 2.289 2.289 0 000 3.241l8.239 8.239.133.134a2.164 2.164 0 003.063 0l14.23-14.23a2.163 2.163 0 000-3.063l-.178-.178a2.163 2.163 0 00-3.063 0L30.752 37.02l-6.66-6.66z"/></symbol><symbol viewBox="0 0 16 16" id="clock" xmlns="http://www.w3.org/2000/svg"><path d="M8.295 1.191a6.656 6.656 0 100 13.313 6.656 6.656 0 000-13.313zm0 12.183a5.528 5.528 0 010-11.054 5.528 5.528 0 010 11.054z"/><path d="M10.89 9.728L8.771 8.196V4.52a.12.12 0 00-.118-.119h-.715a.12.12 0 00-.119.12v4.09c0 .04.018.075.05.097l2.457 1.792a.12.12 0 00.166-.025l.425-.58a.119.119 0 00-.027-.166z"/></symbol><symbol viewBox="0 0 57.74 54.71" id="home" xmlns="http://www.w3.org/2000/svg"><path d="M60.71 32.31L36.11 7.721l-1.65-1.649a2.005 2.005 0 00-2.826 0L5.382 32.31a4.069 4.069 0 00-1.197 2.93c.025 2.24 1.89 4.03 4.132 4.03h2.706v20.737H55.07V39.269h2.763a4.056 4.056 0 002.884-1.197 4.048 4.048 0 001.19-2.884 4.052 4.052 0 00-1.196-2.878zM36.613 55.422H29.48V42.434h7.13v12.989zm13.873-20.737v20.737h-9.798V40.907a2.546 2.546 0 00-2.547-2.547H27.953a2.546 2.546 0 00-2.547 2.547v14.517h-9.799v-20.74H9.495l23.558-23.539 1.47 1.471 22.081 22.068h-6.118z"/></symbol><symbol viewBox="0 0 66.29 63.32" id="leaves" xmlns="http://www.w3.org/2000/svg"><g clip-path="url(#hclip0_658:2307)"><path d="M13.598 17.715c2.841.398 5.446 1.574 7.53 3.402a20.85 20.85 0 0013.693 5.14 20.792 20.792 0 0016.39-8.002 26.06 26.06 0 013.445 3.773 1.272 1.272 0 001.782.258c.564-.42.68-1.218.259-1.782a28.657 28.657 0 00-4.603-4.85 20.874 20.874 0 00-3.045-5.79A20.505 20.505 0 0038.202 2.35a21.028 21.028 0 00-12.962.442 1.273 1.273 0 10.875 2.392 18.462 18.462 0 0111.38-.387 17.978 17.978 0 019.511 6.587c.335.45.645.913.935 1.386A28.101 28.101 0 0035 9.076l-2.896-2.554a1.273 1.273 0 10-1.684 1.91l.838.739c-1.934.176-3.84.548-5.692 1.113a1.273 1.273 0 10.742 2.436 25.932 25.932 0 017.567-1.122c2.24 0 4.423.28 6.537.829l-3.061 2.51a1.273 1.273 0 001.614 1.97l4.324-3.546c.81.317 1.61.675 2.394 1.077a25.847 25.847 0 013.556 2.21 18.273 18.273 0 01-15.18 7.047 18.294 18.294 0 01-11.25-4.493 16.82 16.82 0 00-7.333-3.728 18.108 18.108 0 012.171-3.922 1.273 1.273 0 10-2.058-1.5 20.722 20.722 0 00-3.028 6.021 1.273 1.273 0 001.038 1.642zM25.779 53.44a20.85 20.85 0 00-1.976-13.665A20.823 20.823 0 008.26 28.817c.355-1.668.87-3.302 1.543-4.868a1.273 1.273 0 00-2.34-1.005 28.665 28.665 0 00-1.898 6.412 20.876 20.876 0 00-3.493 5.532C-.12 39.97-.192 45.613 1.87 50.777a20.729 20.729 0 0011.187 11.452 20.535 20.535 0 008.083 1.66 20.87 20.87 0 004.555-.506 1.273 1.273 0 00.902-1.72c-1.075-2.66-1.359-5.503-.818-8.223zm-11.722 6.447a18.2 18.2 0 01-9.822-10.055c-1.81-4.53-1.747-9.48.176-13.935a18.75 18.75 0 01.732-1.503 28.1 28.1 0 003.272 13.055l-.763 3.785a1.273 1.273 0 102.496.504l.22-1.095a28.352 28.352 0 003.811 4.372 1.27 1.27 0 001.8-.061c.48-.514.452-1.32-.062-1.8a25.94 25.94 0 01-4.755-5.992 25.903 25.903 0 01-2.55-6.075l3.705 1.395a1.27 1.27 0 001.64-.742 1.273 1.273 0 00-.743-1.64l-5.232-1.972a26.22 26.22 0 01-.264-2.612 25.853 25.853 0 01.135-4.184 18.271 18.271 0 0113.693 9.622 18.294 18.294 0 011.735 11.99 16.818 16.818 0 00.438 8.214 18.01 18.01 0 01-9.662-1.27zm51.362-20.013a20.568 20.568 0 00-5.32-11.52 1.276 1.276 0 00-1.94.077c-1.766 2.262-4.087 3.929-6.712 4.82A20.849 20.849 0 0040.6 41.796a20.824 20.824 0 00-1.719 18.94 26.043 26.043 0 01-4.987 1.097 1.273 1.273 0 00.3 2.53 28.656 28.656 0 006.504-1.563 20.69 20.69 0 004.066.404c.82 0 1.644-.048 2.469-.145 5.498-.642 10.42-3.401 13.86-7.77a20.729 20.729 0 004.326-15.414zm-6.325 13.84c-3.02 3.831-7.336 6.252-12.157 6.815-.557.065-1.113.102-1.667.117a28.098 28.098 0 009.67-9.361l3.66-1.232a1.273 1.273 0 00-.813-2.413l-1.058.356a28.352 28.352 0 001.882-5.486 1.273 1.273 0 10-2.481-.575 25.934 25.934 0 01-2.812 7.114 25.905 25.905 0 01-3.986 5.247l-.644-3.907a1.273 1.273 0 10-2.513.414l.91 5.517c-.68.544-1.39 1.057-2.13 1.535a25.84 25.84 0 01-3.692 1.975 18.272 18.272 0 011.486-16.67 18.295 18.295 0 019.517-7.497 16.818 16.818 0 006.895-4.486 18.003 18.003 0 013.73 9.003 18.2 18.2 0 01-3.797 13.533z"/><path d="M20.641 7.997a1.273 1.273 0 100-2.546 1.273 1.273 0 000 2.546z"/></g><defs><clipPath id="hclip0_658:2307"><path transform="translate(.375 .354)" d="M0 0h65.198v65.198H0z"/></clipPath></defs></symbol><symbol viewBox="0 0 60.32 65.42" id="peoples" xmlns="http://www.w3.org/2000/svg"><g clip-path="url(#iclip0_658:2314)"><path d="M63.267 11.227a13.038 13.038 0 00-3.132-6.374l-.009-.01c-.828-.936-2.2-2.221-4.034-3.036l-.042-.018a12.952 12.952 0 00-5.646-1.28 12.95 12.95 0 00-7.994 2.729l-.016.012c-1.983 1.548-3.292 3.762-3.454 4.044a13.097 13.097 0 00-1.541 7.656c.044.421.296.793.672.99.238.124.487.228.742.31a11.982 11.982 0 006.072 7.014 11.818 11.818 0 00-3.243 2.44 1.266 1.266 0 001.844 1.734 9.35 9.35 0 011.483-1.28c.766 2.171 2.74 3.762 4.987 3.762h.189c2.25 0 4.223-1.705 4.944-4.011 2.673 1.675 4.383 4.66 4.383 7.854v13.149l-11.513 7.47a1.266 1.266 0 101.378 2.124l12.09-7.845c.36-.233.577-.633.577-1.062V33.763c0-4.483-2.502-8.5-6.458-10.505 3.746-1.87 6.394-5.643 6.654-10.037.357-.324.668-.704.916-1.132.152-.26.205-.566.15-.862zM50.145 27.388h-.189c-1.515 0-2.795-1.468-2.795-3.206l-.001-.065a12.025 12.025 0 005.683.104c-.1 1.712-1.317 3.167-2.698 3.167zm.075-5.408a9.466 9.466 0 01-8.683-5.682 4.74 4.74 0 003.385-3.825c.756.097 1.52.146 2.289.146 2.574 0 5.055-.54 7.276-1.573a4.735 4.735 0 005.006 3.383c-.893 4.3-4.723 7.551-9.273 7.551zm8.806-10.059a2.197 2.197 0 01-2.195-2.194v-.705a1.266 1.266 0 00-1.939-1.072c-2.227 1.399-4.883 2.138-7.681 2.138-1.095 0-2.182-.116-3.231-.343a1.266 1.266 0 00-1.534 1.237v.768a2.197 2.197 0 01-2.582 2.16 10.558 10.558 0 011.27-5.354l.01-.016c.01-.02 1.154-2.002 2.806-3.293l.009-.007a10.441 10.441 0 016.445-2.2c1.594 0 3.125.348 4.551 1.031.025.012.061.029.11.05 1.407.625 2.488 1.637 3.15 2.382l.023.026a10.518 10.518 0 012.433 4.645 2.201 2.201 0 01-1.645.747zM39.44 44.308a9.71 9.71 0 004.797-8.37c0-1.603-.39-3.117-1.081-4.45a1.267 1.267 0 00-.085-.16c-1.644-3.03-4.854-5.094-8.537-5.094-3.684 0-6.895 2.064-8.538 5.096a9.644 9.644 0 00-1.165 4.608 9.709 9.709 0 004.795 8.369 10.687 10.687 0 00-5.798 9.508v4.617c0 .432.221.835.587 1.067l9.44 6.01a1.265 1.265 0 001.355.002l9.462-5.978c.369-.233.592-.64.59-1.076l-.023-4.648a10.727 10.727 0 00-5.8-9.501zm-4.906-15.542a7.16 7.16 0 015.494 2.567c-1.706.489-3.576.743-5.494.743-1.918 0-3.789-.255-5.494-.743a7.16 7.16 0 015.494-2.567zm-7.172 7.172c0-.822.139-1.613.395-2.35 2.089.67 4.406 1.02 6.777 1.02 2.37 0 4.688-.35 6.777-1.02a7.14 7.14 0 01.395 2.35c0 3.954-3.218 7.172-7.172 7.172-3.955 0-7.172-3.218-7.172-7.172zm9.419 9.441c-.159 1.198-1.209 2.007-2.16 2.007h-.153c-1.007 0-2.125-.851-2.27-2.029a9.706 9.706 0 004.582.022zm-2.245 17.563l-8.176-5.205v-3.922a8.156 8.156 0 013.683-6.822c.79 1.804 2.655 2.925 4.425 2.925h.154c1.91 0 3.599-1.244 4.328-2.97a8.204 8.204 0 013.758 6.873l.019 3.947-8.19 5.174zm-9.092-33.977a1.266 1.266 0 00-.407-1.743 11.8 11.8 0 00-1.195-.65 11.952 11.952 0 004.046-3.378 4.416 4.416 0 005.854-4.169v-3.146a15.29 15.29 0 00-4.3-10.663A15.297 15.297 0 0018.987.522h-.001A15.363 15.363 0 007.488 5.025c-2.893 2.884-4.486 6.74-4.486 10.854v3.146a4.416 4.416 0 005.854 4.17 11.94 11.94 0 004.529 3.61c-3.906 2.054-6.322 6.03-6.322 10.433V47.6c0 .43.217.829.577 1.062l11.484 7.451a1.265 1.265 0 101.378-2.124L9.595 46.913v-9.674a9.198 9.198 0 013.648-7.353c.784 2.274 2.796 3.982 5.02 3.982h.19c2.416 0 4.344-2.187 5.023-4.63.076.044.15.089.225.135.594.37 1.374.187 1.743-.407zm-14.9-17.686a9.073 9.073 0 00-1.25 4.6v3.146c0 .6-.283 1.135-.722 1.479a1.26 1.26 0 00-.108.079 1.87 1.87 0 01-1.05.322 1.882 1.882 0 01-1.88-1.88v-3.146c0-7.027 5.503-12.665 12.529-12.835.262-.006.532-.003.825.008A12.799 12.799 0 0131.21 15.879v3.146a1.882 1.882 0 01-2.931 1.557 1.306 1.306 0 00-.108-.078 1.877 1.877 0 01-.72-1.48V15.88c0-4.468-3.33-8.329-7.743-8.981a1.264 1.264 0 00-1.447 1.153c-.07.885-.23 1.757-.478 2.604h-6.15c-.447 0-.863.237-1.09.624zm7.909 20.056h-.19c-1.43 0-2.835-1.737-2.835-3.507a1.27 1.27 0 00-.041-.32 12.145 12.145 0 005.817.039c-.086 1.84-1.48 3.788-2.752 3.788zm-.08-5.986a9.416 9.416 0 01-7.463-3.638 4.39 4.39 0 00.915-2.686v-3.146c0-.932.198-1.85.578-2.692h6.294c.53 0 1.004-.33 1.188-.827.316-.856.555-1.74.714-2.639 2.534.923 4.32 3.377 4.32 6.158v3.146c0 1.01.342 1.942.915 2.686a9.415 9.415 0 01-7.462 3.638z"/></g><defs><clipPath id="iclip0_658:2314"><path transform="translate(.546 .51)" d="M0 0h65.198v65.198H0z"/></clipPath></defs></symbol><symbol viewBox="0 0 25.33 29.25" id="play" xmlns="http://www.w3.org/2000/svg"><path d="M24 13.268c1.333.77 1.333 2.694 0 3.464L3 28.856c-1.333.77-3-.192-3-1.732V2.876C0 1.336 1.667.374 3 1.144l21 12.124z"/></symbol><symbol viewBox="0 0 20 20" id="plus" xmlns="http://www.w3.org/2000/svg"><path d="M10.142 10h-10m10 10V10v10zm0-10V0v10zm0 0h10-10z"/></symbol><symbol viewBox="0 0 43 43" id="touch" xmlns="http://www.w3.org/2000/svg"><g filter="url(#lfilter0_d_1700:4347)"><circle cx="51.5" cy="48.031" r="21.5"/></g><g clip-path="url(#lclip0_1700:4347)"><path d="M50.947 53.703a5.08 5.08 0 01-2.014-.41 5.213 5.213 0 01-2.754-2.754 5.08 5.08 0 01-.41-2.013 5.18 5.18 0 011.52-3.659 5.274 5.274 0 011.644-1.11 5.08 5.08 0 012.014-.41 5.179 5.179 0 013.659 1.52 5.21 5.21 0 011.109 1.644 5.08 5.08 0 01.41 2.015 5.18 5.18 0 01-1.52 3.659 5.276 5.276 0 01-1.644 1.109 5.08 5.08 0 01-2.014.41zm0-8.882c-.5 0-.985.097-1.44.29a3.749 3.749 0 00-1.98 1.974c-.193.456-.29.946-.29 1.44a3.664 3.664 0 001.087 2.618c.341.341.74.609 1.178.797a3.73 3.73 0 002.884 0 3.749 3.749 0 001.974-1.974c.194-.456.291-.945.291-1.44 0-.501-.097-.985-.29-1.44a3.749 3.749 0 00-1.974-1.974 3.657 3.657 0 00-1.44-.29z"/><path d="M60.66 52.634a10.46 10.46 0 01-2.26 3.351 10.459 10.459 0 01-3.35 2.259c-1.298.552-2.68.825-4.103.825-1.423 0-2.805-.279-4.103-.825a10.666 10.666 0 01-2.81-1.758l2.424-2.424a7.111 7.111 0 01-2.082-2.76 7.089 7.089 0 01-.558-2.77c0-.962.187-1.895.557-2.772a7.111 7.111 0 011.53-2.264 7.111 7.111 0 012.834-1.741v-1.52a8.543 8.543 0 00-3.87 2.23 8.637 8.637 0 00-1.842 2.732 8.654 8.654 0 00-.666 3.334c0 1.155.228 2.282.677 3.34.336.803.79 1.537 1.349 2.19l-2.419 2.425a11.93 11.93 0 004.307 3.101c1.48.626 3.05.944 4.672.944a11.92 11.92 0 004.671-.944 11.868 11.868 0 003.813-2.572 11.93 11.93 0 002.571-3.812c.342-.803.587-1.633.74-2.487h-1.49a9.958 9.958 0 01-.592 1.918z"/><path d="M41.24 52.634a10.423 10.423 0 01-.825-4.103c0-1.422.279-2.805.825-4.102a10.406 10.406 0 012.259-3.346 10.46 10.46 0 016.714-3.055v3.425a7.091 7.091 0 013.51.518c.848.358 1.61.876 2.265 1.53a7.112 7.112 0 011.741 2.834h1.525a8.543 8.543 0 00-2.23-3.87 8.545 8.545 0 00-5.343-2.486v-3.42a11.92 11.92 0 00-5.394.922 11.87 11.87 0 00-3.813 2.572 11.93 11.93 0 00-2.571 3.813 11.683 11.683 0 00-.956 4.665 11.921 11.921 0 002.111 6.8l1.052-1.053a10.567 10.567 0 01-.87-1.644z"/><path d="M62.002 43.86a11.868 11.868 0 00-2.572-3.812 11.93 11.93 0 00-3.812-2.572 11.564 11.564 0 00-2.486-.74v1.49a10.459 10.459 0 015.263 2.856 10.46 10.46 0 012.259 3.352c.455 1.076.722 2.203.802 3.363l-3.425-.005a7.111 7.111 0 01-.518 3.51 7.113 7.113 0 01-1.53 2.265 7.112 7.112 0 01-2.265 1.53c-.876.37-1.81.558-2.771.558a7.112 7.112 0 01-3.232-.774l-1.075 1.076c.313.182.631.347.967.489a8.507 8.507 0 003.34.677 8.506 8.506 0 003.34-.677 8.543 8.543 0 002.731-1.844 8.639 8.639 0 001.844-2.73 8.497 8.497 0 00.642-2.612h3.42c.011-.24.023-.484.023-.723 0-1.627-.319-3.198-.945-4.677z"/></g><defs><clipPath id="lclip0_1700:4347"><path transform="translate(39 36.531)" d="M0 0h24v24H0z"/></clipPath><filter id="lfilter0_d_1700:4347" x="0" y=".531" height="103" filterUnits="userSpaceOnUse" color-interpolation-filters="sRGB"><feFlood flood-opacity="0" result="BackgroundImageFix"/><feColorMatrix in="SourceAlpha" values="0 0 0 0 0 0 0 0 0 0 0 0 0 0 0 0 0 0 127 0" result="hardAlpha"/><feOffset dy="4"/><feGaussianBlur stdDeviation="15"/><feColorMatrix values="0 0 0 0 0 0 0 0 0 0 0 0 0 0 0 0 0 0 0.1 0"/><feBlend in2="BackgroundImageFix" result="effect1_dropShadow_1700:4347"/><feBlend in="SourceGraphic" in2="effect1_dropShadow_1700:4347" result="shape"/></filter></defs></symbol><symbol viewBox="0 0 16.22 14.16" id="warning" xmlns="http://www.w3.org/2000/svg"><path d="M15.667 11.221l-5.65-9.463A2.327 2.327 0 008 .61c-.837 0-1.59.43-2.018 1.148l-5.65 9.463a2.32 2.32 0 00-.022 2.358 2.32 2.32 0 002.04 1.186h11.3a2.32 2.32 0 002.039-1.186 2.322 2.322 0 00-.022-2.358zM8 3.503c.518 0 .938.42.938.939v3.754a.939.939 0 01-1.877 0V4.442c0-.519.42-.939.939-.939zm0 9.385a1.41 1.41 0 01-1.408-1.408A1.41 1.41 0 018 10.073a1.41 1.41 0 011.408 1.407A1.41 1.41 0 018 12.888z"/></symbol></svg>