<?xml version="1.0" encoding="utf-8"?><svg xmlns="http://www.w3.org/2000/svg" xmlns:xlink="http://www.w3.org/1999/xlink"><symbol viewBox="0 0 3.33 4.27" id="arrow-up" xmlns="http://www.w3.org/2000/svg"><path d="M2.116.323a.224.224 0 00-.316 0L.376 1.746a.224.224 0 10.317.317L1.958.797l1.266 1.266a.224.224 0 00.316-.317L2.116.323zm.066 4.185V.48h-.448v4.027h.448z"/></symbol><symbol viewBox="0 0 16 17" id="cal" xmlns="http://www.w3.org/2000/svg"><path d="M13.75 3.59h-2.625v-1A.125.125 0 0011 2.465h-.875A.125.125 0 0010 2.59v1H6v-1a.125.125 0 00-.125-.125H5a.125.125 0 00-.125.125v1H2.25a.5.5 0 00-.5.5v10.375a.5.5 0 00.5.5h11.5a.5.5 0 00.5-.5V4.09a.5.5 0 00-.5-.5zm-2.898 3.886L7.53 12.049a.253.253 0 01-.317.076.253.253 0 01-.09-.076L5.148 9.331a.125.125 0 01.102-.199h.862c.08 0 .157.04.204.103l1.01 1.39L9.685 7.38a.252.252 0 01.204-.103h.862c.102.001.16.117.102.2z"/></symbol><symbol viewBox="0 0 48.9 57.05" id="check" xmlns="http://www.w3.org/2000/svg"><path d="M32.599 4.186l-24.45 8.15v24.449c0 13.504 10.946 24.449 24.45 24.449s24.45-10.945 24.45-24.45V12.337l-24.45-8.15zm19.865 32.599c0 10.97-8.895 19.865-19.865 19.865-10.97 0-19.865-8.895-19.865-19.865V15.774L32.599 8.77l19.865 7.004v21.01z"/><path d="M24.093 30.36a2.288 2.288 0 00-3.74.743 2.288 2.288 0 00.5 2.498l8.238 8.239.134.134a2.162 2.162 0 003.062 0l14.23-14.23a2.163 2.163 0 000-3.063l-.178-.178a2.165 2.165 0 00-3.062 0L30.753 37.02l-6.66-6.66z"/></symbol><symbol viewBox="0 0 16 16" id="clock" xmlns="http://www.w3.org/2000/svg"><path d="M8.295 1.191a6.656 6.656 0 100 13.313 6.656 6.656 0 000-13.313zm0 12.183a5.528 5.528 0 010-11.054 5.528 5.528 0 010 11.054z"/><path d="M10.89 9.728L8.771 8.196V4.52a.12.12 0 00-.118-.119h-.715a.12.12 0 00-.119.12v4.09c0 .04.018.075.05.097l2.457 1.792a.12.12 0 00.166-.025l.425-.58a.119.119 0 00-.027-.166z"/></symbol><symbol viewBox="0 0 10.81 20.01" id="facebook" xmlns="http://www.w3.org/2000/svg"><path d="M7.61 11.291H5.124c-.391 0-.53-.14-.53-.534-.001-1.01-.002-2.022 0-3.032 0-.389.147-.537.533-.537h2.481V4.986c0-.993.178-1.944.683-2.815C8.809 1.28 9.56.67 10.524.317A5.52 5.52 0 0112.437 0c.82 0 1.64 0 2.459.002.352 0 .508.156.51.51v2.853c-.001.358-.151.502-.511.506-.672.008-1.344.003-2.015.03-.678 0-1.035.331-1.035 1.033-.016.742-.006 1.484-.006 2.253h2.893c.41 0 .55.141.55.553l-.001 3.016c0 .405-.132.535-.544.535h-2.906v8.136c0 .434-.137.572-.565.572h-3.13c-.379 0-.526-.147-.526-.525v-8.183z"/></symbol><symbol viewBox="0 0 57.74 54.71" id="home" xmlns="http://www.w3.org/2000/svg"><path d="M60.71 32.31L36.11 7.721l-1.65-1.649a2.005 2.005 0 00-2.826 0L5.382 32.31a4.069 4.069 0 00-1.197 2.93c.025 2.24 1.89 4.03 4.132 4.03h2.706v20.737H55.07V39.269h2.763a4.056 4.056 0 002.884-1.197 4.048 4.048 0 001.19-2.884 4.052 4.052 0 00-1.196-2.878zM36.613 55.422H29.48V42.434h7.13v12.989zm13.873-20.737v20.737h-9.798V40.907a2.546 2.546 0 00-2.547-2.547H27.953a2.546 2.546 0 00-2.547 2.547v14.517h-9.799v-20.74H9.495l23.558-23.539 1.47 1.471 22.081 22.068h-6.118z"/></symbol><symbol viewBox="0 0 20 20" id="instagram" xmlns="http://www.w3.org/2000/svg"><path d="M13.75 0h-7.5A6.25 6.25 0 000 6.25v7.5A6.25 6.25 0 006.25 20h7.5A6.25 6.25 0 0020 13.75v-7.5A6.25 6.25 0 0013.75 0zm4.375 13.75a4.38 4.38 0 01-4.375 4.375h-7.5a4.38 4.38 0 01-4.375-4.375v-7.5A4.38 4.38 0 016.25 1.875h7.5a4.38 4.38 0 014.375 4.375v7.5z"/><path d="M10 5a5 5 0 100 10 5 5 0 000-10zm0 8.125A3.13 3.13 0 016.875 10 3.129 3.129 0 0110 6.875 3.129 3.129 0 0113.125 10 3.13 3.13 0 0110 13.125zm5.375-7.834a.666.666 0 100-1.332.666.666 0 000 1.332z"/></symbol><symbol viewBox="0 0 66.29 63.32" id="leaves" xmlns="http://www.w3.org/2000/svg"><g clip-path="url(#hclip0_658:2307)"><path d="M13.598 17.715c2.841.398 5.446 1.574 7.53 3.402a20.85 20.85 0 0013.693 5.14 20.792 20.792 0 0016.39-8.002 26.06 26.06 0 013.445 3.773 1.272 1.272 0 001.782.258c.564-.42.68-1.218.259-1.782a28.657 28.657 0 00-4.603-4.85 20.874 20.874 0 00-3.045-5.79A20.505 20.505 0 0038.202 2.35a21.028 21.028 0 00-12.962.442 1.273 1.273 0 10.875 2.392 18.462 18.462 0 0111.38-.387 17.978 17.978 0 019.511 6.587c.335.45.645.913.935 1.386A28.101 28.101 0 0035 9.076l-2.896-2.554a1.273 1.273 0 10-1.684 1.91l.838.739c-1.934.176-3.84.548-5.692 1.113a1.273 1.273 0 10.742 2.436 25.932 25.932 0 017.567-1.122c2.24 0 4.423.28 6.537.829l-3.061 2.51a1.273 1.273 0 001.614 1.97l4.324-3.546c.81.317 1.61.675 2.394 1.077a25.847 25.847 0 013.556 2.21 18.273 18.273 0 01-15.18 7.047 18.294 18.294 0 01-11.25-4.493 16.82 16.82 0 00-7.333-3.728 18.108 18.108 0 012.171-3.922 1.273 1.273 0 10-2.058-1.5 20.722 20.722 0 00-3.028 6.021 1.273 1.273 0 001.038 1.642zM25.779 53.44a20.85 20.85 0 00-1.976-13.665A20.823 20.823 0 008.26 28.817c.355-1.668.87-3.302 1.543-4.868a1.273 1.273 0 00-2.34-1.005 28.665 28.665 0 00-1.898 6.412 20.876 20.876 0 00-3.493 5.532C-.12 39.97-.192 45.613 1.87 50.777a20.729 20.729 0 0011.187 11.452 20.535 20.535 0 008.083 1.66 20.87 20.87 0 004.555-.506 1.273 1.273 0 00.902-1.72c-1.075-2.66-1.359-5.503-.818-8.223zm-11.722 6.447a18.2 18.2 0 01-9.822-10.055c-1.81-4.53-1.747-9.48.176-13.935a18.75 18.75 0 01.732-1.503 28.1 28.1 0 003.272 13.055l-.763 3.785a1.273 1.273 0 102.496.504l.22-1.095a28.352 28.352 0 003.811 4.372 1.27 1.27 0 001.8-.061c.48-.514.452-1.32-.062-1.8a25.94 25.94 0 01-4.755-5.992 25.903 25.903 0 01-2.55-6.075l3.705 1.395a1.27 1.27 0 001.64-.742 1.273 1.273 0 00-.743-1.64l-5.232-1.972a26.22 26.22 0 01-.264-2.612 25.853 25.853 0 01.135-4.184 18.271 18.271 0 0113.693 9.622 18.294 18.294 0 011.735 11.99 16.818 16.818 0 00.438 8.214 18.01 18.01 0 01-9.662-1.27zm51.362-20.013a20.568 20.568 0 00-5.32-11.52 1.276 1.276 0 00-1.94.077c-1.766 2.262-4.087 3.929-6.712 4.82A20.849 20.849 0 0040.6 41.796a20.824 20.824 0 00-1.719 18.94 26.043 26.043 0 01-4.987 1.097 1.273 1.273 0 00.3 2.53 28.656 28.656 0 006.504-1.563 20.69 20.69 0 004.066.404c.82 0 1.644-.048 2.469-.145 5.498-.642 10.42-3.401 13.86-7.77a20.729 20.729 0 004.326-15.414zm-6.325 13.84c-3.02 3.831-7.336 6.252-12.157 6.815-.557.065-1.113.102-1.667.117a28.098 28.098 0 009.67-9.361l3.66-1.232a1.273 1.273 0 00-.813-2.413l-1.058.356a28.352 28.352 0 001.882-5.486 1.273 1.273 0 10-2.481-.575 25.934 25.934 0 01-2.812 7.114 25.905 25.905 0 01-3.986 5.247l-.644-3.907a1.273 1.273 0 10-2.513.414l.91 5.517c-.68.544-1.39 1.057-2.13 1.535a25.84 25.84 0 01-3.692 1.975 18.272 18.272 0 011.486-16.67 18.295 18.295 0 019.517-7.497 16.818 16.818 0 006.895-4.486 18.003 18.003 0 013.73 9.003 18.2 18.2 0 01-3.797 13.533z"/><path d="M20.641 7.997a1.273 1.273 0 100-2.546 1.273 1.273 0 000 2.546z"/></g><defs><clipPath id="hclip0_658:2307"><path transform="translate(.375 .354)" d="M0 0h65.198v65.198H0z"/></clipPath></defs></symbol><symbol viewBox="0 0 20 20" id="linkedin" xmlns="http://www.w3.org/2000/svg"><path d="M18.19 0H1.81C.81 0 0 .81 0 1.81v16.38C0 19.19.81 20 1.81 20h16.38c1 0 1.81-.81 1.81-1.81V1.81c0-1-.81-1.81-1.81-1.81zm-12 17.27c0 .29-.236.526-.527.526h-2.24a.526.526 0 01-.527-.527V7.875c0-.291.235-.527.526-.527h2.241c.291 0 .527.236.527.527v9.394zM4.542 6.461a2.13 2.13 0 110-4.258 2.13 2.13 0 010 4.258zM17.9 17.312a.484.484 0 01-.484.484h-2.405a.484.484 0 01-.484-.484v-4.407c0-.657.193-2.88-1.718-2.88-1.482 0-1.783 1.521-1.843 2.204v5.083a.484.484 0 01-.484.484H8.157a.484.484 0 01-.484-.484v-9.48c0-.267.216-.484.484-.484h2.326c.267 0 .484.217.484.484v.82c.55-.825 1.366-1.462 3.105-1.462 3.851 0 3.829 3.598 3.829 5.575v4.547z"/></symbol><symbol viewBox="0 0 60.32 65.42" id="peoples" xmlns="http://www.w3.org/2000/svg"><g clip-path="url(#jclip0_658:2314)"><path d="M63.267 11.227a13.038 13.038 0 00-3.132-6.374l-.009-.01c-.828-.936-2.2-2.221-4.034-3.036l-.042-.018a12.952 12.952 0 00-5.646-1.28 12.95 12.95 0 00-7.994 2.729l-.016.012c-1.983 1.548-3.292 3.762-3.454 4.044a13.097 13.097 0 00-1.541 7.656c.044.421.296.793.672.99.238.124.487.228.742.31a11.982 11.982 0 006.072 7.014 11.818 11.818 0 00-3.243 2.44 1.266 1.266 0 001.844 1.734 9.35 9.35 0 011.483-1.28c.766 2.171 2.74 3.762 4.987 3.762h.189c2.25 0 4.223-1.705 4.944-4.011 2.673 1.675 4.383 4.66 4.383 7.854v13.149l-11.513 7.47a1.266 1.266 0 101.378 2.124l12.09-7.845c.36-.233.577-.633.577-1.062V33.763c0-4.483-2.502-8.5-6.458-10.505 3.746-1.87 6.394-5.643 6.654-10.037.357-.324.668-.704.916-1.132.152-.26.205-.566.15-.862zM50.145 27.388h-.189c-1.515 0-2.795-1.468-2.795-3.206l-.001-.065a12.025 12.025 0 005.683.104c-.1 1.712-1.317 3.167-2.698 3.167zm.075-5.408a9.466 9.466 0 01-8.683-5.682 4.74 4.74 0 003.385-3.825c.756.097 1.52.146 2.289.146 2.574 0 5.055-.54 7.276-1.573a4.735 4.735 0 005.006 3.383c-.893 4.3-4.723 7.551-9.273 7.551zm8.806-10.059a2.197 2.197 0 01-2.195-2.194v-.705a1.266 1.266 0 00-1.939-1.072c-2.227 1.399-4.883 2.138-7.681 2.138-1.095 0-2.182-.116-3.231-.343a1.266 1.266 0 00-1.534 1.237v.768a2.197 2.197 0 01-2.582 2.16 10.558 10.558 0 011.27-5.354l.01-.016c.01-.02 1.154-2.002 2.806-3.293l.009-.007a10.441 10.441 0 016.445-2.2c1.594 0 3.125.348 4.551 1.031.025.012.061.029.11.05 1.407.625 2.488 1.637 3.15 2.382l.023.026a10.518 10.518 0 012.433 4.645 2.201 2.201 0 01-1.645.747zM39.44 44.308a9.71 9.71 0 004.797-8.37c0-1.603-.39-3.117-1.081-4.45a1.267 1.267 0 00-.085-.16c-1.644-3.03-4.854-5.094-8.537-5.094-3.684 0-6.895 2.064-8.538 5.096a9.644 9.644 0 00-1.165 4.608 9.709 9.709 0 004.795 8.369 10.687 10.687 0 00-5.798 9.508v4.617c0 .432.221.835.587 1.067l9.44 6.01a1.265 1.265 0 001.355.002l9.462-5.978c.369-.233.592-.64.59-1.076l-.023-4.648a10.727 10.727 0 00-5.8-9.501zm-4.906-15.542a7.16 7.16 0 015.494 2.567c-1.706.489-3.576.743-5.494.743-1.918 0-3.789-.255-5.494-.743a7.16 7.16 0 015.494-2.567zm-7.172 7.172c0-.822.139-1.613.395-2.35 2.089.67 4.406 1.02 6.777 1.02 2.37 0 4.688-.35 6.777-1.02a7.14 7.14 0 01.395 2.35c0 3.954-3.218 7.172-7.172 7.172-3.955 0-7.172-3.218-7.172-7.172zm9.419 9.441c-.159 1.198-1.209 2.007-2.16 2.007h-.153c-1.007 0-2.125-.851-2.27-2.029a9.706 9.706 0 004.582.022zm-2.245 17.563l-8.176-5.205v-3.922a8.156 8.156 0 013.683-6.822c.79 1.804 2.655 2.925 4.425 2.925h.154c1.91 0 3.599-1.244 4.328-2.97a8.204 8.204 0 013.758 6.873l.019 3.947-8.19 5.174zm-9.092-33.977a1.266 1.266 0 00-.407-1.743 11.8 11.8 0 00-1.195-.65 11.952 11.952 0 004.046-3.378 4.416 4.416 0 005.854-4.169v-3.146a15.29 15.29 0 00-4.3-10.663A15.297 15.297 0 0018.987.522h-.001A15.363 15.363 0 007.488 5.025c-2.893 2.884-4.486 6.74-4.486 10.854v3.146a4.416 4.416 0 005.854 4.17 11.94 11.94 0 004.529 3.61c-3.906 2.054-6.322 6.03-6.322 10.433V47.6c0 .43.217.829.577 1.062l11.484 7.451a1.265 1.265 0 101.378-2.124L9.595 46.913v-9.674a9.198 9.198 0 013.648-7.353c.784 2.274 2.796 3.982 5.02 3.982h.19c2.416 0 4.344-2.187 5.023-4.63.076.044.15.089.225.135.594.37 1.374.187 1.743-.407zm-14.9-17.686a9.073 9.073 0 00-1.25 4.6v3.146c0 .6-.283 1.135-.722 1.479a1.26 1.26 0 00-.108.079 1.87 1.87 0 01-1.05.322 1.882 1.882 0 01-1.88-1.88v-3.146c0-7.027 5.503-12.665 12.529-12.835.262-.006.532-.003.825.008A12.799 12.799 0 0131.21 15.879v3.146a1.882 1.882 0 01-2.931 1.557 1.306 1.306 0 00-.108-.078 1.877 1.877 0 01-.72-1.48V15.88c0-4.468-3.33-8.329-7.743-8.981a1.264 1.264 0 00-1.447 1.153c-.07.885-.23 1.757-.478 2.604h-6.15c-.447 0-.863.237-1.09.624zm7.909 20.056h-.19c-1.43 0-2.835-1.737-2.835-3.507a1.27 1.27 0 00-.041-.32 12.145 12.145 0 005.817.039c-.086 1.84-1.48 3.788-2.752 3.788zm-.08-5.986a9.416 9.416 0 01-7.463-3.638 4.39 4.39 0 00.915-2.686v-3.146c0-.932.198-1.85.578-2.692h6.294c.53 0 1.004-.33 1.188-.827.316-.856.555-1.74.714-2.639 2.534.923 4.32 3.377 4.32 6.158v3.146c0 1.01.342 1.942.915 2.686a9.415 9.415 0 01-7.462 3.638z"/></g><defs><clipPath id="jclip0_658:2314"><path transform="translate(.546 .51)" d="M0 0h65.198v65.198H0z"/></clipPath></defs></symbol><symbol viewBox="0 0 25.33 29.25" id="play" xmlns="http://www.w3.org/2000/svg"><path d="M24 13.268c1.333.77 1.333 2.694 0 3.464L3 28.856c-1.333.77-3-.192-3-1.732V2.876C0 1.336 1.667.374 3 1.144l21 12.124z"/></symbol><symbol viewBox="0 0 20 20" id="plus" xmlns="http://www.w3.org/2000/svg"><path d="M10.142 10h-10m10 10V10v10zm0-10V0v10zm0 0h10-10z"/></symbol><symbol viewBox="0 0 20 16.59" id="twitter" xmlns="http://www.w3.org/2000/svg"><g clip-path="url(#mclip0_658:2108)"><path d="M20 3.799a8.549 8.549 0 01-2.363.647 4.077 4.077 0 001.804-2.266 8.192 8.192 0 01-2.6.992A4.099 4.099 0 009.75 5.976c0 .325.027.638.095.935-3.409-.166-6.425-1.8-8.451-4.288A4.128 4.128 0 00.83 4.694c0 1.42.732 2.679 1.821 3.407A4.05 4.05 0 01.8 7.597v.045a4.119 4.119 0 003.285 4.03 4.09 4.09 0 01-1.075.134c-.262 0-.527-.015-.776-.07.531 1.624 2.038 2.818 3.831 2.856a8.238 8.238 0 01-5.084 1.75A7.67 7.67 0 010 16.284a11.543 11.543 0 006.29 1.84c7.545 0 11.67-6.25 11.67-11.668 0-.18-.006-.356-.015-.53A8.179 8.179 0 0020 3.8z"/></g><defs><clipPath id="mclip0_658:2108"><path d="M0 0h20v20H0z"/></clipPath></defs></symbol><symbol viewBox="0 0 16.22 14.16" id="warning" xmlns="http://www.w3.org/2000/svg"><path d="M15.667 11.221l-5.65-9.463A2.327 2.327 0 008 .61c-.837 0-1.59.43-2.018 1.148l-5.65 9.463a2.32 2.32 0 00-.022 2.358 2.32 2.32 0 002.04 1.186h11.3a2.32 2.32 0 002.039-1.186 2.322 2.322 0 00-.022-2.358zM8 3.503c.518 0 .938.42.938.939v3.754a.939.939 0 01-1.877 0V4.442c0-.519.42-.939.939-.939zm0 9.385a1.41 1.41 0 01-1.408-1.408A1.41 1.41 0 018 10.073a1.41 1.41 0 011.408 1.407A1.41 1.41 0 018 12.888z"/></symbol><symbol viewBox="0 0 20.34 14.45" id="youtube" xmlns="http://www.w3.org/2000/svg"><g clip-path="url(#oclip0_745:1885)"><path d="M.435 14.895c.408 1.448 1.657 1.713 1.74 1.764 2.057.56 13.58.562 15.667 0 1.429-.413 1.691-1.68 1.74-1.764.545-2.895.58-6.67-.025-9.954l.025.163c-.408-1.448-1.657-1.713-1.74-1.764-2.029-.55-13.582-.572-15.666 0C.746 3.754.484 5.02.435 5.104c-.583 3.043-.612 6.533 0 9.791zm7.572-1.852V6.965l5.221 3.043-5.221 3.035z"/></g><defs><clipPath id="oclip0_745:1885"><path d="M0 0h20v20H0z"/></clipPath></defs></symbol></svg>