<svg width="187" height="83" viewBox="0 0 187 83" fill="none" xmlns="http://www.w3.org/2000/svg">
<rect x="0.119385" y="0.317627" width="186.035" height="82.6823" rx="2.2468" fill="white"/>
<path d="M29.2259 20L28.7401 18.5269H26.643L26.1572 20H25.1066L27.1288 14.3009H28.278L30.3002 20H29.2259ZM27.6777 15.308L26.8799 17.7409H28.4992L27.7054 15.308H27.6777ZM34.3681 17.3065H33.44C33.3979 17.0721 33.2978 16.8839 33.1398 16.7417C32.9818 16.5969 32.7765 16.5245 32.5237 16.5245C32.213 16.5245 31.9655 16.6482 31.7812 16.8957C31.5969 17.1406 31.5048 17.4776 31.5048 17.9068C31.5048 18.3412 31.5969 18.6809 31.7812 18.9257C31.9655 19.168 32.2157 19.2891 32.5316 19.2891C32.7791 19.2891 32.9818 19.2233 33.1398 19.0916C33.2978 18.9573 33.3992 18.7704 33.4439 18.5308H34.3721C34.3326 18.9995 34.1443 19.376 33.8073 19.6603C33.4729 19.9421 33.0437 20.0829 32.5198 20.0829C31.9036 20.0829 31.4139 19.8894 31.0506 19.5024C30.6872 19.1127 30.5055 18.5808 30.5055 17.9068C30.5055 17.2406 30.6872 16.7114 31.0506 16.3191C31.4139 15.9242 31.901 15.7267 32.5119 15.7267C33.049 15.7267 33.4834 15.8768 33.8152 16.1769C34.1496 16.4745 34.3339 16.851 34.3681 17.3065ZM35.233 14.8341H36.2164V15.8136H37.0063V16.5719H36.2164V18.748C36.2164 18.9192 36.2573 19.0455 36.3389 19.1272C36.4205 19.2088 36.5482 19.2496 36.722 19.2496C36.8378 19.2496 36.9313 19.243 37.0024 19.2299V19.9803C36.8839 20.0066 36.7141 20.0197 36.4929 20.0197C36.04 20.0197 35.7162 19.9329 35.5213 19.7591C35.3291 19.5853 35.233 19.2944 35.233 18.8863V16.5719H34.6327V15.8136H35.233V14.8341ZM37.7014 20V15.8136H38.6849V20H37.7014ZM38.5782 15.1106C38.4729 15.2133 38.3439 15.2646 38.1912 15.2646C38.0385 15.2646 37.9094 15.2133 37.8041 15.1106C37.6988 15.0053 37.6462 14.8789 37.6462 14.7314C37.6462 14.5813 37.6988 14.455 37.8041 14.3523C37.9094 14.247 38.0385 14.1943 38.1912 14.1943C38.3439 14.1943 38.4729 14.247 38.5782 14.3523C38.6862 14.455 38.7401 14.5813 38.7401 14.7314C38.7401 14.8789 38.6862 15.0053 38.5782 15.1106ZM42.8397 19.5024C42.4737 19.8894 41.9813 20.0829 41.3626 20.0829C40.7438 20.0829 40.2515 19.8894 39.8855 19.5024C39.5195 19.1127 39.3365 18.5808 39.3365 17.9068C39.3365 17.2354 39.5208 16.7048 39.8894 16.3152C40.2581 15.9228 40.7491 15.7267 41.3626 15.7267C41.9787 15.7267 42.4698 15.9228 42.8357 16.3152C43.2043 16.7048 43.3887 17.2354 43.3887 17.9068C43.3887 18.5808 43.2057 19.1127 42.8397 19.5024ZM40.6122 18.9376C40.7965 19.1825 41.0466 19.3049 41.3626 19.3049C41.6785 19.3049 41.9287 19.1825 42.113 18.9376C42.2973 18.6927 42.3894 18.3491 42.3894 17.9068C42.3894 17.4671 42.2973 17.1248 42.113 16.8799C41.9287 16.6324 41.6785 16.5087 41.3626 16.5087C41.0493 16.5087 40.7991 16.6324 40.6122 16.8799C40.4279 17.1248 40.3357 17.4671 40.3357 17.9068C40.3357 18.3491 40.4279 18.6927 40.6122 18.9376ZM44.0206 20V15.8136H44.9645V16.5324H44.9842C45.1001 16.2796 45.2686 16.0835 45.4898 15.9439C45.7136 15.8044 45.9834 15.7346 46.2994 15.7346C46.7575 15.7346 47.113 15.8728 47.3658 16.1493C47.6212 16.4257 47.7489 16.8075 47.7489 17.2946V20H46.7654V17.4921C46.7654 17.1919 46.6943 16.9629 46.5522 16.8049C46.4126 16.6469 46.2046 16.5679 45.9282 16.5679C45.6464 16.5679 45.4213 16.6601 45.2528 16.8444C45.0869 17.0287 45.004 17.2722 45.004 17.575V20H44.0206ZM51.6865 19.3246C51.9682 19.3246 52.2052 19.2417 52.3974 19.0758C52.5922 18.9073 52.6896 18.698 52.6896 18.4479V18.128L51.722 18.1872C51.485 18.203 51.3007 18.2622 51.1691 18.3649C51.0401 18.465 50.9756 18.5979 50.9756 18.7638C50.9756 18.935 51.0401 19.0719 51.1691 19.1746C51.3007 19.2746 51.4732 19.3246 51.6865 19.3246ZM51.3902 20.0671C50.9821 20.0671 50.6464 19.95 50.3831 19.7156C50.1225 19.4813 49.9921 19.1772 49.9921 18.8033C49.9921 18.4321 50.1291 18.1385 50.4029 17.9226C50.6793 17.7067 51.073 17.5829 51.5838 17.5513L52.6896 17.4881V17.188C52.6896 16.9695 52.6198 16.7996 52.4803 16.6785C52.3434 16.5574 52.1525 16.4968 51.9076 16.4968C51.6786 16.4968 51.4916 16.5482 51.3468 16.6509C51.202 16.7535 51.1138 16.8931 51.0822 17.0695H50.1699C50.1909 16.6719 50.3608 16.3494 50.6793 16.1019C51.0006 15.8518 51.4232 15.7267 51.9471 15.7267C52.4658 15.7267 52.8805 15.8531 53.1912 16.1058C53.5045 16.3586 53.6612 16.6956 53.6612 17.1169V20H52.7133V19.3325H52.6936C52.5751 19.5563 52.396 19.7354 52.1564 19.8697C51.9168 20.0013 51.6614 20.0671 51.3902 20.0671ZM56.098 20V15.8136H57.0814V20H56.098ZM56.9748 15.1106C56.8695 15.2133 56.7404 15.2646 56.5877 15.2646C56.435 15.2646 56.306 15.2133 56.2007 15.1106C56.0954 15.0053 56.0427 14.8789 56.0427 14.7314C56.0427 14.5813 56.0954 14.455 56.2007 14.3523C56.306 14.247 56.435 14.1943 56.5877 14.1943C56.7404 14.1943 56.8695 14.247 56.9748 14.3523C57.0827 14.455 57.1367 14.5813 57.1367 14.7314C57.1367 14.8789 57.0827 15.0053 56.9748 15.1106ZM57.9068 20V15.8136H58.8508V16.5403H58.8705C58.9627 16.2928 59.1141 16.0966 59.3247 15.9518C59.5353 15.807 59.7815 15.7346 60.0632 15.7346C60.3581 15.7346 60.607 15.8083 60.8097 15.9558C61.0151 16.1006 61.1559 16.3073 61.2323 16.5758H61.256C61.356 16.3178 61.5219 16.1137 61.7536 15.9637C61.9879 15.8109 62.2565 15.7346 62.5593 15.7346C62.9727 15.7346 63.3031 15.8623 63.5506 16.1177C63.8007 16.3731 63.9258 16.7101 63.9258 17.1287V20H62.9424V17.3697C62.9424 17.1116 62.8766 16.9128 62.7449 16.7733C62.6159 16.6337 62.4316 16.564 62.192 16.564C61.955 16.564 61.7628 16.643 61.6154 16.8009C61.4679 16.9589 61.3942 17.163 61.3942 17.4131V20H60.4384V17.3183C60.4384 17.0866 60.3713 16.9036 60.237 16.7693C60.1054 16.6324 59.925 16.564 59.6959 16.564C59.459 16.564 59.2655 16.6469 59.1154 16.8128C58.9653 16.976 58.8903 17.184 58.8903 17.4368V20H57.9068ZM67.0143 15.7425C67.5461 15.7425 67.9687 15.936 68.2821 16.3231C68.5954 16.7101 68.752 17.238 68.752 17.9068C68.752 18.5729 68.5967 19.0995 68.286 19.4866C67.9753 19.8736 67.5567 20.0671 67.0301 20.0671C66.7299 20.0671 66.4653 20 66.2362 19.8657C66.0072 19.7288 65.8347 19.5419 65.7189 19.3049H65.6991V21.3784H64.7157V15.8136H65.6754V16.5363H65.6952C65.8163 16.2888 65.9914 16.0953 66.2204 15.9558C66.4495 15.8136 66.7141 15.7425 67.0143 15.7425ZM66.7141 19.2615C67.0327 19.2615 67.2842 19.1403 67.4685 18.8981C67.6528 18.6532 67.7449 18.3228 67.7449 17.9068C67.7449 17.4934 67.6515 17.1643 67.4645 16.9194C67.2802 16.6746 67.0301 16.5521 66.7141 16.5521C66.4087 16.5521 66.1625 16.6759 65.9756 16.9234C65.7886 17.1709 65.6939 17.4987 65.6912 17.9068C65.6939 18.3175 65.7886 18.6467 65.9756 18.8942C66.1625 19.139 66.4087 19.2615 66.7141 19.2615ZM70.9124 19.3246C71.1941 19.3246 71.4311 19.2417 71.6233 19.0758C71.8181 18.9073 71.9156 18.698 71.9156 18.4479V18.128L70.9479 18.1872C70.711 18.203 70.5267 18.2622 70.395 18.3649C70.266 18.465 70.2015 18.5979 70.2015 18.7638C70.2015 18.935 70.266 19.0719 70.395 19.1746C70.5267 19.2746 70.6991 19.3246 70.9124 19.3246ZM70.6162 20.0671C70.2081 20.0671 69.8724 19.95 69.6091 19.7156C69.3484 19.4813 69.2181 19.1772 69.2181 18.8033C69.2181 18.4321 69.355 18.1385 69.6288 17.9226C69.9053 17.7067 70.2989 17.5829 70.8097 17.5513L71.9156 17.4881V17.188C71.9156 16.9695 71.8458 16.7996 71.7062 16.6785C71.5693 16.5574 71.3784 16.4968 71.1336 16.4968C70.9045 16.4968 70.7176 16.5482 70.5727 16.6509C70.4279 16.7535 70.3397 16.8931 70.3081 17.0695H69.3958C69.4169 16.6719 69.5867 16.3494 69.9053 16.1019C70.2265 15.8518 70.6491 15.7267 71.1731 15.7267C71.6918 15.7267 72.1065 15.8531 72.4171 16.1058C72.7305 16.3586 72.8871 16.6956 72.8871 17.1169V20H71.9393V19.3325H71.9195C71.801 19.5563 71.622 19.7354 71.3824 19.8697C71.1428 20.0013 70.8874 20.0671 70.6162 20.0671ZM77.3698 17.3065H76.4416C76.3995 17.0721 76.2995 16.8839 76.1415 16.7417C75.9835 16.5969 75.7781 16.5245 75.5254 16.5245C75.2147 16.5245 74.9672 16.6482 74.7829 16.8957C74.5986 17.1406 74.5064 17.4776 74.5064 17.9068C74.5064 18.3412 74.5986 18.6809 74.7829 18.9257C74.9672 19.168 75.2173 19.2891 75.5333 19.2891C75.7808 19.2891 75.9835 19.2233 76.1415 19.0916C76.2995 18.9573 76.4008 18.7704 76.4456 18.5308H77.3737C77.3342 18.9995 77.146 19.376 76.8089 19.6603C76.4745 19.9421 76.0454 20.0829 75.5214 20.0829C74.9053 20.0829 74.4156 19.8894 74.0522 19.5024C73.6889 19.1127 73.5072 18.5808 73.5072 17.9068C73.5072 17.2406 73.6889 16.7114 74.0522 16.3191C74.4156 15.9242 74.9027 15.7267 75.5135 15.7267C76.0506 15.7267 76.4851 15.8768 76.8168 16.1769C77.1512 16.4745 77.3355 16.851 77.3698 17.3065ZM78.2347 14.8341H79.2181V15.8136H80.008V16.5719H79.2181V18.748C79.2181 18.9192 79.2589 19.0455 79.3405 19.1272C79.4222 19.2088 79.5499 19.2496 79.7236 19.2496C79.8395 19.2496 79.933 19.243 80.004 19.2299V19.9803C79.8856 20.0066 79.7157 20.0197 79.4946 20.0197C79.0417 20.0197 78.7178 19.9329 78.523 19.7591C78.3308 19.5853 78.2347 19.2944 78.2347 18.8863V16.5719H77.6344V15.8136H78.2347V14.8341Z" fill="#262626"/>
<g clip-path="url(#clip0_745:3205)">
<path d="M20.5872 19.1275L17.0965 13.2809C16.8326 12.8366 16.3665 12.5713 15.8498 12.5713C15.3331 12.5713 14.867 12.8366 14.6031 13.2809L11.1127 19.1275C10.8432 19.5811 10.8381 20.1259 11.0988 20.5846C11.3602 21.0435 11.8311 21.3173 12.3591 21.3173H19.3405C19.8685 21.3173 20.3394 21.0435 20.6007 20.5846C20.8615 20.1259 20.8564 19.5811 20.5872 19.1275ZM15.8498 14.3588C16.1701 14.3588 16.4297 14.6184 16.4297 14.9387V17.2582C16.4297 17.5784 16.1701 17.8381 15.8498 17.8381C15.5295 17.8381 15.2699 17.5784 15.2699 17.2582V14.9387C15.2699 14.6184 15.5295 14.3588 15.8498 14.3588ZM15.8498 20.1576C15.3702 20.1576 14.98 19.7674 14.98 19.2877C14.98 18.8081 15.3702 18.4179 15.8498 18.4179C16.3294 18.4179 16.7196 18.8081 16.7196 19.2877C16.7196 19.7674 16.3294 20.1576 15.8498 20.1576Z" fill="url(#paint0_linear_745:3205)"/>
</g>
<path d="M21.4842 39.1028V39.6716H18.3457V34.6057H21.4842V35.1745H18.9776V36.7999H21.3543V37.3616H18.9776V39.1028H21.4842ZM23.5168 38.2814H23.5028L22.6216 39.6716H21.9441L23.1868 37.846L21.9651 36.0205H22.6462L23.5238 37.3897H23.5379L24.405 36.0205H25.0861L23.8538 37.8215L25.0685 39.6716H24.391L23.5168 38.2814ZM27.375 35.9573C27.8431 35.9573 28.2199 36.1293 28.5054 36.4734C28.7933 36.8174 28.9372 37.275 28.9372 37.846C28.9372 38.4148 28.7945 38.8723 28.5089 39.2187C28.2234 39.5627 27.8501 39.7348 27.389 39.7348C27.1316 39.7348 26.9011 39.6763 26.6975 39.5592C26.4938 39.4422 26.337 39.2819 26.227 39.0783H26.213V40.8898H25.6021V36.0205H26.1814V36.6384H26.1954C26.3101 36.4278 26.4704 36.2616 26.6764 36.1399C26.8823 36.0182 27.1152 35.9573 27.375 35.9573ZM27.2556 39.1976C27.581 39.1976 27.8384 39.0759 28.028 38.8325C28.2176 38.5891 28.3123 38.2603 28.3123 37.846C28.3123 37.4318 28.2176 37.103 28.028 36.8596C27.8384 36.6162 27.581 36.4945 27.2556 36.4945C26.942 36.4945 26.6893 36.6185 26.4973 36.8666C26.3054 37.1147 26.2095 37.4412 26.2095 37.846C26.2095 38.2533 26.3054 38.5809 26.4973 38.829C26.6893 39.0748 26.942 39.1976 27.2556 39.1976ZM31.0682 39.7348C30.558 39.7348 30.1484 39.5651 29.8395 39.2257C29.5305 38.884 29.3761 38.4241 29.3761 37.846C29.3761 37.268 29.5305 36.8092 29.8395 36.4699C30.1484 36.1282 30.558 35.9573 31.0682 35.9573C31.5761 35.9573 31.9845 36.1282 32.2934 36.4699C32.6023 36.8092 32.7568 37.268 32.7568 37.846C32.7568 38.4218 32.6023 38.8805 32.2934 39.2222C31.9845 39.5639 31.5761 39.7348 31.0682 39.7348ZM30.2853 38.8396C30.4796 39.0783 30.7405 39.1976 31.0682 39.1976C31.3958 39.1976 31.6556 39.0794 31.8475 38.8431C32.0395 38.6043 32.1354 38.272 32.1354 37.846C32.1354 37.4201 32.0395 37.0889 31.8475 36.8525C31.6556 36.6138 31.3958 36.4945 31.0682 36.4945C30.7405 36.4945 30.4796 36.6138 30.2853 36.8525C30.0934 37.0913 29.9974 37.4224 29.9974 37.846C29.9974 38.2697 30.0934 38.6008 30.2853 38.8396ZM33.3747 39.6716V36.0205H33.9504V36.6173H33.9644C34.0253 36.4137 34.1341 36.2534 34.2909 36.1364C34.4501 36.017 34.6361 35.9573 34.8491 35.9573C34.8983 35.9573 34.9802 35.9655 35.0949 35.9819V36.5752C35.0293 36.5518 34.9205 36.5401 34.7684 36.5401C34.532 36.5401 34.3424 36.6185 34.1997 36.7753C34.0569 36.9321 33.9855 37.1392 33.9855 37.3967V39.6716H33.3747ZM35.79 35.1394H36.4008V36.0205H37.11V36.5225H36.4008V38.6921C36.4008 38.8583 36.4371 38.9811 36.5097 39.0607C36.5822 39.138 36.6969 39.1766 36.8537 39.1766C36.952 39.1766 37.0362 39.1707 37.1065 39.159V39.6716C37.0269 39.6903 36.8982 39.6997 36.7203 39.6997C36.3856 39.6997 36.1469 39.6248 36.0041 39.475C35.8614 39.3252 35.79 39.0748 35.79 38.7237V36.5225H35.2458V36.0205H35.79V35.1394ZM39.1216 36.4874C38.8384 36.4874 38.6032 36.5857 38.4159 36.7823C38.231 36.9766 38.1292 37.227 38.1105 37.5336H40.094C40.087 37.2247 39.9945 36.9731 39.8167 36.7788C39.6388 36.5846 39.4071 36.4874 39.1216 36.4874ZM40.08 38.6254H40.6803C40.6264 38.9484 40.4579 39.214 40.1747 39.4223C39.8939 39.6306 39.5557 39.7348 39.1602 39.7348C38.6383 39.7348 38.2275 39.5663 37.9279 39.2292C37.6284 38.8922 37.4786 38.4358 37.4786 37.8601C37.4786 37.289 37.6284 36.8291 37.9279 36.4804C38.2299 36.1317 38.6312 35.9573 39.1321 35.9573C39.6236 35.9573 40.0121 36.1223 40.2976 36.4523C40.5831 36.7823 40.7259 37.2247 40.7259 37.7793V38.011H38.107V38.0462C38.107 38.3972 38.2029 38.6781 38.3949 38.8887C38.5868 39.0993 38.8466 39.2047 39.1742 39.2047C39.4036 39.2047 39.599 39.152 39.7605 39.0467C39.922 38.9414 40.0285 38.8009 40.08 38.6254ZM41.2665 39.6716V39.2363L43.2887 36.5331V36.5225H41.2701V36.0205H43.9803V36.4664L41.9722 39.159V39.1696H43.9908V39.6716H41.2665ZM49.176 36.0205L47.8349 39.6716H47.21L45.8655 36.0205H46.5079L47.5155 39.0221H47.5295L48.5406 36.0205H49.176ZM51.0647 39.7348C50.5545 39.7348 50.1449 39.5651 49.836 39.2257C49.5271 38.884 49.3726 38.4241 49.3726 37.846C49.3726 37.268 49.5271 36.8092 49.836 36.4699C50.1449 36.1282 50.5545 35.9573 51.0647 35.9573C51.5726 35.9573 51.981 36.1282 52.2899 36.4699C52.5989 36.8092 52.7533 37.268 52.7533 37.846C52.7533 38.4218 52.5989 38.8805 52.2899 39.2222C51.981 39.5639 51.5726 39.7348 51.0647 39.7348ZM50.2818 38.8396C50.4761 39.0783 50.737 39.1976 51.0647 39.1976C51.3924 39.1976 51.6522 39.0794 51.8441 38.8431C52.036 38.6043 52.1319 38.272 52.1319 37.846C52.1319 37.4201 52.036 37.0889 51.8441 36.8525C51.6522 36.6138 51.3924 36.4945 51.0647 36.4945C50.737 36.4945 50.4761 36.6138 50.2818 36.8525C50.0899 37.0913 49.994 37.4224 49.994 37.846C49.994 38.2697 50.0899 38.6008 50.2818 38.8396ZM53.5678 35.1394H54.1786V36.0205H54.8878V36.5225H54.1786V38.6921C54.1786 38.8583 54.2149 38.9811 54.2875 39.0607C54.36 39.138 54.4747 39.1766 54.6315 39.1766C54.7298 39.1766 54.8141 39.1707 54.8843 39.159V39.6716C54.8047 39.6903 54.676 39.6997 54.4981 39.6997C54.1634 39.6997 53.9247 39.6248 53.7819 39.475C53.6392 39.3252 53.5678 39.0748 53.5678 38.7237V36.5225H53.0236V36.0205H53.5678V35.1394ZM55.5408 39.6716V36.0205H56.1165V36.6173H56.1305C56.1914 36.4137 56.3002 36.2534 56.457 36.1364C56.6162 36.017 56.8022 35.9573 57.0152 35.9573C57.0644 35.9573 57.1463 35.9655 57.261 35.9819V36.5752C57.1954 36.5518 57.0866 36.5401 56.9345 36.5401C56.6981 36.5401 56.5085 36.6185 56.3658 36.7753C56.223 36.9321 56.1516 37.1392 56.1516 37.3967V39.6716H55.5408ZM59.0479 36.4874C58.7647 36.4874 58.5295 36.5857 58.3422 36.7823C58.1573 36.9766 58.0555 37.227 58.0368 37.5336H60.0203C60.0133 37.2247 59.9208 36.9731 59.743 36.7788C59.5651 36.5846 59.3334 36.4874 59.0479 36.4874ZM60.0063 38.6254H60.6066C60.5528 38.9484 60.3842 39.214 60.1011 39.4223C59.8202 39.6306 59.482 39.7348 59.0865 39.7348C58.5646 39.7348 58.1538 39.5663 57.8543 39.2292C57.5547 38.8922 57.4049 38.4358 57.4049 37.8601C57.4049 37.289 57.5547 36.8291 57.8543 36.4804C58.1562 36.1317 58.5576 35.9573 59.0584 35.9573C59.5499 35.9573 59.9384 36.1223 60.2239 36.4523C60.5095 36.7823 60.6522 37.2247 60.6522 37.7793V38.011H58.0333V38.0462C58.0333 38.3972 58.1293 38.6781 58.3212 38.8887C58.5131 39.0993 58.7729 39.2047 59.1005 39.2047C59.3299 39.2047 59.5253 39.152 59.6868 39.0467C59.8483 38.9414 59.9548 38.8009 60.0063 38.6254ZM62.7446 39.6716V36.0205H63.3203V36.6173H63.3343C63.3952 36.4137 63.504 36.2534 63.6608 36.1364C63.82 36.017 64.006 35.9573 64.219 35.9573C64.2682 35.9573 64.3501 35.9655 64.4648 35.9819V36.5752C64.3992 36.5518 64.2904 36.5401 64.1383 36.5401C63.9019 36.5401 63.7123 36.6185 63.5696 36.7753C63.4268 36.9321 63.3554 37.1392 63.3554 37.3967V39.6716H62.7446ZM66.0972 39.2152C66.3851 39.2152 66.6261 39.1263 66.8204 38.9484C67.017 38.7682 67.1153 38.547 67.1153 38.2849V37.9865L66.1393 38.0462C65.8936 38.0625 65.7028 38.1222 65.5671 38.2252C65.4337 38.3282 65.367 38.4663 65.367 38.6394C65.367 38.8126 65.4337 38.9519 65.5671 39.0572C65.7005 39.1625 65.8772 39.2152 66.0972 39.2152ZM65.9603 39.7348C65.5975 39.7348 65.3038 39.6341 65.0791 39.4328C64.8568 39.2316 64.7456 38.9671 64.7456 38.6394C64.7456 38.3258 64.8603 38.0754 65.0897 37.8882C65.3214 37.7009 65.6478 37.5956 66.0691 37.5722L67.1153 37.5125V37.2071C67.1153 36.9848 67.0451 36.8104 66.9047 36.684C66.7642 36.5576 66.5676 36.4945 66.3149 36.4945C66.0832 36.4945 65.8948 36.5459 65.7497 36.6489C65.6045 36.7496 65.5121 36.8912 65.4723 37.0737H64.8825C64.9036 36.7484 65.044 36.4816 65.3038 36.2733C65.5659 36.0626 65.9076 35.9573 66.3289 35.9573C66.7572 35.9573 67.0966 36.065 67.347 36.2803C67.5998 36.4956 67.7261 36.7847 67.7261 37.1474V39.6716H67.1469V39.0432H67.1328C67.0228 39.2515 66.8614 39.4188 66.6484 39.5452C66.4354 39.6716 66.206 39.7348 65.9603 39.7348ZM70.2749 35.9573C70.7429 35.9573 71.1197 36.1293 71.4053 36.4734C71.6931 36.8174 71.8371 37.275 71.8371 37.846C71.8371 38.4148 71.6943 38.8723 71.4088 39.2187C71.1233 39.5627 70.75 39.7348 70.2889 39.7348C70.0314 39.7348 69.8009 39.6763 69.5973 39.5592C69.3937 39.4422 69.2369 39.2819 69.1269 39.0783H69.1128V40.8898H68.502V36.0205H69.0812V36.6384H69.0953C69.21 36.4278 69.3703 36.2616 69.5762 36.1399C69.7822 36.0182 70.0151 35.9573 70.2749 35.9573ZM70.1555 39.1976C70.4808 39.1976 70.7383 39.0759 70.9278 38.8325C71.1174 38.5891 71.2122 38.2603 71.2122 37.846C71.2122 37.4318 71.1174 37.103 70.9278 36.8596C70.7383 36.6162 70.4808 36.4945 70.1555 36.4945C69.8419 36.4945 69.5891 36.6185 69.3972 36.8666C69.2053 37.1147 69.1093 37.4412 69.1093 37.846C69.1093 38.2533 69.2053 38.5809 69.3972 38.829C69.5891 39.0748 69.8419 39.1976 70.1555 39.1976ZM74.2278 35.9573C74.6959 35.9573 75.0727 36.1293 75.3582 36.4734C75.6461 36.8174 75.79 37.275 75.79 37.846C75.79 38.4148 75.6473 38.8723 75.3617 39.2187C75.0762 39.5627 74.7029 39.7348 74.2419 39.7348C73.9844 39.7348 73.7539 39.6763 73.5503 39.5592C73.3467 39.4422 73.1898 39.2819 73.0798 39.0783H73.0658V40.8898H72.455V36.0205H73.0342V36.6384H73.0482C73.1629 36.4278 73.3232 36.2616 73.5292 36.1399C73.7352 36.0182 73.968 35.9573 74.2278 35.9573ZM74.1085 39.1976C74.4338 39.1976 74.6912 39.0759 74.8808 38.8325C75.0704 38.5891 75.1652 38.2603 75.1652 37.846C75.1652 37.4318 75.0704 37.103 74.8808 36.8596C74.6912 36.6162 74.4338 36.4945 74.1085 36.4945C73.7948 36.4945 73.5421 36.6185 73.3502 36.8666C73.1582 37.1147 73.0623 37.4412 73.0623 37.846C73.0623 38.2533 73.1582 38.5809 73.3502 38.829C73.5421 39.0748 73.7948 39.1976 74.1085 39.1976ZM77.921 39.7348C77.4108 39.7348 77.0012 39.5651 76.6923 39.2257C76.3833 38.884 76.2289 38.4241 76.2289 37.846C76.2289 37.268 76.3833 36.8092 76.6923 36.4699C77.0012 36.1282 77.4108 35.9573 77.921 35.9573C78.4289 35.9573 78.8373 36.1282 79.1462 36.4699C79.4551 36.8092 79.6096 37.268 79.6096 37.846C79.6096 38.4218 79.4551 38.8805 79.1462 39.2222C78.8373 39.5639 78.4289 39.7348 77.921 39.7348ZM77.1381 38.8396C77.3324 39.0783 77.5933 39.1976 77.921 39.1976C78.2487 39.1976 78.5084 39.0794 78.7004 38.8431C78.8923 38.6043 78.9882 38.272 78.9882 37.846C78.9882 37.4201 78.8923 37.0889 78.7004 36.8525C78.5084 36.6138 78.2487 36.4945 77.921 36.4945C77.5933 36.4945 77.3324 36.6138 77.1381 36.8525C76.9462 37.0913 76.8503 37.4224 76.8503 37.846C76.8503 38.2697 76.9462 38.6008 77.1381 38.8396ZM80.2275 39.6716V36.0205H80.8032V36.6173H80.8173C80.8781 36.4137 80.9869 36.2534 81.1437 36.1364C81.3029 36.017 81.489 35.9573 81.7019 35.9573C81.7511 35.9573 81.833 35.9655 81.9477 35.9819V36.5752C81.8821 36.5518 81.7733 36.5401 81.6212 36.5401C81.3848 36.5401 81.1952 36.6185 81.0525 36.7753C80.9097 36.9321 80.8383 37.1392 80.8383 37.3967V39.6716H80.2275ZM82.6428 35.1394H83.2536V36.0205H83.9628V36.5225H83.2536V38.6921C83.2536 38.8583 83.2899 38.9811 83.3625 39.0607C83.435 39.138 83.5497 39.1766 83.7065 39.1766C83.8048 39.1766 83.8891 39.1707 83.9593 39.159V39.6716C83.8797 39.6903 83.751 39.6997 83.5731 39.6997C83.2384 39.6997 82.9997 39.6248 82.8569 39.475C82.7142 39.3252 82.6428 39.0748 82.6428 38.7237V36.5225H82.0986V36.0205H82.6428V35.1394ZM87.4734 39.7348C87.0053 39.7348 86.6273 39.5627 86.3395 39.2187C86.0539 38.8747 85.9112 38.4171 85.9112 37.846C85.9112 37.2773 86.0539 36.8209 86.3395 36.4769C86.625 36.1305 86.9983 35.9573 87.4594 35.9573C87.7168 35.9573 87.9473 36.0158 88.151 36.1329C88.3546 36.2499 88.5114 36.4102 88.6214 36.6138H88.6354V34.6057H89.2463V39.6716H88.6635V39.0537H88.653C88.5336 39.2667 88.3721 39.434 88.1685 39.5557C87.9649 39.6751 87.7332 39.7348 87.4734 39.7348ZM87.5893 36.4945C87.2663 36.4945 87.01 36.6173 86.8204 36.8631C86.6309 37.1065 86.5361 37.4341 86.5361 37.846C86.5361 38.2603 86.6309 38.5891 86.8204 38.8325C87.01 39.0759 87.2663 39.1976 87.5893 39.1976C87.9052 39.1976 88.1591 39.0748 88.3511 38.829C88.543 38.5809 88.6389 38.2533 88.6389 37.846C88.6389 37.4388 88.5418 37.1123 88.3476 36.8666C88.1556 36.6185 87.9029 36.4945 87.5893 36.4945ZM90.7102 36.3926H90.1485V34.6057H90.7102V36.3926ZM91.6124 39.6716V36.0205H92.2233V39.6716H91.6124ZM91.9179 35.4062C91.8149 35.4062 91.7259 35.3687 91.651 35.2938C91.5762 35.2189 91.5387 35.13 91.5387 35.027C91.5387 34.9217 91.5762 34.8328 91.651 34.7602C91.7259 34.6853 91.8149 34.6479 91.9179 34.6479C92.0232 34.6479 92.1133 34.6853 92.1882 34.7602C92.2631 34.8328 92.3005 34.9217 92.3005 35.027C92.3005 35.13 92.2631 35.2189 92.1882 35.2938C92.1133 35.3687 92.0232 35.4062 91.9179 35.4062ZM93.0483 39.6716V36.0205H93.624V36.6033H93.6381C93.727 36.4043 93.8616 36.2475 94.0418 36.1329C94.222 36.0158 94.4326 35.9573 94.6737 35.9573C94.9218 35.9573 95.1348 36.0182 95.3126 36.1399C95.4905 36.2592 95.6192 36.4301 95.6988 36.6524H95.7128C95.8135 36.4348 95.9644 36.2651 96.1657 36.1434C96.3693 36.0193 96.5999 35.9573 96.8573 35.9573C97.2177 35.9573 97.5056 36.0662 97.7209 36.2838C97.9386 36.4991 98.0474 36.7882 98.0474 37.1509V39.6716H97.4366V37.2914C97.4366 37.0409 97.3699 36.8467 97.2365 36.7086C97.1054 36.5682 96.9193 36.498 96.6783 36.498C96.4372 36.498 96.2394 36.5787 96.085 36.7402C95.9305 36.8993 95.8533 37.103 95.8533 37.351V39.6716H95.2424V37.2247C95.2424 37.0047 95.1746 36.8291 95.0388 36.6981C94.9031 36.5647 94.7217 36.498 94.4947 36.498C94.2536 36.498 94.0535 36.5822 93.8943 36.7507C93.7375 36.9192 93.6591 37.1299 93.6591 37.3826V39.6716H93.0483ZM100.6 35.9573C101.068 35.9573 101.445 36.1293 101.73 36.4734C102.018 36.8174 102.162 37.275 102.162 37.846C102.162 38.4148 102.019 38.8723 101.734 39.2187C101.448 39.5627 101.075 39.7348 100.614 39.7348C100.356 39.7348 100.126 39.6763 99.9221 39.5592C99.7185 39.4422 99.5617 39.2819 99.4517 39.0783H99.4376V40.8898H98.8268V36.0205H99.406V36.6384H99.4201C99.5347 36.4278 99.6951 36.2616 99.901 36.1399C100.107 36.0182 100.34 35.9573 100.6 35.9573ZM100.48 39.1976C100.806 39.1976 101.063 39.0759 101.253 38.8325C101.442 38.5891 101.537 38.2603 101.537 37.846C101.537 37.4318 101.442 37.103 101.253 36.8596C101.063 36.6162 100.806 36.4945 100.48 36.4945C100.167 36.4945 99.9139 36.6185 99.722 36.8666C99.5301 37.1147 99.4341 37.4412 99.4341 37.846C99.4341 38.2533 99.5301 38.5809 99.722 38.829C99.9139 39.0748 100.167 39.1976 100.48 39.1976ZM103.984 39.2152C104.272 39.2152 104.513 39.1263 104.707 38.9484C104.904 38.7682 105.002 38.547 105.002 38.2849V37.9865L104.026 38.0462C103.78 38.0625 103.59 38.1222 103.454 38.2252C103.32 38.3282 103.254 38.4663 103.254 38.6394C103.254 38.8126 103.32 38.9519 103.454 39.0572C103.587 39.1625 103.764 39.2152 103.984 39.2152ZM103.847 39.7348C103.484 39.7348 103.19 39.6341 102.966 39.4328C102.743 39.2316 102.632 38.9671 102.632 38.6394C102.632 38.3258 102.747 38.0754 102.976 37.8882C103.208 37.7009 103.535 37.5956 103.956 37.5722L105.002 37.5125V37.2071C105.002 36.9848 104.932 36.8104 104.791 36.684C104.651 36.5576 104.454 36.4945 104.202 36.4945C103.97 36.4945 103.781 36.5459 103.636 36.6489C103.491 36.7496 103.399 36.8912 103.359 37.0737H102.769C102.79 36.7484 102.931 36.4816 103.19 36.2733C103.453 36.0626 103.794 35.9573 104.216 35.9573C104.644 35.9573 104.983 36.065 105.234 36.2803C105.486 36.4956 105.613 36.7847 105.613 37.1474V39.6716H105.034V39.0432H105.02C104.91 39.2515 104.748 39.4188 104.535 39.5452C104.322 39.6716 104.093 39.7348 103.847 39.7348ZM109.422 37.2176H108.825C108.778 37.007 108.674 36.8338 108.513 36.6981C108.353 36.5623 108.146 36.4945 107.891 36.4945C107.573 36.4945 107.317 36.6173 107.122 36.8631C106.928 37.1065 106.831 37.4341 106.831 37.846C106.831 38.265 106.928 38.595 107.122 38.836C107.319 39.0771 107.578 39.1976 107.898 39.1976C108.144 39.1976 108.346 39.1368 108.506 39.0151C108.667 38.891 108.775 38.7178 108.829 38.4955H109.429C109.382 38.8606 109.217 39.159 108.934 39.3907C108.653 39.6201 108.307 39.7348 107.895 39.7348C107.385 39.7348 106.976 39.5663 106.67 39.2292C106.363 38.8899 106.21 38.4288 106.21 37.846C106.21 37.2726 106.363 36.8151 106.67 36.4734C106.976 36.1293 107.382 35.9573 107.888 35.9573C108.323 35.9573 108.676 36.0802 108.948 36.3259C109.222 36.5717 109.38 36.8689 109.422 37.2176ZM110.187 35.1394H110.798V36.0205H111.507V36.5225H110.798V38.6921C110.798 38.8583 110.834 38.9811 110.907 39.0607C110.979 39.138 111.094 39.1766 111.251 39.1766C111.349 39.1766 111.433 39.1707 111.504 39.159V39.6716C111.424 39.6903 111.295 39.6997 111.117 39.6997C110.783 39.6997 110.544 39.6248 110.401 39.475C110.259 39.3252 110.187 39.0748 110.187 38.7237V36.5225H109.643V36.0205H110.187V35.1394Z" fill="#246EB9"/>
<path d="M18.1886 43.7587H19.6657C20.0448 43.7587 20.3529 43.8763 20.5898 44.1115C20.8268 44.3449 20.9453 44.6512 20.9453 45.0304C20.9453 45.4078 20.8233 45.7141 20.5793 45.9493C20.3371 46.1845 20.0229 46.3021 19.6367 46.3021H18.8679V47.558H18.1886V43.7587ZM18.8679 44.3142V45.7545H19.484C19.728 45.7545 19.9176 45.6913 20.0527 45.5649C20.1879 45.4385 20.2555 45.2603 20.2555 45.0304C20.2555 44.8022 20.1879 44.6258 20.0527 44.5012C19.9193 44.3765 19.7306 44.3142 19.4866 44.3142H18.8679ZM23.4914 47.2263C23.2474 47.4843 22.9191 47.6133 22.5066 47.6133C22.0941 47.6133 21.7659 47.4843 21.5219 47.2263C21.2779 46.9665 21.1559 46.6119 21.1559 46.1626C21.1559 45.715 21.2788 45.3613 21.5245 45.1015C21.7703 44.8399 22.0977 44.7092 22.5066 44.7092C22.9174 44.7092 23.2448 44.8399 23.4887 45.1015C23.7345 45.3613 23.8574 45.715 23.8574 46.1626C23.8574 46.6119 23.7354 46.9665 23.4914 47.2263ZM22.0064 46.8498C22.1293 47.013 22.296 47.0946 22.5066 47.0946C22.7173 47.0946 22.884 47.013 23.0069 46.8498C23.1298 46.6865 23.1912 46.4575 23.1912 46.1626C23.1912 45.8694 23.1298 45.6412 23.0069 45.478C22.884 45.313 22.7173 45.2305 22.5066 45.2305C22.2978 45.2305 22.131 45.313 22.0064 45.478C21.8835 45.6412 21.8221 45.8694 21.8221 46.1626C21.8221 46.4575 21.8835 46.6865 22.0064 46.8498ZM26.7536 44.7671V47.558H26.1217V47.0736H26.1085C25.9541 47.4299 25.6697 47.6081 25.2555 47.6081C24.9518 47.6081 24.7104 47.5159 24.5314 47.3316C24.3541 47.1455 24.2655 46.8919 24.2655 46.5707V44.7671H24.9211V46.439C24.9211 46.6391 24.9685 46.7919 25.0633 46.8972C25.1598 47.0025 25.3002 47.0551 25.4845 47.0551C25.6723 47.0551 25.8216 46.9937 25.9321 46.8708C26.0427 46.748 26.098 46.5847 26.098 46.3811V44.7671H26.7536ZM27.2907 47.558V44.7671H27.92V45.2542H27.9332C27.9806 45.0839 28.0622 44.9523 28.1781 44.8593C28.2957 44.7662 28.437 44.7197 28.602 44.7197C28.6599 44.7197 28.7283 44.7285 28.8073 44.746V45.3385C28.7424 45.3139 28.6537 45.3016 28.5414 45.3016C28.3553 45.3016 28.2097 45.3578 28.1043 45.4701C27.999 45.5824 27.9464 45.7369 27.9464 45.9335V47.558H27.2907ZM30.2897 43.7587H31.6773C32.246 43.7587 32.6892 43.9237 33.0069 44.2537C33.3246 44.5837 33.4835 45.0488 33.4835 45.6491C33.4835 46.2512 33.3246 46.7199 33.0069 47.0551C32.6892 47.3904 32.246 47.558 31.6773 47.558H30.2897V43.7587ZM30.969 44.3327V46.9841H31.6062C31.9888 46.9841 32.282 46.87 32.4856 46.6418C32.6892 46.4136 32.791 46.0836 32.791 45.6518C32.791 45.227 32.6883 44.9014 32.483 44.6749C32.2776 44.4468 31.9853 44.3327 31.6062 44.3327H30.969ZM34.0943 47.587C33.9873 47.587 33.8969 47.551 33.8231 47.4791C33.7512 47.4053 33.7152 47.3149 33.7152 47.2079C33.7152 47.1025 33.7512 47.013 33.8231 46.9393C33.8969 46.8656 33.9873 46.8287 34.0943 46.8287C34.1997 46.8287 34.2883 46.8656 34.3603 46.9393C34.434 47.013 34.4709 47.1025 34.4709 47.2079C34.4709 47.3149 34.434 47.4053 34.3603 47.4791C34.2883 47.551 34.1997 47.587 34.0943 47.587ZM35.1554 43.7587H36.6325C37.0117 43.7587 37.3197 43.8763 37.5567 44.1115C37.7937 44.3449 37.9121 44.6512 37.9121 45.0304C37.9121 45.4078 37.7901 45.7141 37.5462 45.9493C37.3039 46.1845 36.9897 46.3021 36.6036 46.3021H35.8347V47.558H35.1554V43.7587ZM35.8347 44.3142V45.7545H36.4508C36.6948 45.7545 36.8844 45.6913 37.0196 45.5649C37.1547 45.4385 37.2223 45.2603 37.2223 45.0304C37.2223 44.8022 37.1547 44.6258 37.0196 44.5012C36.8862 44.3765 36.6975 44.3142 36.4535 44.3142H35.8347ZM38.4598 47.587C38.3527 47.587 38.2623 47.551 38.1886 47.4791C38.1166 47.4053 38.0807 47.3149 38.0807 47.2079C38.0807 47.1025 38.1166 47.013 38.1886 46.9393C38.2623 46.8656 38.3527 46.8287 38.4598 46.8287C38.5651 46.8287 38.6538 46.8656 38.7257 46.9393C38.7995 47.013 38.8363 47.1025 38.8363 47.2079C38.8363 47.3149 38.7995 47.4053 38.7257 47.4791C38.6538 47.551 38.5651 47.587 38.4598 47.587ZM41.9801 46.9841V47.558H39.5209V43.7587H41.9801V44.3327H40.2002V45.3595H41.8827V45.8993H40.2002V46.9841H41.9801ZM42.9622 47.587C42.8551 47.587 42.7647 47.551 42.691 47.4791C42.619 47.4053 42.583 47.3149 42.583 47.2079C42.583 47.1025 42.619 47.013 42.691 46.9393C42.7647 46.8656 42.8551 46.8287 42.9622 46.8287C43.0675 46.8287 43.1561 46.8656 43.2281 46.9393C43.3018 47.013 43.3387 47.1025 43.3387 47.2079C43.3387 47.3149 43.3018 47.4053 43.2281 47.4791C43.1561 47.551 43.0675 47.587 42.9622 47.587ZM44.7026 47.558H44.0233V43.7587H46.4456V44.3327H44.7026V45.4543H46.2955V46.0072H44.7026V47.558ZM49.1576 45.2173C48.975 45.2173 48.8223 45.2805 48.6994 45.4069C48.5783 45.5315 48.5107 45.6921 48.4967 45.8887H49.8C49.793 45.6904 49.7307 45.5289 49.6131 45.4043C49.4955 45.2796 49.3436 45.2173 49.1576 45.2173ZM49.8026 46.7234H50.4161C50.374 46.9884 50.2397 47.2035 50.0133 47.3685C49.7868 47.5317 49.5095 47.6133 49.1813 47.6133C48.7635 47.6133 48.4352 47.4852 48.1965 47.2289C47.9578 46.9709 47.8384 46.619 47.8384 46.1731C47.8384 45.7308 47.9569 45.3762 48.1939 45.1094C48.4326 44.8426 48.753 44.7092 49.1549 44.7092C49.5499 44.7092 49.8632 44.8364 50.0949 45.091C50.3266 45.3437 50.4424 45.6825 50.4424 46.1073V46.3205H48.4914V46.36C48.4914 46.5847 48.5546 46.7655 48.681 46.9024C48.8091 47.0393 48.9803 47.1078 49.1944 47.1078C49.3454 47.1078 49.4753 47.0736 49.5841 47.0051C49.6947 46.9349 49.7675 46.841 49.8026 46.7234ZM51.048 44.1141H51.7036V44.7671H52.2302V45.2726H51.7036V46.7234C51.7036 46.8375 51.7308 46.9217 51.7853 46.9762C51.8397 47.0306 51.9248 47.0578 52.0407 47.0578C52.1179 47.0578 52.1802 47.0534 52.2276 47.0446V47.5449C52.1486 47.5624 52.0354 47.5712 51.8879 47.5712C51.586 47.5712 51.3701 47.5133 51.2402 47.3974C51.1121 47.2816 51.048 47.0876 51.048 46.8155V45.2726H50.6478V44.7671H51.048V44.1141ZM56.2165 45.7624H55.5978C55.5697 45.6061 55.503 45.4806 55.3977 45.3858C55.2924 45.2893 55.1555 45.241 54.9869 45.241C54.7798 45.241 54.6148 45.3235 54.4919 45.4885C54.3691 45.6518 54.3076 45.8765 54.3076 46.1626C54.3076 46.4522 54.3691 46.6786 54.4919 46.8419C54.6148 47.0034 54.7816 47.0841 54.9922 47.0841C55.1572 47.0841 55.2924 47.0402 55.3977 46.9525C55.503 46.8629 55.5706 46.7383 55.6004 46.5786H56.2192C56.1928 46.891 56.0673 47.142 55.8427 47.3316C55.6197 47.5194 55.3336 47.6133 54.9843 47.6133C54.5736 47.6133 54.2471 47.4843 54.0049 47.2263C53.7626 46.9665 53.6415 46.6119 53.6415 46.1626C53.6415 45.7185 53.7626 45.3657 54.0049 45.1041C54.2471 44.8408 54.5718 44.7092 54.979 44.7092C55.3371 44.7092 55.6268 44.8092 55.8479 45.0093C56.0709 45.2077 56.1937 45.4587 56.2165 45.7624ZM58.8311 47.2263C58.5871 47.4843 58.2588 47.6133 57.8464 47.6133C57.4339 47.6133 57.1056 47.4843 56.8616 47.2263C56.6176 46.9665 56.4956 46.6119 56.4956 46.1626C56.4956 45.715 56.6185 45.3613 56.8643 45.1015C57.11 44.8399 57.4374 44.7092 57.8464 44.7092C58.2571 44.7092 58.5845 44.8399 58.8284 45.1015C59.0742 45.3613 59.1971 45.715 59.1971 46.1626C59.1971 46.6119 59.0751 46.9665 58.8311 47.2263ZM57.3461 46.8498C57.469 47.013 57.6357 47.0946 57.8464 47.0946C58.057 47.0946 58.2237 47.013 58.3466 46.8498C58.4695 46.6865 58.5309 46.4575 58.5309 46.1626C58.5309 45.8694 58.4695 45.6412 58.3466 45.478C58.2237 45.313 58.057 45.2305 57.8464 45.2305C57.6375 45.2305 57.4707 45.313 57.3461 45.478C57.2232 45.6412 57.1618 45.8694 57.1618 46.1626C57.1618 46.4575 57.2232 46.6865 57.3461 46.8498ZM59.6183 47.558V44.7671H60.2476V45.2516H60.2608C60.3222 45.0866 60.4232 44.9558 60.5636 44.8593C60.704 44.7627 60.8681 44.7144 61.0559 44.7144C61.2525 44.7144 61.4184 44.7636 61.5536 44.8619C61.6905 44.9584 61.7844 45.0962 61.8353 45.2753H61.8511C61.9178 45.1032 62.0284 44.9672 62.1829 44.8672C62.3391 44.7653 62.5181 44.7144 62.72 44.7144C62.9956 44.7144 63.2159 44.7996 63.3809 44.9698C63.5476 45.1401 63.631 45.3648 63.631 45.6439V47.558H62.9754V45.8045C62.9754 45.6325 62.9315 45.4999 62.8437 45.4069C62.7577 45.3139 62.6348 45.2674 62.4751 45.2674C62.3171 45.2674 62.189 45.32 62.0907 45.4253C61.9924 45.5307 61.9433 45.6667 61.9433 45.8334V47.558H61.3061V45.7703C61.3061 45.6158 61.2613 45.4938 61.1718 45.4043C61.084 45.313 60.9638 45.2674 60.8111 45.2674C60.6531 45.2674 60.5241 45.3227 60.424 45.4332C60.324 45.5421 60.2739 45.6807 60.2739 45.8492V47.558H59.6183ZM64.1576 47.558V44.7671H64.7869V45.2516H64.8C64.8615 45.0866 64.9624 44.9558 65.1028 44.8593C65.2432 44.7627 65.4074 44.7144 65.5952 44.7144C65.7918 44.7144 65.9577 44.7636 66.0928 44.8619C66.2297 44.9584 66.3236 45.0962 66.3745 45.2753H66.3903C66.457 45.1032 66.5676 44.9672 66.7221 44.8672C66.8783 44.7653 67.0574 44.7144 67.2592 44.7144C67.5348 44.7144 67.7551 44.7996 67.9201 44.9698C68.0868 45.1401 68.1702 45.3648 68.1702 45.6439V47.558H67.5146V45.8045C67.5146 45.6325 67.4707 45.4999 67.383 45.4069C67.297 45.3139 67.1741 45.2674 67.0143 45.2674C66.8564 45.2674 66.7282 45.32 66.6299 45.4253C66.5316 45.5307 66.4825 45.6667 66.4825 45.8334V47.558H65.8453V45.7703C65.8453 45.6158 65.8006 45.4938 65.711 45.4043C65.6233 45.313 65.503 45.2674 65.3503 45.2674C65.1923 45.2674 65.0633 45.3227 64.9633 45.4332C64.8632 45.5421 64.8132 45.6807 64.8132 45.8492V47.558H64.1576ZM71.1718 44.7671V47.558H70.5399V47.0736H70.5267C70.3723 47.4299 70.0879 47.6081 69.6736 47.6081C69.37 47.6081 69.1286 47.5159 68.9496 47.3316C68.7723 47.1455 68.6837 46.8919 68.6837 46.5707V44.7671H69.3393V46.439C69.3393 46.6391 69.3867 46.7919 69.4814 46.8972C69.578 47.0025 69.7184 47.0551 69.9027 47.0551C70.0905 47.0551 70.2397 46.9937 70.3503 46.8708C70.4609 46.748 70.5162 46.5847 70.5162 46.3811V44.7671H71.1718ZM71.7089 47.558V44.7671H72.3382V45.2463H72.3514C72.4286 45.0778 72.5409 44.947 72.6884 44.854C72.8376 44.761 73.0175 44.7144 73.2282 44.7144C73.5336 44.7144 73.7705 44.8066 73.9391 44.9909C74.1093 45.1752 74.1945 45.4297 74.1945 45.7545V47.558H73.5388V45.8861C73.5388 45.686 73.4915 45.5333 73.3967 45.428C73.3036 45.3227 73.165 45.27 72.9807 45.27C72.7928 45.27 72.6428 45.3314 72.5304 45.4543C72.4198 45.5772 72.3645 45.7395 72.3645 45.9414V47.558H71.7089ZM74.7368 47.558V44.7671H75.3925V47.558H74.7368ZM75.3214 44.2984C75.2512 44.3669 75.1651 44.4011 75.0633 44.4011C74.9615 44.4011 74.8755 44.3669 74.8053 44.2984C74.7351 44.2282 74.7 44.144 74.7 44.0457C74.7 43.9456 74.7351 43.8614 74.8053 43.7929C74.8755 43.7227 74.9615 43.6876 75.0633 43.6876C75.1651 43.6876 75.2512 43.7227 75.3214 43.7929C75.3933 43.8614 75.4293 43.9456 75.4293 44.0457C75.4293 44.144 75.3933 44.2282 75.3214 44.2984ZM78.4019 45.7624H77.7832C77.7551 45.6061 77.6884 45.4806 77.5831 45.3858C77.4778 45.2893 77.3409 45.241 77.1723 45.241C76.9652 45.241 76.8002 45.3235 76.6773 45.4885C76.5545 45.6518 76.493 45.8765 76.493 46.1626C76.493 46.4522 76.5545 46.6786 76.6773 46.8419C76.8002 47.0034 76.967 47.0841 77.1776 47.0841C77.3426 47.0841 77.4778 47.0402 77.5831 46.9525C77.6884 46.8629 77.756 46.7383 77.7858 46.5786H78.4046C78.3782 46.891 78.2527 47.142 78.0281 47.3316C77.8051 47.5194 77.519 47.6133 77.1697 47.6133C76.759 47.6133 76.4325 47.4843 76.1902 47.2263C75.948 46.9665 75.8269 46.6119 75.8269 46.1626C75.8269 45.7185 75.948 45.3657 76.1902 45.1041C76.4325 44.8408 76.7572 44.7092 77.1644 44.7092C77.5225 44.7092 77.8122 44.8092 78.0333 45.0093C78.2562 45.2077 78.3791 45.4587 78.4019 45.7624ZM79.8158 47.1078C80.0037 47.1078 80.1616 47.0525 80.2898 46.9419C80.4197 46.8296 80.4846 46.69 80.4846 46.5233V46.31L79.8395 46.3495C79.6816 46.36 79.5587 46.3995 79.4709 46.468C79.3849 46.5347 79.3419 46.6233 79.3419 46.7339C79.3419 46.848 79.3849 46.9393 79.4709 47.0078C79.5587 47.0745 79.6737 47.1078 79.8158 47.1078ZM79.6184 47.6028C79.3463 47.6028 79.1225 47.5247 78.947 47.3685C78.7732 47.2122 78.6863 47.0095 78.6863 46.7603C78.6863 46.5128 78.7776 46.317 78.9601 46.1731C79.1444 46.0292 79.4069 45.9467 79.7474 45.9256L80.4846 45.8835V45.6834C80.4846 45.5377 80.4381 45.4245 80.3451 45.3437C80.2538 45.263 80.1265 45.2226 79.9633 45.2226C79.8106 45.2226 79.6859 45.2568 79.5894 45.3253C79.4929 45.3937 79.4341 45.4868 79.413 45.6044H78.8048C78.8188 45.3393 78.932 45.1243 79.1444 44.9593C79.3586 44.7925 79.6403 44.7092 79.9896 44.7092C80.3354 44.7092 80.6119 44.7934 80.819 44.9619C81.0279 45.1304 81.1323 45.3551 81.1323 45.636V47.558H80.5004V47.1131H80.4872C80.4083 47.2623 80.2889 47.3816 80.1292 47.4712C79.9694 47.5589 79.7992 47.6028 79.6184 47.6028ZM81.8432 44.1141H82.4988V44.7671H83.0254V45.2726H82.4988V46.7234C82.4988 46.8375 82.526 46.9217 82.5805 46.9762C82.6349 47.0306 82.72 47.0578 82.8359 47.0578C82.9131 47.0578 82.9754 47.0534 83.0228 47.0446V47.5449C82.9438 47.5624 82.8306 47.5712 82.6831 47.5712C82.3812 47.5712 82.1653 47.5133 82.0354 47.3974C81.9073 47.2816 81.8432 47.0876 81.8432 46.8155V45.2726H81.443V44.7671H81.8432V44.1141ZM83.4888 47.558V44.7671H84.1444V47.558H83.4888ZM84.0734 44.2984C84.0031 44.3669 83.9171 44.4011 83.8153 44.4011C83.7135 44.4011 83.6275 44.3669 83.5573 44.2984C83.4871 44.2282 83.452 44.144 83.452 44.0457C83.452 43.9456 83.4871 43.8614 83.5573 43.7929C83.6275 43.7227 83.7135 43.6876 83.8153 43.6876C83.9171 43.6876 84.0031 43.7227 84.0734 43.7929C84.1453 43.8614 84.1813 43.9456 84.1813 44.0457C84.1813 44.144 84.1453 44.2282 84.0734 44.2984ZM86.9143 47.2263C86.6703 47.4843 86.3421 47.6133 85.9296 47.6133C85.5171 47.6133 85.1889 47.4843 84.9449 47.2263C84.7009 46.9665 84.5789 46.6119 84.5789 46.1626C84.5789 45.715 84.7018 45.3613 84.9475 45.1015C85.1932 44.8399 85.5206 44.7092 85.9296 44.7092C86.3403 44.7092 86.6677 44.8399 86.9117 45.1015C87.1574 45.3613 87.2803 45.715 87.2803 46.1626C87.2803 46.6119 87.1583 46.9665 86.9143 47.2263ZM85.4293 46.8498C85.5522 47.013 85.719 47.0946 85.9296 47.0946C86.1402 47.0946 86.307 47.013 86.4299 46.8498C86.5527 46.6865 86.6142 46.4575 86.6142 46.1626C86.6142 45.8694 86.5527 45.6412 86.4299 45.478C86.307 45.313 86.1402 45.2305 85.9296 45.2305C85.7207 45.2305 85.554 45.313 85.4293 45.478C85.3065 45.6412 85.245 45.8694 85.245 46.1626C85.245 46.4575 85.3065 46.6865 85.4293 46.8498ZM87.7016 47.558V44.7671H88.3309V45.2463H88.344C88.4213 45.0778 88.5336 44.947 88.681 44.854C88.8303 44.761 89.0102 44.7144 89.2208 44.7144C89.5262 44.7144 89.7632 44.8066 89.9317 44.9909C90.102 45.1752 90.1871 45.4297 90.1871 45.7545V47.558H89.5315V45.8861C89.5315 45.686 89.4841 45.5333 89.3893 45.428C89.2963 45.3227 89.1576 45.27 88.9733 45.27C88.7855 45.27 88.6354 45.3314 88.5231 45.4543C88.4125 45.5772 88.3572 45.7395 88.3572 45.9414V47.558H87.7016ZM92.5384 44.309V45.607H93.3045C93.5204 45.607 93.6881 45.55 93.8074 45.4359C93.9268 45.3218 93.9865 45.162 93.9865 44.9567C93.9865 44.7566 93.9242 44.5986 93.7995 44.4827C93.6749 44.3669 93.5055 44.309 93.2914 44.309H92.5384ZM92.5384 46.1283V47.558H91.859V43.7587H93.3677C93.7767 43.7587 94.0979 43.8649 94.3314 44.0773C94.5649 44.2879 94.6816 44.5758 94.6816 44.9409C94.6816 45.1954 94.6184 45.4201 94.492 45.6149C94.3656 45.808 94.1901 45.9449 93.9654 46.0257L94.7948 47.558H94.0207L93.2729 46.1283H92.5384ZM95.0739 46.4891H95.7321C95.7532 46.6628 95.8427 46.8033 96.0007 46.9103C96.1587 47.0157 96.3544 47.0683 96.5879 47.0683C96.816 47.0683 97.0021 47.0174 97.146 46.9156C97.2917 46.8138 97.3646 46.6839 97.3646 46.5259C97.3646 46.389 97.3119 46.2784 97.2066 46.1942C97.1013 46.1082 96.9293 46.0371 96.6905 45.9809L96.1982 45.865C95.8489 45.7843 95.5891 45.6588 95.4188 45.4885C95.2503 45.3183 95.1661 45.0971 95.1661 44.825C95.1661 44.4898 95.2977 44.2177 95.561 44.0088C95.8243 43.7999 96.164 43.6955 96.58 43.6955C96.9977 43.6955 97.3339 43.799 97.5884 44.0062C97.8447 44.2115 97.9772 44.4819 97.986 44.8171H97.3383C97.3225 44.6398 97.2461 44.5012 97.1092 44.4011C96.9723 44.2993 96.7941 44.2484 96.5747 44.2484C96.3605 44.2484 96.1868 44.2967 96.0534 44.3932C95.9217 44.4898 95.8559 44.617 95.8559 44.775C95.8559 44.9014 95.9068 45.0041 96.0086 45.0831C96.1122 45.162 96.2807 45.2296 96.5141 45.2858L96.9512 45.3858C97.3356 45.4736 97.6147 45.6017 97.7885 45.7703C97.9623 45.9388 98.0492 46.1643 98.0492 46.4469C98.0492 46.8068 97.914 47.0929 97.6437 47.3053C97.3751 47.5159 97.0109 47.6212 96.551 47.6212C96.1122 47.6212 95.7594 47.5203 95.4925 47.3184C95.2275 47.1148 95.0879 46.8384 95.0739 46.4891ZM101.022 46.9841V47.558H98.5626V43.7587H101.022V44.3327H99.2419V45.3595H100.924V45.8993H99.2419V46.9841H101.022Z" fill="#6B7885"/>
<path d="M18.1886 67.1245H19.5761C20.1449 67.1245 20.5881 67.2895 20.9058 67.6195C21.2235 67.9495 21.3824 68.4146 21.3824 69.0149C21.3824 69.617 21.2235 70.0857 20.9058 70.4209C20.5881 70.7562 20.1449 70.9238 19.5761 70.9238H18.1886V67.1245ZM18.8679 67.6984V70.3498H19.5051C19.8877 70.3498 20.1809 70.2357 20.3845 70.0076C20.5881 69.7794 20.6899 69.4494 20.6899 69.0176C20.6899 68.5928 20.5872 68.2672 20.3818 68.0407C20.1765 67.8125 19.8842 67.6984 19.5051 67.6984H18.8679ZM22.6014 67.1245V69.5231C22.6014 69.7864 22.6787 69.9979 22.8331 70.1576C22.9894 70.3156 23.2061 70.3946 23.4835 70.3946C23.7608 70.3946 23.9776 70.3156 24.1338 70.1576C24.29 69.9979 24.3682 69.7864 24.3682 69.5231V67.1245H25.0448V69.5836C25.0448 70.0032 24.9035 70.3419 24.6209 70.6C24.3401 70.858 23.9609 70.987 23.4835 70.987C23.0078 70.987 22.6286 70.858 22.346 70.6C22.0634 70.3419 21.9221 70.0032 21.9221 69.5836V67.1245H22.6014ZM28.1781 70.3498V70.9238H25.7189V67.1245H28.1781V67.6984H26.3982V68.7253H28.0806V69.2651H26.3982V70.3498H28.1781ZM29.4471 67.6747V68.9728H30.2133C30.4292 68.9728 30.5969 68.9158 30.7162 68.8017C30.8356 68.6876 30.8953 68.5278 30.8953 68.3225C30.8953 68.1223 30.833 67.9644 30.7083 67.8485C30.5837 67.7327 30.4143 67.6747 30.2002 67.6747H29.4471ZM29.4471 69.4941V70.9238H28.7678V67.1245H30.2765C30.6855 67.1245 31.0067 67.2307 31.2402 67.443C31.4737 67.6537 31.5904 67.9416 31.5904 68.3067C31.5904 68.5612 31.5272 68.7859 31.4008 68.9807C31.2744 69.1738 31.0989 69.3107 30.8742 69.3914L31.7036 70.9238H30.9295L30.1817 69.4941H29.4471ZM32.138 67.1245H33.6151C33.9943 67.1245 34.3023 67.2421 34.5393 67.4773C34.7763 67.7107 34.8948 68.017 34.8948 68.3962C34.8948 68.7736 34.7728 69.0799 34.5288 69.3151C34.2865 69.5503 33.9723 69.6679 33.5862 69.6679H32.8173V70.9238H32.138V67.1245ZM32.8173 67.68V69.1202H33.4335C33.6775 69.1202 33.867 69.0571 34.0022 68.9307C34.1373 68.8043 34.2049 68.6261 34.2049 68.3962C34.2049 68.168 34.1373 67.9916 34.0022 67.867C33.8688 67.7423 33.6801 67.68 33.4361 67.68H32.8173ZM35.4556 71.7269H34.9527L35.1712 70.2972H35.811L35.4556 71.7269ZM38.4203 68.5831C38.2378 68.5831 38.085 68.6463 37.9622 68.7727C37.8411 68.8973 37.7735 69.0579 37.7594 69.2545H39.0628C39.0557 69.0562 38.9934 68.8947 38.8758 68.7701C38.7582 68.6454 38.6064 68.5831 38.4203 68.5831ZM39.0654 70.0892H39.6789C39.6367 70.3542 39.5025 70.5693 39.276 70.7343C39.0496 70.8975 38.7722 70.9791 38.444 70.9791C38.0262 70.9791 37.698 70.851 37.4593 70.5947C37.2206 70.3367 37.1012 69.9847 37.1012 69.5389C37.1012 69.0965 37.2197 68.742 37.4566 68.4752C37.6954 68.2084 38.0157 68.075 38.4177 68.075C38.8126 68.075 39.1259 68.2022 39.3576 68.4567C39.5893 68.7095 39.7052 69.0483 39.7052 69.4731V69.6863H37.7542V69.7258C37.7542 69.9505 37.8174 70.1313 37.9437 70.2682C38.0719 70.4051 38.243 70.4736 38.4572 70.4736C38.6081 70.4736 38.738 70.4394 38.8468 70.3709C38.9574 70.3007 39.0303 70.2068 39.0654 70.0892ZM38.6836 67.7353H38.1491L38.7205 66.927H39.3471L38.6836 67.7353ZM41.3613 70.4051C41.572 70.4051 41.7396 70.3261 41.8642 70.1682C41.9889 70.0084 42.0512 69.7925 42.0512 69.5205C42.0512 69.2484 41.988 69.0316 41.8616 68.8701C41.737 68.7069 41.5702 68.6252 41.3613 68.6252C41.1542 68.6252 40.9892 68.706 40.8663 68.8675C40.7452 69.029 40.6847 69.2466 40.6847 69.5205C40.6847 69.796 40.7452 70.0128 40.8663 70.1708C40.9892 70.327 41.1542 70.4051 41.3613 70.4051ZM41.3587 71.977C41.0164 71.977 40.7303 71.898 40.5004 71.74C40.2722 71.5838 40.1414 71.382 40.108 71.1345H40.7584C40.7935 71.2415 40.8672 71.3276 40.9796 71.3925C41.0919 71.4592 41.2253 71.4925 41.3798 71.4925C41.5904 71.4925 41.7545 71.4381 41.8721 71.3293C41.9915 71.2222 42.0512 71.0783 42.0512 70.8975V70.4262H42.0354C41.9616 70.5789 41.8467 70.7009 41.6905 70.7922C41.536 70.8817 41.3596 70.9265 41.1612 70.9265C40.8137 70.9265 40.5355 70.8001 40.3266 70.5473C40.1177 70.2928 40.0133 69.9496 40.0133 69.5178C40.0133 69.0772 40.1177 68.7288 40.3266 68.4725C40.5355 68.2145 40.8181 68.0855 41.1744 68.0855C41.371 68.0855 41.5465 68.1329 41.701 68.2277C41.8555 68.3207 41.9731 68.4488 42.0538 68.6121H42.0643V68.1329H42.7068V70.8791C42.7068 71.2126 42.5839 71.4785 42.3382 71.6769C42.0924 71.877 41.7659 71.977 41.3587 71.977ZM44.2602 70.4736C44.448 70.4736 44.606 70.4183 44.7342 70.3077C44.8641 70.1954 44.929 70.0558 44.929 69.8891V69.6758L44.2839 69.7153C44.126 69.7258 44.0031 69.7653 43.9153 69.8338C43.8293 69.9005 43.7863 69.9891 43.7863 70.0997C43.7863 70.2138 43.8293 70.3051 43.9153 70.3735C44.0031 70.4402 44.1181 70.4736 44.2602 70.4736ZM44.0628 70.9686C43.7907 70.9686 43.5669 70.8905 43.3914 70.7343C43.2176 70.578 43.1307 70.3753 43.1307 70.126C43.1307 69.8785 43.222 69.6828 43.4045 69.5389C43.5888 69.395 43.8512 69.3125 44.1918 69.2914L44.929 69.2493V69.0492C44.929 68.9035 44.8825 68.7902 44.7895 68.7095C44.6982 68.6288 44.5709 68.5884 44.4077 68.5884C44.255 68.5884 44.1303 68.6226 44.0338 68.6911C43.9373 68.7595 43.8785 68.8526 43.8574 68.9702H43.2492C43.2632 68.7051 43.3764 68.4901 43.5888 68.3251C43.803 68.1583 44.0847 68.075 44.434 68.075C44.7798 68.075 45.0563 68.1592 45.2634 68.3277C45.4723 68.4962 45.5767 68.7209 45.5767 69.0018V70.9238H44.9448V70.4789H44.9316C44.8526 70.6281 44.7333 70.7474 44.5736 70.8369C44.4138 70.9247 44.2436 70.9686 44.0628 70.9686ZM46.1244 70.9238V67.1245H46.78V70.9238H46.1244ZM47.354 70.9238V68.1329H48.0096V70.9238H47.354ZM47.9385 67.6642C47.8683 67.7327 47.7823 67.7669 47.6805 67.7669C47.5786 67.7669 47.4926 67.7327 47.4224 67.6642C47.3522 67.594 47.3171 67.5097 47.3171 67.4114C47.3171 67.3114 47.3522 67.2271 47.4224 67.1587C47.4926 67.0885 47.5786 67.0534 47.6805 67.0534C47.7823 67.0534 47.8683 67.0885 47.9385 67.1587C48.0105 67.2271 48.0464 67.3114 48.0464 67.4114C48.0464 67.5097 48.0105 67.594 47.9385 67.6642ZM48.7415 67.4799H49.3972V68.1329H49.9237V68.6384H49.3972V70.0892C49.3972 70.2033 49.4244 70.2875 49.4788 70.3419C49.5332 70.3964 49.6183 70.4236 49.7342 70.4236C49.8114 70.4236 49.8737 70.4192 49.9211 70.4104V70.9107C49.8421 70.9282 49.7289 70.937 49.5815 70.937C49.2795 70.937 49.0636 70.8791 48.9338 70.7632C48.8056 70.6474 48.7415 70.4534 48.7415 70.1813V68.6384H48.3413V68.1329H48.7415V67.4799ZM51.522 68.5831C51.3394 68.5831 51.1867 68.6463 51.0638 68.7727C50.9427 68.8973 50.8751 69.0579 50.8611 69.2545H52.1644C52.1574 69.0562 52.0951 68.8947 51.9775 68.7701C51.8599 68.6454 51.708 68.5831 51.522 68.5831ZM52.167 70.0892H52.7805C52.7384 70.3542 52.6041 70.5693 52.3777 70.7343C52.1512 70.8975 51.8739 70.9791 51.5457 70.9791C51.1279 70.9791 50.7996 70.851 50.5609 70.5947C50.3222 70.3367 50.2028 69.9847 50.2028 69.5389C50.2028 69.0965 50.3213 68.742 50.5583 68.4752C50.797 68.2084 51.1174 68.075 51.5193 68.075C51.9143 68.075 52.2276 68.2022 52.4593 68.4567C52.691 68.7095 52.8068 69.0483 52.8068 69.4731V69.6863H50.8558V69.7258C50.8558 69.9505 50.919 70.1313 51.0454 70.2682C51.1735 70.4051 51.3447 70.4736 51.5588 70.4736C51.7098 70.4736 51.8397 70.4394 51.9485 70.3709C52.0591 70.3007 52.1319 70.2068 52.167 70.0892ZM51.7853 67.7353H51.2508L51.8221 66.927H52.4488L51.7853 67.7353ZM54.3287 70.9238V67.1245H54.9764V68.6121H54.9896C55.0651 68.4418 55.1783 68.311 55.3292 68.2198C55.4802 68.1267 55.661 68.0802 55.8716 68.0802C56.177 68.0802 56.4158 68.1741 56.5878 68.3619C56.7616 68.548 56.8485 68.8025 56.8485 69.1255V70.9238H56.1928V69.2598C56.1928 69.0614 56.1437 68.9079 56.0454 68.799C55.9489 68.6902 55.8067 68.6358 55.6189 68.6358C55.4223 68.6358 55.2669 68.6981 55.1528 68.8227C55.0405 68.9473 54.9843 69.1132 54.9843 69.3204V70.9238H54.3287ZM59.5946 70.5921C59.3507 70.8501 59.0224 70.9791 58.6099 70.9791C58.1974 70.9791 57.8692 70.8501 57.6252 70.5921C57.3812 70.3323 57.2592 69.9777 57.2592 69.5284C57.2592 69.0807 57.3821 68.7271 57.6278 68.4673C57.8736 68.2057 58.2009 68.075 58.6099 68.075C59.0207 68.075 59.348 68.2057 59.592 68.4673C59.8378 68.7271 59.9606 69.0807 59.9606 69.5284C59.9606 69.9777 59.8386 70.3323 59.5946 70.5921ZM58.1096 70.2156C58.2325 70.3788 58.3993 70.4604 58.6099 70.4604C58.8205 70.4604 58.9873 70.3788 59.1102 70.2156C59.233 70.0523 59.2945 69.8232 59.2945 69.5284C59.2945 69.2352 59.233 69.007 59.1102 68.8438C58.9873 68.6788 58.8205 68.5963 58.6099 68.5963C58.401 68.5963 58.2343 68.6788 58.1096 68.8438C57.9868 69.007 57.9253 69.2352 57.9253 69.5284C57.9253 69.8232 57.9868 70.0523 58.1096 70.2156ZM60.3819 70.9238V68.1329H61.0112V68.6173H61.0243C61.0858 68.4523 61.1867 68.3216 61.3271 68.225C61.4676 68.1285 61.6317 68.0802 61.8195 68.0802C62.0161 68.0802 62.182 68.1294 62.3171 68.2277C62.454 68.3242 62.548 68.462 62.5989 68.641H62.6147C62.6814 68.469 62.7919 68.333 62.9464 68.2329C63.1026 68.1311 63.2817 68.0802 63.4835 68.0802C63.7591 68.0802 63.9794 68.1654 64.1444 68.3356C64.3112 68.5059 64.3945 68.7306 64.3945 69.0097V70.9238H63.7389V69.1703C63.7389 68.9983 63.6951 68.8657 63.6073 68.7727C63.5213 68.6797 63.3984 68.6331 63.2387 68.6331C63.0807 68.6331 62.9526 68.6858 62.8543 68.7911C62.756 68.8964 62.7068 69.0325 62.7068 69.1992V70.9238H62.0696V69.136C62.0696 68.9816 62.0249 68.8596 61.9354 68.7701C61.8476 68.6788 61.7273 68.6331 61.5746 68.6331C61.4167 68.6331 61.2876 68.6884 61.1876 68.799C61.0875 68.9079 61.0375 69.0465 61.0375 69.215V70.9238H60.3819ZM64.9211 70.9238V68.1329H65.5504V68.6173H65.5636C65.625 68.4523 65.726 68.3216 65.8664 68.225C66.0068 68.1285 66.1709 68.0802 66.3587 68.0802C66.5553 68.0802 66.7212 68.1294 66.8564 68.2277C66.9933 68.3242 67.0872 68.462 67.1381 68.641H67.1539C67.2206 68.469 67.3312 68.333 67.4857 68.2329C67.6419 68.1311 67.8209 68.0802 68.0228 68.0802C68.2984 68.0802 68.5187 68.1654 68.6837 68.3356C68.8504 68.5059 68.9338 68.7306 68.9338 69.0097V70.9238H68.2782V69.1703C68.2782 68.9983 68.2343 68.8657 68.1465 68.7727C68.0605 68.6797 67.9376 68.6331 67.7779 68.6331C67.6199 68.6331 67.4918 68.6858 67.3935 68.7911C67.2952 68.8964 67.2461 69.0325 67.2461 69.1992V70.9238H66.6089V69.136C66.6089 68.9816 66.5641 68.8596 66.4746 68.7701C66.3868 68.6788 66.2666 68.6331 66.1139 68.6331C65.9559 68.6331 65.8269 68.6884 65.7268 68.799C65.6268 68.9079 65.5767 69.0465 65.5767 69.215V70.9238H64.9211ZM70.6636 68.5831C70.4811 68.5831 70.3284 68.6463 70.2055 68.7727C70.0844 68.8973 70.0168 69.0579 70.0028 69.2545H71.3061C71.2991 69.0562 71.2368 68.8947 71.1191 68.7701C71.0015 68.6454 70.8497 68.5831 70.6636 68.5831ZM71.3087 70.0892H71.9222C71.8801 70.3542 71.7458 70.5693 71.5194 70.7343C71.2929 70.8975 71.0156 70.9791 70.6873 70.9791C70.2696 70.9791 69.9413 70.851 69.7026 70.5947C69.4639 70.3367 69.3445 69.9847 69.3445 69.5389C69.3445 69.0965 69.463 68.742 69.7 68.4752C69.9387 68.2084 70.259 68.075 70.661 68.075C71.056 68.075 71.3693 68.2022 71.601 68.4567C71.8327 68.7095 71.9485 69.0483 71.9485 69.4731V69.6863H69.9975V69.7258C69.9975 69.9505 70.0607 70.1313 70.1871 70.2682C70.3152 70.4051 70.4864 70.4736 70.7005 70.4736C70.8515 70.4736 70.9814 70.4394 71.0902 70.3709C71.2008 70.3007 71.2736 70.2068 71.3087 70.0892ZM72.3224 68.9333C72.3224 68.677 72.426 68.4699 72.6331 68.3119C72.8402 68.1539 73.1132 68.075 73.452 68.075C73.7784 68.075 74.0435 68.1557 74.2471 68.3172C74.4525 68.4769 74.5596 68.6858 74.5683 68.9438H73.9575C73.947 68.8227 73.8961 68.7279 73.8048 68.6595C73.7135 68.591 73.5915 68.5568 73.4388 68.5568C73.2949 68.5568 73.179 68.5884 73.0912 68.6516C73.0035 68.713 72.9596 68.7946 72.9596 68.8964C72.9596 69.0509 73.093 69.1606 73.3598 69.2256L73.8574 69.3361C74.1365 69.4011 74.3358 69.4924 74.4551 69.61C74.5745 69.7276 74.6342 69.8899 74.6342 70.0971C74.6342 70.3604 74.5236 70.5736 74.3024 70.7369C74.0812 70.8984 73.7942 70.9791 73.4414 70.9791C73.0939 70.9791 72.8139 70.9001 72.6015 70.7422C72.3909 70.5824 72.2741 70.3691 72.2513 70.1023H72.8964C72.9157 70.2305 72.9736 70.3288 73.0702 70.3972C73.1685 70.4657 73.3001 70.4999 73.4651 70.4999C73.6249 70.4999 73.7504 70.4701 73.8416 70.4104C73.9347 70.349 73.9812 70.2665 73.9812 70.1629C73.9812 70.0822 73.9522 70.0181 73.8943 69.9707C73.8381 69.9215 73.7425 69.8794 73.6073 69.8443L73.0991 69.7258C72.5813 69.6047 72.3224 69.3405 72.3224 68.9333ZM75.3793 71.7374H74.7842L76.1323 67.1245H76.7274L75.3793 71.7374ZM77.2039 70.9238V68.6384H76.8222V68.1408H77.2039V67.8933C77.2039 67.6195 77.2724 67.4185 77.4093 67.2903C77.548 67.1604 77.7674 67.0955 78.0676 67.0955C78.2027 67.0955 78.3203 67.1051 78.4204 67.1245V67.5826C78.3466 67.5721 78.2773 67.5668 78.2124 67.5668C77.9701 67.5668 77.849 67.6818 77.849 67.9117V68.1408H78.4072V68.6384H77.8595V70.9238H77.2039ZM79.9422 68.5831C79.7597 68.5831 79.607 68.6463 79.4841 68.7727C79.363 68.8973 79.2954 69.0579 79.2814 69.2545H80.5847C80.5777 69.0562 80.5153 68.8947 80.3977 68.7701C80.2801 68.6454 80.1283 68.5831 79.9422 68.5831ZM80.5873 70.0892H81.2008C81.1587 70.3542 81.0244 70.5693 80.7979 70.7343C80.5715 70.8975 80.2942 70.9791 79.9659 70.9791C79.5482 70.9791 79.2199 70.851 78.9812 70.5947C78.7425 70.3367 78.6231 69.9847 78.6231 69.5389C78.6231 69.0965 78.7416 68.742 78.9786 68.4752C79.2173 68.2084 79.5376 68.075 79.9396 68.075C80.3345 68.075 80.6479 68.2022 80.8796 68.4567C81.1113 68.7095 81.2271 69.0483 81.2271 69.4731V69.6863H79.2761V69.7258C79.2761 69.9505 79.3393 70.1313 79.4657 70.2682C79.5938 70.4051 79.7649 70.4736 79.9791 70.4736C80.13 70.4736 80.2599 70.4394 80.3688 70.3709C80.4794 70.3007 80.5522 70.2068 80.5873 70.0892ZM81.651 70.9238V68.1329H82.2803V68.6173H82.2935C82.3549 68.4523 82.4558 68.3216 82.5963 68.225C82.7367 68.1285 82.9008 68.0802 83.0886 68.0802C83.2852 68.0802 83.4511 68.1294 83.5863 68.2277C83.7232 68.3242 83.8171 68.462 83.868 68.641H83.8838C83.9505 68.469 84.0611 68.333 84.2155 68.2329C84.3718 68.1311 84.5508 68.0802 84.7527 68.0802C85.0282 68.0802 85.2485 68.1654 85.4135 68.3356C85.5803 68.5059 85.6637 68.7306 85.6637 69.0097V70.9238H85.0081V69.1703C85.0081 68.9983 84.9642 68.8657 84.8764 68.7727C84.7904 68.6797 84.6675 68.6331 84.5078 68.6331C84.3498 68.6331 84.2217 68.6858 84.1234 68.7911C84.0251 68.8964 83.9759 69.0325 83.9759 69.1992V70.9238H83.3388V69.136C83.3388 68.9816 83.294 68.8596 83.2045 68.7701C83.1167 68.6788 82.9965 68.6331 82.8438 68.6331C82.6858 68.6331 82.5568 68.6884 82.4567 68.799C82.3567 68.9079 82.3066 69.0465 82.3066 69.215V70.9238H81.651ZM86.1903 70.9238V68.1329H86.8195V68.6173H86.8327C86.8941 68.4523 86.9951 68.3216 87.1355 68.225C87.2759 68.1285 87.44 68.0802 87.6279 68.0802C87.8245 68.0802 87.9903 68.1294 88.1255 68.2277C88.2624 68.3242 88.3563 68.462 88.4072 68.641H88.423C88.4897 68.469 88.6003 68.333 88.7548 68.2329C88.911 68.1311 89.09 68.0802 89.2919 68.0802C89.5675 68.0802 89.7878 68.1654 89.9528 68.3356C90.1195 68.5059 90.2029 68.7306 90.2029 69.0097V70.9238H89.5473V69.1703C89.5473 68.9983 89.5034 68.8657 89.4156 68.7727C89.3296 68.6797 89.2068 68.6331 89.047 68.6331C88.8891 68.6331 88.7609 68.6858 88.6626 68.7911C88.5643 68.8964 88.5152 69.0325 88.5152 69.1992V70.9238H87.878V69.136C87.878 68.9816 87.8332 68.8596 87.7437 68.7701C87.6559 68.6788 87.5357 68.6331 87.383 68.6331C87.225 68.6331 87.096 68.6884 86.996 68.799C86.8959 68.9079 86.8459 69.0465 86.8459 69.215V70.9238H86.1903ZM91.9328 68.5831C91.7502 68.5831 91.5975 68.6463 91.4746 68.7727C91.3535 68.8973 91.2859 69.0579 91.2719 69.2545H92.5752C92.5682 69.0562 92.5059 68.8947 92.3883 68.7701C92.2707 68.6454 92.1188 68.5831 91.9328 68.5831ZM92.5778 70.0892H93.1913C93.1492 70.3542 93.0149 70.5693 92.7885 70.7343C92.562 70.8975 92.2847 70.9791 91.9565 70.9791C91.5387 70.9791 91.2105 70.851 90.9717 70.5947C90.733 70.3367 90.6136 69.9847 90.6136 69.5389C90.6136 69.0965 90.7321 68.742 90.9691 68.4752C91.2078 68.2084 91.5282 68.075 91.9301 68.075C92.3251 68.075 92.6384 68.2022 92.8701 68.4567C93.1018 68.7095 93.2177 69.0483 93.2177 69.4731V69.6863H91.2666V69.7258C91.2666 69.9505 91.3298 70.1313 91.4562 70.2682C91.5843 70.4051 91.7555 70.4736 91.9696 70.4736C92.1206 70.4736 92.2505 70.4394 92.3593 70.3709C92.4699 70.3007 92.5427 70.2068 92.5778 70.0892ZM93.5915 68.9333C93.5915 68.677 93.6951 68.4699 93.9022 68.3119C94.1094 68.1539 94.3823 68.075 94.7211 68.075C95.0476 68.075 95.3126 68.1557 95.5162 68.3172C95.7216 68.4769 95.8287 68.6858 95.8375 68.9438H95.2266C95.2161 68.8227 95.1652 68.7279 95.0739 68.6595C94.9826 68.591 94.8606 68.5568 94.7079 68.5568C94.564 68.5568 94.4481 68.5884 94.3604 68.6516C94.2726 68.713 94.2287 68.7946 94.2287 68.8964C94.2287 69.0509 94.3621 69.1606 94.6289 69.2256L95.1266 69.3361C95.4057 69.4011 95.6049 69.4924 95.7242 69.61C95.8436 69.7276 95.9033 69.8899 95.9033 70.0971C95.9033 70.3604 95.7927 70.5736 95.5715 70.7369C95.3504 70.8984 95.0634 70.9791 94.7105 70.9791C94.363 70.9791 94.083 70.9001 93.8706 70.7422C93.66 70.5824 93.5433 70.3691 93.5204 70.1023H94.1655C94.1848 70.2305 94.2428 70.3288 94.3393 70.3972C94.4376 70.4657 94.5692 70.4999 94.7342 70.4999C94.894 70.4999 95.0195 70.4701 95.1108 70.4104C95.2038 70.349 95.2503 70.2665 95.2503 70.1629C95.2503 70.0822 95.2213 70.0181 95.1634 69.9707C95.1072 69.9215 95.0116 69.8794 94.8764 69.8443L94.3683 69.7258C93.8504 69.6047 93.5915 69.3405 93.5915 68.9333Z" fill="#6B7885"/>
<path d="M18.3457 57.9723H20.1536C20.6288 57.9723 21.0173 58.1244 21.3192 58.4287C21.6234 58.7306 21.7756 59.1203 21.7756 59.5977C21.7756 60.0775 21.6234 60.4695 21.3192 60.7738C21.0149 61.078 20.6241 61.2302 20.1466 61.2302H18.9776V63.0381H18.3457V57.9723ZM18.9776 58.534V60.6685H19.9886C20.3491 60.6685 20.6288 60.5749 20.8277 60.3876C21.0266 60.1981 21.1261 59.9348 21.1261 59.5977C21.1261 59.2607 21.0266 58.9998 20.8277 58.8149C20.6311 58.6276 20.3514 58.534 19.9886 58.534H18.9776ZM23.2957 62.5818C23.5835 62.5818 23.8246 62.4928 24.0188 62.315C24.2154 62.1347 24.3137 61.9136 24.3137 61.6514V61.353L23.3378 61.4127C23.092 61.4291 22.9013 61.4888 22.7656 61.5918C22.6321 61.6947 22.5654 61.8328 22.5654 62.006C22.5654 62.1792 22.6321 62.3185 22.7656 62.4238C22.899 62.5291 23.0757 62.5818 23.2957 62.5818ZM23.1587 63.1013C22.796 63.1013 22.5023 63.0007 22.2776 62.7994C22.0552 62.5981 21.9441 62.3337 21.9441 62.006C21.9441 61.6924 22.0587 61.442 22.2881 61.2547C22.5198 61.0675 22.8463 60.9622 23.2676 60.9388L24.3137 60.8791V60.5737C24.3137 60.3513 24.2435 60.177 24.1031 60.0506C23.9627 59.9242 23.7661 59.861 23.5133 59.861C23.2816 59.861 23.0932 59.9125 22.9481 60.0155C22.803 60.1161 22.7106 60.2577 22.6708 60.4403H22.081C22.102 60.115 22.2425 59.8482 22.5023 59.6399C22.7644 59.4292 23.1061 59.3239 23.5274 59.3239C23.9557 59.3239 24.295 59.4316 24.5454 59.6469C24.7982 59.8622 24.9246 60.1512 24.9246 60.514V63.0381H24.3453V62.4097H24.3313C24.2213 62.618 24.0598 62.7854 23.8468 62.9118C23.6338 63.0381 23.4045 63.1013 23.1587 63.1013ZM25.7004 63.0381V59.3871H26.2762V59.9839H26.2902C26.3511 59.7803 26.4599 59.62 26.6167 59.5029C26.7759 59.3836 26.9619 59.3239 27.1749 59.3239C27.224 59.3239 27.306 59.3321 27.4206 59.3485V59.9418C27.3551 59.9184 27.2463 59.9067 27.0942 59.9067C26.8578 59.9067 26.6682 59.9851 26.5254 60.1419C26.3827 60.2987 26.3113 60.5058 26.3113 60.7633V63.0381H25.7004ZM28.1157 58.5059H28.7266V59.3871H29.4357V59.8891H28.7266V62.0587C28.7266 62.2249 28.7629 62.3477 28.8354 62.4273C28.908 62.5045 29.0227 62.5431 29.1795 62.5431C29.2778 62.5431 29.362 62.5373 29.4322 62.5256V63.0381C29.3527 63.0569 29.2239 63.0662 29.0461 63.0662C28.7114 63.0662 28.4727 62.9913 28.3299 62.8416C28.1871 62.6918 28.1157 62.4413 28.1157 62.0903V59.8891H27.5716V59.3871H28.1157V58.5059ZM31.2227 62.5818C31.5105 62.5818 31.7516 62.4928 31.9458 62.315C32.1424 62.1347 32.2407 61.9136 32.2407 61.6514V61.353L31.2648 61.4127C31.019 61.4291 30.8283 61.4888 30.6925 61.5918C30.5591 61.6947 30.4924 61.8328 30.4924 62.006C30.4924 62.1792 30.5591 62.3185 30.6925 62.4238C30.8259 62.5291 31.0027 62.5818 31.2227 62.5818ZM31.0857 63.1013C30.723 63.1013 30.4292 63.0007 30.2046 62.7994C29.9822 62.5981 29.8711 62.3337 29.8711 62.006C29.8711 61.6924 29.9857 61.442 30.2151 61.2547C30.4468 61.0675 30.7733 60.9622 31.1946 60.9388L32.2407 60.8791V60.5737C32.2407 60.3513 32.1705 60.177 32.0301 60.0506C31.8897 59.9242 31.6931 59.861 31.4403 59.861C31.2086 59.861 31.0202 59.9125 30.8751 60.0155C30.73 60.1161 30.6375 60.2577 30.5978 60.4403H30.008C30.029 60.115 30.1695 59.8482 30.4292 59.6399C30.6914 59.4292 31.0331 59.3239 31.4544 59.3239C31.8826 59.3239 32.222 59.4316 32.4724 59.6469C32.7252 59.8622 32.8516 60.1512 32.8516 60.514V63.0381H32.2723V62.4097H32.2583C32.1483 62.618 31.9868 62.7854 31.7738 62.9118C31.5608 63.0381 31.3315 63.1013 31.0857 63.1013ZM35.1124 62.5291C35.4307 62.5291 35.687 62.4074 35.8813 62.164C36.0755 61.9206 36.1726 61.5988 36.1726 61.1986C36.1726 60.796 36.0755 60.473 35.8813 60.2296C35.687 59.9839 35.4307 59.861 35.1124 59.861C34.7965 59.861 34.5437 59.9827 34.3541 60.2261C34.1669 60.4672 34.0733 60.7913 34.0733 61.1986C34.0733 61.6058 34.1669 61.93 34.3541 62.171C34.5437 62.4097 34.7965 62.5291 35.1124 62.5291ZM35.1335 64.4143C34.7333 64.4143 34.3892 64.3125 34.1014 64.1089C33.8135 63.9076 33.6438 63.6513 33.5923 63.3401H34.2207C34.2816 63.5086 34.3963 63.6431 34.5648 63.7438C34.7333 63.8444 34.931 63.8947 35.1581 63.8947C35.4717 63.8947 35.7186 63.8117 35.8988 63.6455C36.0814 63.4793 36.1726 63.2593 36.1726 62.9855V62.4097H36.1586C36.0439 62.611 35.8836 62.7713 35.6776 62.8907C35.4717 63.0077 35.2423 63.0662 34.9896 63.0662C34.5238 63.0662 34.1505 62.8966 33.8697 62.5572C33.5888 62.2178 33.4484 61.765 33.4484 61.1986C33.4484 60.6275 33.5888 60.1723 33.8697 59.8329C34.1529 59.4936 34.5308 59.3239 35.0036 59.3239C35.261 59.3239 35.4927 59.3836 35.6987 59.5029C35.9047 59.6223 36.0685 59.7885 36.1902 60.0015H36.2007V59.3871H36.7835V62.9644C36.7835 63.4021 36.6337 63.7531 36.3341 64.0176C36.0345 64.2821 35.6343 64.4143 35.1335 64.4143ZM39.0443 59.854C38.7611 59.854 38.5259 59.9523 38.3387 60.1489C38.1538 60.3432 38.052 60.5936 38.0333 60.9002H40.0168C40.0097 60.5912 39.9173 60.3396 39.7394 60.1454C39.5616 59.9511 39.3299 59.854 39.0443 59.854ZM40.0027 61.992H40.603C40.5492 62.315 40.3807 62.5806 40.0975 62.7889C39.8167 62.9972 39.4785 63.1013 39.0829 63.1013C38.561 63.1013 38.1503 62.9328 37.8507 62.5958C37.5511 62.2588 37.4014 61.8024 37.4014 61.2267C37.4014 60.6556 37.5511 60.1957 37.8507 59.847C38.1526 59.4983 38.554 59.3239 39.0549 59.3239C39.5463 59.3239 39.9349 59.4889 40.2204 59.8189C40.5059 60.1489 40.6487 60.5912 40.6487 61.1459V61.3776H38.0298V61.4127C38.0298 61.7638 38.1257 62.0446 38.3176 62.2553C38.5095 62.4659 38.7693 62.5712 39.097 62.5712C39.3263 62.5712 39.5218 62.5186 39.6833 62.4133C39.8447 62.3079 39.9512 62.1675 40.0027 61.992ZM41.1893 63.0381V62.6028L43.2114 59.8996V59.8891H41.1928V59.3871H43.903V59.8329L41.895 62.5256V62.5361H43.9136V63.0381H41.1893ZM47.4874 63.1013C47.0193 63.1013 46.6413 62.9293 46.3534 62.5853C46.0679 62.2412 45.9252 61.7837 45.9252 61.2126C45.9252 60.6439 46.0679 60.1875 46.3534 59.8435C46.639 59.4971 47.0123 59.3239 47.4733 59.3239C47.7308 59.3239 47.9613 59.3824 48.1649 59.4994C48.3685 59.6165 48.5254 59.7768 48.6354 59.9804H48.6494V57.9723H49.2602V63.0381H48.6775V62.4203H48.667C48.5476 62.6333 48.3861 62.8006 48.1825 62.9223C47.9789 63.0417 47.7472 63.1013 47.4874 63.1013ZM47.6032 59.861C47.2803 59.861 47.024 59.9839 46.8344 60.2296C46.6448 60.473 46.55 60.8007 46.55 61.2126C46.55 61.6269 46.6448 61.9557 46.8344 62.1991C47.024 62.4425 47.2803 62.5642 47.6032 62.5642C47.9192 62.5642 48.1731 62.4413 48.365 62.1956C48.557 61.9475 48.6529 61.6199 48.6529 61.2126C48.6529 60.8054 48.5558 60.4789 48.3615 60.2332C48.1696 59.9851 47.9168 59.861 47.6032 59.861ZM51.5492 59.854C51.266 59.854 51.0308 59.9523 50.8435 60.1489C50.6586 60.3432 50.5568 60.5936 50.5381 60.9002H52.5216C52.5146 60.5912 52.4221 60.3396 52.2443 60.1454C52.0664 59.9511 51.8347 59.854 51.5492 59.854ZM52.5076 61.992H53.1079C53.0541 62.315 52.8856 62.5806 52.6024 62.7889C52.3215 62.9972 51.9833 63.1013 51.5878 63.1013C51.0659 63.1013 50.6551 62.9328 50.3556 62.5958C50.056 62.2588 49.9062 61.8024 49.9062 61.2267C49.9062 60.6556 50.056 60.1957 50.3556 59.847C50.6575 59.4983 51.0589 59.3239 51.5597 59.3239C52.0512 59.3239 52.4397 59.4889 52.7252 59.8189C53.0108 60.1489 53.1535 60.5912 53.1535 61.1459V61.3776H50.5346V61.4127C50.5346 61.7638 50.6306 62.0446 50.8225 62.2553C51.0144 62.4659 51.2742 62.5712 51.6018 62.5712C51.8312 62.5712 52.0266 62.5186 52.1881 62.4133C52.3496 62.3079 52.4561 62.1675 52.5076 61.992ZM53.7082 60.3946C53.7082 60.081 53.8346 59.8248 54.0874 59.6258C54.3425 59.4245 54.6701 59.3239 55.0703 59.3239C55.4471 59.3239 55.7608 59.4245 56.0112 59.6258C56.2616 59.8271 56.3938 60.0822 56.4079 60.3911H55.8251C55.8041 60.2133 55.7245 60.074 55.5864 59.9734C55.4506 59.8727 55.2716 59.8224 55.0493 59.8224C54.8269 59.8224 54.6479 59.8727 54.5121 59.9734C54.3764 60.0717 54.3085 60.2016 54.3085 60.3631C54.3085 60.6111 54.511 60.7867 54.9159 60.8896L55.4811 61.0266C55.8485 61.1202 56.1071 61.2419 56.2569 61.3917C56.409 61.5391 56.4851 61.7474 56.4851 62.0166C56.4851 62.3349 56.3494 62.5958 56.0779 62.7994C55.8064 63.0007 55.4577 63.1013 55.0317 63.1013C54.6338 63.1013 54.305 63.003 54.0452 62.8064C53.7878 62.6075 53.6427 62.3454 53.6099 62.0201H54.2208C54.2886 62.4086 54.5718 62.6028 55.0703 62.6028C55.3161 62.6028 55.5103 62.5549 55.6531 62.4589C55.7982 62.3606 55.8708 62.2284 55.8708 62.0622C55.8708 61.9311 55.8275 61.827 55.7409 61.7497C55.6566 61.6725 55.5127 61.607 55.3091 61.5532L54.6666 61.3882C54.0277 61.2243 53.7082 60.8932 53.7082 60.3946ZM58.6266 63.0381V59.3871H59.2374V63.0381H58.6266ZM58.932 58.7727C58.829 58.7727 58.7401 58.7353 58.6652 58.6604C58.5903 58.5855 58.5529 58.4966 58.5529 58.3936C58.5529 58.2883 58.5903 58.1993 58.6652 58.1268C58.7401 58.0519 58.829 58.0144 58.932 58.0144C59.0373 58.0144 59.1274 58.0519 59.2023 58.1268C59.2772 58.1993 59.3147 58.2883 59.3147 58.3936C59.3147 58.4966 59.2772 58.5855 59.2023 58.6604C59.1274 58.7353 59.0373 58.7727 58.932 58.7727ZM60.0624 63.0381V59.3871H60.6382V59.9699H60.6522C60.7575 59.7662 60.9085 59.6083 61.1051 59.4959C61.3017 59.3812 61.5369 59.3239 61.8107 59.3239C62.2086 59.3239 62.5187 59.4444 62.741 59.6855C62.9634 59.9242 63.0746 60.2519 63.0746 60.6685V63.0381H62.4637V60.7773C62.4637 60.4801 62.3935 60.2542 62.2531 60.0998C62.1126 59.9429 61.9032 59.8645 61.6247 59.8645C61.3368 59.8645 61.1063 59.9582 60.9331 60.1454C60.7599 60.3326 60.6733 60.5807 60.6733 60.8896V63.0381H60.0624ZM64.0505 63.0381V59.8891H63.5415V59.3871H64.0505V58.9799C64.0505 58.6288 64.1324 58.369 64.2963 58.2005C64.4624 58.0297 64.714 57.9442 65.051 57.9442C65.1821 57.9442 65.3061 57.9536 65.4232 57.9723V58.4673C65.3249 58.4533 65.2324 58.4462 65.1458 58.4462C64.8205 58.4462 64.6578 58.6253 64.6578 58.9834V59.3871H65.4056V59.8891H64.6614V63.0381H64.0505ZM67.3751 63.1013C66.8649 63.1013 66.4553 62.9317 66.1464 62.5923C65.8374 62.2506 65.683 61.7907 65.683 61.2126C65.683 60.6345 65.8374 60.1758 66.1464 59.8365C66.4553 59.4948 66.8649 59.3239 67.3751 59.3239C67.8829 59.3239 68.2913 59.4948 68.6003 59.8365C68.9092 60.1758 69.0637 60.6345 69.0637 61.2126C69.0637 61.7884 68.9092 62.2471 68.6003 62.5888C68.2913 62.9305 67.8829 63.1013 67.3751 63.1013ZM66.5922 62.2061C66.7865 62.4449 67.0474 62.5642 67.3751 62.5642C67.7027 62.5642 67.9625 62.446 68.1544 62.2096C68.3463 61.9709 68.4423 61.6386 68.4423 61.2126C68.4423 60.7867 68.3463 60.4555 68.1544 60.2191C67.9625 59.9804 67.7027 59.861 67.3751 59.861C67.0474 59.861 66.7865 59.9804 66.5922 60.2191C66.4003 60.4578 66.3043 60.789 66.3043 61.2126C66.3043 61.6362 66.4003 61.9674 66.5922 62.2061ZM69.6816 63.0381V59.3871H70.2573V59.9839H70.2713C70.3322 59.7803 70.441 59.62 70.5978 59.5029C70.757 59.3836 70.943 59.3239 71.156 59.3239C71.2052 59.3239 71.2871 59.3321 71.4018 59.3485V59.9418C71.3362 59.9184 71.2274 59.9067 71.0753 59.9067C70.8389 59.9067 70.6493 59.9851 70.5066 60.1419C70.3638 60.2987 70.2924 60.5058 70.2924 60.7633V63.0381H69.6816ZM71.9003 63.0381V59.3871H72.476V59.9699H72.4901C72.579 59.7709 72.7136 59.6141 72.8938 59.4994C73.074 59.3824 73.2846 59.3239 73.5257 59.3239C73.7738 59.3239 73.9868 59.3848 74.1646 59.5065C74.3425 59.6258 74.4712 59.7967 74.5508 60.019H74.5648C74.6655 59.8013 74.8164 59.6317 75.0177 59.51C75.2213 59.3859 75.4519 59.3239 75.7093 59.3239C76.0697 59.3239 76.3576 59.4327 76.5729 59.6504C76.7906 59.8657 76.8994 60.1548 76.8994 60.5175V63.0381H76.2886V60.6579C76.2886 60.4075 76.2219 60.2133 76.0884 60.0752C75.9574 59.9348 75.7713 59.8645 75.5303 59.8645C75.2892 59.8645 75.0914 59.9453 74.937 60.1068C74.7825 60.2659 74.7053 60.4695 74.7053 60.7176V63.0381H74.0944V60.5912C74.0944 60.3712 74.0265 60.1957 73.8908 60.0646C73.7551 59.9312 73.5737 59.8645 73.3466 59.8645C73.1056 59.8645 72.9055 59.9488 72.7463 60.1173C72.5895 60.2858 72.5111 60.4965 72.5111 60.7492V63.0381H71.9003ZM78.8829 62.5818C79.1708 62.5818 79.4118 62.4928 79.6061 62.315C79.8027 62.1347 79.901 61.9136 79.901 61.6514V61.353L78.925 61.4127C78.6793 61.4291 78.4885 61.4888 78.3528 61.5918C78.2194 61.6947 78.1527 61.8328 78.1527 62.006C78.1527 62.1792 78.2194 62.3185 78.3528 62.4238C78.4862 62.5291 78.6629 62.5818 78.8829 62.5818ZM78.746 63.1013C78.3832 63.1013 78.0895 63.0007 77.8648 62.7994C77.6425 62.5981 77.5313 62.3337 77.5313 62.006C77.5313 61.6924 77.646 61.442 77.8754 61.2547C78.1071 61.0675 78.4335 60.9622 78.8548 60.9388L79.901 60.8791V60.5737C79.901 60.3513 79.8308 60.177 79.6903 60.0506C79.5499 59.9242 79.3533 59.861 79.1006 59.861C78.8689 59.861 78.6805 59.9125 78.5354 60.0155C78.3902 60.1161 78.2978 60.2577 78.258 60.4403H77.6682C77.6893 60.115 77.8297 59.8482 78.0895 59.6399C78.3516 59.4292 78.6933 59.3239 79.1146 59.3239C79.5429 59.3239 79.8823 59.4316 80.1327 59.6469C80.3855 59.8622 80.5118 60.1512 80.5118 60.514V63.0381H79.9326V62.4097H79.9185C79.8085 62.618 79.6471 62.7854 79.4341 62.9118C79.2211 63.0381 78.9917 63.1013 78.746 63.1013ZM81.4843 58.5059H82.0951V59.3871H82.8043V59.8891H82.0951V62.0587C82.0951 62.2249 82.1314 62.3477 82.204 62.4273C82.2765 62.5045 82.3912 62.5431 82.548 62.5431C82.6463 62.5431 82.7306 62.5373 82.8008 62.5256V63.0381C82.7212 63.0569 82.5925 63.0662 82.4146 63.0662C82.0799 63.0662 81.8412 62.9913 81.6984 62.8416C81.5557 62.6918 81.4843 62.4413 81.4843 62.0903V59.8891H80.9401V59.3871H81.4843V58.5059ZM83.4888 63.0381V59.3871H84.0997V63.0381H83.4888ZM83.7943 58.7727C83.6913 58.7727 83.6024 58.7353 83.5275 58.6604C83.4526 58.5855 83.4151 58.4966 83.4151 58.3936C83.4151 58.2883 83.4526 58.1993 83.5275 58.1268C83.6024 58.0519 83.6913 58.0144 83.7943 58.0144C83.8996 58.0144 83.9897 58.0519 84.0646 58.1268C84.1395 58.1993 84.1769 58.2883 84.1769 58.3936C84.1769 58.4966 84.1395 58.5855 84.0646 58.6604C83.9897 58.7353 83.8996 58.7727 83.7943 58.7727ZM86.4378 63.1013C85.9276 63.1013 85.518 62.9317 85.2091 62.5923C84.9001 62.2506 84.7457 61.7907 84.7457 61.2126C84.7457 60.6345 84.9001 60.1758 85.2091 59.8365C85.518 59.4948 85.9276 59.3239 86.4378 59.3239C86.9456 59.3239 87.354 59.4948 87.663 59.8365C87.9719 60.1758 88.1264 60.6345 88.1264 61.2126C88.1264 61.7884 87.9719 62.2471 87.663 62.5888C87.354 62.9305 86.9456 63.1013 86.4378 63.1013ZM85.6549 62.2061C85.8492 62.4449 86.1101 62.5642 86.4378 62.5642C86.7654 62.5642 87.0252 62.446 87.2171 62.2096C87.409 61.9709 87.505 61.6386 87.505 61.2126C87.505 60.7867 87.409 60.4555 87.2171 60.2191C87.0252 59.9804 86.7654 59.861 86.4378 59.861C86.1101 59.861 85.8492 59.9804 85.6549 60.2191C85.463 60.4578 85.367 60.789 85.367 61.2126C85.367 61.6362 85.463 61.9674 85.6549 62.2061ZM88.7443 63.0381V59.3871H89.32V59.9699H89.334C89.4394 59.7662 89.5903 59.6083 89.7869 59.4959C89.9835 59.3812 90.2187 59.3239 90.4925 59.3239C90.8904 59.3239 91.2005 59.4444 91.4229 59.6855C91.6452 59.9242 91.7564 60.2519 91.7564 60.6685V63.0381H91.1455V60.7773C91.1455 60.4801 91.0753 60.2542 90.9349 60.0998C90.7945 59.9429 90.585 59.8645 90.3065 59.8645C90.0186 59.8645 89.7881 59.9582 89.6149 60.1454C89.4417 60.3326 89.3551 60.5807 89.3551 60.8896V63.0381H88.7443ZM92.4725 60.3946C92.4725 60.081 92.5989 59.8248 92.8517 59.6258C93.1068 59.4245 93.4345 59.3239 93.8347 59.3239C94.2115 59.3239 94.5251 59.4245 94.7755 59.6258C95.0259 59.8271 95.1582 60.0822 95.1722 60.3911H94.5894C94.5684 60.2133 94.4888 60.074 94.3507 59.9734C94.215 59.8727 94.0359 59.8224 93.8136 59.8224C93.5913 59.8224 93.4122 59.8727 93.2765 59.9734C93.1407 60.0717 93.0729 60.2016 93.0729 60.3631C93.0729 60.6111 93.2753 60.7867 93.6802 60.8896L94.2454 61.0266C94.6129 61.1202 94.8715 61.2419 95.0213 61.3917C95.1734 61.5391 95.2494 61.7474 95.2494 62.0166C95.2494 62.3349 95.1137 62.5958 94.8422 62.7994C94.5707 63.0007 94.222 63.1013 93.796 63.1013C93.3982 63.1013 93.0693 63.003 92.8096 62.8064C92.5521 62.6075 92.407 62.3454 92.3742 62.0201H92.9851C93.053 62.4086 93.3362 62.6028 93.8347 62.6028C94.0804 62.6028 94.2747 62.5549 94.4174 62.4589C94.5625 62.3606 94.6351 62.2284 94.6351 62.0622C94.6351 61.9311 94.5918 61.827 94.5052 61.7497C94.4209 61.6725 94.277 61.607 94.0734 61.5532L93.4309 61.3882C92.792 61.2243 92.4725 60.8932 92.4725 60.3946ZM98.8724 63.1013C98.3622 63.1013 97.9526 62.9317 97.6437 62.5923C97.3348 62.2506 97.1803 61.7907 97.1803 61.2126C97.1803 60.6345 97.3348 60.1758 97.6437 59.8365C97.9526 59.4948 98.3622 59.3239 98.8724 59.3239C99.3803 59.3239 99.7887 59.4948 100.098 59.8365C100.407 60.1758 100.561 60.6345 100.561 61.2126C100.561 61.7884 100.407 62.2471 100.098 62.5888C99.7887 62.9305 99.3803 63.1013 98.8724 63.1013ZM98.0895 62.2061C98.2838 62.4449 98.5448 62.5642 98.8724 62.5642C99.2001 62.5642 99.4599 62.446 99.6518 62.2096C99.8437 61.9709 99.9396 61.6386 99.9396 61.2126C99.9396 60.7867 99.8437 60.4555 99.6518 60.2191C99.4599 59.9804 99.2001 59.861 98.8724 59.861C98.5448 59.861 98.2838 59.9804 98.0895 60.2191C97.8976 60.4578 97.8017 60.789 97.8017 61.2126C97.8017 61.6362 97.8976 61.9674 98.0895 62.2061ZM102.994 63.1013C102.732 63.1013 102.498 63.0417 102.292 62.9223C102.088 62.8029 101.927 62.6356 101.807 62.4203H101.793V63.0381H101.21V57.9723H101.821V59.9979H101.835C101.95 59.7873 102.109 59.6223 102.313 59.5029C102.519 59.3836 102.749 59.3239 103.004 59.3239C103.465 59.3239 103.838 59.4959 104.121 59.84C104.404 60.184 104.546 60.6416 104.546 61.2126C104.546 61.786 104.404 62.2447 104.121 62.5888C103.838 62.9305 103.462 63.1013 102.994 63.1013ZM102.875 59.861C102.563 59.861 102.309 59.9862 102.113 60.2367C101.916 60.4848 101.818 60.8101 101.818 61.2126C101.818 61.6175 101.916 61.944 102.113 62.1921C102.309 62.4402 102.563 62.5642 102.875 62.5642C103.197 62.5642 103.453 62.4437 103.64 62.2026C103.827 61.9592 103.921 61.6292 103.921 61.2126C103.921 60.7984 103.827 60.4695 103.64 60.2261C103.453 59.9827 103.197 59.861 102.875 59.861ZM105.199 63.0381V57.9723H105.809V63.0381H105.199ZM106.666 63.0381V59.3871H107.277V63.0381H106.666ZM106.971 58.7727C106.868 58.7727 106.78 58.7353 106.705 58.6604C106.63 58.5855 106.592 58.4966 106.592 58.3936C106.592 58.2883 106.63 58.1993 106.705 58.1268C106.78 58.0519 106.868 58.0144 106.971 58.0144C107.077 58.0144 107.167 58.0519 107.242 58.1268C107.317 58.1993 107.354 58.2883 107.354 58.3936C107.354 58.4966 107.317 58.5855 107.242 58.6604C107.167 58.7353 107.077 58.7727 106.971 58.7727ZM109.587 62.5291C109.905 62.5291 110.161 62.4074 110.356 62.164C110.55 61.9206 110.647 61.5988 110.647 61.1986C110.647 60.796 110.55 60.473 110.356 60.2296C110.161 59.9839 109.905 59.861 109.587 59.861C109.271 59.861 109.018 59.9827 108.829 60.2261C108.641 60.4672 108.548 60.7913 108.548 61.1986C108.548 61.6058 108.641 61.93 108.829 62.171C109.018 62.4097 109.271 62.5291 109.587 62.5291ZM109.608 64.4143C109.208 64.4143 108.864 64.3125 108.576 64.1089C108.288 63.9076 108.118 63.6513 108.067 63.3401H108.695C108.756 63.5086 108.871 63.6431 109.039 63.7438C109.208 63.8444 109.405 63.8947 109.632 63.8947C109.946 63.8947 110.193 63.8117 110.373 63.6455C110.556 63.4793 110.647 63.2593 110.647 62.9855V62.4097H110.633C110.518 62.611 110.358 62.7713 110.152 62.8907C109.946 63.0077 109.717 63.0662 109.464 63.0662C108.998 63.0662 108.625 62.8966 108.344 62.5572C108.063 62.2178 107.923 61.765 107.923 61.1986C107.923 60.6275 108.063 60.1723 108.344 59.8329C108.627 59.4936 109.005 59.3239 109.478 59.3239C109.735 59.3239 109.967 59.3836 110.173 59.5029C110.379 59.6223 110.543 59.7885 110.665 60.0015H110.675V59.3871H111.258V62.9644C111.258 63.4021 111.108 63.7531 110.809 64.0176C110.509 64.2821 110.109 64.4143 109.608 64.4143ZM113.259 62.5818C113.547 62.5818 113.788 62.4928 113.982 62.315C114.179 62.1347 114.277 61.9136 114.277 61.6514V61.353L113.301 61.4127C113.055 61.4291 112.865 61.4888 112.729 61.5918C112.595 61.6947 112.529 61.8328 112.529 62.006C112.529 62.1792 112.595 62.3185 112.729 62.4238C112.862 62.5291 113.039 62.5818 113.259 62.5818ZM113.122 63.1013C112.759 63.1013 112.466 63.0007 112.241 62.7994C112.019 62.5981 111.907 62.3337 111.907 62.006C111.907 61.6924 112.022 61.442 112.251 61.2547C112.483 61.0675 112.81 60.9622 113.231 60.9388L114.277 60.8791V60.5737C114.277 60.3513 114.207 60.177 114.066 60.0506C113.926 59.9242 113.729 59.861 113.477 59.861C113.245 59.861 113.057 59.9125 112.911 60.0155C112.766 60.1161 112.674 60.2577 112.634 60.4403H112.044C112.065 60.115 112.206 59.8482 112.466 59.6399C112.728 59.4292 113.069 59.3239 113.491 59.3239C113.919 59.3239 114.258 59.4316 114.509 59.6469C114.761 59.8622 114.888 60.1512 114.888 60.514V63.0381H114.309V62.4097H114.295C114.185 62.618 114.023 62.7854 113.81 62.9118C113.597 63.0381 113.368 63.1013 113.122 63.1013ZM115.86 58.5059H116.471V59.3871H117.18V59.8891H116.471V62.0587C116.471 62.2249 116.507 62.3477 116.58 62.4273C116.653 62.5045 116.767 62.5431 116.924 62.5431C117.022 62.5431 117.107 62.5373 117.177 62.5256V63.0381C117.097 63.0569 116.969 63.0662 116.791 63.0662C116.456 63.0662 116.217 62.9913 116.074 62.8416C115.932 62.6918 115.86 62.4413 115.86 62.0903V59.8891H115.316V59.3871H115.86V58.5059ZM119.241 63.1013C118.731 63.1013 118.321 62.9317 118.012 62.5923C117.703 62.2506 117.549 61.7907 117.549 61.2126C117.549 60.6345 117.703 60.1758 118.012 59.8365C118.321 59.4948 118.731 59.3239 119.241 59.3239C119.749 59.3239 120.157 59.4948 120.466 59.8365C120.775 60.1758 120.93 60.6345 120.93 61.2126C120.93 61.7884 120.775 62.2471 120.466 62.5888C120.157 62.9305 119.749 63.1013 119.241 63.1013ZM118.458 62.2061C118.652 62.4449 118.913 62.5642 119.241 62.5642C119.569 62.5642 119.829 62.446 120.02 62.2096C120.212 61.9709 120.308 61.6386 120.308 61.2126C120.308 60.7867 120.212 60.4555 120.02 60.2191C119.829 59.9804 119.569 59.861 119.241 59.861C118.913 59.861 118.652 59.9804 118.458 60.2191C118.266 60.4578 118.17 60.789 118.17 61.2126C118.17 61.6362 118.266 61.9674 118.458 62.2061ZM121.579 63.0381V59.3871H122.19V63.0381H121.579ZM121.885 58.7727C121.782 58.7727 121.693 58.7353 121.618 58.6604C121.543 58.5855 121.505 58.4966 121.505 58.3936C121.505 58.2883 121.543 58.1993 121.618 58.1268C121.693 58.0519 121.782 58.0144 121.885 58.0144C121.99 58.0144 122.08 58.0519 122.155 58.1268C122.23 58.1993 122.267 58.2883 122.267 58.3936C122.267 58.4966 122.23 58.5855 122.155 58.6604C122.08 58.7353 121.99 58.7727 121.885 58.7727ZM123.015 63.0381V59.3871H123.591V59.9839H123.605C123.666 59.7803 123.774 59.62 123.931 59.5029C124.09 59.3836 124.276 59.3239 124.489 59.3239C124.539 59.3239 124.621 59.3321 124.735 59.3485V59.9418C124.67 59.9184 124.561 59.9067 124.409 59.9067C124.172 59.9067 123.983 59.9851 123.84 60.1419C123.697 60.2987 123.626 60.5058 123.626 60.7633V63.0381H123.015ZM126.522 59.854C126.239 59.854 126.004 59.9523 125.816 60.1489C125.632 60.3432 125.53 60.5936 125.511 60.9002H127.495C127.488 60.5912 127.395 60.3396 127.217 60.1454C127.039 59.9511 126.808 59.854 126.522 59.854ZM127.481 61.992H128.081C128.027 62.315 127.858 62.5806 127.575 62.7889C127.294 62.9972 126.956 63.1013 126.561 63.1013C126.039 63.1013 125.628 62.9328 125.328 62.5958C125.029 62.2588 124.879 61.8024 124.879 61.2267C124.879 60.6556 125.029 60.1957 125.328 59.847C125.63 59.4983 126.032 59.3239 126.533 59.3239C127.024 59.3239 127.413 59.4889 127.698 59.8189C127.984 60.1489 128.126 60.5912 128.126 61.1459V61.3776H125.508V61.4127C125.508 61.7638 125.603 62.0446 125.795 62.2553C125.987 62.4659 126.247 62.5712 126.575 62.5712C126.804 62.5712 127 62.5186 127.161 62.4133C127.323 62.3079 127.429 62.1675 127.481 61.992ZM128.681 60.3946C128.681 60.081 128.808 59.8248 129.06 59.6258C129.315 59.4245 129.643 59.3239 130.043 59.3239C130.42 59.3239 130.734 59.4245 130.984 59.6258C131.235 59.8271 131.367 60.0822 131.381 60.3911H130.798C130.777 60.2133 130.697 60.074 130.559 59.9734C130.424 59.8727 130.245 59.8224 130.022 59.8224C129.8 59.8224 129.621 59.8727 129.485 59.9734C129.349 60.0717 129.281 60.2016 129.281 60.3631C129.281 60.6111 129.484 60.7867 129.889 60.8896L130.454 61.0266C130.821 61.1202 131.08 61.2419 131.23 61.3917C131.382 61.5391 131.458 61.7474 131.458 62.0166C131.458 62.3349 131.322 62.5958 131.051 62.7994C130.779 63.0007 130.431 63.1013 130.005 63.1013C129.607 63.1013 129.278 63.003 129.018 62.8064C128.761 62.6075 128.616 62.3454 128.583 62.0201H129.194C129.262 62.4086 129.545 62.6028 130.043 62.6028C130.289 62.6028 130.483 62.5549 130.626 62.4589C130.771 62.3606 130.844 62.2284 130.844 62.0622C130.844 61.9311 130.8 61.827 130.714 61.7497C130.63 61.6725 130.486 61.607 130.282 61.5532L129.64 61.3882C129.001 61.2243 128.681 60.8932 128.681 60.3946Z" fill="#262626"/>
<circle cx="12.2549" cy="60.5323" r="1.34808" fill="#6B7885"/>
<circle cx="12.2549" cy="37.1653" r="1.34808" fill="#6B7885"/>
<path d="M169.977 0.317688H183.907C185.148 0.317688 186.154 1.32361 186.154 2.56449V16.4946H169.977V0.317688Z" fill="#EDF6FF"/>
<path d="M180.608 6.15941C180.608 5.9981 180.478 5.86733 180.316 5.86733L177.688 5.86733C177.526 5.86733 177.395 5.9981 177.395 6.15941C177.395 6.32073 177.526 6.4515 177.688 6.4515H180.024V8.78817C180.024 8.94948 180.155 9.08026 180.316 9.08026C180.478 9.08026 180.608 8.94948 180.608 8.78817L180.608 6.15941ZM176.029 10.8595L180.523 6.36595L180.11 5.95288L175.616 10.4465L176.029 10.8595Z" fill="#246EB9"/>
<line opacity="0.1" x1="178.515" y1="33.1211" x2="178.515" y2="73.1141" stroke="#6B7885" stroke-width="1.79744" stroke-linecap="round"/>
<line x1="178.515" y1="32.6719" x2="178.515" y2="46.1527" stroke="#6B7885" stroke-width="1.79744" stroke-linecap="round"/>
<defs>
<linearGradient id="paint0_linear_745:3205" x1="15.8498" y1="12.5713" x2="15.8498" y2="21.3173" gradientUnits="userSpaceOnUse">
<stop stop-color="#FFD572"/>
<stop offset="1" stop-color="#FEBD38"/>
</linearGradient>
<clipPath id="clip0_745:3205">
<rect width="9.88592" height="9.88592" fill="white" transform="translate(10.9068 12.001)"/>
</clipPath>
</defs>
</svg>
