<svg width="11" height="9" viewBox="0 0 11 9" fill="none" xmlns="http://www.w3.org/2000/svg">
<path fill-rule="evenodd" clip-rule="evenodd" d="M5.18435 0.183495C5.24241 0.125291 5.31138 0.079112 5.38731 0.047604C5.46324 0.0160959 5.54464 -0.00012207 5.62685 -0.00012207C5.70906 -0.00012207 5.79046 0.0160959 5.86639 0.047604C5.94232 0.079112 6.01129 0.125291 6.06935 0.183495L9.81935 3.93349C9.87755 3.99155 9.92373 4.06052 9.95524 4.13645C9.98675 4.21238 10.003 4.29379 10.003 4.37599C10.003 4.4582 9.98675 4.5396 9.95524 4.61554C9.92373 4.69147 9.87755 4.76044 9.81935 4.81849L6.06935 8.56849C5.95199 8.68585 5.79282 8.75178 5.62685 8.75178C5.46088 8.75178 5.30171 8.68585 5.18435 8.56849C5.06699 8.45114 5.00106 8.29196 5.00106 8.12599C5.00106 7.96002 5.06699 7.80085 5.18435 7.68349L8.4931 4.37599L5.18435 1.06849C5.12615 1.01044 5.07997 0.941468 5.04846 0.865537C5.01695 0.789606 5.00073 0.708204 5.00073 0.625995C5.00073 0.543786 5.01695 0.462384 5.04846 0.386453C5.07997 0.310521 5.12615 0.241552 5.18435 0.183495Z" fill="#374483"/>
<path fill-rule="evenodd" clip-rule="evenodd" d="M0.000732422 4.37598C0.000732422 4.21022 0.0665806 4.05125 0.183791 3.93403C0.301001 3.81682 0.459972 3.75098 0.625732 3.75098H8.75073C8.91649 3.75098 9.07546 3.81682 9.19267 3.93403C9.30989 4.05125 9.37573 4.21022 9.37573 4.37598C9.37573 4.54174 9.30989 4.70071 9.19267 4.81792C9.07546 4.93513 8.91649 5.00098 8.75073 5.00098H0.625732C0.459972 5.00098 0.301001 4.93513 0.183791 4.81792C0.0665806 4.70071 0.000732422 4.54174 0.000732422 4.37598Z" fill="#374483"/>
</svg>
