<svg width="80" height="80" viewBox="0 0 80 80" fill="none" xmlns="http://www.w3.org/2000/svg">
<rect width="80" height="80" rx="10" fill="#66A182"/>
<path d="M52.5 32.1875H47.1875V31.5625C47.1875 27.5938 43.9688 24.375 40 24.375C36.0312 24.375 32.8125 27.5938 32.8125 31.5625V32.1875H27.5C26.8086 32.1875 26.25 32.7461 26.25 33.4375V54.375C26.25 55.0664 26.8086 55.625 27.5 55.625H52.5C53.1914 55.625 53.75 55.0664 53.75 54.375V33.4375C53.75 32.7461 53.1914 32.1875 52.5 32.1875ZM44.375 32.1875H35.625V31.5625C35.625 29.1445 37.582 27.1875 40 27.1875C42.418 27.1875 44.375 29.1445 44.375 31.5625V32.1875Z" fill="white"/>
</svg>
