<svg width="172" height="189" viewBox="0 0 172 189" fill="none" xmlns="http://www.w3.org/2000/svg">
<rect width="171.737" height="188.864" rx="2.31451" fill="white"/>
<path d="M14.1543 19.2076C13.3135 19.2076 12.6476 18.9363 12.1567 18.3939C11.6684 17.8514 11.4243 17.1109 11.4243 16.1725C11.4243 15.2395 11.6698 14.5017 12.1607 13.9592C12.6544 13.4141 13.3189 13.1415 14.1543 13.1415C14.8378 13.1415 15.4141 13.3368 15.8834 13.7273C16.3526 14.1152 16.6198 14.6238 16.6849 15.253H15.6515C15.5837 14.8841 15.4114 14.5885 15.1348 14.3661C14.8608 14.1437 14.534 14.0325 14.1543 14.0325C13.6498 14.0325 13.247 14.2264 12.9459 14.6143C12.6476 14.9994 12.4984 15.5188 12.4984 16.1725C12.4984 16.8316 12.6476 17.3537 12.9459 17.7388C13.2443 18.124 13.6484 18.3166 14.1583 18.3166C14.5462 18.3166 14.8717 18.2176 15.1348 18.0196C15.4006 17.8189 15.5742 17.5422 15.6555 17.1896H16.6849C16.5927 17.8189 16.3214 18.3125 15.8712 18.6705C15.4209 19.0286 14.8486 19.2076 14.1543 19.2076ZM17.4091 19.1099V13.2391H18.4221V19.1099H17.4091ZM20.8591 18.4142C21.1493 18.4142 21.3934 18.3288 21.5914 18.1579C21.7922 17.9843 21.8925 17.7687 21.8925 17.511V17.1815L20.8957 17.2425C20.6516 17.2588 20.4618 17.3198 20.3262 17.4256C20.1932 17.5286 20.1268 17.6656 20.1268 17.8365C20.1268 18.0128 20.1932 18.1538 20.3262 18.2596C20.4618 18.3627 20.6394 18.4142 20.8591 18.4142ZM20.554 19.1791C20.1336 19.1791 19.7878 19.0584 19.5165 18.817C19.248 18.5756 19.1137 18.2623 19.1137 17.8772C19.1137 17.4947 19.2548 17.1923 19.5369 16.9699C19.8217 16.7475 20.2272 16.62 20.7533 16.5875L21.8925 16.5224V16.2132C21.8925 15.9881 21.8206 15.8131 21.6769 15.6883C21.5358 15.5636 21.3392 15.5012 21.087 15.5012C20.851 15.5012 20.6584 15.5541 20.5092 15.6599C20.3601 15.7656 20.2692 15.9094 20.2366 16.0911H19.2968C19.3185 15.6816 19.4935 15.3493 19.8217 15.0943C20.1526 14.8367 20.5879 14.7078 21.1276 14.7078C21.662 14.7078 22.0892 14.838 22.4092 15.0984C22.732 15.3588 22.8934 15.706 22.8934 16.1399V19.1099H21.9169V18.4224H21.8966C21.7745 18.6529 21.5901 18.8373 21.3433 18.9757C21.0964 19.1113 20.8334 19.1791 20.554 19.1791ZM23.6338 16.0342C23.6338 15.6382 23.7938 15.3181 24.1139 15.074C24.434 14.8299 24.8557 14.7078 25.3792 14.7078C25.8837 14.7078 26.2932 14.8326 26.6079 15.0821C26.9252 15.329 27.0907 15.6517 27.1042 16.0504H26.1603C26.1441 15.8633 26.0654 15.7168 25.9244 15.611C25.7833 15.5053 25.5948 15.4524 25.3588 15.4524C25.1364 15.4524 24.9574 15.5012 24.8218 15.5988C24.6862 15.6938 24.6184 15.8199 24.6184 15.9772C24.6184 16.2159 24.8245 16.3854 25.2368 16.4858L26.0057 16.6566C26.437 16.757 26.7448 16.898 26.9293 17.0798C27.1137 17.2615 27.2059 17.5124 27.2059 17.8324C27.2059 18.2393 27.0351 18.5688 26.6933 18.8211C26.3516 19.0706 25.9081 19.1954 25.3629 19.1954C24.8259 19.1954 24.3933 19.0733 24.0651 18.8292C23.7396 18.5824 23.5592 18.2528 23.524 17.8406H24.5207C24.5506 18.0386 24.6401 18.1904 24.7893 18.2962C24.9412 18.402 25.1446 18.4549 25.3995 18.4549C25.6464 18.4549 25.8403 18.4088 25.9813 18.3166C26.1251 18.2216 26.197 18.0942 26.197 17.9341C26.197 17.8094 26.1522 17.7104 26.0627 17.6371C25.9759 17.5612 25.8281 17.4961 25.6192 17.4419L24.834 17.2588C24.0339 17.0716 23.6338 16.6634 23.6338 16.0342ZM27.7755 16.0342C27.7755 15.6382 27.9355 15.3181 28.2556 15.074C28.5757 14.8299 28.9974 14.7078 29.5209 14.7078C30.0254 14.7078 30.4349 14.8326 30.7496 15.0821C31.0669 15.329 31.2324 15.6517 31.2459 16.0504H30.302C30.2858 15.8633 30.2071 15.7168 30.0661 15.611C29.925 15.5053 29.7365 15.4524 29.5006 15.4524C29.2781 15.4524 29.0991 15.5012 28.9635 15.5988C28.8279 15.6938 28.7601 15.8199 28.7601 15.9772C28.7601 16.2159 28.9662 16.3854 29.3785 16.4858L30.1474 16.6566C30.5787 16.757 30.8865 16.898 31.071 17.0798C31.2554 17.2615 31.3476 17.5124 31.3476 17.8324C31.3476 18.2393 31.1768 18.5688 30.835 18.8211C30.4933 19.0706 30.0498 19.1954 29.5046 19.1954C28.9676 19.1954 28.535 19.0733 28.2068 18.8292C27.8813 18.5824 27.7009 18.2528 27.6657 17.8406H28.6624C28.6923 18.0386 28.7818 18.1904 28.931 18.2962C29.0829 18.402 29.2863 18.4549 29.5412 18.4549C29.7881 18.4549 29.982 18.4088 30.123 18.3166C30.2668 18.2216 30.3387 18.0942 30.3387 17.9341C30.3387 17.8094 30.2939 17.7104 30.2044 17.6371C30.1176 17.5612 29.9698 17.4961 29.7609 17.4419L28.9757 17.2588C28.1756 17.0716 27.7755 16.6634 27.7755 16.0342ZM33.8538 15.4931C33.5717 15.4931 33.3358 15.5907 33.1459 15.786C32.9588 15.9786 32.8543 16.2267 32.8326 16.5305H34.8465C34.8357 16.224 34.7394 15.9745 34.5577 15.7819C34.3759 15.5893 34.1413 15.4931 33.8538 15.4931ZM34.8506 17.8202H35.7985C35.7335 18.2298 35.526 18.562 35.1761 18.817C34.8262 19.0692 34.3976 19.1954 33.8904 19.1954C33.2449 19.1954 32.7377 18.9974 32.3688 18.6014C32 18.2027 31.8155 17.6588 31.8155 16.9699C31.8155 16.2864 31.9986 15.7385 32.3648 15.3262C32.7336 14.914 33.2286 14.7078 33.8498 14.7078C34.46 14.7078 34.9442 14.9045 35.3022 15.2978C35.6602 15.6883 35.8392 16.2118 35.8392 16.8682V17.1977H32.8245V17.2588C32.8245 17.6059 32.9221 17.8853 33.1174 18.0969C33.3154 18.3084 33.5799 18.4142 33.9108 18.4142C34.144 18.4142 34.3447 18.3613 34.5129 18.2555C34.6838 18.1471 34.7963 18.0019 34.8506 17.8202ZM36.4943 19.1099V14.7973H37.4666V15.5459H37.487C37.5819 15.291 37.7379 15.0889 37.9548 14.9397C38.1718 14.7906 38.4254 14.716 38.7156 14.716C39.0194 14.716 39.2757 14.7919 39.4846 14.9438C39.6961 15.093 39.8413 15.3059 39.9199 15.5826H39.9443C40.0474 15.3168 40.2183 15.1065 40.4569 14.9519C40.6983 14.7946 40.975 14.716 41.2869 14.716C41.7128 14.716 42.0531 14.8475 42.3081 15.1106C42.5658 15.3737 42.6946 15.7209 42.6946 16.1521V19.1099H41.6816V16.4003C41.6816 16.1345 41.6138 15.9297 41.4781 15.786C41.3452 15.6422 41.1554 15.5704 40.9085 15.5704C40.6644 15.5704 40.4664 15.6517 40.3146 15.8145C40.1627 15.9772 40.0867 16.1874 40.0867 16.4451V19.1099H39.1021V16.3474C39.1021 16.1087 39.033 15.9202 38.8947 15.7819C38.759 15.6409 38.5732 15.5704 38.3373 15.5704C38.0932 15.5704 37.8938 15.6558 37.7392 15.8267C37.5846 15.9948 37.5073 16.2091 37.5073 16.4695V19.1099H36.4943ZM45.3676 15.4931C45.0855 15.4931 44.8495 15.5907 44.6597 15.786C44.4725 15.9786 44.3681 16.2267 44.3464 16.5305H46.3603C46.3495 16.224 46.2532 15.9745 46.0714 15.7819C45.8897 15.5893 45.6551 15.4931 45.3676 15.4931ZM46.3644 17.8202H47.3123C47.2472 18.2298 47.0397 18.562 46.6898 18.817C46.34 19.0692 45.9114 19.1954 45.4042 19.1954C44.7587 19.1954 44.2515 18.9974 43.8826 18.6014C43.5137 18.2027 43.3293 17.6588 43.3293 16.9699C43.3293 16.2864 43.5124 15.7385 43.8785 15.3262C44.2474 14.914 44.7424 14.7078 45.3635 14.7078C45.9738 14.7078 46.4579 14.9045 46.816 15.2978C47.174 15.6883 47.353 16.2118 47.353 16.8682V17.1977H44.3383V17.2588C44.3383 17.6059 44.4359 17.8853 44.6312 18.0969C44.8292 18.3084 45.0936 18.4142 45.4246 18.4142C45.6578 18.4142 45.8585 18.3613 46.0267 18.2555C46.1976 18.1471 46.3101 18.0019 46.3644 17.8202ZM48.008 19.1099V14.7973H48.9804V15.5378H49.0007C49.1201 15.2774 49.2937 15.0754 49.5215 14.9316C49.7521 14.7879 50.0301 14.716 50.3555 14.716C50.8275 14.716 51.1936 14.8584 51.454 15.1432C51.7171 15.428 51.8487 15.8212 51.8487 16.323V19.1099H50.8356V16.5264C50.8356 16.2172 50.7624 15.9813 50.6159 15.8185C50.4722 15.6558 50.2579 15.5744 49.9731 15.5744C49.6829 15.5744 49.451 15.6694 49.2774 15.8592C49.1065 16.0491 49.0211 16.3 49.0211 16.6119V19.1099H48.008ZM52.9431 13.7884H53.9561V14.7973H54.7698V15.5785H53.9561V17.8202C53.9561 17.9965 53.9982 18.1267 54.0823 18.2108C54.1663 18.2949 54.2979 18.3369 54.4769 18.3369C54.5962 18.3369 54.6925 18.3301 54.7658 18.3166V19.0896C54.6437 19.1167 54.4688 19.1303 54.2409 19.1303C53.7744 19.1303 53.4408 19.0408 53.2401 18.8617C53.0421 18.6827 52.9431 18.383 52.9431 17.9626V15.5785H52.3247V14.7973H52.9431V13.7884ZM58.7407 19.1791C58.1955 19.1791 57.7602 18.9784 57.4347 18.577C57.1119 18.1755 56.9505 17.6331 56.9505 16.9496C56.9505 16.2688 57.1119 15.7277 57.4347 15.3262C57.7602 14.9248 58.1955 14.7241 58.7407 14.7241C59.0444 14.7241 59.313 14.796 59.5462 14.9397C59.7822 15.0835 59.9585 15.2774 60.0751 15.5215H60.0995V13.2391H61.1126V19.1099H60.1199V18.3735H60.1036C59.9843 18.6204 59.8039 18.817 59.5625 18.9635C59.3238 19.1072 59.0499 19.1791 58.7407 19.1791ZM59.0458 15.5581C58.7203 15.5581 58.4626 15.6843 58.2728 15.9365C58.0829 16.186 57.988 16.5251 57.988 16.9536C57.988 17.3849 58.0816 17.7253 58.2687 17.9748C58.4586 18.2244 58.7176 18.3491 59.0458 18.3491C59.3658 18.3491 59.6222 18.223 59.8147 17.9708C60.0073 17.7185 60.1036 17.3795 60.1036 16.9536C60.1036 16.5305 60.0073 16.1928 59.8147 15.9406C59.6222 15.6856 59.3658 15.5581 59.0458 15.5581ZM63.8222 15.4931C63.5401 15.4931 63.3041 15.5907 63.1143 15.786C62.9271 15.9786 62.8227 16.2267 62.801 16.5305H64.8149C64.804 16.224 64.7078 15.9745 64.526 15.7819C64.3443 15.5893 64.1097 15.4931 63.8222 15.4931ZM64.819 17.8202H65.7669C65.7018 18.2298 65.4943 18.562 65.1444 18.817C64.7945 19.0692 64.366 19.1954 63.8588 19.1954C63.2133 19.1954 62.7061 18.9974 62.3372 18.6014C61.9683 18.2027 61.7839 17.6588 61.7839 16.9699C61.7839 16.2864 61.967 15.7385 62.3331 15.3262C62.702 14.914 63.197 14.7078 63.8181 14.7078C64.4284 14.7078 64.9125 14.9045 65.2706 15.2978C65.6286 15.6883 65.8076 16.2118 65.8076 16.8682V17.1977H62.7929V17.2588C62.7929 17.6059 62.8905 17.8853 63.0858 18.0969C63.2838 18.3084 63.5482 18.4142 63.8791 18.4142C64.1124 18.4142 64.3131 18.3613 64.4813 18.2555C64.6521 18.1471 64.7647 18.0019 64.819 17.8202ZM66.4626 19.1099V14.7973H67.435V15.5459H67.4553C67.5503 15.291 67.7062 15.0889 67.9232 14.9397C68.1402 14.7906 68.3938 14.716 68.684 14.716C68.9878 14.716 69.2441 14.7919 69.4529 14.9438C69.6645 15.093 69.8096 15.3059 69.8883 15.5826H69.9127C70.0157 15.3168 70.1866 15.1065 70.4253 14.9519C70.6667 14.7946 70.9434 14.716 71.2553 14.716C71.6811 14.716 72.0215 14.8475 72.2765 15.1106C72.5341 15.3737 72.663 15.7209 72.663 16.1521V19.1099H71.6499V16.4003C71.6499 16.1345 71.5821 15.9297 71.4465 15.786C71.3136 15.6422 71.1237 15.5704 70.8769 15.5704C70.6328 15.5704 70.4348 15.6517 70.2829 15.8145C70.131 15.9772 70.0551 16.1874 70.0551 16.4451V19.1099H69.0705V16.3474C69.0705 16.1087 69.0013 15.9202 68.863 15.7819C68.7274 15.6409 68.5416 15.5704 68.3056 15.5704C68.0615 15.5704 67.8622 15.6558 67.7076 15.8267C67.553 15.9948 67.4757 16.2091 67.4757 16.4695V19.1099H66.4626ZM76.9064 18.5973C76.5294 18.996 76.0222 19.1954 75.3848 19.1954C74.7474 19.1954 74.2402 18.996 73.8632 18.5973C73.4862 18.1959 73.2977 17.648 73.2977 16.9536C73.2977 16.262 73.4875 15.7155 73.8672 15.314C74.247 14.9099 74.7528 14.7078 75.3848 14.7078C76.0195 14.7078 76.5253 14.9099 76.9023 15.314C77.282 15.7155 77.4719 16.262 77.4719 16.9536C77.4719 17.648 77.2834 18.1959 76.9064 18.5973ZM74.6118 18.0155C74.8016 18.2678 75.0593 18.3939 75.3848 18.3939C75.7103 18.3939 75.9679 18.2678 76.1578 18.0155C76.3476 17.7633 76.4426 17.4093 76.4426 16.9536C76.4426 16.5007 76.3476 16.1481 76.1578 15.8958C75.9679 15.6409 75.7103 15.5134 75.3848 15.5134C75.062 15.5134 74.8043 15.6409 74.6118 15.8958C74.4219 16.1481 74.327 16.5007 74.327 16.9536C74.327 17.4093 74.4219 17.7633 74.6118 18.0155ZM78.1229 19.1099V14.7973H79.0952V15.5378H79.1156C79.2349 15.2774 79.4085 15.0754 79.6363 14.9316C79.8669 14.7879 80.1449 14.716 80.4704 14.716C80.9423 14.716 81.3085 14.8584 81.5688 15.1432C81.8319 15.428 81.9635 15.8212 81.9635 16.323V19.1099H80.9504V16.5264C80.9504 16.2172 80.8772 15.9813 80.7307 15.8185C80.587 15.6558 80.3727 15.5744 80.0879 15.5744C79.7977 15.5744 79.5658 15.6694 79.3922 15.8592C79.2213 16.0491 79.1359 16.3 79.1359 16.6119V19.1099H78.1229ZM84.3883 19.1791C83.8431 19.1791 83.4078 18.9784 83.0823 18.577C82.7596 18.1755 82.5982 17.6331 82.5982 16.9496C82.5982 16.2688 82.7596 15.7277 83.0823 15.3262C83.4078 14.9248 83.8431 14.7241 84.3883 14.7241C84.6921 14.7241 84.9606 14.796 85.1939 14.9397C85.4298 15.0835 85.6061 15.2774 85.7228 15.5215H85.7472V13.2391H86.7602V19.1099H85.7675V18.3735H85.7512C85.6319 18.6204 85.4515 18.817 85.2101 18.9635C84.9715 19.1072 84.6975 19.1791 84.3883 19.1791ZM84.6934 15.5581C84.368 15.5581 84.1103 15.6843 83.9204 15.9365C83.7306 16.186 83.6356 16.5251 83.6356 16.9536C83.6356 17.3849 83.7292 17.7253 83.9164 17.9748C84.1062 18.2244 84.3652 18.3491 84.6934 18.3491C85.0135 18.3491 85.2698 18.223 85.4624 17.9708C85.655 17.7185 85.7512 17.3795 85.7512 16.9536C85.7512 16.5305 85.655 16.1928 85.4624 15.9406C85.2698 15.6856 85.0135 15.5581 84.6934 15.5581ZM89.4698 15.4931C89.1877 15.4931 88.9518 15.5907 88.7619 15.786C88.5748 15.9786 88.4703 16.2267 88.4486 16.5305H90.4625C90.4517 16.224 90.3554 15.9745 90.1737 15.7819C89.9919 15.5893 89.7573 15.4931 89.4698 15.4931ZM90.4666 17.8202H91.4146C91.3495 18.2298 91.142 18.562 90.7921 18.817C90.4422 19.0692 90.0136 19.1954 89.5064 19.1954C88.8609 19.1954 88.3537 18.9974 87.9848 18.6014C87.616 18.2027 87.4315 17.6588 87.4315 16.9699C87.4315 16.2864 87.6146 15.7385 87.9808 15.3262C88.3496 14.914 88.8446 14.7078 89.4658 14.7078C90.076 14.7078 90.5602 14.9045 90.9182 15.2978C91.2762 15.6883 91.4552 16.2118 91.4552 16.8682V17.1977H88.4405V17.2588C88.4405 17.6059 88.5381 17.8853 88.7334 18.0969C88.9314 18.3084 89.1959 18.4142 89.5268 18.4142C89.76 18.4142 89.9608 18.3613 90.1289 18.2555C90.2998 18.1471 90.4124 18.0019 90.4666 17.8202ZM92.033 16.0342C92.033 15.6382 92.193 15.3181 92.513 15.074C92.8331 14.8299 93.2549 14.7078 93.7783 14.7078C94.2828 14.7078 94.6924 14.8326 95.007 15.0821C95.3244 15.329 95.4898 15.6517 95.5034 16.0504H94.5595C94.5432 15.8633 94.4645 15.7168 94.3235 15.611C94.1825 15.5053 93.994 15.4524 93.758 15.4524C93.5356 15.4524 93.3566 15.5012 93.221 15.5988C93.0853 15.6938 93.0175 15.8199 93.0175 15.9772C93.0175 16.2159 93.2237 16.3854 93.6359 16.4858L94.4049 16.6566C94.8361 16.757 95.144 16.898 95.3284 17.0798C95.5129 17.2615 95.6051 17.5124 95.6051 17.8324C95.6051 18.2393 95.4342 18.5688 95.0924 18.8211C94.7507 19.0706 94.3072 19.1954 93.7621 19.1954C93.225 19.1954 92.7924 19.0733 92.4642 18.8292C92.1387 18.5824 91.9584 18.2528 91.9231 17.8406H92.9199C92.9497 18.0386 93.0392 18.1904 93.1884 18.2962C93.3403 18.402 93.5437 18.4549 93.7987 18.4549C94.0455 18.4549 94.2394 18.4088 94.3805 18.3166C94.5242 18.2216 94.5961 18.0942 94.5961 17.9341C94.5961 17.8094 94.5513 17.7104 94.4618 17.6371C94.375 17.5612 94.2272 17.4961 94.0184 17.4419L93.2332 17.2588C92.433 17.0716 92.033 16.6634 92.033 16.0342Z" fill="#262626"/>
<path d="M73.1167 163.095V163.535H70.7407V159.621H71.229V163.095H73.1167ZM74.6682 163.584C74.274 163.584 73.9576 163.453 73.7189 163.19C73.4802 162.926 73.3608 162.571 73.3608 162.124C73.3608 161.678 73.4802 161.323 73.7189 161.061C73.9576 160.797 74.274 160.665 74.6682 160.665C75.0606 160.665 75.3761 160.797 75.6148 161.061C75.8535 161.323 75.9728 161.678 75.9728 162.124C75.9728 162.569 75.8535 162.924 75.6148 163.188C75.3761 163.452 75.0606 163.584 74.6682 163.584ZM74.0633 162.892C74.2134 163.076 74.415 163.169 74.6682 163.169C74.9213 163.169 75.122 163.077 75.2703 162.895C75.4186 162.71 75.4927 162.454 75.4927 162.124C75.4927 161.795 75.4186 161.539 75.2703 161.357C75.122 161.172 74.9213 161.08 74.6682 161.08C74.415 161.08 74.2134 161.172 74.0633 161.357C73.9151 161.541 73.8409 161.797 73.8409 162.124C73.8409 162.452 73.9151 162.708 74.0633 162.892ZM77.5975 163.142C77.8434 163.142 78.0414 163.048 78.1915 162.859C78.3416 162.671 78.4166 162.423 78.4166 162.114C78.4166 161.803 78.3416 161.553 78.1915 161.365C78.0414 161.175 77.8434 161.08 77.5975 161.08C77.3534 161.08 77.1581 161.174 77.0116 161.362C76.867 161.549 76.7946 161.799 76.7946 162.114C76.7946 162.428 76.867 162.679 77.0116 162.865C77.1581 163.049 77.3534 163.142 77.5975 163.142ZM77.6138 164.598C77.3045 164.598 77.0387 164.519 76.8163 164.362C76.5939 164.207 76.4628 164.009 76.423 163.768H76.9085C76.9556 163.898 77.0442 164.002 77.1744 164.08C77.3045 164.158 77.4573 164.197 77.6327 164.197C77.875 164.197 78.0658 164.132 78.205 164.004C78.3461 163.876 78.4166 163.706 78.4166 163.494V163.049H78.4057C78.3171 163.205 78.1933 163.329 78.0342 163.421C77.875 163.511 77.6978 163.557 77.5025 163.557C77.1427 163.557 76.8543 163.425 76.6373 163.163C76.4203 162.901 76.3118 162.551 76.3118 162.114C76.3118 161.672 76.4203 161.321 76.6373 161.059C76.8561 160.796 77.1481 160.665 77.5134 160.665C77.7123 160.665 77.8913 160.711 78.0504 160.804C78.2096 160.896 78.3361 161.024 78.4302 161.189H78.4383V160.714H78.8885V163.478C78.8885 163.816 78.7728 164.087 78.5414 164.292C78.3099 164.496 78.0007 164.598 77.6138 164.598ZM80.6353 161.075C80.4165 161.075 80.2348 161.151 80.0901 161.303C79.9472 161.453 79.8686 161.646 79.8541 161.883H81.3866C81.3812 161.644 81.3097 161.45 81.1723 161.3C81.0349 161.15 80.8559 161.075 80.6353 161.075ZM81.3757 162.727H81.8395C81.7979 162.976 81.6678 163.181 81.449 163.342C81.232 163.503 80.9707 163.584 80.6651 163.584C80.2619 163.584 79.9445 163.453 79.7131 163.193C79.4816 162.933 79.3659 162.58 79.3659 162.135C79.3659 161.694 79.4816 161.339 79.7131 161.069C79.9463 160.8 80.2564 160.665 80.6434 160.665C81.0231 160.665 81.3233 160.793 81.5439 161.048C81.7645 161.303 81.8748 161.644 81.8748 162.073V162.252H79.8514V162.279C79.8514 162.55 79.9255 162.767 80.0738 162.93C80.2221 163.093 80.4228 163.174 80.676 163.174C80.8532 163.174 81.0041 163.133 81.1289 163.052C81.2537 162.971 81.336 162.862 81.3757 162.727ZM82.3522 163.535V160.714H82.797V161.164H82.8078C82.8765 161.011 82.9805 160.889 83.1197 160.801C83.259 160.71 83.4217 160.665 83.608 160.665C83.7996 160.665 83.9642 160.712 84.1016 160.806C84.239 160.898 84.3385 161.03 84.4 161.202H84.4108C84.4886 161.034 84.6052 160.903 84.7607 160.809C84.918 160.713 85.0961 160.665 85.295 160.665C85.5735 160.665 85.7959 160.749 85.9623 160.917C86.1304 161.084 86.2145 161.307 86.2145 161.587V163.535H85.7426V161.696C85.7426 161.502 85.691 161.352 85.588 161.246C85.4867 161.137 85.3429 161.083 85.1567 161.083C84.9705 161.083 84.8177 161.145 84.6983 161.27C84.579 161.393 84.5193 161.55 84.5193 161.742V163.535H84.0474V161.644C84.0474 161.474 83.9949 161.339 83.89 161.238C83.7852 161.134 83.645 161.083 83.4696 161.083C83.2834 161.083 83.1288 161.148 83.0058 161.278C82.8847 161.408 82.8241 161.571 82.8241 161.766V163.535H82.3522ZM87.9477 161.075C87.7289 161.075 87.5471 161.151 87.4025 161.303C87.2596 161.453 87.181 161.646 87.1665 161.883H88.699C88.6936 161.644 88.6221 161.45 88.4847 161.3C88.3473 161.15 88.1683 161.075 87.9477 161.075ZM88.6881 162.727H89.1519C89.1103 162.976 88.9802 163.181 88.7614 163.342C88.5444 163.503 88.2831 163.584 87.9775 163.584C87.5743 163.584 87.2569 163.453 87.0255 163.193C86.794 162.933 86.6783 162.58 86.6783 162.135C86.6783 161.694 86.794 161.339 87.0255 161.069C87.2587 160.8 87.5688 160.665 87.9558 160.665C88.3355 160.665 88.6357 160.793 88.8563 161.048C89.0769 161.303 89.1872 161.644 89.1872 162.073V162.252H87.1638V162.279C87.1638 162.55 87.2379 162.767 87.3862 162.93C87.5345 163.093 87.7352 163.174 87.9884 163.174C88.1656 163.174 88.3165 163.133 88.4413 163.052C88.5661 162.971 88.6483 162.862 88.6881 162.727ZM89.6646 163.535V160.714H90.1094V161.164H90.1202C90.2016 161.007 90.3182 160.885 90.4701 160.798C90.622 160.71 90.8037 160.665 91.0153 160.665C91.3227 160.665 91.5623 160.758 91.7341 160.945C91.9058 161.129 91.9917 161.382 91.9917 161.704V163.535H91.5198V161.788C91.5198 161.558 91.4655 161.384 91.357 161.265C91.2486 161.143 91.0867 161.083 90.8715 161.083C90.6491 161.083 90.471 161.155 90.3372 161.3C90.2034 161.445 90.1365 161.636 90.1365 161.875V163.535H89.6646ZM92.7458 160.033H93.2177V160.714H93.7656V161.102H93.2177V162.778C93.2177 162.906 93.2457 163.001 93.3018 163.063C93.3578 163.123 93.4464 163.152 93.5676 163.152C93.6435 163.152 93.7086 163.148 93.7629 163.139V163.535C93.7014 163.549 93.6019 163.557 93.4645 163.557C93.2059 163.557 93.0215 163.499 92.9112 163.383C92.8009 163.267 92.7458 163.074 92.7458 162.803V161.102H92.3253V160.714H92.7458V160.033ZM73.2849 175.535L72.8916 174.415H71.3347L70.9415 175.535H70.4288L71.8718 171.621H72.3546L73.7975 175.535H73.2849ZM72.105 172.215L71.4785 174H72.7479L72.1213 172.215H72.105ZM74.1962 175.535V171.621H74.6682V175.535H74.1962ZM76.4366 173.075C76.2178 173.075 76.0361 173.151 75.8914 173.303C75.7486 173.453 75.6699 173.646 75.6555 173.883H77.1879C77.1825 173.644 77.1111 173.45 76.9736 173.3C76.8362 173.15 76.6572 173.075 76.4366 173.075ZM77.1771 174.727H77.6409C77.5993 174.976 77.4691 175.181 77.2503 175.342C77.0333 175.503 76.772 175.584 76.4664 175.584C76.0632 175.584 75.7459 175.453 75.5144 175.193C75.283 174.933 75.1672 174.58 75.1672 174.135C75.1672 173.694 75.283 173.339 75.5144 173.069C75.7477 172.8 76.0578 172.665 76.4447 172.665C76.8245 172.665 77.1246 172.793 77.3452 173.048C77.5658 173.303 77.6761 173.644 77.6761 174.073V174.252H75.6527V174.279C75.6527 174.55 75.7269 174.767 75.8752 174.93C76.0234 175.093 76.2241 175.174 76.4773 175.174C76.6545 175.174 76.8055 175.133 76.9302 175.052C77.055 174.971 77.1373 174.862 77.1771 174.727ZM76.659 172.307H76.2467L76.8163 171.494H77.3262L76.659 172.307ZM79.0838 175.182C79.3062 175.182 79.4925 175.114 79.6426 174.976C79.7945 174.837 79.8704 174.666 79.8704 174.463V174.233L79.1164 174.279C78.9265 174.292 78.7791 174.338 78.6743 174.417C78.5712 174.497 78.5197 174.604 78.5197 174.737C78.5197 174.871 78.5712 174.979 78.6743 175.06C78.7773 175.142 78.9139 175.182 79.0838 175.182ZM78.978 175.584C78.6978 175.584 78.4708 175.506 78.2973 175.35C78.1255 175.195 78.0396 174.991 78.0396 174.737C78.0396 174.495 78.1282 174.302 78.3054 174.157C78.4844 174.012 78.7366 173.931 79.0621 173.913L79.8704 173.867V173.631C79.8704 173.459 79.8162 173.324 79.7077 173.227C79.5992 173.129 79.4473 173.08 79.252 173.08C79.073 173.08 78.9274 173.12 78.8153 173.2C78.7032 173.277 78.6318 173.387 78.601 173.528H78.1454C78.1616 173.276 78.2701 173.07 78.4708 172.909C78.6734 172.747 78.9374 172.665 79.2628 172.665C79.5937 172.665 79.8559 172.748 80.0494 172.915C80.2447 173.081 80.3423 173.304 80.3423 173.585V175.535H79.8948V175.049H79.884C79.799 175.21 79.6742 175.34 79.5097 175.437C79.3451 175.535 79.1679 175.584 78.978 175.584ZM80.8929 173.492C80.8929 173.25 80.9906 173.052 81.1859 172.898C81.383 172.743 81.6361 172.665 81.9453 172.665C82.2364 172.665 82.4787 172.743 82.6722 172.898C82.8657 173.054 82.9679 173.251 82.9787 173.49H82.5285C82.5122 173.352 82.4507 173.245 82.344 173.167C82.2392 173.089 82.1008 173.05 81.929 173.05C81.7573 173.05 81.6189 173.089 81.5141 173.167C81.4092 173.243 81.3567 173.343 81.3567 173.468C81.3567 173.66 81.5132 173.795 81.826 173.875L82.2627 173.981C82.5465 174.053 82.7464 174.147 82.8621 174.263C82.9796 174.377 83.0384 174.538 83.0384 174.746C83.0384 174.991 82.9335 175.193 82.7238 175.35C82.514 175.506 82.2446 175.584 81.9155 175.584C81.6081 175.584 81.354 175.508 81.1533 175.356C80.9544 175.202 80.8423 175 80.817 174.748H81.2889C81.3414 175.048 81.5602 175.199 81.9453 175.199C82.1352 175.199 82.2853 175.161 82.3956 175.087C82.5077 175.011 82.5637 174.909 82.5637 174.781C82.5637 174.68 82.5303 174.599 82.4634 174.539C82.3983 174.48 82.2871 174.429 82.1298 174.388L81.6334 174.26C81.1398 174.133 80.8929 173.878 80.8929 173.492ZM85.7371 175.584C85.3755 175.584 85.0835 175.451 84.8611 175.185C84.6405 174.919 84.5302 174.566 84.5302 174.124C84.5302 173.685 84.6405 173.332 84.8611 173.067C85.0817 172.799 85.3701 172.665 85.7263 172.665C85.9252 172.665 86.1033 172.71 86.2606 172.801C86.4179 172.891 86.5391 173.015 86.6241 173.172H86.6349V171.621H87.1069V175.535H86.6566V175.057H86.6485C86.5563 175.222 86.4315 175.351 86.2742 175.445C86.1169 175.538 85.9378 175.584 85.7371 175.584ZM85.8266 173.08C85.5771 173.08 85.3791 173.175 85.2326 173.365C85.0862 173.553 85.0129 173.806 85.0129 174.124C85.0129 174.445 85.0862 174.699 85.2326 174.887C85.3791 175.075 85.5771 175.169 85.8266 175.169C86.0707 175.169 86.2669 175.074 86.4152 174.884C86.5635 174.692 86.6376 174.439 86.6376 174.124C86.6376 173.81 86.5626 173.558 86.4125 173.368C86.2642 173.176 86.0689 173.08 85.8266 173.08ZM88.8753 173.075C88.6565 173.075 88.4748 173.151 88.3301 173.303C88.1873 173.453 88.1086 173.646 88.0941 173.883H89.6266C89.6212 173.644 89.5497 173.45 89.4123 173.3C89.2749 173.15 89.0959 173.075 88.8753 173.075ZM89.6157 174.727H90.0795C90.038 174.976 89.9078 175.181 89.689 175.342C89.472 175.503 89.2107 175.584 88.9051 175.584C88.5019 175.584 88.1845 175.453 87.9531 175.193C87.7216 174.933 87.6059 174.58 87.6059 174.135C87.6059 173.694 87.7216 173.339 87.9531 173.069C88.1864 172.8 88.4965 172.665 88.8834 172.665C89.2631 172.665 89.5633 172.793 89.7839 173.048C90.0045 173.303 90.1148 173.644 90.1148 174.073V174.252H88.0914V174.279C88.0914 174.55 88.1656 174.767 88.3138 174.93C88.4621 175.093 88.6628 175.174 88.916 175.174C89.0932 175.174 89.2442 175.133 89.3689 175.052C89.4937 174.971 89.576 174.862 89.6157 174.727ZM91.7558 175.535V171.621H92.2277V175.535H91.7558ZM93.7954 175.182C94.0178 175.182 94.2041 175.114 94.3542 174.976C94.506 174.837 94.582 174.666 94.582 174.463V174.233L93.828 174.279C93.6381 174.292 93.4907 174.338 93.3859 174.417C93.2828 174.497 93.2313 174.604 93.2313 174.737C93.2313 174.871 93.2828 174.979 93.3859 175.06C93.4889 175.142 93.6254 175.182 93.7954 175.182ZM93.6896 175.584C93.4094 175.584 93.1824 175.506 93.0088 175.35C92.8371 175.195 92.7512 174.991 92.7512 174.737C92.7512 174.495 92.8398 174.302 93.017 174.157C93.196 174.012 93.4482 173.931 93.7737 173.913L94.582 173.867V173.631C94.582 173.459 94.5277 173.324 94.4193 173.227C94.3108 173.129 94.1589 173.08 93.9636 173.08C93.7846 173.08 93.639 173.12 93.5269 173.2C93.4148 173.277 93.3434 173.387 93.3126 173.528H92.857C92.8732 173.276 92.9817 173.07 93.1824 172.909C93.385 172.747 93.649 172.665 93.9744 172.665C94.3053 172.665 94.5675 172.748 94.761 172.915C94.9563 173.081 95.0539 173.304 95.0539 173.585V175.535H94.6064V175.049H94.5956C94.5106 175.21 94.3858 175.34 94.2213 175.437C94.0567 175.535 93.8795 175.584 93.6896 175.584ZM99.1061 172.714L98.07 175.535H97.5872L96.5484 172.714H97.0448L97.8232 175.033H97.8341L98.6152 172.714H99.1061ZM99.5021 175.535V172.714H99.9741V175.535H99.5021ZM99.7381 172.239C99.6585 172.239 99.5898 172.21 99.532 172.153C99.4741 172.095 99.4452 172.026 99.4452 171.946C99.4452 171.865 99.4741 171.796 99.532 171.74C99.5898 171.682 99.6585 171.654 99.7381 171.654C99.8195 171.654 99.8891 171.682 99.9469 171.74C100.005 171.796 100.034 171.865 100.034 171.946C100.034 172.026 100.005 172.095 99.9469 172.153C99.8891 172.21 99.8195 172.239 99.7381 172.239ZM101.742 173.075C101.524 173.075 101.342 173.151 101.197 173.303C101.054 173.453 100.976 173.646 100.961 173.883H102.494C102.488 173.644 102.417 173.45 102.28 173.3C102.142 173.15 101.963 173.075 101.742 173.075ZM102.483 174.727H102.947C102.905 174.976 102.775 175.181 102.556 175.342C102.339 175.503 102.078 175.584 101.772 175.584C101.369 175.584 101.052 175.453 100.82 175.193C100.589 174.933 100.473 174.58 100.473 174.135C100.473 173.694 100.589 173.339 100.82 173.069C101.054 172.8 101.364 172.665 101.751 172.665C102.13 172.665 102.431 172.793 102.651 173.048C102.872 173.303 102.982 173.644 102.982 174.073V174.252H100.959V174.279C100.959 174.55 101.033 174.767 101.181 174.93C101.329 175.093 101.53 175.174 101.783 175.174C101.96 175.174 102.111 175.133 102.236 175.052C102.361 174.971 102.443 174.862 102.483 174.727Z" fill="#262626"/>
<g clip-path="url(#clip0_1584:436)">
<path d="M67.1178 161.491L64.7553 159.226C64.6516 159.127 64.4953 159.127 64.3916 159.226L62.0292 161.491C61.9461 161.57 61.9187 161.693 61.9592 161.803C61.9998 161.914 62.0987 161.985 62.211 161.985H62.5884V164.254C62.5884 164.344 62.6577 164.417 62.7432 164.417H64.0381C64.1236 164.417 64.193 164.344 64.193 164.254V162.876H64.954V164.254C64.954 164.344 65.0234 164.417 65.1089 164.417H66.4037C66.4892 164.417 66.5586 164.344 66.5586 164.254V161.985H66.936C67.0483 161.985 67.1472 161.914 67.1878 161.803C67.2283 161.693 67.2009 161.57 67.1178 161.491Z" fill="url(#paint0_linear_1584:436)"/>
<path d="M66.5184 159.591H65.4785L66.6733 160.677V159.745C66.6733 159.66 66.604 159.591 66.5184 159.591Z" fill="url(#paint1_linear_1584:436)"/>
</g>
<g clip-path="url(#clip1_1584:436)">
<path d="M66.7366 171.932H62.4113C62.3073 171.932 62.2233 172.016 62.2233 172.12V176.445C62.2233 176.549 62.3073 176.633 62.4113 176.633H66.7366C66.8406 176.633 66.9246 176.549 66.9246 176.445V172.12C66.9246 172.016 66.8406 171.932 66.7366 171.932ZM64.5804 174.318L63.4521 175.264C63.4215 175.29 63.3751 175.269 63.3751 175.229V174.86C63.3751 174.847 63.3816 174.833 63.3921 174.824L64.0374 174.282L63.3921 173.741C63.3867 173.736 63.3824 173.731 63.3794 173.725C63.3765 173.718 63.375 173.712 63.3751 173.705V173.336C63.3751 173.296 63.4215 173.275 63.4521 173.3L64.5804 174.246C64.6033 174.265 64.6033 174.299 64.5804 174.318V174.318ZM65.7728 175.229C65.7728 175.254 65.7528 175.276 65.7287 175.276H64.6415C64.6174 175.276 64.5974 175.254 64.5974 175.229V174.947C64.5974 174.921 64.6174 174.899 64.6415 174.899H65.7287C65.7528 174.899 65.7728 174.921 65.7728 174.947V175.229Z" fill="url(#paint2_linear_1584:436)"/>
</g>
<path d="M22.6264 163.791H22.1382V159.877H24.5142V160.316H22.6264V161.662H24.3596V162.096H22.6264V163.791ZM25.7402 163.438C25.9626 163.438 26.1488 163.37 26.2989 163.232C26.4508 163.093 26.5267 162.922 26.5267 162.72V162.489L25.7727 162.535C25.5828 162.548 25.4355 162.594 25.3306 162.673C25.2275 162.753 25.176 162.86 25.176 162.993C25.176 163.127 25.2275 163.235 25.3306 163.316C25.4337 163.398 25.5702 163.438 25.7402 163.438ZM25.6344 163.84C25.3541 163.84 25.1272 163.762 24.9536 163.606C24.7818 163.451 24.6959 163.247 24.6959 162.993C24.6959 162.751 24.7845 162.558 24.9617 162.413C25.1407 162.268 25.393 162.187 25.7185 162.169L26.5267 162.123V161.887C26.5267 161.715 26.4725 161.58 26.364 161.483C26.2555 161.385 26.1036 161.336 25.9083 161.336C25.7293 161.336 25.5838 161.376 25.4716 161.456C25.3595 161.533 25.2881 161.643 25.2574 161.784H24.8017C24.818 161.532 24.9265 161.326 25.1272 161.165C25.3297 161.003 25.5937 160.921 25.9192 160.921C26.2501 160.921 26.5123 161.004 26.7057 161.171C26.901 161.337 26.9987 161.56 26.9987 161.841V163.791H26.5511V163.305H26.5403C26.4553 163.466 26.3305 163.596 26.166 163.693C26.0014 163.791 25.8242 163.84 25.6344 163.84ZM27.5981 163.791V160.97H28.0429V161.42H28.0538C28.1225 161.267 28.2264 161.145 28.3657 161.057C28.5049 160.966 28.6677 160.921 28.8539 160.921C29.0456 160.921 29.2101 160.968 29.3475 161.062C29.485 161.155 29.5844 161.287 29.6459 161.458H29.6567C29.7345 161.29 29.8511 161.159 30.0066 161.065C30.1639 160.969 30.3421 160.921 30.541 160.921C30.8194 160.921 31.0418 161.005 31.2082 161.174C31.3764 161.34 31.4604 161.563 31.4604 161.843V163.791H30.9885V161.952C30.9885 161.758 30.937 161.608 30.8339 161.502C30.7326 161.393 30.5889 161.339 30.4026 161.339C30.2164 161.339 30.0636 161.401 29.9442 161.526C29.8249 161.649 29.7652 161.806 29.7652 161.998V163.791H29.2933V161.9C29.2933 161.73 29.2409 161.595 29.136 161.494C29.0311 161.39 28.891 161.339 28.7156 161.339C28.5293 161.339 28.3747 161.404 28.2518 161.534C28.1306 161.664 28.07 161.827 28.07 162.022V163.791H27.5981ZM32.087 163.791V160.97H32.5589V163.791H32.087ZM32.3229 160.495C32.2434 160.495 32.1747 160.467 32.1168 160.409C32.0589 160.351 32.03 160.282 32.03 160.203C32.03 160.121 32.0589 160.052 32.1168 159.996C32.1747 159.939 32.2434 159.91 32.3229 159.91C32.4043 159.91 32.4739 159.939 32.5318 159.996C32.5897 160.052 32.6186 160.121 32.6186 160.203C32.6186 160.282 32.5897 160.351 32.5318 160.409C32.4739 160.467 32.4043 160.495 32.3229 160.495ZM33.2207 163.791V159.877H33.6927V163.791H33.2207ZM34.3545 163.791V159.877H34.8264V163.791H34.3545ZM36.5948 161.331C36.376 161.331 36.1943 161.407 36.0497 161.559C35.9068 161.709 35.8282 161.902 35.8137 162.139H37.3462C37.3407 161.9 37.2693 161.706 37.1319 161.556C36.9945 161.406 36.8154 161.331 36.5948 161.331ZM37.3353 162.983H37.7991C37.7575 163.232 37.6273 163.437 37.4085 163.598C37.1916 163.759 36.9303 163.84 36.6247 163.84C36.2214 163.84 35.9041 163.71 35.6727 163.449C35.4412 163.189 35.3255 162.836 35.3255 162.391C35.3255 161.95 35.4412 161.595 35.6727 161.325C35.9059 161.056 36.216 160.921 36.603 160.921C36.9827 160.921 37.2829 161.049 37.5035 161.304C37.7241 161.559 37.8344 161.9 37.8344 162.329V162.508H35.811V162.535C35.811 162.806 35.8851 163.023 36.0334 163.186C36.1817 163.349 36.3824 163.43 36.6355 163.43C36.8127 163.43 36.9637 163.389 37.0885 163.308C37.2133 163.227 37.2955 163.118 37.3353 162.983ZM23.6164 175.791H23.1282V172.316H21.8941V171.877H24.8505V172.316H23.6164V175.791ZM24.6688 175.791V172.97H25.1136V173.431H25.1245C25.1715 173.274 25.2556 173.15 25.3767 173.06C25.4997 172.967 25.6434 172.921 25.808 172.921C25.8459 172.921 25.9092 172.928 25.9978 172.94V173.399C25.9472 173.381 25.8631 173.372 25.7456 173.372C25.563 173.372 25.4165 173.432 25.3062 173.553C25.1959 173.674 25.1407 173.834 25.1407 174.033V175.791H24.6688ZM27.2591 175.438C27.4815 175.438 27.6677 175.37 27.8178 175.232C27.9697 175.093 28.0456 174.922 28.0456 174.72V174.489L27.2916 174.535C27.1017 174.548 26.9544 174.594 26.8495 174.673C26.7464 174.753 26.6949 174.86 26.6949 174.993C26.6949 175.127 26.7464 175.235 26.8495 175.316C26.9526 175.398 27.0891 175.438 27.2591 175.438ZM27.1533 175.84C26.873 175.84 26.6461 175.762 26.4725 175.606C26.3007 175.451 26.2148 175.247 26.2148 174.993C26.2148 174.751 26.3034 174.558 26.4806 174.413C26.6596 174.268 26.9119 174.187 27.2374 174.169L28.0456 174.123V173.887C28.0456 173.715 27.9914 173.58 27.8829 173.483C27.7744 173.385 27.6225 173.336 27.4272 173.336C27.2482 173.336 27.1026 173.376 26.9905 173.456C26.8784 173.533 26.807 173.643 26.7763 173.784H26.3206C26.3369 173.532 26.4454 173.326 26.6461 173.165C26.8486 173.003 27.1126 172.921 27.4381 172.921C27.769 172.921 28.0312 173.004 28.2246 173.171C28.4199 173.337 28.5176 173.56 28.5176 173.841V175.791H28.07V175.305H28.0592C27.9742 175.466 27.8494 175.596 27.6849 175.693C27.5203 175.791 27.3431 175.84 27.1533 175.84ZM29.117 175.791V172.97H29.5618V173.42H29.5727C29.654 173.263 29.7707 173.141 29.9225 173.054C30.0744 172.966 30.2562 172.921 30.4677 172.921C30.7751 172.921 31.0147 173.014 31.1865 173.201C31.3583 173.385 31.4442 173.638 31.4442 173.96V175.791H30.9722V174.044C30.9722 173.815 30.918 173.64 30.8095 173.521C30.701 173.4 30.5391 173.339 30.324 173.339C30.1016 173.339 29.9235 173.411 29.7896 173.556C29.6558 173.701 29.5889 173.892 29.5889 174.131V175.791H29.117ZM31.9975 173.749C31.9975 173.506 32.0951 173.308 32.2904 173.155C32.4875 172.999 32.7406 172.921 33.0498 172.921C33.341 172.921 33.5833 172.999 33.7767 173.155C33.9702 173.31 34.0724 173.507 34.0832 173.746H33.633C33.6167 173.608 33.5552 173.501 33.4486 173.423C33.3437 173.345 33.2054 173.306 33.0336 173.306C32.8618 173.306 32.7235 173.345 32.6186 173.423C32.5137 173.499 32.4613 173.599 32.4613 173.724C32.4613 173.916 32.6177 174.051 32.9305 174.131L33.3672 174.237C33.6511 174.309 33.8509 174.403 33.9666 174.519C34.0841 174.633 34.1429 174.794 34.1429 175.002C34.1429 175.248 34.038 175.449 33.8283 175.606C33.6185 175.762 33.3491 175.84 33.02 175.84C32.7126 175.84 32.4586 175.764 32.2579 175.612C32.0589 175.458 31.9468 175.256 31.9215 175.004H32.3935C32.4459 175.304 32.6647 175.455 33.0498 175.455C33.2397 175.455 33.3898 175.417 33.5001 175.343C33.6122 175.267 33.6683 175.165 33.6683 175.037C33.6683 174.936 33.6348 174.855 33.5679 174.795C33.5028 174.736 33.3916 174.685 33.2343 174.644L32.7379 174.516C32.2443 174.39 31.9975 174.134 31.9975 173.749ZM36.0036 172.921C36.3652 172.921 36.6563 173.054 36.8769 173.32C37.0993 173.586 37.2105 173.939 37.2105 174.38C37.2105 174.82 37.1002 175.173 36.8796 175.441C36.659 175.707 36.3706 175.84 36.0144 175.84C35.8155 175.84 35.6374 175.795 35.4801 175.704C35.3228 175.614 35.2016 175.49 35.1166 175.333H35.1058V176.732H34.6338V172.97H35.0814V173.447H35.0922C35.1808 173.285 35.3047 173.156 35.4638 173.062C35.6229 172.968 35.8028 172.921 36.0036 172.921ZM35.9113 175.425C36.1627 175.425 36.3616 175.331 36.508 175.143C36.6545 174.955 36.7277 174.701 36.7277 174.38C36.7277 174.06 36.6545 173.806 36.508 173.618C36.3616 173.43 36.1627 173.336 35.9113 173.336C35.669 173.336 35.4738 173.432 35.3255 173.624C35.1772 173.815 35.1031 174.068 35.1031 174.38C35.1031 174.695 35.1772 174.948 35.3255 175.14C35.4738 175.33 35.669 175.425 35.9113 175.425ZM38.8569 175.84C38.4627 175.84 38.1463 175.709 37.9076 175.446C37.6689 175.182 37.5496 174.827 37.5496 174.38C37.5496 173.934 37.6689 173.579 37.9076 173.317C38.1463 173.053 38.4627 172.921 38.8569 172.921C39.2493 172.921 39.5648 173.053 39.8035 173.317C40.0422 173.579 40.1615 173.934 40.1615 174.38C40.1615 174.825 40.0422 175.18 39.8035 175.444C39.5648 175.708 39.2493 175.84 38.8569 175.84ZM38.2521 175.148C38.4021 175.333 38.6038 175.425 38.8569 175.425C39.1101 175.425 39.3108 175.333 39.459 175.151C39.6073 174.966 39.6815 174.71 39.6815 174.38C39.6815 174.051 39.6073 173.796 39.459 173.613C39.3108 173.428 39.1101 173.336 38.8569 173.336C38.6038 173.336 38.4021 173.428 38.2521 173.613C38.1038 173.797 38.0297 174.053 38.0297 174.38C38.0297 174.708 38.1038 174.964 38.2521 175.148ZM40.6389 175.791V172.97H41.0837V173.431H41.0946C41.1416 173.274 41.2257 173.15 41.3468 173.06C41.4698 172.967 41.6135 172.921 41.7781 172.921C41.816 172.921 41.8793 172.928 41.9679 172.94V173.399C41.9173 173.381 41.8332 173.372 41.7157 173.372C41.5331 173.372 41.3866 173.432 41.2763 173.553C41.166 173.674 41.1108 173.834 41.1108 174.033V175.791H40.6389ZM42.505 172.289H42.9769V172.97H43.5248V173.358H42.9769V175.034C42.9769 175.163 43.0049 175.257 43.061 175.319C43.1171 175.379 43.2057 175.408 43.3268 175.408C43.4028 175.408 43.4678 175.404 43.5221 175.395V175.791C43.4606 175.805 43.3612 175.813 43.2237 175.813C42.9652 175.813 42.7807 175.755 42.6704 175.639C42.5601 175.523 42.505 175.33 42.505 175.059V173.358H42.0846V172.97H42.505V172.289Z" fill="#262626"/>
<path d="M21.7585 165.445H38.0025V165.771H21.7585V165.445Z" fill="#262626"/>
<g clip-path="url(#clip2_1584:436)">
<path d="M19.0282 172.797C19.0139 172.755 18.9632 172.723 18.9209 172.723C18.7378 172.723 18.5546 172.723 18.3714 172.723C18.3291 172.723 18.2784 172.755 18.2641 172.797C18.2501 172.838 18.2397 172.874 18.2327 172.908L17.8657 171.893C17.8051 171.725 17.6448 171.613 17.4667 171.613H14.6592C14.4811 171.613 14.3208 171.725 14.2602 171.893L13.8931 172.908C13.8862 172.874 13.8757 172.838 13.8617 172.797C13.8474 172.755 13.7967 172.723 13.7544 172.723C13.5713 172.723 13.3881 172.723 13.2049 172.723C13.1626 172.723 13.1119 172.755 13.0976 172.797C13.042 172.959 13.042 173.052 13.0976 173.214C13.1119 173.255 13.1626 173.288 13.2049 173.288C13.3881 173.288 13.5713 173.288 13.7545 173.288C13.755 173.288 13.7555 173.288 13.7561 173.288L13.7478 173.311C13.6357 173.348 13.5548 173.453 13.5548 173.578V174.428V174.498V175.439C13.5548 175.514 13.6154 175.575 13.6902 175.575H14.3718C14.4466 175.575 14.5073 175.514 14.5073 175.439V174.78H17.6186V175.439C17.6186 175.514 17.6792 175.575 17.754 175.575H18.4356C18.5104 175.575 18.5711 175.514 18.5711 175.439V174.498V174.428V173.578C18.5711 173.453 18.4902 173.348 18.3782 173.311L18.3699 173.288C18.3704 173.288 18.3709 173.288 18.3714 173.288C18.5546 173.288 18.7378 173.288 18.921 173.288C18.9633 173.288 19.0139 173.255 19.0282 173.214C19.0839 173.052 19.0838 172.959 19.0282 172.797ZM14.711 172.111H17.4145L17.8428 173.296H14.2827L14.711 172.111ZM14.7864 174.131H14.2162C14.0939 174.131 13.9947 174.032 13.9947 173.909C13.9947 173.787 14.0939 173.688 14.2162 173.688H14.7864C14.9088 173.688 15.0079 173.787 15.0079 173.909C15.008 174.032 14.9088 174.131 14.7864 174.131ZM17.9096 174.131H17.3394C17.2171 174.131 17.1179 174.032 17.1179 173.909C17.1179 173.787 17.2171 173.688 17.3394 173.688H17.9096C18.0319 173.688 18.1311 173.787 18.1311 173.909C18.1311 174.032 18.0319 174.131 17.9096 174.131Z" fill="url(#paint3_linear_1584:436)"/>
</g>
<g clip-path="url(#clip3_1584:436)">
<path d="M15.2247 162.343L15.3077 162.253C15.2471 162.066 15.2469 161.86 15.3117 161.67C14.8348 161.923 14.2311 161.822 13.8707 161.411C13.6031 161.616 13.4312 161.933 13.4312 162.287V163.884C13.4312 163.972 13.5053 164.044 13.5967 164.044H14.9602C14.9417 163.994 14.9317 163.94 14.9317 163.884V163.086C14.9317 162.812 15.0357 162.548 15.2247 162.343V162.343Z" fill="url(#paint4_linear_1584:436)"/>
<path d="M14.5614 161.411C14.9768 161.411 15.3136 161.075 15.3136 160.659C15.3136 160.244 14.9768 159.907 14.5614 159.907C14.1459 159.907 13.8091 160.244 13.8091 160.659C13.8091 161.075 14.1459 161.411 14.5614 161.411Z" fill="url(#paint5_linear_1584:436)"/>
<path d="M18.2566 161.411C17.8955 161.823 17.2914 161.923 16.8156 161.67C16.8803 161.861 16.8803 162.066 16.8196 162.253L16.9026 162.343C17.0916 162.548 17.1956 162.812 17.1956 163.086V163.884C17.1956 163.94 17.1856 163.994 17.1671 164.044H18.5306C18.622 164.044 18.6962 163.972 18.6962 163.884V162.287C18.6962 161.933 18.5243 161.616 18.2566 161.411V161.411Z" fill="url(#paint6_linear_1584:436)"/>
<path d="M17.5678 161.411C17.9833 161.411 18.32 161.075 18.32 160.659C18.32 160.244 17.9833 159.907 17.5678 159.907C17.1524 159.907 16.8156 160.244 16.8156 160.659C16.8156 161.075 17.1524 161.411 17.5678 161.411Z" fill="url(#paint7_linear_1584:436)"/>
<path d="M16.0653 162.914C15.8242 162.914 15.6093 162.767 15.4716 162.539C15.373 162.682 15.313 162.87 15.313 163.075V163.882C15.313 163.971 15.3692 164.044 15.4384 164.044H16.6921C16.7613 164.044 16.8175 163.971 16.8175 163.882V163.075C16.8175 162.87 16.7576 162.682 16.6589 162.539C16.5212 162.767 16.3063 162.914 16.0653 162.914V162.914Z" fill="url(#paint8_linear_1584:436)"/>
<path d="M16.0653 162.539C16.4807 162.539 16.8175 162.287 16.8175 161.975C16.8175 161.664 16.4807 161.411 16.0653 161.411C15.6498 161.411 15.313 161.664 15.313 161.975C15.313 162.287 15.6498 162.539 16.0653 162.539Z" fill="url(#paint9_linear_1584:436)"/>
<path d="M15.6639 159.992C15.825 160.151 15.9846 160.256 15.9913 160.261C16.0367 160.29 16.0938 160.29 16.1392 160.261C16.1459 160.256 16.3055 160.151 16.4666 159.992C16.6994 159.763 16.8175 159.539 16.8175 159.329C16.8175 158.851 16.3717 158.626 16.0653 158.892C15.7581 158.626 15.313 158.852 15.313 159.329C15.313 159.539 15.4311 159.763 15.6639 159.992V159.992Z" fill="url(#paint10_linear_1584:436)"/>
</g>
<path d="M128.625 164.096V164.535H126.2V160.621H128.625V161.061H126.688V162.316H128.524V162.75H126.688V164.096H128.625ZM131.541 162.639H131.079C131.043 162.476 130.963 162.343 130.838 162.238C130.715 162.133 130.555 162.08 130.358 162.08C130.112 162.08 129.914 162.175 129.764 162.365C129.614 162.553 129.539 162.806 129.539 163.125C129.539 163.448 129.614 163.703 129.764 163.89C129.916 164.076 130.116 164.169 130.363 164.169C130.553 164.169 130.71 164.122 130.833 164.028C130.957 163.932 131.041 163.798 131.082 163.626H131.546C131.51 163.909 131.382 164.139 131.164 164.318C130.947 164.495 130.679 164.584 130.361 164.584C129.967 164.584 129.651 164.454 129.414 164.193C129.177 163.931 129.059 163.575 129.059 163.125C129.059 162.682 129.177 162.328 129.414 162.064C129.651 161.798 129.965 161.665 130.355 161.665C130.692 161.665 130.965 161.76 131.174 161.95C131.386 162.14 131.508 162.37 131.541 162.639ZM133.149 164.584C132.755 164.584 132.438 164.453 132.2 164.191C131.961 163.927 131.842 163.571 131.842 163.125C131.842 162.678 131.961 162.324 132.2 162.061C132.438 161.797 132.755 161.665 133.149 161.665C133.541 161.665 133.857 161.797 134.096 162.061C134.334 162.324 134.454 162.678 134.454 163.125C134.454 163.57 134.334 163.924 134.096 164.188C133.857 164.452 133.541 164.584 133.149 164.584ZM132.544 163.892C132.694 164.077 132.896 164.169 133.149 164.169C133.402 164.169 133.603 164.078 133.751 163.895C133.899 163.711 133.974 163.454 133.974 163.125C133.974 162.796 133.899 162.54 133.751 162.357C133.603 162.173 133.402 162.08 133.149 162.08C132.896 162.08 132.694 162.173 132.544 162.357C132.396 162.542 132.322 162.797 132.322 163.125C132.322 163.452 132.396 163.708 132.544 163.892ZM134.955 164.535V160.621H135.427V164.535H134.955ZM137.234 164.584C136.84 164.584 136.523 164.453 136.284 164.191C136.046 163.927 135.926 163.571 135.926 163.125C135.926 162.678 136.046 162.324 136.284 162.061C136.523 161.797 136.84 161.665 137.234 161.665C137.626 161.665 137.942 161.797 138.18 162.061C138.419 162.324 138.538 162.678 138.538 163.125C138.538 163.57 138.419 163.924 138.18 164.188C137.942 164.452 137.626 164.584 137.234 164.584ZM136.629 163.892C136.779 164.077 136.981 164.169 137.234 164.169C137.487 164.169 137.688 164.078 137.836 163.895C137.984 163.711 138.058 163.454 138.058 163.125C138.058 162.796 137.984 162.54 137.836 162.357C137.688 162.173 137.487 162.08 137.234 162.08C136.981 162.08 136.779 162.173 136.629 162.357C136.481 162.542 136.406 162.797 136.406 163.125C136.406 163.452 136.481 163.708 136.629 163.892ZM140.163 164.142C140.409 164.142 140.607 164.048 140.757 163.86C140.907 163.672 140.982 163.423 140.982 163.114C140.982 162.803 140.907 162.553 140.757 162.365C140.607 162.175 140.409 162.08 140.163 162.08C139.919 162.08 139.724 162.174 139.577 162.363C139.433 162.549 139.36 162.799 139.36 163.114C139.36 163.428 139.433 163.679 139.577 163.865C139.724 164.05 139.919 164.142 140.163 164.142ZM140.179 165.598C139.87 165.598 139.604 165.52 139.382 165.362C139.159 165.207 139.028 165.009 138.989 164.768H139.474C139.521 164.899 139.61 165.003 139.74 165.08C139.87 165.158 140.023 165.197 140.198 165.197C140.441 165.197 140.631 165.133 140.771 165.004C140.912 164.876 140.982 164.706 140.982 164.494V164.05H140.971C140.883 164.205 140.759 164.329 140.6 164.421C140.441 164.512 140.263 164.557 140.068 164.557C139.708 164.557 139.42 164.426 139.203 164.164C138.986 163.901 138.877 163.551 138.877 163.114C138.877 162.673 138.986 162.321 139.203 162.059C139.422 161.797 139.714 161.665 140.079 161.665C140.278 161.665 140.457 161.712 140.616 161.804C140.775 161.896 140.902 162.024 140.996 162.189H141.004V161.714H141.454V164.478C141.454 164.816 141.338 165.088 141.107 165.292C140.875 165.496 140.566 165.598 140.179 165.598ZM142.094 164.535V161.714H142.566V164.535H142.094ZM142.33 161.24C142.251 161.24 142.182 161.211 142.124 161.153C142.066 161.095 142.037 161.026 142.037 160.947C142.037 160.865 142.066 160.797 142.124 160.741C142.182 160.683 142.251 160.654 142.33 160.654C142.412 160.654 142.481 160.683 142.539 160.741C142.597 160.797 142.626 160.865 142.626 160.947C142.626 161.026 142.597 161.095 142.539 161.153C142.481 161.211 142.412 161.24 142.33 161.24ZM144.335 162.075C144.116 162.075 143.934 162.151 143.789 162.303C143.647 162.453 143.568 162.646 143.553 162.883H145.086C145.08 162.645 145.009 162.45 144.872 162.3C144.734 162.15 144.555 162.075 144.335 162.075ZM145.075 163.727H145.539C145.497 163.976 145.367 164.182 145.148 164.343C144.931 164.503 144.67 164.584 144.364 164.584C143.961 164.584 143.644 164.454 143.412 164.193C143.181 163.933 143.065 163.58 143.065 163.136C143.065 162.694 143.181 162.339 143.412 162.07C143.646 161.8 143.956 161.665 144.343 161.665C144.722 161.665 145.023 161.793 145.243 162.048C145.464 162.303 145.574 162.645 145.574 163.073V163.252H143.551V163.279C143.551 163.551 143.625 163.768 143.773 163.93C143.921 164.093 144.122 164.174 144.375 164.174C144.552 164.174 144.703 164.134 144.828 164.052C144.953 163.971 145.035 163.862 145.075 163.727Z" fill="#262626"/>
<path d="M127.532 176.105H127.049L125.606 172.191H126.119L127.282 175.511H127.298L128.462 172.191H128.975L127.532 176.105ZM129.292 176.105V173.285H129.764V176.105H129.292ZM129.528 172.81C129.448 172.81 129.38 172.781 129.322 172.723C129.264 172.665 129.235 172.597 129.235 172.517C129.235 172.436 129.264 172.367 129.322 172.311C129.38 172.253 129.448 172.224 129.528 172.224C129.609 172.224 129.679 172.253 129.737 172.311C129.795 172.367 129.824 172.436 129.824 172.517C129.824 172.597 129.795 172.665 129.737 172.723C129.679 172.781 129.609 172.81 129.528 172.81ZM131.532 173.645C131.314 173.645 131.132 173.721 130.987 173.873C130.844 174.023 130.766 174.217 130.751 174.454H132.284C132.278 174.215 132.207 174.02 132.069 173.87C131.932 173.72 131.753 173.645 131.532 173.645ZM132.273 175.297H132.737C132.695 175.547 132.565 175.752 132.346 175.913C132.129 176.074 131.868 176.154 131.562 176.154C131.159 176.154 130.842 176.024 130.61 175.764C130.379 175.503 130.263 175.151 130.263 174.706C130.263 174.265 130.379 173.909 130.61 173.64C130.843 173.37 131.154 173.236 131.54 173.236C131.92 173.236 132.22 173.363 132.441 173.618C132.662 173.873 132.772 174.215 132.772 174.643V174.822H130.749V174.85C130.749 175.121 130.823 175.338 130.971 175.501C131.119 175.663 131.32 175.745 131.573 175.745C131.75 175.745 131.901 175.704 132.026 175.623C132.151 175.541 132.233 175.433 132.273 175.297ZM134.388 176.105V173.285H134.833V173.735H134.844C134.925 173.577 135.042 173.455 135.194 173.369C135.346 173.28 135.528 173.236 135.739 173.236C136.047 173.236 136.286 173.329 136.458 173.515C136.63 173.7 136.716 173.953 136.716 174.275V176.105H136.244V174.359C136.244 174.129 136.189 173.954 136.081 173.835C135.972 173.714 135.811 173.653 135.595 173.653C135.373 173.653 135.195 173.726 135.061 173.87C134.927 174.015 134.86 174.207 134.86 174.445V176.105H134.388ZM139.634 173.285V176.105H139.187V175.647H139.176C139 175.985 138.702 176.154 138.281 176.154C137.975 176.154 137.735 176.062 137.562 175.878C137.39 175.691 137.304 175.437 137.304 175.115V173.285H137.776V175.031C137.776 175.501 137.993 175.736 138.427 175.736C138.655 175.736 138.834 175.665 138.964 175.522C139.096 175.378 139.162 175.184 139.162 174.942V173.285H139.634ZM140.247 176.105V173.285H140.692V173.735H140.703C140.771 173.581 140.875 173.46 141.015 173.371C141.154 173.281 141.317 173.236 141.503 173.236C141.694 173.236 141.859 173.283 141.996 173.377C142.134 173.469 142.233 173.601 142.295 173.773H142.306C142.383 173.605 142.5 173.473 142.656 173.379C142.813 173.284 142.991 173.236 143.19 173.236C143.468 173.236 143.691 173.32 143.857 173.488C144.025 173.654 144.109 173.878 144.109 174.158V176.105H143.637V174.266C143.637 174.073 143.586 173.923 143.483 173.816C143.382 173.708 143.238 173.653 143.052 173.653C142.865 173.653 142.713 173.716 142.593 173.841C142.474 173.964 142.414 174.121 142.414 174.313V176.105H141.942V174.215C141.942 174.045 141.89 173.909 141.785 173.808C141.68 173.705 141.54 173.653 141.365 173.653C141.178 173.653 141.024 173.719 140.901 173.849C140.78 173.979 140.719 174.142 140.719 174.337V176.105H140.247ZM145.843 173.645C145.624 173.645 145.442 173.721 145.297 173.873C145.155 174.023 145.076 174.217 145.061 174.454H146.594C146.588 174.215 146.517 174.02 146.38 173.87C146.242 173.72 146.063 173.645 145.843 173.645ZM146.583 175.297H147.047C147.005 175.547 146.875 175.752 146.656 175.913C146.439 176.074 146.178 176.154 145.872 176.154C145.469 176.154 145.152 176.024 144.92 175.764C144.689 175.503 144.573 175.151 144.573 174.706C144.573 174.265 144.689 173.909 144.92 173.64C145.154 173.37 145.464 173.236 145.851 173.236C146.23 173.236 146.531 173.363 146.751 173.618C146.972 173.873 147.082 174.215 147.082 174.643V174.822H145.059V174.85C145.059 175.121 145.133 175.338 145.281 175.501C145.429 175.663 145.63 175.745 145.883 175.745C146.06 175.745 146.211 175.704 146.336 175.623C146.461 175.541 146.543 175.433 146.583 175.297ZM146.065 172.878H145.653L146.222 172.064H146.732L146.065 172.878ZM147.559 176.105V173.285H148.004V173.746H148.015C148.062 173.588 148.146 173.464 148.267 173.374C148.39 173.282 148.534 173.236 148.699 173.236C148.737 173.236 148.8 173.242 148.888 173.255V173.713C148.838 173.695 148.754 173.686 148.636 173.686C148.454 173.686 148.307 173.747 148.197 173.868C148.087 173.989 148.031 174.149 148.031 174.348V176.105H147.559ZM149.298 176.105V173.285H149.77V176.105H149.298ZM149.534 172.81C149.454 172.81 149.386 172.781 149.328 172.723C149.27 172.665 149.241 172.597 149.241 172.517C149.241 172.436 149.27 172.367 149.328 172.311C149.386 172.253 149.454 172.224 149.534 172.224C149.615 172.224 149.685 172.253 149.743 172.311C149.801 172.367 149.83 172.436 149.83 172.517C149.83 172.597 149.801 172.665 149.743 172.723C149.685 172.781 149.615 172.81 149.534 172.81ZM151.471 173.236C151.673 173.236 151.853 173.282 152.01 173.374C152.168 173.466 152.292 173.596 152.385 173.762H152.395V173.285H152.846V177.047H152.374V175.633H152.363C152.274 175.796 152.15 175.924 151.991 176.016C151.834 176.108 151.657 176.154 151.46 176.154C151.102 176.154 150.813 176.021 150.595 175.755C150.378 175.49 150.269 175.136 150.269 174.695C150.269 174.252 150.378 173.898 150.597 173.634C150.816 173.369 151.107 173.236 151.471 173.236ZM151.555 175.739C151.797 175.739 151.994 175.643 152.146 175.452C152.298 175.26 152.374 175.008 152.374 174.695C152.374 174.382 152.298 174.13 152.146 173.938C151.994 173.747 151.797 173.651 151.555 173.651C151.307 173.651 151.111 173.745 150.966 173.933C150.823 174.119 150.752 174.373 150.752 174.695C150.752 175.017 150.823 175.272 150.966 175.46C151.111 175.646 151.307 175.739 151.555 175.739ZM155.778 173.285V176.105H155.33V175.647H155.319C155.144 175.985 154.846 176.154 154.424 176.154C154.119 176.154 153.879 176.062 153.706 175.878C153.534 175.691 153.448 175.437 153.448 175.115V173.285H153.92V175.031C153.92 175.501 154.137 175.736 154.571 175.736C154.799 175.736 154.978 175.665 155.108 175.522C155.24 175.378 155.306 175.184 155.306 174.942V173.285H155.778ZM157.522 173.645C157.303 173.645 157.121 173.721 156.977 173.873C156.834 174.023 156.755 174.217 156.741 174.454H158.273C158.268 174.215 158.196 174.02 158.059 173.87C157.921 173.72 157.742 173.645 157.522 173.645ZM158.262 175.297H158.726C158.684 175.547 158.554 175.752 158.335 175.913C158.118 176.074 157.857 176.154 157.552 176.154C157.148 176.154 156.831 176.024 156.6 175.764C156.368 175.503 156.252 175.151 156.252 174.706C156.252 174.265 156.368 173.909 156.6 173.64C156.833 173.37 157.143 173.236 157.53 173.236C157.91 173.236 158.21 173.363 158.43 173.618C158.651 173.873 158.761 174.215 158.761 174.643V174.822H156.738V174.85C156.738 175.121 156.812 175.338 156.96 175.501C157.109 175.663 157.309 175.745 157.562 175.745C157.74 175.745 157.891 175.704 158.015 175.623C158.14 175.541 158.222 175.433 158.262 175.297Z" fill="#262626"/>
<g clip-path="url(#clip4_1584:436)">
<path d="M118.969 175.833H120.731V174.772H118.969V175.833ZM119.85 175.126C119.947 175.126 120.026 175.205 120.026 175.303C120.026 175.4 119.947 175.479 119.85 175.479C119.753 175.479 119.674 175.4 119.674 175.303C119.674 175.205 119.753 175.126 119.85 175.126Z" fill="url(#paint11_linear_1584:436)"/>
<path d="M122.289 172.298C121.361 172.298 120.8 172.124 120.492 171.979C120.178 171.83 120.06 171.681 120.049 171.667C119.985 171.567 119.845 171.558 119.769 171.654C119.759 171.665 119.616 171.82 119.271 171.973C118.939 172.121 118.346 172.298 117.41 172.298C117.313 172.298 117.234 172.377 117.234 172.474V175.303C117.234 176.022 117.688 176.649 118.546 177.115C119.129 177.432 119.781 177.601 119.85 177.601C119.912 177.601 120.556 177.44 121.154 177.115C122.012 176.649 122.466 176.022 122.466 175.303V172.474C122.466 172.377 122.387 172.298 122.289 172.298V172.298ZM121.083 176.01C121.083 176.107 121.004 176.187 120.907 176.187H118.793C118.695 176.187 118.616 176.107 118.616 176.01V174.596C118.616 174.498 118.695 174.419 118.793 174.419H118.969V173.883C118.969 173.414 119.342 173.005 119.855 173.005C120.338 173.005 120.73 173.399 120.73 173.883C120.73 173.98 120.651 174.059 120.554 174.059C120.457 174.059 120.378 173.98 120.378 173.883C120.378 173.606 120.16 173.358 119.845 173.358C119.556 173.358 119.322 173.593 119.322 173.883V174.419H120.907C121.004 174.419 121.083 174.498 121.083 174.596V176.01Z" fill="url(#paint12_linear_1584:436)"/>
</g>
<g clip-path="url(#clip5_1584:436)">
<path d="M121.793 162.236C121.523 161.526 120.838 161.022 120.034 161.022C119.231 161.022 118.545 161.526 118.276 162.236C117.772 162.368 117.4 162.826 117.4 163.372C117.4 164.022 117.926 164.548 118.575 164.548H121.491C122.14 164.548 122.666 164.022 122.666 163.372C122.666 162.828 122.295 162.369 121.793 162.236Z" fill="url(#paint13_linear_1584:436)"/>
</g>
<path d="M133.921 91.1459C133.921 99.4815 131.866 107.688 127.936 115.04C124.007 122.391 118.325 128.66 111.394 133.291C104.464 137.922 96.4975 140.772 88.202 141.59C79.9065 142.407 71.5375 141.165 63.8364 137.975C56.1353 134.785 49.3397 129.745 44.0516 123.302C38.7635 116.858 35.1462 109.21 33.52 101.035C31.8938 92.8591 32.3089 84.4087 34.7286 76.432C37.1483 68.4553 41.4979 61.1984 47.3921 55.3042L83.2337 91.1459H133.921Z" fill="url(#paint14_linear_1584:436)"/>
<path d="M126.923 65.4462C131.405 73.0659 133.817 81.7253 133.918 90.5649C134.019 99.4046 131.807 108.117 127.501 115.837L83.2337 91.1459L126.923 65.4462Z" fill="url(#paint15_linear_1584:436)"/>
<path d="M45.046 52.9571C44.2758 52.1868 44.2734 50.9352 45.0706 50.1929C50.8392 44.8209 57.6935 40.7358 65.1795 38.2191C73.2893 35.4927 81.9202 34.681 90.3961 35.8475C98.872 37.0139 106.963 40.127 114.035 44.9427C120.562 49.3881 126.058 55.1728 130.161 61.9033C130.728 62.8334 130.388 64.0379 129.438 64.5714L103.096 79.3711C102.146 79.9047 100.951 79.561 100.332 78.6649C98.8471 76.5159 96.9756 74.6541 94.8073 73.1776C92.0943 71.3301 88.9905 70.1358 85.7388 69.6883C82.4872 69.2408 79.1761 69.5523 76.0649 70.5982C73.5784 71.4341 71.2735 72.7211 69.2633 74.3891C68.4251 75.0847 67.1817 75.0927 66.4114 74.3225L45.046 52.9571Z" fill="url(#paint16_linear_1584:436)"/>
<path d="M85.2337 54.5297V53.716H83.2673V53.2739C83.4354 52.961 83.6488 52.6039 83.9074 52.2025C84.1677 51.8011 84.5267 51.2722 84.9842 50.6158H85.7056V53.2874H86.2589V53.716H85.7056V54.5297H85.2337ZM83.75 53.2766V53.2874H85.2337V51.0226H85.2255C84.5402 52.0009 84.0484 52.7522 83.75 53.2766ZM88.3124 54.5948C87.8585 54.5948 87.5041 54.4139 87.2491 54.0523C86.996 53.6888 86.8694 53.1952 86.8694 52.5714C86.8694 51.953 86.9969 51.462 87.2519 51.0986C87.5086 50.7333 87.8621 50.5507 88.3124 50.5507C88.7626 50.5507 89.1143 50.7324 89.3675 51.0959C89.6224 51.4575 89.7499 51.9484 89.7499 52.5687C89.7499 53.1925 89.6233 53.6861 89.3702 54.0496C89.117 54.413 88.7644 54.5948 88.3124 54.5948ZM87.6099 53.7404C87.7762 54.0261 88.0104 54.1689 88.3124 54.1689C88.6143 54.1689 88.8476 54.027 89.0121 53.7431C89.1767 53.4574 89.259 53.0668 89.259 52.5714C89.259 52.0832 89.1758 51.6962 89.0094 51.4105C88.8431 51.123 88.6107 50.9792 88.3124 50.9792C88.014 50.9792 87.7808 51.123 87.6126 51.4105C87.4444 51.698 87.3603 52.0841 87.3603 52.5687C87.3603 53.0641 87.4435 53.4547 87.6099 53.7404ZM93.1 50.8328C93.2501 51.01 93.3251 51.246 93.3251 51.5407C93.3251 51.8354 93.2501 52.0714 93.1 52.2486C92.9499 52.4258 92.751 52.5144 92.5033 52.5144C92.2556 52.5144 92.0567 52.4258 91.9066 52.2486C91.7565 52.0714 91.6815 51.8354 91.6815 51.5407C91.6815 51.246 91.7565 51.01 91.9066 50.8328C92.0567 50.6556 92.2556 50.567 92.5033 50.567C92.751 50.567 92.9499 50.6556 93.1 50.8328ZM92.2185 52.0126C92.289 52.1266 92.384 52.1835 92.5033 52.1835C92.6227 52.1835 92.7167 52.1266 92.7854 52.0126C92.8559 51.8969 92.8912 51.7396 92.8912 51.5407C92.8912 51.3418 92.8559 51.1854 92.7854 51.0715C92.7167 50.9557 92.6227 50.8979 92.5033 50.8979C92.384 50.8979 92.289 50.9557 92.2185 51.0715C92.1498 51.1854 92.1155 51.3418 92.1155 51.5407C92.1155 51.7396 92.1498 51.8969 92.2185 52.0126ZM92.384 54.5297H91.912L93.4228 52.4656L94.7762 50.6158H95.2428L93.7727 52.6283L92.384 54.5297ZM95.2509 52.8887C95.401 53.0659 95.476 53.3019 95.476 53.5966C95.476 53.8914 95.401 54.1273 95.2509 54.3045C95.1008 54.4817 94.9019 54.5703 94.6542 54.5703C94.4065 54.5703 94.2076 54.4817 94.0575 54.3045C93.9074 54.1273 93.8324 53.8914 93.8324 53.5966C93.8324 53.3019 93.9074 53.0659 94.0575 52.8887C94.2076 52.7115 94.4065 52.6229 94.6542 52.6229C94.9019 52.6229 95.1008 52.7115 95.2509 52.8887ZM94.3694 54.0686C94.4399 54.1825 94.5348 54.2394 94.6542 54.2394C94.7735 54.2394 94.8676 54.1825 94.9363 54.0686C95.0068 53.9528 95.042 53.7955 95.042 53.5966C95.042 53.3977 95.0068 53.2413 94.9363 53.1274C94.8676 53.0117 94.7735 52.9538 94.6542 52.9538C94.5348 52.9538 94.4399 53.0117 94.3694 53.1274C94.3007 53.2413 94.2663 53.3977 94.2663 53.5966C94.2663 53.7955 94.3007 53.9528 94.3694 54.0686Z" fill="white"/>
<path d="M115.03 89.4296C115.03 89.0879 115.153 88.804 115.399 88.5779C115.645 88.3501 115.952 88.2362 116.321 88.2362C116.67 88.2362 116.965 88.3402 117.208 88.5481C117.45 88.756 117.571 89.0101 117.571 89.3103C117.571 89.5272 117.511 89.7361 117.392 89.9368C117.273 90.1375 117.049 90.4078 116.719 90.7478L115.73 91.7703V91.7812H117.636V92.2151H115.054V91.8788L116.432 90.4277C116.694 90.1511 116.868 89.9413 116.953 89.7985C117.04 89.6556 117.083 89.5028 117.083 89.3401C117.083 89.152 117.007 88.992 116.855 88.86C116.705 88.728 116.522 88.662 116.307 88.662C116.078 88.662 115.886 88.7352 115.732 88.8817C115.579 89.0282 115.502 89.2108 115.502 89.4296V89.4323H115.03V89.4296ZM119.776 92.2802C119.323 92.2802 118.968 92.0994 118.713 91.7378C118.46 91.3743 118.334 90.8807 118.334 90.2569C118.334 89.6385 118.461 89.1475 118.716 88.7841C118.973 88.4188 119.326 88.2362 119.776 88.2362C120.227 88.2362 120.578 88.4179 120.832 88.7814C121.087 89.143 121.214 89.6339 121.214 90.2541C121.214 90.878 121.087 91.3716 120.834 91.7351C120.581 92.0985 120.229 92.2802 119.776 92.2802ZM119.074 91.4259C119.24 91.7116 119.475 91.8544 119.776 91.8544C120.078 91.8544 120.312 91.7125 120.476 91.4286C120.641 91.1429 120.723 90.7523 120.723 90.2569C120.723 89.7686 120.64 89.3817 120.474 89.096C120.307 88.8085 120.075 88.6647 119.776 88.6647C119.478 88.6647 119.245 88.8085 119.077 89.096C118.909 89.3835 118.824 89.7695 118.824 90.2541C118.824 90.7496 118.908 91.1402 119.074 91.4259ZM124.564 88.5183C124.714 88.6955 124.789 88.9314 124.789 89.2262C124.789 89.5209 124.714 89.7569 124.564 89.9341C124.414 90.1113 124.215 90.1999 123.967 90.1999C123.72 90.1999 123.521 90.1113 123.371 89.9341C123.221 89.7569 123.146 89.5209 123.146 89.2262C123.146 88.9314 123.221 88.6955 123.371 88.5183C123.521 88.3411 123.72 88.2525 123.967 88.2525C124.215 88.2525 124.414 88.3411 124.564 88.5183ZM123.683 89.6981C123.753 89.812 123.848 89.869 123.967 89.869C124.087 89.869 124.181 89.812 124.25 89.6981C124.32 89.5824 124.355 89.4251 124.355 89.2262C124.355 89.0273 124.32 88.8709 124.25 88.7569C124.181 88.6412 124.087 88.5834 123.967 88.5834C123.848 88.5834 123.753 88.6412 123.683 88.7569C123.614 88.8709 123.58 89.0273 123.58 89.2262C123.58 89.4251 123.614 89.5824 123.683 89.6981ZM123.848 92.2151H123.376L124.887 90.1511L126.24 88.3013H126.707L125.237 90.3138L123.848 92.2151ZM126.715 90.5742C126.865 90.7514 126.94 90.9874 126.94 91.2821C126.94 91.5769 126.865 91.8128 126.715 91.99C126.565 92.1672 126.366 92.2558 126.118 92.2558C125.871 92.2558 125.672 92.1672 125.522 91.99C125.372 91.8128 125.296 91.5769 125.296 91.2821C125.296 90.9874 125.372 90.7514 125.522 90.5742C125.672 90.397 125.871 90.3084 126.118 90.3084C126.366 90.3084 126.565 90.397 126.715 90.5742ZM125.834 91.7541C125.904 91.868 125.999 91.9249 126.118 91.9249C126.238 91.9249 126.332 91.868 126.4 91.7541C126.471 91.6383 126.506 91.481 126.506 91.2821C126.506 91.0832 126.471 90.9268 126.4 90.8129C126.332 90.6972 126.238 90.6393 126.118 90.6393C125.999 90.6393 125.904 90.6972 125.834 90.8129C125.765 90.9268 125.73 91.0832 125.73 91.2821C125.73 91.481 125.765 91.6383 125.834 91.7541Z" fill="white"/>
<path d="M66.5219 138.999C59.8242 136.66 53.6922 132.941 48.5224 128.083L83.2337 91.1459L66.5219 138.999Z" fill="url(#paint17_linear_1584:436)"/>
<path d="M121.76 124.084C115.122 131.848 106.293 137.425 96.431 140.085C86.5685 142.745 76.1326 142.362 66.4911 138.988L83.2337 91.1454L121.76 124.084Z" fill="url(#paint18_linear_1584:436)"/>
<path d="M127.586 115.684C125.888 118.754 123.875 121.639 121.581 124.293L83.2338 91.1455L127.586 115.684Z" fill="url(#paint19_linear_1584:436)"/>
<path d="M127.586 115.684C125.888 118.754 123.875 121.639 121.581 124.293L83.2338 91.1455L127.586 115.684Z" fill="url(#paint20_linear_1584:436)"/>
<circle cx="82.666" cy="91.715" r="25.0591" fill="white"/>
<path d="M88.9812 128.848V125.452H88.9703L87.9342 126.198V125.682L88.9758 124.934H89.4531V128.848H88.9812ZM91.9975 128.913C91.5834 128.913 91.2435 128.808 90.9777 128.598C90.7118 128.387 90.5789 128.117 90.5789 127.79C90.5789 127.546 90.6558 127.331 90.8095 127.147C90.9632 126.963 91.1666 126.841 91.4198 126.784V126.773C91.2082 126.708 91.0409 126.597 90.918 126.442C90.795 126.285 90.7335 126.103 90.7335 125.897C90.7335 125.602 90.8529 125.357 91.0916 125.162C91.3321 124.966 91.634 124.869 91.9975 124.869C92.3627 124.869 92.6638 124.966 92.9007 125.162C93.1394 125.355 93.2587 125.601 93.2587 125.899C93.2587 126.104 93.1981 126.284 93.077 126.439C92.9558 126.595 92.7886 126.706 92.5752 126.773V126.784C92.8284 126.843 93.0318 126.965 93.1855 127.15C93.341 127.334 93.4187 127.548 93.4187 127.79C93.4187 128.117 93.2858 128.387 93.02 128.598C92.7542 128.808 92.4134 128.913 91.9975 128.913ZM91.9975 128.487C92.2669 128.487 92.4875 128.418 92.6593 128.281C92.8329 128.143 92.9197 127.968 92.9197 127.755C92.9197 127.539 92.8329 127.363 92.6593 127.226C92.4875 127.088 92.2669 127.02 91.9975 127.02C91.7281 127.02 91.5066 127.089 91.333 127.228C91.1612 127.366 91.0753 127.541 91.0753 127.755C91.0753 127.968 91.1621 128.143 91.3357 128.281C91.5093 128.418 91.7299 128.487 91.9975 128.487ZM91.9975 126.591C92.2253 126.591 92.4116 126.53 92.5562 126.409C92.7027 126.288 92.7759 126.133 92.7759 125.943C92.7759 125.751 92.7036 125.595 92.5589 125.474C92.4143 125.351 92.2271 125.289 91.9975 125.289C91.7678 125.289 91.5807 125.351 91.436 125.474C91.2914 125.595 91.2191 125.751 91.2191 125.943C91.2191 126.133 91.2914 126.288 91.436 126.409C91.5807 126.53 91.7678 126.591 91.9975 126.591ZM96.7716 125.151C96.9217 125.328 96.9967 125.564 96.9967 125.859C96.9967 126.153 96.9217 126.389 96.7716 126.567C96.6215 126.744 96.4226 126.832 96.1749 126.832C95.9271 126.832 95.7282 126.744 95.5782 126.567C95.4281 126.389 95.353 126.153 95.353 125.859C95.353 125.564 95.4281 125.328 95.5782 125.151C95.7282 124.974 95.9271 124.885 96.1749 124.885C96.4226 124.885 96.6215 124.974 96.7716 125.151ZM95.8901 126.331C95.9606 126.445 96.0555 126.502 96.1749 126.502C96.2942 126.502 96.3882 126.445 96.457 126.331C96.5275 126.215 96.5627 126.058 96.5627 125.859C96.5627 125.66 96.5275 125.503 96.457 125.389C96.3882 125.274 96.2942 125.216 96.1749 125.216C96.0555 125.216 95.9606 125.274 95.8901 125.389C95.8214 125.503 95.787 125.66 95.787 125.859C95.787 126.058 95.8214 126.215 95.8901 126.331ZM96.0555 128.848H95.5836L97.0943 126.784L98.4478 124.934H98.9143L97.4442 126.946L96.0555 128.848ZM98.9224 127.207C99.0725 127.384 99.1476 127.62 99.1476 127.915C99.1476 128.209 99.0725 128.445 98.9224 128.623C98.7724 128.8 98.5735 128.888 98.3257 128.888C98.078 128.888 97.8791 128.8 97.729 128.623C97.5789 128.445 97.5039 128.209 97.5039 127.915C97.5039 127.62 97.5789 127.384 97.729 127.207C97.8791 127.03 98.078 126.941 98.3257 126.941C98.5735 126.941 98.7724 127.03 98.9224 127.207ZM98.0409 128.387C98.1115 128.5 98.2064 128.557 98.3257 128.557C98.4451 128.557 98.5391 128.5 98.6078 128.387C98.6783 128.271 98.7136 128.114 98.7136 127.915C98.7136 127.716 98.6783 127.559 98.6078 127.445C98.5391 127.33 98.4451 127.272 98.3257 127.272C98.2064 127.272 98.1115 127.33 98.0409 127.445C97.9722 127.559 97.9379 127.716 97.9379 127.915C97.9379 128.114 97.9722 128.271 98.0409 128.387Z" fill="white"/>
<path d="M111.144 111.266C111.144 110.925 111.267 110.641 111.513 110.415C111.759 110.187 112.066 110.073 112.435 110.073C112.784 110.073 113.08 110.177 113.322 110.385C113.564 110.593 113.685 110.847 113.685 111.147C113.685 111.364 113.626 111.573 113.506 111.774C113.387 111.974 113.163 112.245 112.834 112.585L111.844 113.607V113.618H113.75V114.052H111.168V113.716L112.546 112.264C112.808 111.988 112.982 111.778 113.067 111.635C113.154 111.492 113.197 111.34 113.197 111.177C113.197 110.989 113.121 110.829 112.969 110.697C112.819 110.565 112.637 110.499 112.421 110.499C112.192 110.499 112 110.572 111.846 110.718C111.693 110.865 111.616 111.048 111.616 111.266V111.269H111.144V111.266ZM117.103 110.355C117.253 110.532 117.328 110.768 117.328 111.063C117.328 111.358 117.253 111.594 117.103 111.771C116.953 111.948 116.754 112.037 116.507 112.037C116.259 112.037 116.06 111.948 115.91 111.771C115.76 111.594 115.685 111.358 115.685 111.063C115.685 110.768 115.76 110.532 115.91 110.355C116.06 110.178 116.259 110.089 116.507 110.089C116.754 110.089 116.953 110.178 117.103 110.355ZM116.222 111.535C116.292 111.649 116.387 111.706 116.507 111.706C116.626 111.706 116.72 111.649 116.789 111.535C116.859 111.419 116.894 111.262 116.894 111.063C116.894 110.864 116.859 110.708 116.789 110.594C116.72 110.478 116.626 110.42 116.507 110.42C116.387 110.42 116.292 110.478 116.222 110.594C116.153 110.708 116.119 110.864 116.119 111.063C116.119 111.262 116.153 111.419 116.222 111.535ZM116.387 114.052H115.915L117.426 111.988L118.779 110.138H119.246L117.776 112.151L116.387 114.052ZM119.254 112.411C119.404 112.588 119.479 112.824 119.479 113.119C119.479 113.414 119.404 113.65 119.254 113.827C119.104 114.004 118.905 114.093 118.657 114.093C118.41 114.093 118.211 114.004 118.061 113.827C117.911 113.65 117.836 113.414 117.836 113.119C117.836 112.824 117.911 112.588 118.061 112.411C118.211 112.234 118.41 112.145 118.657 112.145C118.905 112.145 119.104 112.234 119.254 112.411ZM118.373 113.591C118.443 113.705 118.538 113.762 118.657 113.762C118.777 113.762 118.871 113.705 118.94 113.591C119.01 113.475 119.045 113.318 119.045 113.119C119.045 112.92 119.01 112.764 118.94 112.65C118.871 112.534 118.777 112.476 118.657 112.476C118.538 112.476 118.443 112.534 118.373 112.65C118.304 112.764 118.27 112.92 118.27 113.119C118.27 113.318 118.304 113.475 118.373 113.591Z" fill="white"/>
<path d="M59.9541 126.992C59.5798 126.992 59.267 126.887 59.0157 126.675C58.7661 126.463 58.6314 126.191 58.6115 125.859H59.0916C59.1133 126.067 59.2046 126.237 59.3656 126.369C59.5265 126.499 59.7245 126.564 59.9595 126.564C60.2254 126.564 60.4414 126.481 60.6078 126.314C60.776 126.148 60.86 125.933 60.86 125.669C60.86 125.405 60.776 125.189 60.6078 125.02C60.4414 124.851 60.2281 124.766 59.9677 124.766C59.7851 124.766 59.6196 124.804 59.4713 124.882C59.3231 124.96 59.2091 125.068 59.1296 125.205H58.6712L58.8855 123.013H61.1258V123.447H59.2869L59.1676 124.722H59.1784C59.267 124.605 59.3882 124.512 59.5419 124.445C59.6974 124.379 59.8682 124.345 60.0545 124.345C60.4306 124.345 60.7398 124.469 60.9821 124.717C61.2262 124.963 61.3483 125.275 61.3483 125.655C61.3483 126.048 61.2181 126.369 60.9577 126.618C60.6973 126.868 60.3628 126.992 59.9541 126.992ZM64.6468 123.23C64.7969 123.408 64.872 123.644 64.872 123.938C64.872 124.233 64.7969 124.469 64.6468 124.646C64.4968 124.823 64.2979 124.912 64.0501 124.912C63.8024 124.912 63.6035 124.823 63.4534 124.646C63.3033 124.469 63.2283 124.233 63.2283 123.938C63.2283 123.644 63.3033 123.408 63.4534 123.23C63.6035 123.053 63.8024 122.965 64.0501 122.965C64.2979 122.965 64.4968 123.053 64.6468 123.23ZM63.7653 124.41C63.8359 124.524 63.9308 124.581 64.0501 124.581C64.1695 124.581 64.2635 124.524 64.3322 124.41C64.4027 124.294 64.438 124.137 64.438 123.938C64.438 123.739 64.4027 123.583 64.3322 123.469C64.2635 123.353 64.1695 123.295 64.0501 123.295C63.9308 123.295 63.8359 123.353 63.7653 123.469C63.6966 123.583 63.6623 123.739 63.6623 123.938C63.6623 124.137 63.6966 124.294 63.7653 124.41ZM63.9308 126.927H63.4589L64.9696 124.863L66.3231 123.013H66.7896L65.3195 125.026L63.9308 126.927ZM66.7977 125.286C66.9478 125.464 67.0228 125.699 67.0228 125.994C67.0228 126.289 66.9478 126.525 66.7977 126.702C66.6476 126.879 66.4487 126.968 66.201 126.968C65.9533 126.968 65.7544 126.879 65.6043 126.702C65.4542 126.525 65.3792 126.289 65.3792 125.994C65.3792 125.699 65.4542 125.464 65.6043 125.286C65.7544 125.109 65.9533 125.02 66.201 125.02C66.4487 125.02 66.6476 125.109 66.7977 125.286ZM65.9162 126.466C65.9867 126.58 66.0817 126.637 66.201 126.637C66.3203 126.637 66.4144 126.58 66.4831 126.466C66.5536 126.35 66.5889 126.193 66.5889 125.994C66.5889 125.795 66.5536 125.639 66.4831 125.525C66.4144 125.409 66.3203 125.351 66.201 125.351C66.0817 125.351 65.9867 125.409 65.9162 125.525C65.8475 125.639 65.8131 125.795 65.8131 125.994C65.8131 126.193 65.8475 126.35 65.9162 126.466Z" fill="white"/>
<path d="M40.2638 89.2253V88.8131H40.733C40.9573 88.8131 41.1408 88.7489 41.2836 88.6205C41.4265 88.4903 41.4979 88.3258 41.4979 88.1268C41.4979 87.9279 41.4319 87.7697 41.2999 87.6522C41.1679 87.5347 40.9808 87.4759 40.7385 87.4759C40.5143 87.4759 40.3316 87.5356 40.1906 87.6549C40.0495 87.7742 39.9682 87.937 39.9465 88.1431H39.4772C39.5044 87.8104 39.6328 87.5455 39.8624 87.3484C40.0938 87.1513 40.3931 87.0528 40.7602 87.0528C41.1128 87.0528 41.4057 87.1477 41.639 87.3376C41.8722 87.5274 41.9889 87.7688 41.9889 88.0618C41.9889 88.3059 41.9165 88.5111 41.7719 88.6774C41.6272 88.8438 41.4319 88.9487 41.186 88.9921V89.0029C41.4826 89.021 41.7185 89.1159 41.8939 89.2877C42.0693 89.4577 42.157 89.6801 42.157 89.9549C42.157 90.1737 42.0955 90.3708 41.9726 90.5462C41.8496 90.7216 41.6833 90.8572 41.4735 90.9531C41.2638 91.0489 41.0314 91.0968 40.7764 91.0968C40.3714 91.0968 40.045 90.9956 39.7973 90.7931C39.5496 90.5905 39.4167 90.3247 39.3986 89.9956H39.8678C39.8895 90.2 39.9808 90.3645 40.1418 90.4893C40.3027 90.6122 40.5124 90.6737 40.771 90.6737C41.0296 90.6737 41.2421 90.6077 41.4084 90.4757C41.5766 90.3437 41.6607 90.1756 41.6607 89.9712C41.6607 89.7416 41.5793 89.5599 41.4166 89.426C41.2556 89.2922 41.035 89.2253 40.7547 89.2253H40.2638ZM44.3759 91.0995C44.083 91.0995 43.8244 91.0236 43.6002 90.8717C43.376 90.718 43.2033 90.5001 43.0821 90.218C42.9537 89.9215 42.8895 89.5626 42.8895 89.1413C42.8895 88.4813 43.0225 87.9677 43.2883 87.6007C43.5559 87.2336 43.9293 87.0501 44.4084 87.0501C44.7412 87.0501 45.025 87.1423 45.2601 87.3267C45.4952 87.5112 45.6444 87.7571 45.7076 88.0645H45.2113C45.1589 87.8873 45.0594 87.7462 44.9129 87.6413C44.7665 87.5347 44.5965 87.4813 44.403 87.4813C44.0757 87.4813 43.8226 87.6215 43.6436 87.9017C43.4646 88.182 43.3705 88.5825 43.3615 89.1033H43.3696C43.4582 88.9116 43.602 88.7579 43.8009 88.6422C43.9998 88.5265 44.2204 88.4686 44.4627 88.4686C44.8352 88.4686 45.1444 88.5916 45.3903 88.8375C45.638 89.0834 45.7619 89.3917 45.7619 89.7624C45.7619 90.1493 45.6308 90.4694 45.3686 90.7225C45.1082 90.9739 44.7773 91.0995 44.3759 91.0995ZM43.7358 90.4052C43.9094 90.5788 44.1209 90.6656 44.3705 90.6656C44.62 90.6656 44.8316 90.5797 45.0052 90.4079C45.1787 90.2361 45.2655 90.0264 45.2655 89.7786C45.2655 89.5219 45.1824 89.3112 45.016 89.1467C44.8496 88.9803 44.6372 88.8971 44.3786 88.8971C44.12 88.8971 43.9049 88.9794 43.7331 89.144C43.5631 89.3085 43.4781 89.5156 43.4781 89.7651C43.4781 90.0164 43.564 90.2298 43.7358 90.4052ZM49.074 87.3349C49.2241 87.5121 49.2992 87.748 49.2992 88.0428C49.2992 88.3375 49.2241 88.5735 49.074 88.7507C48.924 88.9279 48.7251 89.0165 48.4773 89.0165C48.2296 89.0165 48.0307 88.9279 47.8806 88.7507C47.7305 88.5735 47.6555 88.3375 47.6555 88.0428C47.6555 87.748 47.7305 87.5121 47.8806 87.3349C48.0307 87.1576 48.2296 87.069 48.4773 87.069C48.7251 87.069 48.924 87.1576 49.074 87.3349ZM48.1925 88.5147C48.2631 88.6286 48.358 88.6856 48.4773 88.6856C48.5967 88.6856 48.6907 88.6286 48.7594 88.5147C48.8299 88.399 48.8652 88.2417 48.8652 88.0428C48.8652 87.8439 48.8299 87.6875 48.7594 87.5735C48.6907 87.4578 48.5967 87.3999 48.4773 87.3999C48.358 87.3999 48.2631 87.4578 48.1925 87.5735C48.1238 87.6875 48.0895 87.8439 48.0895 88.0428C48.0895 88.2417 48.1238 88.399 48.1925 88.5147ZM48.358 91.0317H47.8861L49.3968 88.9677L50.7503 87.1179H51.2168L49.7467 89.1304L48.358 91.0317ZM51.2249 89.3908C51.375 89.568 51.45 89.804 51.45 90.0987C51.45 90.3934 51.375 90.6294 51.2249 90.8066C51.0748 90.9838 50.8759 91.0724 50.6282 91.0724C50.3805 91.0724 50.1816 90.9838 50.0315 90.8066C49.8814 90.6294 49.8064 90.3934 49.8064 90.0987C49.8064 89.804 49.8814 89.568 50.0315 89.3908C50.1816 89.2136 50.3805 89.125 50.6282 89.125C50.8759 89.125 51.0748 89.2136 51.2249 89.3908ZM50.3434 90.5706C50.4139 90.6846 50.5089 90.7415 50.6282 90.7415C50.7475 90.7415 50.8416 90.6846 50.9103 90.5706C50.9808 90.4549 51.0161 90.2976 51.0161 90.0987C51.0161 89.8998 50.9808 89.7434 50.9103 89.6295C50.8416 89.5137 50.7475 89.4559 50.6282 89.4559C50.5089 89.4559 50.4139 89.5137 50.3434 89.6295C50.2747 89.7434 50.2403 89.8998 50.2403 90.0987C50.2403 90.2976 50.2747 90.4549 50.3434 90.5706Z" fill="white"/>
<defs>
<linearGradient id="paint0_linear_1584:436" x1="64.5735" y1="159.151" x2="64.5735" y2="164.417" gradientUnits="userSpaceOnUse">
<stop stop-color="#FE6C6C"/>
<stop offset="1" stop-color="#FE464B"/>
</linearGradient>
<linearGradient id="paint1_linear_1584:436" x1="66.0759" y1="159.591" x2="66.0759" y2="160.677" gradientUnits="userSpaceOnUse">
<stop stop-color="#FE6C6C"/>
<stop offset="1" stop-color="#FE464B"/>
</linearGradient>
<linearGradient id="paint2_linear_1584:436" x1="64.5739" y1="171.932" x2="64.5739" y2="176.633" gradientUnits="userSpaceOnUse">
<stop stop-color="#B09FFF"/>
<stop offset="1" stop-color="#8D79F6"/>
</linearGradient>
<linearGradient id="paint3_linear_1584:436" x1="16.0629" y1="171.613" x2="16.0629" y2="175.575" gradientUnits="userSpaceOnUse">
<stop stop-color="#86BEF8"/>
<stop offset="1" stop-color="#5D9FE4"/>
</linearGradient>
<linearGradient id="paint4_linear_1584:436" x1="14.3714" y1="161.411" x2="14.3714" y2="164.044" gradientUnits="userSpaceOnUse">
<stop stop-color="#FFD572"/>
<stop offset="1" stop-color="#FEBD38"/>
</linearGradient>
<linearGradient id="paint5_linear_1584:436" x1="14.5614" y1="159.907" x2="14.5614" y2="161.411" gradientUnits="userSpaceOnUse">
<stop stop-color="#FFD572"/>
<stop offset="1" stop-color="#FEBD38"/>
</linearGradient>
<linearGradient id="paint6_linear_1584:436" x1="17.7559" y1="161.411" x2="17.7559" y2="164.044" gradientUnits="userSpaceOnUse">
<stop stop-color="#FFD572"/>
<stop offset="1" stop-color="#FEBD38"/>
</linearGradient>
<linearGradient id="paint7_linear_1584:436" x1="17.5678" y1="159.907" x2="17.5678" y2="161.411" gradientUnits="userSpaceOnUse">
<stop stop-color="#FFD572"/>
<stop offset="1" stop-color="#FEBD38"/>
</linearGradient>
<linearGradient id="paint8_linear_1584:436" x1="16.0653" y1="162.539" x2="16.0653" y2="164.044" gradientUnits="userSpaceOnUse">
<stop stop-color="#FFD572"/>
<stop offset="1" stop-color="#FEBD38"/>
</linearGradient>
<linearGradient id="paint9_linear_1584:436" x1="16.0653" y1="161.411" x2="16.0653" y2="162.539" gradientUnits="userSpaceOnUse">
<stop stop-color="#FFD572"/>
<stop offset="1" stop-color="#FEBD38"/>
</linearGradient>
<linearGradient id="paint10_linear_1584:436" x1="16.0653" y1="158.779" x2="16.0653" y2="160.283" gradientUnits="userSpaceOnUse">
<stop stop-color="#FFD572"/>
<stop offset="1" stop-color="#FEBD38"/>
</linearGradient>
<linearGradient id="paint11_linear_1584:436" x1="119.85" y1="174.772" x2="119.85" y2="175.833" gradientUnits="userSpaceOnUse">
<stop stop-color="#FCAAFD"/>
<stop offset="1" stop-color="#F882F4"/>
</linearGradient>
<linearGradient id="paint12_linear_1584:436" x1="119.85" y1="171.587" x2="119.85" y2="177.601" gradientUnits="userSpaceOnUse">
<stop stop-color="#FCAAFD"/>
<stop offset="1" stop-color="#F882F4"/>
</linearGradient>
<linearGradient id="paint13_linear_1584:436" x1="122.074" y1="161.992" x2="122.074" y2="163.676" gradientUnits="userSpaceOnUse">
<stop stop-color="#78D85B"/>
<stop offset="1" stop-color="#5AB83D"/>
</linearGradient>
<linearGradient id="paint14_linear_1584:436" x1="83.2337" y1="40.4581" x2="83.2337" y2="141.834" gradientUnits="userSpaceOnUse">
<stop stop-color="#90C6FD"/>
<stop offset="1" stop-color="#5398DF"/>
</linearGradient>
<linearGradient id="paint15_linear_1584:436" x1="122.531" y1="68.3649" x2="122.531" y2="116.774" gradientUnits="userSpaceOnUse">
<stop stop-color="#94E37B"/>
<stop offset="1" stop-color="#5AB83D"/>
</linearGradient>
<linearGradient id="paint16_linear_1584:436" x1="82.8401" y1="35.33" x2="82.8401" y2="146.172" gradientUnits="userSpaceOnUse">
<stop stop-color="#FFD572"/>
<stop offset="1" stop-color="#FEBD38"/>
</linearGradient>
<linearGradient id="paint17_linear_1584:436" x1="83.2337" y1="40.4581" x2="83.2337" y2="141.834" gradientUnits="userSpaceOnUse">
<stop stop-color="#FE6C6C"/>
<stop offset="1" stop-color="#FE464B"/>
</linearGradient>
<linearGradient id="paint18_linear_1584:436" x1="79.2824" y1="40.612" x2="87.1849" y2="141.679" gradientUnits="userSpaceOnUse">
<stop stop-color="#B09FFF"/>
<stop offset="1" stop-color="#8D79F6"/>
</linearGradient>
<linearGradient id="paint19_linear_1584:436" x1="69.2233" y1="42.4326" x2="97.2442" y2="139.858" gradientUnits="userSpaceOnUse">
<stop stop-color="#FCA5FC"/>
<stop offset="1" stop-color="#F886F5"/>
</linearGradient>
<linearGradient id="paint20_linear_1584:436" x1="105.085" y1="98.4782" x2="159.284" y2="115.107" gradientUnits="userSpaceOnUse">
<stop stop-color="#EC9EED"/>
<stop offset="1" stop-color="#992F9B"/>
</linearGradient>
<clipPath id="clip0_1584:436">
<rect width="6.01772" height="6.01772" fill="white" transform="translate(61.5651 158.776)"/>
</clipPath>
<clipPath id="clip1_1584:436">
<rect width="6.01772" height="6.01772" fill="white" transform="translate(61.5651 171.274)"/>
</clipPath>
<clipPath id="clip2_1584:436">
<rect width="6.01405" height="6.01405" fill="white" transform="translate(13.0551 170.587)"/>
</clipPath>
<clipPath id="clip3_1584:436">
<rect width="6.01772" height="6.01772" fill="white" transform="translate(13.0551 158.402)"/>
</clipPath>
<clipPath id="clip4_1584:436">
<rect width="6.01405" height="6.01405" fill="white" transform="translate(116.835 171.587)"/>
</clipPath>
<clipPath id="clip5_1584:436">
<rect width="6.01772" height="6.01772" fill="white" transform="translate(117.025 159.776)"/>
</clipPath>
</defs>
</svg>
