<svg width="173" height="189" viewBox="0 0 173 189" fill="none" xmlns="http://www.w3.org/2000/svg">
<rect x="0.598145" width="171.737" height="188.864" rx="2.31451" fill="white"/>
<path d="M14.7524 19.2076C13.9116 19.2076 13.2457 18.9363 12.7548 18.3939C12.2666 17.8514 12.0225 17.1109 12.0225 16.1725C12.0225 15.2395 12.2679 14.5017 12.7589 13.9592C13.2525 13.4141 13.917 13.1415 14.7524 13.1415C15.4359 13.1415 16.0123 13.3368 16.4815 13.7273C16.9508 14.1152 17.2179 14.6238 17.283 15.253H16.2496C16.1818 14.8841 16.0096 14.5885 15.7329 14.3661C15.459 14.1437 15.1321 14.0325 14.7524 14.0325C14.2479 14.0325 13.8452 14.2264 13.5441 14.6143C13.2457 14.9994 13.0966 15.5188 13.0966 16.1725C13.0966 16.8316 13.2457 17.3537 13.5441 17.7388C13.8424 18.124 14.2466 18.3166 14.7565 18.3166C15.1444 18.3166 15.4698 18.2176 15.7329 18.0196C15.9987 17.8189 16.1723 17.5422 16.2537 17.1896H17.283C17.1908 17.8189 16.9196 18.3125 16.4693 18.6705C16.0191 19.0286 15.4468 19.2076 14.7524 19.2076ZM18.0072 19.1099V13.2391H19.0203V19.1099H18.0072ZM21.4573 18.4142C21.7475 18.4142 21.9916 18.3288 22.1896 18.1579C22.3903 17.9843 22.4907 17.7687 22.4907 17.511V17.1815L21.4939 17.2425C21.2498 17.2588 21.0599 17.3198 20.9243 17.4256C20.7914 17.5286 20.7249 17.6656 20.7249 17.8365C20.7249 18.0128 20.7914 18.1538 20.9243 18.2596C21.0599 18.3627 21.2376 18.4142 21.4573 18.4142ZM21.1521 19.1791C20.7317 19.1791 20.3859 19.0584 20.1147 18.817C19.8462 18.5756 19.7119 18.2623 19.7119 17.8772C19.7119 17.4947 19.8529 17.1923 20.135 16.9699C20.4198 16.7475 20.8253 16.62 21.3515 16.5875L22.4907 16.5224V16.2132C22.4907 15.9881 22.4188 15.8131 22.275 15.6883C22.134 15.5636 21.9373 15.5012 21.6851 15.5012C21.4491 15.5012 21.2566 15.5541 21.1074 15.6599C20.9582 15.7656 20.8673 15.9094 20.8348 16.0911H19.895C19.9167 15.6816 20.0916 15.3493 20.4198 15.0943C20.7507 14.8367 21.186 14.7078 21.7258 14.7078C22.2601 14.7078 22.6873 14.838 23.0074 15.0984C23.3301 15.3588 23.4915 15.706 23.4915 16.1399V19.1099H22.5151V18.4224H22.4947C22.3727 18.6529 22.1882 18.8373 21.9414 18.9757C21.6946 19.1113 21.4315 19.1791 21.1521 19.1791ZM24.232 16.0342C24.232 15.6382 24.392 15.3181 24.712 15.074C25.0321 14.8299 25.4539 14.7078 25.9773 14.7078C26.4818 14.7078 26.8914 14.8326 27.206 15.0821C27.5234 15.329 27.6888 15.6517 27.7024 16.0504H26.7585C26.7422 15.8633 26.6636 15.7168 26.5225 15.611C26.3815 15.5053 26.193 15.4524 25.957 15.4524C25.7346 15.4524 25.5556 15.5012 25.42 15.5988C25.2843 15.6938 25.2165 15.8199 25.2165 15.9772C25.2165 16.2159 25.4227 16.3854 25.8349 16.4858L26.6039 16.6566C27.0351 16.757 27.343 16.898 27.5274 17.0798C27.7119 17.2615 27.8041 17.5124 27.8041 17.8324C27.8041 18.2393 27.6332 18.5688 27.2915 18.8211C26.9497 19.0706 26.5062 19.1954 25.9611 19.1954C25.424 19.1954 24.9914 19.0733 24.6632 18.8292C24.3377 18.5824 24.1574 18.2528 24.1221 17.8406H25.1189C25.1487 18.0386 25.2382 18.1904 25.3874 18.2962C25.5393 18.402 25.7427 18.4549 25.9977 18.4549C26.2445 18.4549 26.4384 18.4088 26.5795 18.3166C26.7232 18.2216 26.7951 18.0942 26.7951 17.9341C26.7951 17.8094 26.7503 17.7104 26.6608 17.6371C26.574 17.5612 26.4262 17.4961 26.2174 17.4419L25.4322 17.2588C24.632 17.0716 24.232 16.6634 24.232 16.0342ZM28.3737 16.0342C28.3737 15.6382 28.5337 15.3181 28.8537 15.074C29.1738 14.8299 29.5956 14.7078 30.119 14.7078C30.6235 14.7078 31.0331 14.8326 31.3477 15.0821C31.6651 15.329 31.8305 15.6517 31.8441 16.0504H30.9002C30.8839 15.8633 30.8053 15.7168 30.6642 15.611C30.5232 15.5053 30.3347 15.4524 30.0987 15.4524C29.8763 15.4524 29.6973 15.5012 29.5617 15.5988C29.426 15.6938 29.3582 15.8199 29.3582 15.9772C29.3582 16.2159 29.5644 16.3854 29.9766 16.4858L30.7456 16.6566C31.1768 16.757 31.4847 16.898 31.6691 17.0798C31.8536 17.2615 31.9458 17.5124 31.9458 17.8324C31.9458 18.2393 31.7749 18.5688 31.4332 18.8211C31.0914 19.0706 30.6479 19.1954 30.1028 19.1954C29.5657 19.1954 29.1331 19.0733 28.8049 18.8292C28.4794 18.5824 28.2991 18.2528 28.2638 17.8406H29.2606C29.2904 18.0386 29.3799 18.1904 29.5291 18.2962C29.681 18.402 29.8844 18.4549 30.1394 18.4549C30.3862 18.4549 30.5801 18.4088 30.7212 18.3166C30.8649 18.2216 30.9368 18.0942 30.9368 17.9341C30.9368 17.8094 30.8921 17.7104 30.8025 17.6371C30.7158 17.5612 30.5679 17.4961 30.3591 17.4419L29.5739 17.2588C28.7737 17.0716 28.3737 16.6634 28.3737 16.0342ZM34.452 15.4931C34.1699 15.4931 33.9339 15.5907 33.7441 15.786C33.5569 15.9786 33.4525 16.2267 33.4308 16.5305H35.4447C35.4338 16.224 35.3375 15.9745 35.1558 15.7819C34.9741 15.5893 34.7395 15.4931 34.452 15.4931ZM35.4487 17.8202H36.3967C36.3316 18.2298 36.1241 18.562 35.7742 18.817C35.4243 19.0692 34.9958 19.1954 34.4886 19.1954C33.843 19.1954 33.3358 18.9974 32.967 18.6014C32.5981 18.2027 32.4137 17.6588 32.4137 16.9699C32.4137 16.2864 32.5967 15.7385 32.9629 15.3262C33.3318 14.914 33.8268 14.7078 34.4479 14.7078C35.0582 14.7078 35.5423 14.9045 35.9003 15.2978C36.2584 15.6883 36.4374 16.2118 36.4374 16.8682V17.1977H33.4226V17.2588C33.4226 17.6059 33.5203 17.8853 33.7156 18.0969C33.9136 18.3084 34.178 18.4142 34.5089 18.4142C34.7422 18.4142 34.9429 18.3613 35.1111 18.2555C35.2819 18.1471 35.3945 18.0019 35.4487 17.8202ZM37.0924 19.1099V14.7973H38.0648V15.5459H38.0851C38.18 15.291 38.336 15.0889 38.553 14.9397C38.77 14.7906 39.0236 14.716 39.3138 14.716C39.6176 14.716 39.8739 14.7919 40.0827 14.9438C40.2943 15.093 40.4394 15.3059 40.5181 15.5826H40.5425C40.6455 15.3168 40.8164 15.1065 41.0551 14.9519C41.2965 14.7946 41.5731 14.716 41.8851 14.716C42.3109 14.716 42.6513 14.8475 42.9062 15.1106C43.1639 15.3737 43.2928 15.7209 43.2928 16.1521V19.1099H42.2797V16.4003C42.2797 16.1345 42.2119 15.9297 42.0763 15.786C41.9434 15.6422 41.7535 15.5704 41.5067 15.5704C41.2626 15.5704 41.0646 15.6517 40.9127 15.8145C40.7608 15.9772 40.6849 16.1874 40.6849 16.4451V19.1099H39.7003V16.3474C39.7003 16.1087 39.6311 15.9202 39.4928 15.7819C39.3572 15.6409 39.1714 15.5704 38.9354 15.5704C38.6913 15.5704 38.492 15.6558 38.3374 15.8267C38.1828 15.9948 38.1055 16.2091 38.1055 16.4695V19.1099H37.0924ZM45.9657 15.4931C45.6837 15.4931 45.4477 15.5907 45.2578 15.786C45.0707 15.9786 44.9662 16.2267 44.9446 16.5305H46.9584C46.9476 16.224 46.8513 15.9745 46.6696 15.7819C46.4879 15.5893 46.2532 15.4931 45.9657 15.4931ZM46.9625 17.8202H47.9105C47.8454 18.2298 47.6379 18.562 47.288 18.817C46.9381 19.0692 46.5096 19.1954 46.0024 19.1954C45.3568 19.1954 44.8496 18.9974 44.4807 18.6014C44.1119 18.2027 43.9274 17.6588 43.9274 16.9699C43.9274 16.2864 44.1105 15.7385 44.4767 15.3262C44.8456 14.914 45.3405 14.7078 45.9617 14.7078C46.5719 14.7078 47.0561 14.9045 47.4141 15.2978C47.7721 15.6883 47.9512 16.2118 47.9512 16.8682V17.1977H44.9364V17.2588C44.9364 17.6059 45.0341 17.8853 45.2293 18.0969C45.4273 18.3084 45.6918 18.4142 46.0227 18.4142C46.256 18.4142 46.4567 18.3613 46.6248 18.2555C46.7957 18.1471 46.9083 18.0019 46.9625 17.8202ZM48.6062 19.1099V14.7973H49.5785V15.5378H49.5989C49.7182 15.2774 49.8918 15.0754 50.1196 14.9316C50.3502 14.7879 50.6282 14.716 50.9537 14.716C51.4256 14.716 51.7918 14.8584 52.0522 15.1432C52.3153 15.428 52.4468 15.8212 52.4468 16.323V19.1099H51.4338V16.5264C51.4338 16.2172 51.3605 15.9813 51.2141 15.8185C51.0703 15.6558 50.856 15.5744 50.5712 15.5744C50.281 15.5744 50.0491 15.6694 49.8755 15.8592C49.7047 16.0491 49.6192 16.3 49.6192 16.6119V19.1099H48.6062ZM53.5412 13.7884H54.5543V14.7973H55.368V15.5785H54.5543V17.8202C54.5543 17.9965 54.5963 18.1267 54.6804 18.2108C54.7645 18.2949 54.896 18.3369 55.075 18.3369C55.1944 18.3369 55.2907 18.3301 55.3639 18.3166V19.0896C55.2419 19.1167 55.0669 19.1303 54.8391 19.1303C54.3726 19.1303 54.0389 19.0408 53.8382 18.8617C53.6402 18.6827 53.5412 18.383 53.5412 17.9626V15.5785H52.9228V14.7973H53.5412V13.7884ZM59.3388 19.1791C58.7936 19.1791 58.3583 18.9784 58.0328 18.577C57.7101 18.1755 57.5487 17.6331 57.5487 16.9496C57.5487 16.2688 57.7101 15.7277 58.0328 15.3262C58.3583 14.9248 58.7936 14.7241 59.3388 14.7241C59.6426 14.7241 59.9111 14.796 60.1444 14.9397C60.3803 15.0835 60.5566 15.2774 60.6733 15.5215H60.6977V13.2391H61.7107V19.1099H60.718V18.3735H60.7017C60.5824 18.6204 60.402 18.817 60.1606 18.9635C59.922 19.1072 59.648 19.1791 59.3388 19.1791ZM59.6439 15.5581C59.3185 15.5581 59.0608 15.6843 58.8709 15.9365C58.6811 16.186 58.5861 16.5251 58.5861 16.9536C58.5861 17.3849 58.6797 17.7253 58.8669 17.9748C59.0567 18.2244 59.3158 18.3491 59.6439 18.3491C59.964 18.3491 60.2203 18.223 60.4129 17.9708C60.6055 17.7185 60.7017 17.3795 60.7017 16.9536C60.7017 16.5305 60.6055 16.1928 60.4129 15.9406C60.2203 15.6856 59.964 15.5581 59.6439 15.5581ZM64.4203 15.4931C64.1382 15.4931 63.9023 15.5907 63.7124 15.786C63.5253 15.9786 63.4208 16.2267 63.3991 16.5305H65.413C65.4022 16.224 65.3059 15.9745 65.1242 15.7819C64.9424 15.5893 64.7078 15.4931 64.4203 15.4931ZM65.4171 17.8202H66.3651C66.3 18.2298 66.0925 18.562 65.7426 18.817C65.3927 19.0692 64.9641 19.1954 64.4569 19.1954C63.8114 19.1954 63.3042 18.9974 62.9353 18.6014C62.5665 18.2027 62.382 17.6588 62.382 16.9699C62.382 16.2864 62.5651 15.7385 62.9313 15.3262C63.3001 14.914 63.7951 14.7078 64.4163 14.7078C65.0265 14.7078 65.5107 14.9045 65.8687 15.2978C66.2267 15.6883 66.4057 16.2118 66.4057 16.8682V17.1977H63.391V17.2588C63.391 17.6059 63.4886 17.8853 63.6839 18.0969C63.8819 18.3084 64.1464 18.4142 64.4773 18.4142C64.7105 18.4142 64.9113 18.3613 65.0794 18.2555C65.2503 18.1471 65.3629 18.0019 65.4171 17.8202ZM67.0608 19.1099V14.7973H68.0331V15.5459H68.0535C68.1484 15.291 68.3044 15.0889 68.5213 14.9397C68.7383 14.7906 68.9919 14.716 69.2821 14.716C69.5859 14.716 69.8422 14.7919 70.0511 14.9438C70.2626 15.093 70.4078 15.3059 70.4864 15.5826H70.5108C70.6139 15.3168 70.7848 15.1065 71.0235 14.9519C71.2648 14.7946 71.5415 14.716 71.8534 14.716C72.2793 14.716 72.6197 14.8475 72.8746 15.1106C73.1323 15.3737 73.2611 15.7209 73.2611 16.1521V19.1099H72.2481V16.4003C72.2481 16.1345 72.1803 15.9297 72.0446 15.786C71.9117 15.6422 71.7219 15.5704 71.4751 15.5704C71.2309 15.5704 71.0329 15.6517 70.8811 15.8145C70.7292 15.9772 70.6532 16.1874 70.6532 16.4451V19.1099H69.6687V16.3474C69.6687 16.1087 69.5995 15.9202 69.4612 15.7819C69.3255 15.6409 69.1398 15.5704 68.9038 15.5704C68.6597 15.5704 68.4603 15.6558 68.3057 15.8267C68.1511 15.9948 68.0738 16.2091 68.0738 16.4695V19.1099H67.0608ZM77.5045 18.5973C77.1275 18.996 76.6203 19.1954 75.9829 19.1954C75.3455 19.1954 74.8383 18.996 74.4613 18.5973C74.0843 18.1959 73.8958 17.648 73.8958 16.9536C73.8958 16.262 74.0857 15.7155 74.4654 15.314C74.8451 14.9099 75.351 14.7078 75.9829 14.7078C76.6176 14.7078 77.1234 14.9099 77.5005 15.314C77.8802 15.7155 78.07 16.262 78.07 16.9536C78.07 17.648 77.8815 18.1959 77.5045 18.5973ZM75.2099 18.0155C75.3998 18.2678 75.6574 18.3939 75.9829 18.3939C76.3084 18.3939 76.5661 18.2678 76.7559 18.0155C76.9458 17.7633 77.0407 17.4093 77.0407 16.9536C77.0407 16.5007 76.9458 16.1481 76.7559 15.8958C76.5661 15.6409 76.3084 15.5134 75.9829 15.5134C75.6602 15.5134 75.4025 15.6409 75.2099 15.8958C75.0201 16.1481 74.9251 16.5007 74.9251 16.9536C74.9251 17.4093 75.0201 17.7633 75.2099 18.0155ZM78.721 19.1099V14.7973H79.6934V15.5378H79.7137C79.833 15.2774 80.0066 15.0754 80.2345 14.9316C80.465 14.7879 80.743 14.716 81.0685 14.716C81.5404 14.716 81.9066 14.8584 82.167 15.1432C82.4301 15.428 82.5616 15.8212 82.5616 16.323V19.1099H81.5486V16.5264C81.5486 16.2172 81.4754 15.9813 81.3289 15.8185C81.1851 15.6558 80.9709 15.5744 80.6861 15.5744C80.3959 15.5744 80.164 15.6694 79.9904 15.8592C79.8195 16.0491 79.734 16.3 79.734 16.6119V19.1099H78.721ZM84.9864 19.1791C84.4413 19.1791 84.0059 18.9784 83.6805 18.577C83.3577 18.1755 83.1963 17.6331 83.1963 16.9496C83.1963 16.2688 83.3577 15.7277 83.6805 15.3262C84.0059 14.9248 84.4413 14.7241 84.9864 14.7241C85.2902 14.7241 85.5587 14.796 85.792 14.9397C86.028 15.0835 86.2043 15.2774 86.3209 15.5215H86.3453V13.2391H87.3584V19.1099H86.3657V18.3735H86.3494C86.23 18.6204 86.0497 18.817 85.8083 18.9635C85.5696 19.1072 85.2957 19.1791 84.9864 19.1791ZM85.2916 15.5581C84.9661 15.5581 84.7084 15.6843 84.5186 15.9365C84.3287 16.186 84.2338 16.5251 84.2338 16.9536C84.2338 17.3849 84.3274 17.7253 84.5145 17.9748C84.7044 18.2244 84.9634 18.3491 85.2916 18.3491C85.6116 18.3491 85.868 18.223 86.0605 17.9708C86.2531 17.7185 86.3494 17.3795 86.3494 16.9536C86.3494 16.5305 86.2531 16.1928 86.0605 15.9406C85.868 15.6856 85.6116 15.5581 85.2916 15.5581ZM90.068 15.4931C89.7859 15.4931 89.5499 15.5907 89.3601 15.786C89.1729 15.9786 89.0685 16.2267 89.0468 16.5305H91.0607C91.0498 16.224 90.9535 15.9745 90.7718 15.7819C90.5901 15.5893 90.3555 15.4931 90.068 15.4931ZM91.0647 17.8202H92.0127C91.9476 18.2298 91.7401 18.562 91.3902 18.817C91.0403 19.0692 90.6118 19.1954 90.1046 19.1954C89.4591 19.1954 88.9519 18.9974 88.583 18.6014C88.2141 18.2027 88.0297 17.6588 88.0297 16.9699C88.0297 16.2864 88.2127 15.7385 88.5789 15.3262C88.9478 14.914 89.4428 14.7078 90.0639 14.7078C90.6742 14.7078 91.1583 14.9045 91.5163 15.2978C91.8744 15.6883 92.0534 16.2118 92.0534 16.8682V17.1977H89.0386V17.2588C89.0386 17.6059 89.1363 17.8853 89.3316 18.0969C89.5296 18.3084 89.794 18.4142 90.1249 18.4142C90.3582 18.4142 90.5589 18.3613 90.7271 18.2555C90.8979 18.1471 91.0105 18.0019 91.0647 17.8202ZM92.6311 16.0342C92.6311 15.6382 92.7911 15.3181 93.1112 15.074C93.4312 14.8299 93.853 14.7078 94.3765 14.7078C94.881 14.7078 95.2905 14.8326 95.6052 15.0821C95.9225 15.329 96.0879 15.6517 96.1015 16.0504H95.1576C95.1413 15.8633 95.0627 15.7168 94.9217 15.611C94.7806 15.5053 94.5921 15.4524 94.3561 15.4524C94.1337 15.4524 93.9547 15.5012 93.8191 15.5988C93.6835 15.6938 93.6157 15.8199 93.6157 15.9772C93.6157 16.2159 93.8218 16.3854 94.2341 16.4858L95.003 16.6566C95.4343 16.757 95.7421 16.898 95.9266 17.0798C96.111 17.2615 96.2032 17.5124 96.2032 17.8324C96.2032 18.2393 96.0323 18.5688 95.6906 18.8211C95.3488 19.0706 94.9054 19.1954 94.3602 19.1954C93.8232 19.1954 93.3906 19.0733 93.0624 18.8292C92.7369 18.5824 92.5565 18.2528 92.5213 17.8406H93.518C93.5479 18.0386 93.6374 18.1904 93.7865 18.2962C93.9384 18.402 94.1419 18.4549 94.3968 18.4549C94.6436 18.4549 94.8376 18.4088 94.9786 18.3166C95.1224 18.2216 95.1942 18.0942 95.1942 17.9341C95.1942 17.8094 95.1495 17.7104 95.06 17.6371C94.9732 17.5612 94.8254 17.4961 94.6165 17.4419L93.8313 17.2588C93.0312 17.0716 92.6311 16.6634 92.6311 16.0342Z" fill="#262626"/>
<path d="M73.7149 163.095V163.535H71.3389V159.621H71.8271V163.095H73.7149ZM75.2663 163.584C74.8721 163.584 74.5557 163.453 74.317 163.19C74.0783 162.926 73.959 162.571 73.959 162.124C73.959 161.678 74.0783 161.323 74.317 161.061C74.5557 160.797 74.8721 160.665 75.2663 160.665C75.6587 160.665 75.9742 160.797 76.2129 161.061C76.4516 161.323 76.5709 161.678 76.5709 162.124C76.5709 162.569 76.4516 162.924 76.2129 163.188C75.9742 163.452 75.6587 163.584 75.2663 163.584ZM74.6615 162.892C74.8116 163.076 75.0132 163.169 75.2663 163.169C75.5195 163.169 75.7202 163.077 75.8685 162.895C76.0167 162.71 76.0909 162.454 76.0909 162.124C76.0909 161.795 76.0167 161.539 75.8685 161.357C75.7202 161.172 75.5195 161.08 75.2663 161.08C75.0132 161.08 74.8116 161.172 74.6615 161.357C74.5132 161.541 74.4391 161.797 74.4391 162.124C74.4391 162.452 74.5132 162.708 74.6615 162.892ZM78.1956 163.142C78.4415 163.142 78.6395 163.048 78.7896 162.859C78.9397 162.671 79.0147 162.423 79.0147 162.114C79.0147 161.803 78.9397 161.553 78.7896 161.365C78.6395 161.175 78.4415 161.08 78.1956 161.08C77.9515 161.08 77.7562 161.174 77.6098 161.362C77.4651 161.549 77.3928 161.799 77.3928 162.114C77.3928 162.428 77.4651 162.679 77.6098 162.865C77.7562 163.049 77.9515 163.142 78.1956 163.142ZM78.2119 164.598C77.9027 164.598 77.6369 164.519 77.4145 164.362C77.1921 164.207 77.061 164.009 77.0212 163.768H77.5067C77.5537 163.898 77.6423 164.002 77.7725 164.08C77.9027 164.158 78.0555 164.197 78.2309 164.197C78.4732 164.197 78.6639 164.132 78.8032 164.004C78.9442 163.876 79.0147 163.706 79.0147 163.494V163.049H79.0039C78.9153 163.205 78.7914 163.329 78.6323 163.421C78.4732 163.511 78.296 163.557 78.1007 163.557C77.7409 163.557 77.4524 163.425 77.2355 163.163C77.0185 162.901 76.91 162.551 76.91 162.114C76.91 161.672 77.0185 161.321 77.2355 161.059C77.4543 160.796 77.7463 160.665 78.1115 160.665C78.3104 160.665 78.4895 160.711 78.6486 160.804C78.8077 160.896 78.9343 161.024 79.0283 161.189H79.0364V160.714H79.4867V163.478C79.4867 163.816 79.371 164.087 79.1395 164.292C78.9081 164.496 78.5989 164.598 78.2119 164.598ZM81.2334 161.075C81.0146 161.075 80.8329 161.151 80.6882 161.303C80.5454 161.453 80.4667 161.646 80.4523 161.883H81.9847C81.9793 161.644 81.9079 161.45 81.7705 161.3C81.633 161.15 81.454 161.075 81.2334 161.075ZM81.9739 162.727H82.4377C82.3961 162.976 82.2659 163.181 82.0471 163.342C81.8301 163.503 81.5688 163.584 81.2632 163.584C80.86 163.584 80.5427 163.453 80.3112 163.193C80.0798 162.933 79.9641 162.58 79.9641 162.135C79.9641 161.694 80.0798 161.339 80.3112 161.069C80.5445 160.8 80.8546 160.665 81.2416 160.665C81.6213 160.665 81.9214 160.793 82.142 161.048C82.3626 161.303 82.4729 161.644 82.4729 162.073V162.252H80.4496V162.279C80.4496 162.55 80.5237 162.767 80.672 162.93C80.8202 163.093 81.0209 163.174 81.2741 163.174C81.4513 163.174 81.6023 163.133 81.7271 163.052C81.8518 162.971 81.9341 162.862 81.9739 162.727ZM82.9503 163.535V160.714H83.3951V161.164H83.406C83.4747 161.011 83.5787 160.889 83.7179 160.801C83.8571 160.71 84.0199 160.665 84.2061 160.665C84.3978 160.665 84.5623 160.712 84.6998 160.806C84.8372 160.898 84.9366 161.03 84.9981 161.202H85.009C85.0867 161.034 85.2033 160.903 85.3588 160.809C85.5162 160.713 85.6943 160.665 85.8932 160.665C86.1716 160.665 86.394 160.749 86.5604 160.917C86.7286 161.084 86.8126 161.307 86.8126 161.587V163.535H86.3407V161.696C86.3407 161.502 86.2892 161.352 86.1861 161.246C86.0848 161.137 85.9411 161.083 85.7548 161.083C85.5686 161.083 85.4158 161.145 85.2965 161.27C85.1771 161.393 85.1174 161.55 85.1174 161.742V163.535H84.6455V161.644C84.6455 161.474 84.5931 161.339 84.4882 161.238C84.3833 161.134 84.2432 161.083 84.0678 161.083C83.8815 161.083 83.7269 161.148 83.604 161.278C83.4828 161.408 83.4223 161.571 83.4223 161.766V163.535H82.9503ZM88.5458 161.075C88.327 161.075 88.1453 161.151 88.0006 161.303C87.8578 161.453 87.7791 161.646 87.7647 161.883H89.2971C89.2917 161.644 89.2203 161.45 89.0829 161.3C88.9454 161.15 88.7664 161.075 88.5458 161.075ZM89.2863 162.727H89.7501C89.7085 162.976 89.5783 163.181 89.3595 163.342C89.1425 163.503 88.8812 163.584 88.5756 163.584C88.1724 163.584 87.8551 163.453 87.6236 163.193C87.3922 162.933 87.2764 162.58 87.2764 162.135C87.2764 161.694 87.3922 161.339 87.6236 161.069C87.8569 160.8 88.167 160.665 88.5539 160.665C88.9337 160.665 89.2338 160.793 89.4544 161.048C89.675 161.303 89.7853 161.644 89.7853 162.073V162.252H87.762V162.279C87.762 162.55 87.8361 162.767 87.9844 162.93C88.1326 163.093 88.3333 163.174 88.5865 163.174C88.7637 163.174 88.9147 163.133 89.0395 163.052C89.1642 162.971 89.2465 162.862 89.2863 162.727ZM90.2627 163.535V160.714H90.7075V161.164H90.7184C90.7997 161.007 90.9164 160.885 91.0683 160.798C91.2202 160.71 91.4019 160.665 91.6134 160.665C91.9208 160.665 92.1604 160.758 92.3322 160.945C92.504 161.129 92.5899 161.382 92.5899 161.704V163.535H92.1179V161.788C92.1179 161.558 92.0637 161.384 91.9552 161.265C91.8467 161.143 91.6849 161.083 91.4697 161.083C91.2473 161.083 91.0692 161.155 90.9354 161.3C90.8016 161.445 90.7347 161.636 90.7347 161.875V163.535H90.2627ZM93.3439 160.033H93.8158V160.714H94.3637V161.102H93.8158V162.778C93.8158 162.906 93.8439 163.001 93.8999 163.063C93.956 163.123 94.0446 163.152 94.1657 163.152C94.2417 163.152 94.3068 163.148 94.361 163.139V163.535C94.2995 163.549 94.2001 163.557 94.0627 163.557C93.8041 163.557 93.6196 163.499 93.5093 163.383C93.399 163.267 93.3439 163.074 93.3439 162.803V161.102H92.9235V160.714H93.3439V160.033ZM73.883 175.535L73.4898 174.415H71.9329L71.5396 175.535H71.027L72.4699 171.621H72.9527L74.3957 175.535H73.883ZM72.7032 172.215L72.0766 174H73.346L72.7195 172.215H72.7032ZM74.7944 175.535V171.621H75.2663V175.535H74.7944ZM77.0348 173.075C76.816 173.075 76.6342 173.151 76.4896 173.303C76.3467 173.453 76.2681 173.646 76.2536 173.883H77.7861C77.7806 173.644 77.7092 173.45 77.5718 173.3C77.4344 173.15 77.2554 173.075 77.0348 173.075ZM77.7752 174.727H78.239C78.1974 174.976 78.0672 175.181 77.8484 175.342C77.6315 175.503 77.3702 175.584 77.0646 175.584C76.6614 175.584 76.344 175.453 76.1126 175.193C75.8811 174.933 75.7654 174.58 75.7654 174.135C75.7654 173.694 75.8811 173.339 76.1126 173.069C76.3458 172.8 76.6559 172.665 77.0429 172.665C77.4226 172.665 77.7228 172.793 77.9434 173.048C78.164 173.303 78.2743 173.644 78.2743 174.073V174.252H76.2509V174.279C76.2509 174.55 76.325 174.767 76.4733 174.93C76.6216 175.093 76.8223 175.174 77.0754 175.174C77.2526 175.174 77.4036 175.133 77.5284 175.052C77.6532 174.971 77.7354 174.862 77.7752 174.727ZM77.2572 172.307H76.8449L77.4145 171.494H77.9244L77.2572 172.307ZM79.682 175.182C79.9044 175.182 80.0906 175.114 80.2407 174.976C80.3926 174.837 80.4685 174.666 80.4685 174.463V174.233L79.7145 174.279C79.5247 174.292 79.3773 174.338 79.2724 174.417C79.1693 174.497 79.1178 174.604 79.1178 174.737C79.1178 174.871 79.1693 174.979 79.2724 175.06C79.3755 175.142 79.512 175.182 79.682 175.182ZM79.5762 175.584C79.2959 175.584 79.069 175.506 78.8954 175.35C78.7236 175.195 78.6377 174.991 78.6377 174.737C78.6377 174.495 78.7263 174.302 78.9035 174.157C79.0825 174.012 79.3348 173.931 79.6603 173.913L80.4685 173.867V173.631C80.4685 173.459 80.4143 173.324 80.3058 173.227C80.1973 173.129 80.0454 173.08 79.8501 173.08C79.6711 173.08 79.5256 173.12 79.4135 173.2C79.3013 173.277 79.2299 173.387 79.1992 173.528H78.7435C78.7598 173.276 78.8683 173.07 79.069 172.909C79.2715 172.747 79.5355 172.665 79.861 172.665C80.1919 172.665 80.4541 172.748 80.6476 172.915C80.8428 173.081 80.9405 173.304 80.9405 173.585V175.535H80.493V175.049H80.4821C80.3971 175.21 80.2724 175.34 80.1078 175.437C79.9433 175.535 79.7661 175.584 79.5762 175.584ZM81.4911 173.492C81.4911 173.25 81.5887 173.052 81.784 172.898C81.9811 172.743 82.2343 172.665 82.5435 172.665C82.8346 172.665 83.0769 172.743 83.2704 172.898C83.4638 173.054 83.566 173.251 83.5769 173.49H83.1266C83.1103 173.352 83.0489 173.245 82.9422 173.167C82.8373 173.089 82.699 173.05 82.5272 173.05C82.3554 173.05 82.2171 173.089 82.1122 173.167C82.0073 173.243 81.9549 173.343 81.9549 173.468C81.9549 173.66 82.1113 173.795 82.4241 173.875L82.8608 173.981C83.1447 174.053 83.3445 174.147 83.4602 174.263C83.5778 174.377 83.6365 174.538 83.6365 174.746C83.6365 174.991 83.5316 175.193 83.3219 175.35C83.1121 175.506 82.8427 175.584 82.5136 175.584C82.2062 175.584 81.9522 175.508 81.7515 175.356C81.5526 175.202 81.4405 175 81.4151 174.748H81.8871C81.9395 175.048 82.1583 175.199 82.5435 175.199C82.7333 175.199 82.8834 175.161 82.9937 175.087C83.1058 175.011 83.1619 174.909 83.1619 174.781C83.1619 174.68 83.1284 174.599 83.0615 174.539C82.9964 174.48 82.8852 174.429 82.7279 174.388L82.2315 174.26C81.7379 174.133 81.4911 173.878 81.4911 173.492ZM86.3353 175.584C85.9736 175.584 85.6816 175.451 85.4592 175.185C85.2386 174.919 85.1283 174.566 85.1283 174.124C85.1283 173.685 85.2386 173.332 85.4592 173.067C85.6798 172.799 85.9682 172.665 86.3244 172.665C86.5233 172.665 86.7014 172.71 86.8588 172.801C87.0161 172.891 87.1372 173.015 87.2222 173.172H87.2331V171.621H87.705V175.535H87.2548V175.057H87.2466C87.1544 175.222 87.0296 175.351 86.8723 175.445C86.715 175.538 86.536 175.584 86.3353 175.584ZM86.4248 173.08C86.1753 173.08 85.9773 173.175 85.8308 173.365C85.6843 173.553 85.6111 173.806 85.6111 174.124C85.6111 174.445 85.6843 174.699 85.8308 174.887C85.9773 175.075 86.1753 175.169 86.4248 175.169C86.6689 175.169 86.8651 175.074 87.0134 174.884C87.1616 174.692 87.2358 174.439 87.2358 174.124C87.2358 173.81 87.1607 173.558 87.0106 173.368C86.8624 173.176 86.6671 173.08 86.4248 173.08ZM89.4734 173.075C89.2546 173.075 89.0729 173.151 88.9282 173.303C88.7854 173.453 88.7067 173.646 88.6923 173.883H90.2247C90.2193 173.644 90.1479 173.45 90.0105 173.3C89.873 173.15 89.694 173.075 89.4734 173.075ZM90.2139 174.727H90.6777C90.6361 174.976 90.5059 175.181 90.2871 175.342C90.0701 175.503 89.8088 175.584 89.5033 175.584C89.1 175.584 88.7827 175.453 88.5512 175.193C88.3198 174.933 88.2041 174.58 88.2041 174.135C88.2041 173.694 88.3198 173.339 88.5512 173.069C88.7845 172.8 89.0946 172.665 89.4816 172.665C89.8613 172.665 90.1614 172.793 90.3821 173.048C90.6027 173.303 90.713 173.644 90.713 174.073V174.252H88.6896V174.279C88.6896 174.55 88.7637 174.767 88.912 174.93C89.0602 175.093 89.261 175.174 89.5141 175.174C89.6913 175.174 89.8423 175.133 89.9671 175.052C90.0918 174.971 90.1741 174.862 90.2139 174.727ZM92.3539 175.535V171.621H92.8258V175.535H92.3539ZM94.3936 175.182C94.616 175.182 94.8022 175.114 94.9523 174.976C95.1042 174.837 95.1801 174.666 95.1801 174.463V174.233L94.4261 174.279C94.2362 174.292 94.0889 174.338 93.984 174.417C93.8809 174.497 93.8294 174.604 93.8294 174.737C93.8294 174.871 93.8809 174.979 93.984 175.06C94.0871 175.142 94.2236 175.182 94.3936 175.182ZM94.2878 175.584C94.0075 175.584 93.7806 175.506 93.607 175.35C93.4352 175.195 93.3493 174.991 93.3493 174.737C93.3493 174.495 93.4379 174.302 93.6151 174.157C93.7941 174.012 94.0464 173.931 94.3719 173.913L95.1801 173.867V173.631C95.1801 173.459 95.1259 173.324 95.0174 173.227C94.9089 173.129 94.757 173.08 94.5617 173.08C94.3827 173.08 94.2372 173.12 94.125 173.2C94.0129 173.277 93.9415 173.387 93.9108 173.528H93.4551C93.4714 173.276 93.5799 173.07 93.7806 172.909C93.9831 172.747 94.2471 172.665 94.5726 172.665C94.9035 172.665 95.1657 172.748 95.3591 172.915C95.5544 173.081 95.6521 173.304 95.6521 173.585V175.535H95.2045V175.049H95.1937C95.1087 175.21 94.9839 175.34 94.8194 175.437C94.6548 175.535 94.4776 175.584 94.2878 175.584ZM99.7043 172.714L98.6682 175.535H98.1854L97.1466 172.714H97.6429L98.4213 175.033H98.4322L99.2133 172.714H99.7043ZM100.1 175.535V172.714H100.572V175.535H100.1ZM100.336 172.239C100.257 172.239 100.188 172.21 100.13 172.153C100.072 172.095 100.043 172.026 100.043 171.946C100.043 171.865 100.072 171.796 100.13 171.74C100.188 171.682 100.257 171.654 100.336 171.654C100.418 171.654 100.487 171.682 100.545 171.74C100.603 171.796 100.632 171.865 100.632 171.946C100.632 172.026 100.603 172.095 100.545 172.153C100.487 172.21 100.418 172.239 100.336 172.239ZM102.341 173.075C102.122 173.075 101.94 173.151 101.795 173.303C101.653 173.453 101.574 173.646 101.559 173.883H103.092C103.087 173.644 103.015 173.45 102.878 173.3C102.74 173.15 102.561 173.075 102.341 173.075ZM103.081 174.727H103.545C103.503 174.976 103.373 175.181 103.154 175.342C102.937 175.503 102.676 175.584 102.37 175.584C101.967 175.584 101.65 175.453 101.418 175.193C101.187 174.933 101.071 174.58 101.071 174.135C101.071 173.694 101.187 173.339 101.418 173.069C101.652 172.8 101.962 172.665 102.349 172.665C102.729 172.665 103.029 172.793 103.249 173.048C103.47 173.303 103.58 173.644 103.58 174.073V174.252H101.557V174.279C101.557 174.55 101.631 174.767 101.779 174.93C101.927 175.093 102.128 175.174 102.381 175.174C102.559 175.174 102.71 175.133 102.834 175.052C102.959 174.971 103.041 174.862 103.081 174.727Z" fill="#262626"/>
<g clip-path="url(#clip0_745:3156)">
<path d="M67.7159 161.491L65.3535 159.226C65.2498 159.127 65.0934 159.127 64.9898 159.226L62.6273 161.491C62.5442 161.57 62.5168 161.693 62.5574 161.803C62.598 161.914 62.6968 161.985 62.8092 161.985H63.1865V164.254C63.1865 164.344 63.2558 164.417 63.3414 164.417H64.6363C64.7218 164.417 64.7911 164.344 64.7911 164.254V162.876H65.5522V164.254C65.5522 164.344 65.6215 164.417 65.707 164.417H67.0019C67.0874 164.417 67.1567 164.344 67.1567 164.254V161.985H67.5341C67.6465 161.985 67.7453 161.914 67.7859 161.803C67.8264 161.693 67.799 161.57 67.7159 161.491Z" fill="url(#paint0_linear_745:3156)"/>
<path d="M67.1166 159.591H66.0767L67.2714 160.677V159.745C67.2714 159.66 67.2021 159.591 67.1166 159.591Z" fill="url(#paint1_linear_745:3156)"/>
</g>
<g clip-path="url(#clip1_745:3156)">
<path d="M67.3347 171.932H63.0095C62.9054 171.932 62.8214 172.016 62.8214 172.12V176.445C62.8214 176.549 62.9054 176.633 63.0095 176.633H67.3347C67.4387 176.633 67.5228 176.549 67.5228 176.445V172.12C67.5228 172.016 67.4387 171.932 67.3347 171.932ZM65.1785 174.318L64.0502 175.264C64.0197 175.29 63.9732 175.269 63.9732 175.229V174.86C63.9732 174.847 63.9797 174.833 63.9903 174.824L64.6355 174.282L63.9903 173.741C63.9849 173.736 63.9805 173.731 63.9776 173.725C63.9746 173.718 63.9731 173.712 63.9732 173.705V173.336C63.9732 173.296 64.0197 173.275 64.0502 173.3L65.1785 174.246C65.2015 174.265 65.2015 174.299 65.1785 174.318V174.318ZM66.3709 175.229C66.3709 175.254 66.3509 175.276 66.3269 175.276H65.2397C65.2156 175.276 65.1956 175.254 65.1956 175.229V174.947C65.1956 174.921 65.2156 174.899 65.2397 174.899H66.3269C66.3509 174.899 66.3709 174.921 66.3709 174.947V175.229Z" fill="url(#paint2_linear_745:3156)"/>
</g>
<path d="M23.2246 163.791H22.7364V159.877H25.1123V160.316H23.2246V161.662H24.9577V162.096H23.2246V163.791ZM26.3383 163.438C26.5607 163.438 26.747 163.37 26.897 163.232C27.0489 163.093 27.1249 162.922 27.1249 162.72V162.489L26.3709 162.535C26.181 162.548 26.0336 162.594 25.9287 162.673C25.8257 162.753 25.7741 162.86 25.7741 162.993C25.7741 163.127 25.8257 163.235 25.9287 163.316C26.0318 163.398 26.1683 163.438 26.3383 163.438ZM26.2325 163.84C25.9523 163.84 25.7253 163.762 25.5517 163.606C25.38 163.451 25.2941 163.247 25.2941 162.993C25.2941 162.751 25.3827 162.558 25.5599 162.413C25.7389 162.268 25.9911 162.187 26.3166 162.169L27.1249 162.123V161.887C27.1249 161.715 27.0706 161.58 26.9621 161.483C26.8536 161.385 26.7018 161.336 26.5065 161.336C26.3275 161.336 26.1819 161.376 26.0698 161.456C25.9577 161.533 25.8863 161.643 25.8555 161.784H25.3998C25.4161 161.532 25.5246 161.326 25.7253 161.165C25.9278 161.003 26.1918 160.921 26.5173 160.921C26.8482 160.921 27.1104 161.004 27.3039 161.171C27.4992 161.337 27.5968 161.56 27.5968 161.841V163.791H27.1493V163.305H27.1384C27.0535 163.466 26.9287 163.596 26.7641 163.693C26.5996 163.791 26.4224 163.84 26.2325 163.84ZM28.1962 163.791V160.97H28.6411V161.42H28.6519C28.7206 161.267 28.8246 161.145 28.9638 161.057C29.1031 160.966 29.2658 160.921 29.452 160.921C29.6437 160.921 29.8083 160.968 29.9457 161.062C30.0831 161.155 30.1826 161.287 30.244 161.458H30.2549C30.3326 161.29 30.4493 161.159 30.6048 161.065C30.7621 160.969 30.9402 160.921 31.1391 160.921C31.4176 160.921 31.64 161.005 31.8063 161.174C31.9745 161.34 32.0586 161.563 32.0586 161.843V163.791H31.5866V161.952C31.5866 161.758 31.5351 161.608 31.432 161.502C31.3308 161.393 31.187 161.339 31.0008 161.339C30.8145 161.339 30.6617 161.401 30.5424 161.526C30.4231 161.649 30.3634 161.806 30.3634 161.998V163.791H29.8914V161.9C29.8914 161.73 29.839 161.595 29.7341 161.494C29.6292 161.39 29.4891 161.339 29.3137 161.339C29.1275 161.339 28.9729 161.404 28.8499 161.534C28.7288 161.664 28.6682 161.827 28.6682 162.022V163.791H28.1962ZM32.6851 163.791V160.97H33.1571V163.791H32.6851ZM32.9211 160.495C32.8415 160.495 32.7728 160.467 32.715 160.409C32.6571 160.351 32.6282 160.282 32.6282 160.203C32.6282 160.121 32.6571 160.052 32.715 159.996C32.7728 159.939 32.8415 159.91 32.9211 159.91C33.0025 159.91 33.0721 159.939 33.1299 159.996C33.1878 160.052 33.2167 160.121 33.2167 160.203C33.2167 160.282 33.1878 160.351 33.1299 160.409C33.0721 160.467 33.0025 160.495 32.9211 160.495ZM33.8189 163.791V159.877H34.2908V163.791H33.8189ZM34.9526 163.791V159.877H35.4246V163.791H34.9526ZM37.193 161.331C36.9742 161.331 36.7925 161.407 36.6478 161.559C36.505 161.709 36.4263 161.902 36.4118 162.139H37.9443C37.9389 161.9 37.8674 161.706 37.73 161.556C37.5926 161.406 37.4136 161.331 37.193 161.331ZM37.9334 162.983H38.3973C38.3557 163.232 38.2255 163.437 38.0067 163.598C37.7897 163.759 37.5284 163.84 37.2228 163.84C36.8196 163.84 36.5023 163.71 36.2708 163.449C36.0393 163.189 35.9236 162.836 35.9236 162.391C35.9236 161.95 36.0393 161.595 36.2708 161.325C36.5041 161.056 36.8142 160.921 37.2011 160.921C37.5808 160.921 37.881 161.049 38.1016 161.304C38.3222 161.559 38.4325 161.9 38.4325 162.329V162.508H36.4091V162.535C36.4091 162.806 36.4833 163.023 36.6315 163.186C36.7798 163.349 36.9805 163.43 37.2337 163.43C37.4109 163.43 37.5619 163.389 37.6866 163.308C37.8114 163.227 37.8937 163.118 37.9334 162.983ZM24.2146 175.791H23.7263V172.316H22.4922V171.877H25.4487V172.316H24.2146V175.791ZM25.2669 175.791V172.97H25.7118V173.431H25.7226C25.7696 173.274 25.8537 173.15 25.9749 173.06C26.0978 172.967 26.2416 172.921 26.4061 172.921C26.4441 172.921 26.5074 172.928 26.596 172.94V173.399C26.5453 173.381 26.4613 173.372 26.3437 173.372C26.1611 173.372 26.0146 173.432 25.9043 173.553C25.794 173.674 25.7389 173.834 25.7389 174.033V175.791H25.2669ZM27.8572 175.438C28.0796 175.438 28.2659 175.37 28.4159 175.232C28.5678 175.093 28.6438 174.922 28.6438 174.72V174.489L27.8897 174.535C27.6999 174.548 27.5525 174.594 27.4476 174.673C27.3446 174.753 27.293 174.86 27.293 174.993C27.293 175.127 27.3446 175.235 27.4476 175.316C27.5507 175.398 27.6872 175.438 27.8572 175.438ZM27.7514 175.84C27.4711 175.84 27.2442 175.762 27.0706 175.606C26.8989 175.451 26.813 175.247 26.813 174.993C26.813 174.751 26.9016 174.558 27.0788 174.413C27.2578 174.268 27.51 174.187 27.8355 174.169L28.6438 174.123V173.887C28.6438 173.715 28.5895 173.58 28.481 173.483C28.3725 173.385 28.2207 173.336 28.0254 173.336C27.8464 173.336 27.7008 173.376 27.5887 173.456C27.4766 173.533 27.4051 173.643 27.3744 173.784H26.9187C26.935 173.532 27.0435 173.326 27.2442 173.165C27.4467 173.003 27.7107 172.921 28.0362 172.921C28.3671 172.921 28.6293 173.004 28.8228 173.171C29.0181 173.337 29.1157 173.56 29.1157 173.841V175.791H28.6682V175.305H28.6573C28.5723 175.466 28.4476 175.596 28.283 175.693C28.1185 175.791 27.9413 175.84 27.7514 175.84ZM29.7151 175.791V172.97H30.16V173.42H30.1708C30.2522 173.263 30.3688 173.141 30.5207 173.054C30.6726 172.966 30.8543 172.921 31.0659 172.921C31.3733 172.921 31.6129 173.014 31.7846 173.201C31.9564 173.385 32.0423 173.638 32.0423 173.96V175.791H31.5704V174.044C31.5704 173.815 31.5161 173.64 31.4076 173.521C31.2991 173.4 31.1373 173.339 30.9221 173.339C30.6997 173.339 30.5216 173.411 30.3878 173.556C30.254 173.701 30.1871 173.892 30.1871 174.131V175.791H29.7151ZM32.5956 173.749C32.5956 173.506 32.6933 173.308 32.8885 173.155C33.0856 172.999 33.3388 172.921 33.648 172.921C33.9391 172.921 34.1814 172.999 34.3749 173.155C34.5684 173.31 34.6705 173.507 34.6814 173.746H34.2311C34.2149 173.608 34.1534 173.501 34.0467 173.423C33.9418 173.345 33.8035 173.306 33.6317 173.306C33.4599 173.306 33.3216 173.345 33.2167 173.423C33.1119 173.499 33.0594 173.599 33.0594 173.724C33.0594 173.916 33.2158 174.051 33.5287 174.131L33.9653 174.237C34.2492 174.309 34.449 174.403 34.5648 174.519C34.6823 174.633 34.7411 174.794 34.7411 175.002C34.7411 175.248 34.6362 175.449 34.4264 175.606C34.2167 175.762 33.9473 175.84 33.6182 175.84C33.3108 175.84 33.0567 175.764 32.856 175.612C32.6571 175.458 32.545 175.256 32.5197 175.004H32.9916C33.0441 175.304 33.2628 175.455 33.648 175.455C33.8379 175.455 33.9879 175.417 34.0982 175.343C34.2103 175.267 34.2664 175.165 34.2664 175.037C34.2664 174.936 34.2329 174.855 34.166 174.795C34.1009 174.736 33.9897 174.685 33.8324 174.644L33.3361 174.516C32.8424 174.39 32.5956 174.134 32.5956 173.749ZM36.6017 172.921C36.9633 172.921 37.2545 173.054 37.4751 173.32C37.6975 173.586 37.8087 173.939 37.8087 174.38C37.8087 174.82 37.6984 175.173 37.4778 175.441C37.2572 175.707 36.9688 175.84 36.6126 175.84C36.4136 175.84 36.2355 175.795 36.0782 175.704C35.9209 175.614 35.7998 175.49 35.7148 175.333H35.7039V176.732H35.232V172.97H35.6795V173.447H35.6904C35.779 173.285 35.9028 173.156 36.062 173.062C36.2211 172.968 36.401 172.921 36.6017 172.921ZM36.5095 175.425C36.7608 175.425 36.9597 175.331 37.1062 175.143C37.2527 174.955 37.3259 174.701 37.3259 174.38C37.3259 174.06 37.2527 173.806 37.1062 173.618C36.9597 173.43 36.7608 173.336 36.5095 173.336C36.2672 173.336 36.0719 173.432 35.9236 173.624C35.7754 173.815 35.7012 174.068 35.7012 174.38C35.7012 174.695 35.7754 174.948 35.9236 175.14C36.0719 175.33 36.2672 175.425 36.5095 175.425ZM39.4551 175.84C39.0609 175.84 38.7444 175.709 38.5057 175.446C38.2671 175.182 38.1477 174.827 38.1477 174.38C38.1477 173.934 38.2671 173.579 38.5057 173.317C38.7444 173.053 39.0609 172.921 39.4551 172.921C39.8474 172.921 40.163 173.053 40.4017 173.317C40.6403 173.579 40.7597 173.934 40.7597 174.38C40.7597 174.825 40.6403 175.18 40.4017 175.444C40.163 175.708 39.8474 175.84 39.4551 175.84ZM38.8502 175.148C39.0003 175.333 39.2019 175.425 39.4551 175.425C39.7082 175.425 39.9089 175.333 40.0572 175.151C40.2055 174.966 40.2796 174.71 40.2796 174.38C40.2796 174.051 40.2055 173.796 40.0572 173.613C39.9089 173.428 39.7082 173.336 39.4551 173.336C39.2019 173.336 39.0003 173.428 38.8502 173.613C38.7019 173.797 38.6278 174.053 38.6278 174.38C38.6278 174.708 38.7019 174.964 38.8502 175.148ZM41.237 175.791V172.97H41.6819V173.431H41.6927C41.7397 173.274 41.8238 173.15 41.945 173.06C42.0679 172.967 42.2117 172.921 42.3762 172.921C42.4142 172.921 42.4775 172.928 42.5661 172.94V173.399C42.5155 173.381 42.4314 173.372 42.3138 173.372C42.1312 173.372 41.9847 173.432 41.8744 173.553C41.7641 173.674 41.709 173.834 41.709 174.033V175.791H41.237ZM43.1031 172.289H43.5751V172.97H44.123V173.358H43.5751V175.034C43.5751 175.163 43.6031 175.257 43.6591 175.319C43.7152 175.379 43.8038 175.408 43.925 175.408C44.0009 175.408 44.066 175.404 44.1202 175.395V175.791C44.0588 175.805 43.9593 175.813 43.8219 175.813C43.5633 175.813 43.3789 175.755 43.2686 175.639C43.1583 175.523 43.1031 175.33 43.1031 175.059V173.358H42.6827V172.97H43.1031V172.289Z" fill="#262626"/>
<path d="M22.3566 165.445H38.6007V165.771H22.3566V165.445Z" fill="#262626"/>
<g clip-path="url(#clip2_745:3156)">
<path d="M19.6264 172.797C19.6121 172.755 19.5614 172.723 19.5191 172.723C19.3359 172.723 19.1527 172.723 18.9695 172.723C18.9273 172.723 18.8766 172.755 18.8623 172.797C18.8483 172.838 18.8378 172.874 18.8309 172.908L18.4638 171.893C18.4033 171.725 18.2429 171.613 18.0649 171.613H15.2573C15.0793 171.613 14.9189 171.725 14.8584 171.893L14.4913 172.908C14.4843 172.874 14.4739 172.838 14.4598 172.797C14.4456 172.755 14.3949 172.723 14.3526 172.723C14.1694 172.723 13.9862 172.723 13.803 172.723C13.7608 172.723 13.7101 172.755 13.6958 172.797C13.6401 172.959 13.6402 173.052 13.6958 173.214C13.7101 173.255 13.7608 173.288 13.8031 173.288C13.9863 173.288 14.1694 173.288 14.3526 173.288C14.3531 173.288 14.3537 173.288 14.3542 173.288L14.3459 173.311C14.2339 173.348 14.1529 173.453 14.1529 173.578V174.428V174.498V175.439C14.1529 175.514 14.2136 175.575 14.2884 175.575H14.97C15.0448 175.575 15.1054 175.514 15.1054 175.439V174.78H18.2168V175.439C18.2168 175.514 18.2774 175.575 18.3522 175.575H19.0338C19.1086 175.575 19.1692 175.514 19.1692 175.439V174.498V174.428V173.578C19.1692 173.453 19.0883 173.348 18.9763 173.311L18.968 173.288C18.9685 173.288 18.9691 173.288 18.9696 173.288C19.1528 173.288 19.3359 173.288 19.5191 173.288C19.5614 173.288 19.6121 173.255 19.6264 173.214C19.682 173.052 19.682 172.959 19.6264 172.797ZM15.3092 172.111H18.0126L18.441 173.296H14.8809L15.3092 172.111ZM15.3846 174.131H14.8144C14.692 174.131 14.5929 174.032 14.5929 173.909C14.5929 173.787 14.692 173.688 14.8144 173.688H15.3846C15.5069 173.688 15.6061 173.787 15.6061 173.909C15.6061 174.032 15.5069 174.131 15.3846 174.131ZM18.5077 174.131H17.9375C17.8152 174.131 17.716 174.032 17.716 173.909C17.716 173.787 17.8152 173.688 17.9375 173.688H18.5077C18.6301 173.688 18.7292 173.787 18.7292 173.909C18.7292 174.032 18.6301 174.131 18.5077 174.131Z" fill="url(#paint3_linear_745:3156)"/>
</g>
<g clip-path="url(#clip3_745:3156)">
<path d="M15.8229 162.343L15.9059 162.253C15.8452 162.066 15.8451 161.86 15.9098 161.67C15.433 161.923 14.8293 161.822 14.4689 161.411C14.2012 161.616 14.0293 161.933 14.0293 162.287V163.884C14.0293 163.972 14.1034 164.044 14.1948 164.044H15.5583C15.5399 163.994 15.5298 163.94 15.5298 163.884V163.086C15.5298 162.812 15.6339 162.548 15.8229 162.343V162.343Z" fill="url(#paint4_linear_745:3156)"/>
<path d="M15.1595 161.411C15.5749 161.411 15.9117 161.075 15.9117 160.659C15.9117 160.244 15.5749 159.907 15.1595 159.907C14.7441 159.907 14.4073 160.244 14.4073 160.659C14.4073 161.075 14.7441 161.411 15.1595 161.411Z" fill="url(#paint5_linear_745:3156)"/>
<path d="M18.8547 161.411C18.4937 161.823 17.8896 161.923 17.4138 161.67C17.4784 161.861 17.4784 162.066 17.4177 162.253L17.5007 162.343C17.6897 162.548 17.7937 162.812 17.7937 163.086V163.884C17.7937 163.94 17.7837 163.994 17.7653 164.044H19.1288C19.2202 164.044 19.2943 163.972 19.2943 163.884V162.287C19.2943 161.933 19.1224 161.616 18.8547 161.411V161.411Z" fill="url(#paint6_linear_745:3156)"/>
<path d="M18.166 161.411C18.5814 161.411 18.9182 161.075 18.9182 160.659C18.9182 160.244 18.5814 159.907 18.166 159.907C17.7505 159.907 17.4138 160.244 17.4138 160.659C17.4138 161.075 17.7505 161.411 18.166 161.411Z" fill="url(#paint7_linear_745:3156)"/>
<path d="M16.6634 162.914C16.4224 162.914 16.2075 162.767 16.0697 162.539C15.9711 162.682 15.9112 162.87 15.9112 163.075V163.882C15.9112 163.971 15.9674 164.044 16.0366 164.044H17.2903C17.3595 164.044 17.4156 163.971 17.4156 163.882V163.075C17.4156 162.87 17.3557 162.682 17.2571 162.539C17.1193 162.767 16.9045 162.914 16.6634 162.914V162.914Z" fill="url(#paint8_linear_745:3156)"/>
<path d="M16.6634 162.539C17.0788 162.539 17.4156 162.287 17.4156 161.975C17.4156 161.664 17.0788 161.411 16.6634 161.411C16.248 161.411 15.9112 161.664 15.9112 161.975C15.9112 162.287 16.248 162.539 16.6634 162.539Z" fill="url(#paint9_linear_745:3156)"/>
<path d="M16.2621 159.992C16.4231 160.151 16.5828 160.256 16.5895 160.261C16.6348 160.29 16.692 160.29 16.7373 160.261C16.7441 160.256 16.9037 160.151 17.0647 159.992C17.2976 159.763 17.4156 159.539 17.4156 159.329C17.4156 158.851 16.9698 158.626 16.6634 158.892C16.3563 158.626 15.9112 158.852 15.9112 159.329C15.9112 159.539 16.0293 159.763 16.2621 159.992V159.992Z" fill="url(#paint10_linear_745:3156)"/>
</g>
<path d="M131.625 163.096V163.535H129.2V159.621H131.625V160.061H129.688V161.316H131.524V161.75H129.688V163.096H131.625ZM134.541 161.639H134.079C134.043 161.476 133.963 161.343 133.838 161.238C133.715 161.133 133.555 161.08 133.358 161.08C133.112 161.08 132.914 161.175 132.764 161.365C132.614 161.553 132.539 161.806 132.539 162.125C132.539 162.448 132.614 162.703 132.764 162.89C132.916 163.076 133.116 163.169 133.363 163.169C133.553 163.169 133.71 163.122 133.833 163.028C133.957 162.932 134.041 162.798 134.082 162.626H134.546C134.51 162.909 134.382 163.139 134.164 163.318C133.947 163.495 133.679 163.584 133.361 163.584C132.967 163.584 132.651 163.454 132.414 163.193C132.177 162.931 132.059 162.575 132.059 162.125C132.059 161.682 132.177 161.328 132.414 161.064C132.651 160.798 132.965 160.665 133.355 160.665C133.692 160.665 133.965 160.76 134.174 160.95C134.386 161.14 134.508 161.37 134.541 161.639ZM136.149 163.584C135.755 163.584 135.438 163.453 135.2 163.191C134.961 162.927 134.842 162.571 134.842 162.125C134.842 161.678 134.961 161.324 135.2 161.061C135.438 160.797 135.755 160.665 136.149 160.665C136.541 160.665 136.857 160.797 137.096 161.061C137.334 161.324 137.454 161.678 137.454 162.125C137.454 162.57 137.334 162.924 137.096 163.188C136.857 163.452 136.541 163.584 136.149 163.584ZM135.544 162.892C135.694 163.077 135.896 163.169 136.149 163.169C136.402 163.169 136.603 163.078 136.751 162.895C136.899 162.711 136.974 162.454 136.974 162.125C136.974 161.796 136.899 161.54 136.751 161.357C136.603 161.173 136.402 161.08 136.149 161.08C135.896 161.08 135.694 161.173 135.544 161.357C135.396 161.542 135.322 161.797 135.322 162.125C135.322 162.452 135.396 162.708 135.544 162.892ZM137.955 163.535V159.621H138.427V163.535H137.955ZM140.234 163.584C139.84 163.584 139.523 163.453 139.284 163.191C139.046 162.927 138.926 162.571 138.926 162.125C138.926 161.678 139.046 161.324 139.284 161.061C139.523 160.797 139.84 160.665 140.234 160.665C140.626 160.665 140.942 160.797 141.18 161.061C141.419 161.324 141.538 161.678 141.538 162.125C141.538 162.57 141.419 162.924 141.18 163.188C140.942 163.452 140.626 163.584 140.234 163.584ZM139.629 162.892C139.779 163.077 139.981 163.169 140.234 163.169C140.487 163.169 140.688 163.078 140.836 162.895C140.984 162.711 141.058 162.454 141.058 162.125C141.058 161.796 140.984 161.54 140.836 161.357C140.688 161.173 140.487 161.08 140.234 161.08C139.981 161.08 139.779 161.173 139.629 161.357C139.481 161.542 139.406 161.797 139.406 162.125C139.406 162.452 139.481 162.708 139.629 162.892ZM143.163 163.142C143.409 163.142 143.607 163.048 143.757 162.86C143.907 162.672 143.982 162.423 143.982 162.114C143.982 161.803 143.907 161.553 143.757 161.365C143.607 161.175 143.409 161.08 143.163 161.08C142.919 161.08 142.724 161.174 142.577 161.363C142.433 161.549 142.36 161.799 142.36 162.114C142.36 162.428 142.433 162.679 142.577 162.865C142.724 163.05 142.919 163.142 143.163 163.142ZM143.179 164.598C142.87 164.598 142.604 164.52 142.382 164.362C142.159 164.207 142.028 164.009 141.989 163.768H142.474C142.521 163.899 142.61 164.003 142.74 164.08C142.87 164.158 143.023 164.197 143.198 164.197C143.441 164.197 143.631 164.133 143.771 164.004C143.912 163.876 143.982 163.706 143.982 163.494V163.05H143.971C143.883 163.205 143.759 163.329 143.6 163.421C143.441 163.512 143.263 163.557 143.068 163.557C142.708 163.557 142.42 163.426 142.203 163.164C141.986 162.901 141.877 162.551 141.877 162.114C141.877 161.673 141.986 161.321 142.203 161.059C142.422 160.797 142.714 160.665 143.079 160.665C143.278 160.665 143.457 160.712 143.616 160.804C143.775 160.896 143.902 161.024 143.996 161.189H144.004V160.714H144.454V163.478C144.454 163.816 144.338 164.088 144.107 164.292C143.875 164.496 143.566 164.598 143.179 164.598ZM145.094 163.535V160.714H145.566V163.535H145.094ZM145.33 160.24C145.251 160.24 145.182 160.211 145.124 160.153C145.066 160.095 145.037 160.026 145.037 159.947C145.037 159.865 145.066 159.797 145.124 159.741C145.182 159.683 145.251 159.654 145.33 159.654C145.412 159.654 145.481 159.683 145.539 159.741C145.597 159.797 145.626 159.865 145.626 159.947C145.626 160.026 145.597 160.095 145.539 160.153C145.481 160.211 145.412 160.24 145.33 160.24ZM147.335 161.075C147.116 161.075 146.934 161.151 146.789 161.303C146.647 161.453 146.568 161.646 146.553 161.883H148.086C148.08 161.645 148.009 161.45 147.872 161.3C147.734 161.15 147.555 161.075 147.335 161.075ZM148.075 162.727H148.539C148.497 162.976 148.367 163.182 148.148 163.343C147.931 163.503 147.67 163.584 147.364 163.584C146.961 163.584 146.644 163.454 146.412 163.193C146.181 162.933 146.065 162.58 146.065 162.136C146.065 161.694 146.181 161.339 146.412 161.07C146.646 160.8 146.956 160.665 147.343 160.665C147.722 160.665 148.023 160.793 148.243 161.048C148.464 161.303 148.574 161.645 148.574 162.073V162.252H146.551V162.279C146.551 162.551 146.625 162.768 146.773 162.93C146.921 163.093 147.122 163.174 147.375 163.174C147.552 163.174 147.703 163.134 147.828 163.052C147.953 162.971 148.035 162.862 148.075 162.727Z" fill="#262626"/>
<path d="M130.532 175.105H130.049L128.606 171.191H129.119L130.282 174.511H130.298L131.462 171.191H131.975L130.532 175.105ZM132.292 175.105V172.285H132.764V175.105H132.292ZM132.528 171.81C132.448 171.81 132.38 171.781 132.322 171.723C132.264 171.665 132.235 171.597 132.235 171.517C132.235 171.436 132.264 171.367 132.322 171.311C132.38 171.253 132.448 171.224 132.528 171.224C132.609 171.224 132.679 171.253 132.737 171.311C132.795 171.367 132.824 171.436 132.824 171.517C132.824 171.597 132.795 171.665 132.737 171.723C132.679 171.781 132.609 171.81 132.528 171.81ZM134.532 172.645C134.314 172.645 134.132 172.721 133.987 172.873C133.844 173.023 133.766 173.217 133.751 173.454H135.284C135.278 173.215 135.207 173.02 135.069 172.87C134.932 172.72 134.753 172.645 134.532 172.645ZM135.273 174.297H135.737C135.695 174.547 135.565 174.752 135.346 174.913C135.129 175.074 134.868 175.154 134.562 175.154C134.159 175.154 133.842 175.024 133.61 174.764C133.379 174.503 133.263 174.151 133.263 173.706C133.263 173.265 133.379 172.909 133.61 172.64C133.843 172.37 134.154 172.236 134.54 172.236C134.92 172.236 135.22 172.363 135.441 172.618C135.662 172.873 135.772 173.215 135.772 173.643V173.822H133.749V173.85C133.749 174.121 133.823 174.338 133.971 174.501C134.119 174.663 134.32 174.745 134.573 174.745C134.75 174.745 134.901 174.704 135.026 174.623C135.151 174.541 135.233 174.433 135.273 174.297ZM137.388 175.105V172.285H137.833V172.735H137.844C137.925 172.577 138.042 172.455 138.194 172.369C138.346 172.28 138.528 172.236 138.739 172.236C139.047 172.236 139.286 172.329 139.458 172.515C139.63 172.7 139.716 172.953 139.716 173.275V175.105H139.244V173.359C139.244 173.129 139.189 172.954 139.081 172.835C138.972 172.714 138.811 172.653 138.595 172.653C138.373 172.653 138.195 172.726 138.061 172.87C137.927 173.015 137.86 173.207 137.86 173.445V175.105H137.388ZM142.634 172.285V175.105H142.187V174.647H142.176C142 174.985 141.702 175.154 141.281 175.154C140.975 175.154 140.735 175.062 140.562 174.878C140.39 174.691 140.304 174.437 140.304 174.115V172.285H140.776V174.031C140.776 174.501 140.993 174.736 141.427 174.736C141.655 174.736 141.834 174.665 141.964 174.522C142.096 174.378 142.162 174.184 142.162 173.942V172.285H142.634ZM143.247 175.105V172.285H143.692V172.735H143.703C143.771 172.581 143.875 172.46 144.015 172.371C144.154 172.281 144.317 172.236 144.503 172.236C144.694 172.236 144.859 172.283 144.996 172.377C145.134 172.469 145.233 172.601 145.295 172.773H145.306C145.383 172.605 145.5 172.473 145.656 172.379C145.813 172.284 145.991 172.236 146.19 172.236C146.468 172.236 146.691 172.32 146.857 172.488C147.025 172.654 147.109 172.878 147.109 173.158V175.105H146.637V173.266C146.637 173.073 146.586 172.923 146.483 172.816C146.382 172.708 146.238 172.653 146.052 172.653C145.865 172.653 145.713 172.716 145.593 172.841C145.474 172.964 145.414 173.121 145.414 173.313V175.105H144.942V173.215C144.942 173.045 144.89 172.909 144.785 172.808C144.68 172.705 144.54 172.653 144.365 172.653C144.178 172.653 144.024 172.719 143.901 172.849C143.78 172.979 143.719 173.142 143.719 173.337V175.105H143.247ZM148.843 172.645C148.624 172.645 148.442 172.721 148.297 172.873C148.155 173.023 148.076 173.217 148.061 173.454H149.594C149.588 173.215 149.517 173.02 149.38 172.87C149.242 172.72 149.063 172.645 148.843 172.645ZM149.583 174.297H150.047C150.005 174.547 149.875 174.752 149.656 174.913C149.439 175.074 149.178 175.154 148.872 175.154C148.469 175.154 148.152 175.024 147.92 174.764C147.689 174.503 147.573 174.151 147.573 173.706C147.573 173.265 147.689 172.909 147.92 172.64C148.154 172.37 148.464 172.236 148.851 172.236C149.23 172.236 149.531 172.363 149.751 172.618C149.972 172.873 150.082 173.215 150.082 173.643V173.822H148.059V173.85C148.059 174.121 148.133 174.338 148.281 174.501C148.429 174.663 148.63 174.745 148.883 174.745C149.06 174.745 149.211 174.704 149.336 174.623C149.461 174.541 149.543 174.433 149.583 174.297ZM149.065 171.878H148.653L149.222 171.064H149.732L149.065 171.878ZM150.559 175.105V172.285H151.004V172.746H151.015C151.062 172.588 151.146 172.464 151.267 172.374C151.39 172.282 151.534 172.236 151.699 172.236C151.737 172.236 151.8 172.242 151.888 172.255V172.713C151.838 172.695 151.754 172.686 151.636 172.686C151.454 172.686 151.307 172.747 151.197 172.868C151.087 172.989 151.031 173.149 151.031 173.348V175.105H150.559ZM152.298 175.105V172.285H152.77V175.105H152.298ZM152.534 171.81C152.454 171.81 152.386 171.781 152.328 171.723C152.27 171.665 152.241 171.597 152.241 171.517C152.241 171.436 152.27 171.367 152.328 171.311C152.386 171.253 152.454 171.224 152.534 171.224C152.615 171.224 152.685 171.253 152.743 171.311C152.801 171.367 152.83 171.436 152.83 171.517C152.83 171.597 152.801 171.665 152.743 171.723C152.685 171.781 152.615 171.81 152.534 171.81ZM154.471 172.236C154.673 172.236 154.853 172.282 155.01 172.374C155.168 172.466 155.292 172.596 155.385 172.762H155.395V172.285H155.846V176.047H155.374V174.633H155.363C155.274 174.796 155.15 174.924 154.991 175.016C154.834 175.108 154.657 175.154 154.46 175.154C154.102 175.154 153.813 175.021 153.595 174.755C153.378 174.49 153.269 174.136 153.269 173.695C153.269 173.252 153.378 172.898 153.597 172.634C153.816 172.369 154.107 172.236 154.471 172.236ZM154.555 174.739C154.797 174.739 154.994 174.643 155.146 174.452C155.298 174.26 155.374 174.008 155.374 173.695C155.374 173.382 155.298 173.13 155.146 172.938C154.994 172.747 154.797 172.651 154.555 172.651C154.307 172.651 154.111 172.745 153.966 172.933C153.823 173.119 153.752 173.373 153.752 173.695C153.752 174.017 153.823 174.272 153.966 174.46C154.111 174.646 154.307 174.739 154.555 174.739ZM158.778 172.285V175.105H158.33V174.647H158.319C158.144 174.985 157.846 175.154 157.424 175.154C157.119 175.154 156.879 175.062 156.706 174.878C156.534 174.691 156.448 174.437 156.448 174.115V172.285H156.92V174.031C156.92 174.501 157.137 174.736 157.571 174.736C157.799 174.736 157.978 174.665 158.108 174.522C158.24 174.378 158.306 174.184 158.306 173.942V172.285H158.778ZM160.522 172.645C160.303 172.645 160.121 172.721 159.977 172.873C159.834 173.023 159.755 173.217 159.741 173.454H161.273C161.268 173.215 161.196 173.02 161.059 172.87C160.921 172.72 160.742 172.645 160.522 172.645ZM161.262 174.297H161.726C161.684 174.547 161.554 174.752 161.335 174.913C161.118 175.074 160.857 175.154 160.552 175.154C160.148 175.154 159.831 175.024 159.6 174.764C159.368 174.503 159.252 174.151 159.252 173.706C159.252 173.265 159.368 172.909 159.6 172.64C159.833 172.37 160.143 172.236 160.53 172.236C160.91 172.236 161.21 172.363 161.43 172.618C161.651 172.873 161.761 173.215 161.761 173.643V173.822H159.738V173.85C159.738 174.121 159.812 174.338 159.96 174.501C160.109 174.663 160.309 174.745 160.562 174.745C160.74 174.745 160.891 174.704 161.015 174.623C161.14 174.541 161.222 174.433 161.262 174.297Z" fill="#262626"/>
<g clip-path="url(#clip4_745:3156)">
<path d="M121.969 174.833H123.731V173.772H121.969V174.833ZM122.85 174.126C122.947 174.126 123.026 174.205 123.026 174.303C123.026 174.4 122.947 174.479 122.85 174.479C122.753 174.479 122.674 174.4 122.674 174.303C122.674 174.205 122.753 174.126 122.85 174.126Z" fill="url(#paint11_linear_745:3156)"/>
<path d="M125.289 171.298C124.361 171.298 123.8 171.124 123.492 170.979C123.178 170.83 123.06 170.681 123.049 170.667C122.985 170.567 122.845 170.558 122.769 170.654C122.759 170.665 122.616 170.82 122.271 170.973C121.939 171.121 121.346 171.298 120.41 171.298C120.313 171.298 120.234 171.377 120.234 171.474V174.303C120.234 175.022 120.688 175.649 121.546 176.115C122.129 176.432 122.781 176.601 122.85 176.601C122.912 176.601 123.556 176.44 124.154 176.115C125.012 175.649 125.466 175.022 125.466 174.303V171.474C125.466 171.377 125.387 171.298 125.289 171.298V171.298ZM124.083 175.01C124.083 175.107 124.004 175.187 123.907 175.187H121.793C121.695 175.187 121.616 175.107 121.616 175.01V173.596C121.616 173.498 121.695 173.419 121.793 173.419H121.969V172.883C121.969 172.414 122.342 172.005 122.855 172.005C123.338 172.005 123.73 172.399 123.73 172.883C123.73 172.98 123.651 173.059 123.554 173.059C123.457 173.059 123.378 172.98 123.378 172.883C123.378 172.606 123.16 172.358 122.845 172.358C122.556 172.358 122.322 172.593 122.322 172.883V173.419H123.907C124.004 173.419 124.083 173.498 124.083 173.596V175.01Z" fill="url(#paint12_linear_745:3156)"/>
</g>
<g clip-path="url(#clip5_745:3156)">
<path d="M124.793 161.236C124.523 160.526 123.838 160.022 123.034 160.022C122.231 160.022 121.545 160.526 121.276 161.236C120.772 161.368 120.4 161.826 120.4 162.372C120.4 163.022 120.926 163.548 121.575 163.548H124.491C125.14 163.548 125.666 163.022 125.666 162.372C125.666 161.828 125.295 161.369 124.793 161.236Z" fill="url(#paint13_linear_745:3156)"/>
</g>
<path d="M136.921 90.1459C136.921 98.4815 134.866 106.688 130.936 114.04C127.007 121.391 121.325 127.66 114.394 132.291C107.464 136.922 99.4975 139.772 91.202 140.59C82.9065 141.407 74.5375 140.165 66.8364 136.975C59.1353 133.785 52.3397 128.745 47.0516 122.302C41.7635 115.858 38.1462 108.21 36.52 100.035C34.8938 91.8591 35.3089 83.4087 37.7286 75.432C40.1483 67.4553 44.4979 60.1984 50.3921 54.3042L86.2337 90.1459H136.921Z" fill="url(#paint14_linear_745:3156)"/>
<path d="M129.923 64.4462C134.405 72.0659 136.817 80.7253 136.918 89.5649C137.019 98.4046 134.807 107.117 130.501 114.837L86.2337 90.1459L129.923 64.4462Z" fill="url(#paint15_linear_745:3156)"/>
<path d="M48.046 51.9571C47.2758 51.1868 47.2734 49.9352 48.0706 49.1929C53.8392 43.8209 60.6935 39.7358 68.1795 37.2191C76.2893 34.4927 84.9202 33.681 93.3961 34.8475C101.872 36.0139 109.963 39.127 117.035 43.9427C123.562 48.3881 129.058 54.1728 133.161 60.9033C133.728 61.8334 133.388 63.0379 132.438 63.5714L106.096 78.3711C105.146 78.9047 103.951 78.561 103.332 77.6649C101.847 75.5159 99.9756 73.6541 97.8073 72.1776C95.0943 70.3301 91.9905 69.1358 88.7388 68.6883C85.4872 68.2408 82.1761 68.5523 79.0649 69.5982C76.5784 70.4341 74.2735 71.7211 72.2633 73.3891C71.4251 74.0847 70.1817 74.0927 69.4114 73.3225L48.046 51.9571Z" fill="url(#paint16_linear_745:3156)"/>
<path d="M88.2337 53.5297V52.716H86.2673V52.2739C86.4354 51.961 86.6488 51.6039 86.9074 51.2025C87.1677 50.8011 87.5267 50.2722 87.9842 49.6158H88.7056V52.2874H89.2589V52.716H88.7056V53.5297H88.2337ZM86.75 52.2766V52.2874H88.2337V50.0226H88.2255C87.5402 51.0009 87.0484 51.7522 86.75 52.2766ZM91.3124 53.5948C90.8585 53.5948 90.5041 53.4139 90.2491 53.0523C89.996 52.6888 89.8694 52.1952 89.8694 51.5714C89.8694 50.953 89.9969 50.462 90.2519 50.0986C90.5086 49.7333 90.8621 49.5507 91.3124 49.5507C91.7626 49.5507 92.1143 49.7324 92.3675 50.0959C92.6224 50.4575 92.7499 50.9484 92.7499 51.5687C92.7499 52.1925 92.6233 52.6861 92.3702 53.0496C92.117 53.413 91.7644 53.5948 91.3124 53.5948ZM90.6099 52.7404C90.7762 53.0261 91.0104 53.1689 91.3124 53.1689C91.6143 53.1689 91.8476 53.027 92.0121 52.7431C92.1767 52.4574 92.259 52.0668 92.259 51.5714C92.259 51.0832 92.1758 50.6962 92.0094 50.4105C91.8431 50.123 91.6107 49.9792 91.3124 49.9792C91.014 49.9792 90.7808 50.123 90.6126 50.4105C90.4444 50.698 90.3603 51.0841 90.3603 51.5687C90.3603 52.0641 90.4435 52.4547 90.6099 52.7404ZM96.1 49.8328C96.2501 50.01 96.3251 50.246 96.3251 50.5407C96.3251 50.8354 96.2501 51.0714 96.1 51.2486C95.9499 51.4258 95.751 51.5144 95.5033 51.5144C95.2556 51.5144 95.0567 51.4258 94.9066 51.2486C94.7565 51.0714 94.6815 50.8354 94.6815 50.5407C94.6815 50.246 94.7565 50.01 94.9066 49.8328C95.0567 49.6556 95.2556 49.567 95.5033 49.567C95.751 49.567 95.9499 49.6556 96.1 49.8328ZM95.2185 51.0126C95.289 51.1266 95.384 51.1835 95.5033 51.1835C95.6227 51.1835 95.7167 51.1266 95.7854 51.0126C95.8559 50.8969 95.8912 50.7396 95.8912 50.5407C95.8912 50.3418 95.8559 50.1854 95.7854 50.0715C95.7167 49.9557 95.6227 49.8979 95.5033 49.8979C95.384 49.8979 95.289 49.9557 95.2185 50.0715C95.1498 50.1854 95.1155 50.3418 95.1155 50.5407C95.1155 50.7396 95.1498 50.8969 95.2185 51.0126ZM95.384 53.5297H94.912L96.4228 51.4656L97.7762 49.6158H98.2428L96.7727 51.6283L95.384 53.5297ZM98.2509 51.8887C98.401 52.0659 98.476 52.3019 98.476 52.5966C98.476 52.8914 98.401 53.1273 98.2509 53.3045C98.1008 53.4817 97.9019 53.5703 97.6542 53.5703C97.4065 53.5703 97.2076 53.4817 97.0575 53.3045C96.9074 53.1273 96.8324 52.8914 96.8324 52.5966C96.8324 52.3019 96.9074 52.0659 97.0575 51.8887C97.2076 51.7115 97.4065 51.6229 97.6542 51.6229C97.9019 51.6229 98.1008 51.7115 98.2509 51.8887ZM97.3694 53.0686C97.4399 53.1825 97.5348 53.2394 97.6542 53.2394C97.7735 53.2394 97.8676 53.1825 97.9363 53.0686C98.0068 52.9528 98.042 52.7955 98.042 52.5966C98.042 52.3977 98.0068 52.2413 97.9363 52.1274C97.8676 52.0117 97.7735 51.9538 97.6542 51.9538C97.5348 51.9538 97.4399 52.0117 97.3694 52.1274C97.3007 52.2413 97.2663 52.3977 97.2663 52.5966C97.2663 52.7955 97.3007 52.9528 97.3694 53.0686Z" fill="white"/>
<path d="M118.03 88.4296C118.03 88.0879 118.153 87.804 118.399 87.5779C118.645 87.3501 118.952 87.2362 119.321 87.2362C119.67 87.2362 119.965 87.3402 120.208 87.5481C120.45 87.756 120.571 88.0101 120.571 88.3103C120.571 88.5272 120.511 88.7361 120.392 88.9368C120.273 89.1375 120.049 89.4078 119.719 89.7478L118.73 90.7703V90.7812H120.636V91.2151H118.054V90.8788L119.432 89.4277C119.694 89.1511 119.868 88.9413 119.953 88.7985C120.04 88.6556 120.083 88.5028 120.083 88.3401C120.083 88.152 120.007 87.992 119.855 87.86C119.705 87.728 119.522 87.662 119.307 87.662C119.078 87.662 118.886 87.7352 118.732 87.8817C118.579 88.0282 118.502 88.2108 118.502 88.4296V88.4323H118.03V88.4296ZM122.776 91.2802C122.323 91.2802 121.968 91.0994 121.713 90.7378C121.46 90.3743 121.334 89.8807 121.334 89.2569C121.334 88.6385 121.461 88.1475 121.716 87.7841C121.973 87.4188 122.326 87.2362 122.776 87.2362C123.227 87.2362 123.578 87.4179 123.832 87.7814C124.087 88.143 124.214 88.6339 124.214 89.2541C124.214 89.878 124.087 90.3716 123.834 90.7351C123.581 91.0985 123.229 91.2802 122.776 91.2802ZM122.074 90.4259C122.24 90.7116 122.475 90.8544 122.776 90.8544C123.078 90.8544 123.312 90.7125 123.476 90.4286C123.641 90.1429 123.723 89.7523 123.723 89.2569C123.723 88.7686 123.64 88.3817 123.474 88.096C123.307 87.8085 123.075 87.6647 122.776 87.6647C122.478 87.6647 122.245 87.8085 122.077 88.096C121.909 88.3835 121.824 88.7695 121.824 89.2541C121.824 89.7496 121.908 90.1402 122.074 90.4259ZM127.564 87.5183C127.714 87.6955 127.789 87.9314 127.789 88.2262C127.789 88.5209 127.714 88.7569 127.564 88.9341C127.414 89.1113 127.215 89.1999 126.967 89.1999C126.72 89.1999 126.521 89.1113 126.371 88.9341C126.221 88.7569 126.146 88.5209 126.146 88.2262C126.146 87.9314 126.221 87.6955 126.371 87.5183C126.521 87.3411 126.72 87.2525 126.967 87.2525C127.215 87.2525 127.414 87.3411 127.564 87.5183ZM126.683 88.6981C126.753 88.812 126.848 88.869 126.967 88.869C127.087 88.869 127.181 88.812 127.25 88.6981C127.32 88.5824 127.355 88.4251 127.355 88.2262C127.355 88.0273 127.32 87.8709 127.25 87.7569C127.181 87.6412 127.087 87.5834 126.967 87.5834C126.848 87.5834 126.753 87.6412 126.683 87.7569C126.614 87.8709 126.58 88.0273 126.58 88.2262C126.58 88.4251 126.614 88.5824 126.683 88.6981ZM126.848 91.2151H126.376L127.887 89.1511L129.24 87.3013H129.707L128.237 89.3138L126.848 91.2151ZM129.715 89.5742C129.865 89.7514 129.94 89.9874 129.94 90.2821C129.94 90.5769 129.865 90.8128 129.715 90.99C129.565 91.1672 129.366 91.2558 129.118 91.2558C128.871 91.2558 128.672 91.1672 128.522 90.99C128.372 90.8128 128.296 90.5769 128.296 90.2821C128.296 89.9874 128.372 89.7514 128.522 89.5742C128.672 89.397 128.871 89.3084 129.118 89.3084C129.366 89.3084 129.565 89.397 129.715 89.5742ZM128.834 90.7541C128.904 90.868 128.999 90.9249 129.118 90.9249C129.238 90.9249 129.332 90.868 129.4 90.7541C129.471 90.6383 129.506 90.481 129.506 90.2821C129.506 90.0832 129.471 89.9268 129.4 89.8129C129.332 89.6972 129.238 89.6393 129.118 89.6393C128.999 89.6393 128.904 89.6972 128.834 89.8129C128.765 89.9268 128.73 90.0832 128.73 90.2821C128.73 90.481 128.765 90.6383 128.834 90.7541Z" fill="white"/>
<path d="M69.5219 137.999C62.8242 135.66 56.6922 131.941 51.5224 127.083L86.2337 90.1459L69.5219 137.999Z" fill="url(#paint17_linear_745:3156)"/>
<path d="M124.76 123.084C118.122 130.848 109.293 136.425 99.431 139.085C89.5685 141.745 79.1326 141.362 69.4911 137.988L86.2337 90.1454L124.76 123.084Z" fill="url(#paint18_linear_745:3156)"/>
<path d="M130.586 114.684C128.888 117.754 126.875 120.639 124.581 123.293L86.2338 90.1455L130.586 114.684Z" fill="url(#paint19_linear_745:3156)"/>
<path d="M130.586 114.684C128.888 117.754 126.875 120.639 124.581 123.293L86.2338 90.1455L130.586 114.684Z" fill="url(#paint20_linear_745:3156)"/>
<circle cx="85.666" cy="90.715" r="25.0591" fill="white"/>
<path d="M91.9812 127.848V124.452H91.9703L90.9342 125.198V124.682L91.9758 123.934H92.4531V127.848H91.9812ZM94.9975 127.913C94.5834 127.913 94.2435 127.808 93.9777 127.598C93.7118 127.387 93.5789 127.117 93.5789 126.79C93.5789 126.546 93.6558 126.331 93.8095 126.147C93.9632 125.963 94.1666 125.841 94.4198 125.784V125.773C94.2082 125.708 94.0409 125.597 93.918 125.442C93.795 125.285 93.7335 125.103 93.7335 124.897C93.7335 124.602 93.8529 124.357 94.0916 124.162C94.3321 123.966 94.634 123.869 94.9975 123.869C95.3627 123.869 95.6638 123.966 95.9007 124.162C96.1394 124.355 96.2587 124.601 96.2587 124.899C96.2587 125.104 96.1981 125.284 96.077 125.439C95.9558 125.595 95.7886 125.706 95.5752 125.773V125.784C95.8284 125.843 96.0318 125.965 96.1855 126.15C96.341 126.334 96.4187 126.548 96.4187 126.79C96.4187 127.117 96.2858 127.387 96.02 127.598C95.7542 127.808 95.4134 127.913 94.9975 127.913ZM94.9975 127.487C95.2669 127.487 95.4875 127.418 95.6593 127.281C95.8329 127.143 95.9197 126.968 95.9197 126.755C95.9197 126.539 95.8329 126.363 95.6593 126.226C95.4875 126.088 95.2669 126.02 94.9975 126.02C94.7281 126.02 94.5066 126.089 94.333 126.228C94.1612 126.366 94.0753 126.541 94.0753 126.755C94.0753 126.968 94.1621 127.143 94.3357 127.281C94.5093 127.418 94.7299 127.487 94.9975 127.487ZM94.9975 125.591C95.2253 125.591 95.4116 125.53 95.5562 125.409C95.7027 125.288 95.7759 125.133 95.7759 124.943C95.7759 124.751 95.7036 124.595 95.5589 124.474C95.4143 124.351 95.2271 124.289 94.9975 124.289C94.7678 124.289 94.5807 124.351 94.436 124.474C94.2914 124.595 94.2191 124.751 94.2191 124.943C94.2191 125.133 94.2914 125.288 94.436 125.409C94.5807 125.53 94.7678 125.591 94.9975 125.591ZM99.7716 124.151C99.9217 124.328 99.9967 124.564 99.9967 124.859C99.9967 125.153 99.9217 125.389 99.7716 125.567C99.6215 125.744 99.4226 125.832 99.1749 125.832C98.9271 125.832 98.7282 125.744 98.5782 125.567C98.4281 125.389 98.353 125.153 98.353 124.859C98.353 124.564 98.4281 124.328 98.5782 124.151C98.7282 123.974 98.9271 123.885 99.1749 123.885C99.4226 123.885 99.6215 123.974 99.7716 124.151ZM98.8901 125.331C98.9606 125.445 99.0555 125.502 99.1749 125.502C99.2942 125.502 99.3882 125.445 99.457 125.331C99.5275 125.215 99.5627 125.058 99.5627 124.859C99.5627 124.66 99.5275 124.503 99.457 124.389C99.3882 124.274 99.2942 124.216 99.1749 124.216C99.0555 124.216 98.9606 124.274 98.8901 124.389C98.8214 124.503 98.787 124.66 98.787 124.859C98.787 125.058 98.8214 125.215 98.8901 125.331ZM99.0555 127.848H98.5836L100.094 125.784L101.448 123.934H101.914L100.444 125.946L99.0555 127.848ZM101.922 126.207C102.073 126.384 102.148 126.62 102.148 126.915C102.148 127.209 102.073 127.445 101.922 127.623C101.772 127.8 101.573 127.888 101.326 127.888C101.078 127.888 100.879 127.8 100.729 127.623C100.579 127.445 100.504 127.209 100.504 126.915C100.504 126.62 100.579 126.384 100.729 126.207C100.879 126.03 101.078 125.941 101.326 125.941C101.573 125.941 101.772 126.03 101.922 126.207ZM101.041 127.387C101.111 127.5 101.206 127.557 101.326 127.557C101.445 127.557 101.539 127.5 101.608 127.387C101.678 127.271 101.714 127.114 101.714 126.915C101.714 126.716 101.678 126.559 101.608 126.445C101.539 126.33 101.445 126.272 101.326 126.272C101.206 126.272 101.111 126.33 101.041 126.445C100.972 126.559 100.938 126.716 100.938 126.915C100.938 127.114 100.972 127.271 101.041 127.387Z" fill="white"/>
<path d="M114.144 110.266C114.144 109.925 114.267 109.641 114.513 109.415C114.759 109.187 115.066 109.073 115.435 109.073C115.784 109.073 116.08 109.177 116.322 109.385C116.564 109.593 116.685 109.847 116.685 110.147C116.685 110.364 116.626 110.573 116.506 110.774C116.387 110.974 116.163 111.245 115.834 111.585L114.844 112.607V112.618H116.75V113.052H114.168V112.716L115.546 111.264C115.808 110.988 115.982 110.778 116.067 110.635C116.154 110.492 116.197 110.34 116.197 110.177C116.197 109.989 116.121 109.829 115.969 109.697C115.819 109.565 115.637 109.499 115.421 109.499C115.192 109.499 115 109.572 114.846 109.718C114.693 109.865 114.616 110.048 114.616 110.266V110.269H114.144V110.266ZM120.103 109.355C120.253 109.532 120.328 109.768 120.328 110.063C120.328 110.358 120.253 110.594 120.103 110.771C119.953 110.948 119.754 111.037 119.507 111.037C119.259 111.037 119.06 110.948 118.91 110.771C118.76 110.594 118.685 110.358 118.685 110.063C118.685 109.768 118.76 109.532 118.91 109.355C119.06 109.178 119.259 109.089 119.507 109.089C119.754 109.089 119.953 109.178 120.103 109.355ZM119.222 110.535C119.292 110.649 119.387 110.706 119.507 110.706C119.626 110.706 119.72 110.649 119.789 110.535C119.859 110.419 119.894 110.262 119.894 110.063C119.894 109.864 119.859 109.708 119.789 109.594C119.72 109.478 119.626 109.42 119.507 109.42C119.387 109.42 119.292 109.478 119.222 109.594C119.153 109.708 119.119 109.864 119.119 110.063C119.119 110.262 119.153 110.419 119.222 110.535ZM119.387 113.052H118.915L120.426 110.988L121.779 109.138H122.246L120.776 111.151L119.387 113.052ZM122.254 111.411C122.404 111.588 122.479 111.824 122.479 112.119C122.479 112.414 122.404 112.65 122.254 112.827C122.104 113.004 121.905 113.093 121.657 113.093C121.41 113.093 121.211 113.004 121.061 112.827C120.911 112.65 120.836 112.414 120.836 112.119C120.836 111.824 120.911 111.588 121.061 111.411C121.211 111.234 121.41 111.145 121.657 111.145C121.905 111.145 122.104 111.234 122.254 111.411ZM121.373 112.591C121.443 112.705 121.538 112.762 121.657 112.762C121.777 112.762 121.871 112.705 121.94 112.591C122.01 112.475 122.045 112.318 122.045 112.119C122.045 111.92 122.01 111.764 121.94 111.65C121.871 111.534 121.777 111.476 121.657 111.476C121.538 111.476 121.443 111.534 121.373 111.65C121.304 111.764 121.27 111.92 121.27 112.119C121.27 112.318 121.304 112.475 121.373 112.591Z" fill="white"/>
<path d="M62.9541 125.992C62.5798 125.992 62.267 125.887 62.0157 125.675C61.7661 125.463 61.6314 125.191 61.6115 124.859H62.0916C62.1133 125.067 62.2046 125.237 62.3656 125.369C62.5265 125.499 62.7245 125.564 62.9595 125.564C63.2254 125.564 63.4414 125.481 63.6078 125.314C63.776 125.148 63.86 124.933 63.86 124.669C63.86 124.405 63.776 124.189 63.6078 124.02C63.4414 123.851 63.2281 123.766 62.9677 123.766C62.7851 123.766 62.6196 123.804 62.4713 123.882C62.3231 123.96 62.2091 124.068 62.1296 124.205H61.6712L61.8855 122.013H64.1258V122.447H62.2869L62.1676 123.722H62.1784C62.267 123.605 62.3882 123.512 62.5419 123.445C62.6974 123.379 62.8682 123.345 63.0545 123.345C63.4306 123.345 63.7398 123.469 63.9821 123.717C64.2262 123.963 64.3483 124.275 64.3483 124.655C64.3483 125.048 64.2181 125.369 63.9577 125.618C63.6973 125.868 63.3628 125.992 62.9541 125.992ZM67.6468 122.23C67.7969 122.408 67.872 122.644 67.872 122.938C67.872 123.233 67.7969 123.469 67.6468 123.646C67.4968 123.823 67.2979 123.912 67.0501 123.912C66.8024 123.912 66.6035 123.823 66.4534 123.646C66.3033 123.469 66.2283 123.233 66.2283 122.938C66.2283 122.644 66.3033 122.408 66.4534 122.23C66.6035 122.053 66.8024 121.965 67.0501 121.965C67.2979 121.965 67.4968 122.053 67.6468 122.23ZM66.7653 123.41C66.8359 123.524 66.9308 123.581 67.0501 123.581C67.1695 123.581 67.2635 123.524 67.3322 123.41C67.4027 123.294 67.438 123.137 67.438 122.938C67.438 122.739 67.4027 122.583 67.3322 122.469C67.2635 122.353 67.1695 122.295 67.0501 122.295C66.9308 122.295 66.8359 122.353 66.7653 122.469C66.6966 122.583 66.6623 122.739 66.6623 122.938C66.6623 123.137 66.6966 123.294 66.7653 123.41ZM66.9308 125.927H66.4589L67.9696 123.863L69.3231 122.013H69.7896L68.3195 124.026L66.9308 125.927ZM69.7977 124.286C69.9478 124.464 70.0228 124.699 70.0228 124.994C70.0228 125.289 69.9478 125.525 69.7977 125.702C69.6476 125.879 69.4487 125.968 69.201 125.968C68.9533 125.968 68.7544 125.879 68.6043 125.702C68.4542 125.525 68.3792 125.289 68.3792 124.994C68.3792 124.699 68.4542 124.464 68.6043 124.286C68.7544 124.109 68.9533 124.02 69.201 124.02C69.4487 124.02 69.6476 124.109 69.7977 124.286ZM68.9162 125.466C68.9867 125.58 69.0817 125.637 69.201 125.637C69.3203 125.637 69.4144 125.58 69.4831 125.466C69.5536 125.35 69.5889 125.193 69.5889 124.994C69.5889 124.795 69.5536 124.639 69.4831 124.525C69.4144 124.409 69.3203 124.351 69.201 124.351C69.0817 124.351 68.9867 124.409 68.9162 124.525C68.8475 124.639 68.8131 124.795 68.8131 124.994C68.8131 125.193 68.8475 125.35 68.9162 125.466Z" fill="white"/>
<path d="M43.2638 88.2253V87.8131H43.733C43.9573 87.8131 44.1408 87.7489 44.2836 87.6205C44.4265 87.4903 44.4979 87.3258 44.4979 87.1268C44.4979 86.9279 44.4319 86.7697 44.2999 86.6522C44.1679 86.5347 43.9808 86.4759 43.7385 86.4759C43.5143 86.4759 43.3316 86.5356 43.1906 86.6549C43.0495 86.7742 42.9682 86.937 42.9465 87.1431H42.4772C42.5044 86.8104 42.6328 86.5455 42.8624 86.3484C43.0938 86.1513 43.3931 86.0528 43.7602 86.0528C44.1128 86.0528 44.4057 86.1477 44.639 86.3376C44.8722 86.5274 44.9889 86.7688 44.9889 87.0618C44.9889 87.3059 44.9165 87.5111 44.7719 87.6774C44.6272 87.8438 44.4319 87.9487 44.186 87.9921V88.0029C44.4826 88.021 44.7185 88.1159 44.8939 88.2877C45.0693 88.4577 45.157 88.6801 45.157 88.9549C45.157 89.1737 45.0955 89.3708 44.9726 89.5462C44.8496 89.7216 44.6833 89.8572 44.4735 89.9531C44.2638 90.0489 44.0314 90.0968 43.7764 90.0968C43.3714 90.0968 43.045 89.9956 42.7973 89.7931C42.5496 89.5905 42.4167 89.3247 42.3986 88.9956H42.8678C42.8895 89.2 42.9808 89.3645 43.1418 89.4893C43.3027 89.6122 43.5124 89.6737 43.771 89.6737C44.0296 89.6737 44.2421 89.6077 44.4084 89.4757C44.5766 89.3437 44.6607 89.1756 44.6607 88.9712C44.6607 88.7416 44.5793 88.5599 44.4166 88.426C44.2556 88.2922 44.035 88.2253 43.7547 88.2253H43.2638ZM47.3759 90.0995C47.083 90.0995 46.8244 90.0236 46.6002 89.8717C46.376 89.718 46.2033 89.5001 46.0821 89.218C45.9537 88.9215 45.8895 88.5626 45.8895 88.1413C45.8895 87.4813 46.0225 86.9677 46.2883 86.6007C46.5559 86.2336 46.9293 86.0501 47.4084 86.0501C47.7412 86.0501 48.025 86.1423 48.2601 86.3267C48.4952 86.5112 48.6444 86.7571 48.7076 87.0645H48.2113C48.1589 86.8873 48.0594 86.7462 47.9129 86.6413C47.7665 86.5347 47.5965 86.4813 47.403 86.4813C47.0757 86.4813 46.8226 86.6215 46.6436 86.9017C46.4646 87.182 46.3705 87.5825 46.3615 88.1033H46.3696C46.4582 87.9116 46.602 87.7579 46.8009 87.6422C46.9998 87.5265 47.2204 87.4686 47.4627 87.4686C47.8352 87.4686 48.1444 87.5916 48.3903 87.8375C48.638 88.0834 48.7619 88.3917 48.7619 88.7624C48.7619 89.1493 48.6308 89.4694 48.3686 89.7225C48.1082 89.9739 47.7773 90.0995 47.3759 90.0995ZM46.7358 89.4052C46.9094 89.5788 47.1209 89.6656 47.3705 89.6656C47.62 89.6656 47.8316 89.5797 48.0052 89.4079C48.1787 89.2361 48.2655 89.0264 48.2655 88.7786C48.2655 88.5219 48.1824 88.3112 48.016 88.1467C47.8496 87.9803 47.6372 87.8971 47.3786 87.8971C47.12 87.8971 46.9049 87.9794 46.7331 88.144C46.5631 88.3085 46.4781 88.5156 46.4781 88.7651C46.4781 89.0164 46.564 89.2298 46.7358 89.4052ZM52.074 86.3349C52.2241 86.5121 52.2992 86.748 52.2992 87.0428C52.2992 87.3375 52.2241 87.5735 52.074 87.7507C51.924 87.9279 51.7251 88.0165 51.4773 88.0165C51.2296 88.0165 51.0307 87.9279 50.8806 87.7507C50.7305 87.5735 50.6555 87.3375 50.6555 87.0428C50.6555 86.748 50.7305 86.5121 50.8806 86.3349C51.0307 86.1576 51.2296 86.069 51.4773 86.069C51.7251 86.069 51.924 86.1576 52.074 86.3349ZM51.1925 87.5147C51.2631 87.6286 51.358 87.6856 51.4773 87.6856C51.5967 87.6856 51.6907 87.6286 51.7594 87.5147C51.8299 87.399 51.8652 87.2417 51.8652 87.0428C51.8652 86.8439 51.8299 86.6875 51.7594 86.5735C51.6907 86.4578 51.5967 86.3999 51.4773 86.3999C51.358 86.3999 51.2631 86.4578 51.1925 86.5735C51.1238 86.6875 51.0895 86.8439 51.0895 87.0428C51.0895 87.2417 51.1238 87.399 51.1925 87.5147ZM51.358 90.0317H50.8861L52.3968 87.9677L53.7503 86.1179H54.2168L52.7467 88.1304L51.358 90.0317ZM54.2249 88.3908C54.375 88.568 54.45 88.804 54.45 89.0987C54.45 89.3934 54.375 89.6294 54.2249 89.8066C54.0748 89.9838 53.8759 90.0724 53.6282 90.0724C53.3805 90.0724 53.1816 89.9838 53.0315 89.8066C52.8814 89.6294 52.8064 89.3934 52.8064 89.0987C52.8064 88.804 52.8814 88.568 53.0315 88.3908C53.1816 88.2136 53.3805 88.125 53.6282 88.125C53.8759 88.125 54.0748 88.2136 54.2249 88.3908ZM53.3434 89.5706C53.4139 89.6846 53.5089 89.7415 53.6282 89.7415C53.7475 89.7415 53.8416 89.6846 53.9103 89.5706C53.9808 89.4549 54.0161 89.2976 54.0161 89.0987C54.0161 88.8998 53.9808 88.7434 53.9103 88.6295C53.8416 88.5137 53.7475 88.4559 53.6282 88.4559C53.5089 88.4559 53.4139 88.5137 53.3434 88.6295C53.2747 88.7434 53.2403 88.8998 53.2403 89.0987C53.2403 89.2976 53.2747 89.4549 53.3434 89.5706Z" fill="white"/>
<defs>
<linearGradient id="paint0_linear_745:3156" x1="65.1716" y1="159.151" x2="65.1716" y2="164.417" gradientUnits="userSpaceOnUse">
<stop stop-color="#FE6C6C"/>
<stop offset="1" stop-color="#FE464B"/>
</linearGradient>
<linearGradient id="paint1_linear_745:3156" x1="66.674" y1="159.591" x2="66.674" y2="160.677" gradientUnits="userSpaceOnUse">
<stop stop-color="#FE6C6C"/>
<stop offset="1" stop-color="#FE464B"/>
</linearGradient>
<linearGradient id="paint2_linear_745:3156" x1="65.1721" y1="171.932" x2="65.1721" y2="176.633" gradientUnits="userSpaceOnUse">
<stop stop-color="#B09FFF"/>
<stop offset="1" stop-color="#8D79F6"/>
</linearGradient>
<linearGradient id="paint3_linear_745:3156" x1="16.6611" y1="171.613" x2="16.6611" y2="175.575" gradientUnits="userSpaceOnUse">
<stop stop-color="#86BEF8"/>
<stop offset="1" stop-color="#5D9FE4"/>
</linearGradient>
<linearGradient id="paint4_linear_745:3156" x1="14.9696" y1="161.411" x2="14.9696" y2="164.044" gradientUnits="userSpaceOnUse">
<stop stop-color="#FFD572"/>
<stop offset="1" stop-color="#FEBD38"/>
</linearGradient>
<linearGradient id="paint5_linear_745:3156" x1="15.1595" y1="159.907" x2="15.1595" y2="161.411" gradientUnits="userSpaceOnUse">
<stop stop-color="#FFD572"/>
<stop offset="1" stop-color="#FEBD38"/>
</linearGradient>
<linearGradient id="paint6_linear_745:3156" x1="18.354" y1="161.411" x2="18.354" y2="164.044" gradientUnits="userSpaceOnUse">
<stop stop-color="#FFD572"/>
<stop offset="1" stop-color="#FEBD38"/>
</linearGradient>
<linearGradient id="paint7_linear_745:3156" x1="18.166" y1="159.907" x2="18.166" y2="161.411" gradientUnits="userSpaceOnUse">
<stop stop-color="#FFD572"/>
<stop offset="1" stop-color="#FEBD38"/>
</linearGradient>
<linearGradient id="paint8_linear_745:3156" x1="16.6634" y1="162.539" x2="16.6634" y2="164.044" gradientUnits="userSpaceOnUse">
<stop stop-color="#FFD572"/>
<stop offset="1" stop-color="#FEBD38"/>
</linearGradient>
<linearGradient id="paint9_linear_745:3156" x1="16.6634" y1="161.411" x2="16.6634" y2="162.539" gradientUnits="userSpaceOnUse">
<stop stop-color="#FFD572"/>
<stop offset="1" stop-color="#FEBD38"/>
</linearGradient>
<linearGradient id="paint10_linear_745:3156" x1="16.6634" y1="158.779" x2="16.6634" y2="160.283" gradientUnits="userSpaceOnUse">
<stop stop-color="#FFD572"/>
<stop offset="1" stop-color="#FEBD38"/>
</linearGradient>
<linearGradient id="paint11_linear_745:3156" x1="122.85" y1="173.772" x2="122.85" y2="174.833" gradientUnits="userSpaceOnUse">
<stop stop-color="#FCAAFD"/>
<stop offset="1" stop-color="#F882F4"/>
</linearGradient>
<linearGradient id="paint12_linear_745:3156" x1="122.85" y1="170.587" x2="122.85" y2="176.601" gradientUnits="userSpaceOnUse">
<stop stop-color="#FCAAFD"/>
<stop offset="1" stop-color="#F882F4"/>
</linearGradient>
<linearGradient id="paint13_linear_745:3156" x1="125.074" y1="160.992" x2="125.074" y2="162.676" gradientUnits="userSpaceOnUse">
<stop stop-color="#78D85B"/>
<stop offset="1" stop-color="#5AB83D"/>
</linearGradient>
<linearGradient id="paint14_linear_745:3156" x1="86.2337" y1="39.4581" x2="86.2337" y2="140.834" gradientUnits="userSpaceOnUse">
<stop stop-color="#90C6FD"/>
<stop offset="1" stop-color="#5398DF"/>
</linearGradient>
<linearGradient id="paint15_linear_745:3156" x1="125.531" y1="67.3649" x2="125.531" y2="115.774" gradientUnits="userSpaceOnUse">
<stop stop-color="#94E37B"/>
<stop offset="1" stop-color="#5AB83D"/>
</linearGradient>
<linearGradient id="paint16_linear_745:3156" x1="85.8401" y1="34.33" x2="85.8401" y2="145.172" gradientUnits="userSpaceOnUse">
<stop stop-color="#FFD572"/>
<stop offset="1" stop-color="#FEBD38"/>
</linearGradient>
<linearGradient id="paint17_linear_745:3156" x1="86.2337" y1="39.4581" x2="86.2337" y2="140.834" gradientUnits="userSpaceOnUse">
<stop stop-color="#FE6C6C"/>
<stop offset="1" stop-color="#FE464B"/>
</linearGradient>
<linearGradient id="paint18_linear_745:3156" x1="82.2824" y1="39.612" x2="90.1849" y2="140.679" gradientUnits="userSpaceOnUse">
<stop stop-color="#B09FFF"/>
<stop offset="1" stop-color="#8D79F6"/>
</linearGradient>
<linearGradient id="paint19_linear_745:3156" x1="72.2233" y1="41.4326" x2="100.244" y2="138.858" gradientUnits="userSpaceOnUse">
<stop stop-color="#FCA5FC"/>
<stop offset="1" stop-color="#F886F5"/>
</linearGradient>
<linearGradient id="paint20_linear_745:3156" x1="108.085" y1="97.4782" x2="162.284" y2="114.107" gradientUnits="userSpaceOnUse">
<stop stop-color="#EC9EED"/>
<stop offset="1" stop-color="#992F9B"/>
</linearGradient>
<clipPath id="clip0_745:3156">
<rect width="6.01772" height="6.01772" fill="white" transform="translate(62.1632 158.776)"/>
</clipPath>
<clipPath id="clip1_745:3156">
<rect width="6.01772" height="6.01772" fill="white" transform="translate(62.1632 171.274)"/>
</clipPath>
<clipPath id="clip2_745:3156">
<rect width="6.01405" height="6.01405" fill="white" transform="translate(13.6533 170.587)"/>
</clipPath>
<clipPath id="clip3_745:3156">
<rect width="6.01772" height="6.01772" fill="white" transform="translate(13.6533 158.402)"/>
</clipPath>
<clipPath id="clip4_745:3156">
<rect width="6.01405" height="6.01405" fill="white" transform="translate(119.835 170.587)"/>
</clipPath>
<clipPath id="clip5_745:3156">
<rect width="6.01772" height="6.01772" fill="white" transform="translate(120.025 158.776)"/>
</clipPath>
</defs>
</svg>
