<svg width="44" height="44" viewBox="0 0 44 44" fill="none" xmlns="http://www.w3.org/2000/svg">
<rect width="43.89" height="43.89" rx="21.945" fill="#66A182"/>
<g clip-path="url(#clip0_856:2508)">
<path d="M33.5905 21.6653C34.0235 21.189 33.9817 20.459 33.4971 20.0352L22.8203 10.693C22.3357 10.2692 21.5588 10.278 21.0844 10.713L10.3713 20.5333C9.8969 20.9682 9.87361 21.6973 10.3198 22.161L10.5884 22.4407C11.034 22.9045 11.7542 22.9598 12.1961 22.5639L12.9967 21.8469V32.3438C12.9967 32.9878 13.5186 33.5092 14.1621 33.5092H18.3381C18.9816 33.5092 19.5035 32.9878 19.5035 32.3438V25.0002H24.83V32.3438C24.8207 32.9874 25.2812 33.5088 25.9248 33.5088H30.3502C30.9938 33.5088 31.5156 32.9874 31.5156 32.3434V21.9947C31.5156 21.9947 31.7368 22.1884 32.0096 22.4282C32.2819 22.6675 32.8539 22.4756 33.287 21.9989L33.5905 21.6653Z" fill="white"/>
</g>
<defs>
<clipPath id="clip0_856:2508">
<rect width="23.89" height="23.89" fill="white" transform="translate(10 10)"/>
</clipPath>
</defs>
</svg>
