<svg width="79" height="25" viewBox="0 0 79 25" fill="none" xmlns="http://www.w3.org/2000/svg">
<path d="M0.28 3V24H4.57V3H0.28ZM2.89 6.63H7.06C8.2 6.63 9.1 6.89 9.76 7.41C10.42 7.91 10.75 8.67 10.75 9.69C10.75 10.69 10.42 11.45 9.76 11.97C9.1 12.49 8.2 12.75 7.06 12.75H2.89V16.38H7.06C8.72 16.38 10.13 16.11 11.29 15.57C12.47 15.03 13.37 14.26 13.99 13.26C14.61 12.24 14.92 11.05 14.92 9.69C14.92 8.31 14.61 7.12 13.99 6.12C13.37 5.12 12.47 4.35 11.29 3.81C10.13 3.27 8.72 3 7.06 3H2.89V6.63ZM20.879 0.599999H16.979V24H20.879V0.599999ZM25.889 15.6V24H29.789V15.03C29.789 13.89 29.619 12.93 29.279 12.15C28.939 11.35 28.419 10.75 27.719 10.35C27.019 9.95 26.129 9.75 25.049 9.75C23.969 9.75 23.059 10.01 22.319 10.53C21.579 11.05 21.019 11.75 20.639 12.63C20.279 13.51 20.099 14.5 20.099 15.6H20.879C20.879 15.02 20.989 14.52 21.209 14.1C21.429 13.68 21.749 13.36 22.169 13.14C22.589 12.9 23.069 12.78 23.609 12.78C24.429 12.78 25.009 13.02 25.349 13.5C25.709 13.98 25.889 14.68 25.889 15.6ZM35.4796 19.71C35.4796 19.31 35.5696 18.98 35.7496 18.72C35.9296 18.44 36.2096 18.23 36.5896 18.09C36.9696 17.93 37.4596 17.85 38.0596 17.85C38.7996 17.85 39.4996 17.95 40.1596 18.15C40.8396 18.35 41.4496 18.65 41.9896 19.05V17.25C41.7896 17.01 41.4596 16.76 40.9996 16.5C40.5396 16.24 39.9696 16.02 39.2896 15.84C38.6296 15.66 37.8596 15.57 36.9796 15.57C35.2596 15.57 33.9296 15.96 32.9896 16.74C32.0496 17.52 31.5796 18.58 31.5796 19.92C31.5796 20.86 31.7996 21.66 32.2396 22.32C32.6996 22.96 33.2996 23.45 34.0396 23.79C34.7796 24.13 35.5796 24.3 36.4396 24.3C37.2796 24.3 38.0796 24.15 38.8396 23.85C39.6196 23.55 40.2496 23.1 40.7296 22.5C41.2296 21.9 41.4796 21.16 41.4796 20.28L40.9996 18.48C40.9996 19.14 40.8496 19.71 40.5496 20.19C40.2496 20.65 39.8596 21.01 39.3796 21.27C38.8996 21.51 38.3596 21.63 37.7596 21.63C37.3396 21.63 36.9496 21.56 36.5896 21.42C36.2496 21.26 35.9796 21.04 35.7796 20.76C35.5796 20.46 35.4796 20.11 35.4796 19.71ZM33.9796 14.1C34.1796 13.96 34.4896 13.79 34.9096 13.59C35.3296 13.39 35.8296 13.22 36.4096 13.08C36.9896 12.94 37.5996 12.87 38.2396 12.87C38.6596 12.87 39.0396 12.91 39.3796 12.99C39.7196 13.07 40.0096 13.2 40.2496 13.38C40.5096 13.56 40.6996 13.79 40.8196 14.07C40.9396 14.33 40.9996 14.65 40.9996 15.03V24H44.7496V14.22C44.7496 13.28 44.4896 12.49 43.9696 11.85C43.4496 11.19 42.7296 10.69 41.8096 10.35C40.8896 10.01 39.8396 9.84 38.6596 9.84C37.3796 9.84 36.2196 10.02 35.1796 10.38C34.1396 10.72 33.2596 11.08 32.5396 11.46L33.9796 14.1ZM51.2741 10.2H47.4641V24H51.2741V10.2ZM55.3241 14.25L57.0941 10.95C56.8141 10.59 56.4441 10.32 55.9841 10.14C55.5441 9.96 55.0741 9.87 54.5741 9.87C53.8541 9.87 53.1541 10.13 52.4741 10.65C51.7941 11.15 51.2441 11.83 50.8241 12.69C50.4041 13.53 50.1941 14.5 50.1941 15.6L51.2741 16.68C51.2741 16.02 51.3541 15.46 51.5141 15C51.6941 14.52 51.9541 14.15 52.2941 13.89C52.6341 13.63 53.0441 13.5 53.5241 13.5C53.9241 13.5 54.2541 13.57 54.5141 13.71C54.7941 13.83 55.0641 14.01 55.3241 14.25ZM64.3241 24.3C65.9841 24.3 67.4041 23.98 68.5841 23.34C69.7841 22.68 70.7441 21.7 71.4641 20.4L68.0741 19.35C67.6741 20.01 67.1641 20.51 66.5441 20.85C65.9441 21.17 65.2141 21.33 64.3541 21.33C63.5941 21.33 62.9441 21.16 62.4041 20.82C61.8641 20.48 61.4541 19.99 61.1741 19.35C60.9141 18.71 60.7841 17.93 60.7841 17.01C60.8041 16.05 60.9441 15.25 61.2041 14.61C61.4841 13.95 61.8741 13.46 62.3741 13.14C62.8941 12.8 63.5341 12.63 64.2941 12.63C64.9141 12.63 65.4541 12.77 65.9141 13.05C66.3741 13.33 66.7241 13.71 66.9641 14.19C67.2241 14.67 67.3541 15.25 67.3541 15.93C67.3541 16.07 67.3141 16.25 67.2341 16.47C67.1741 16.67 67.1041 16.83 67.0241 16.95L68.0741 15.57H59.1041V17.97H71.4641C71.4841 17.85 71.4941 17.69 71.4941 17.49C71.5141 17.29 71.5241 17.1 71.5241 16.92C71.5241 15.44 71.2441 14.18 70.6841 13.14C70.1241 12.08 69.3041 11.28 68.2241 10.74C67.1641 10.18 65.8741 9.9 64.3541 9.9C62.8341 9.9 61.5141 10.2 60.3941 10.8C59.2741 11.38 58.4041 12.21 57.7841 13.29C57.1841 14.35 56.8841 15.62 56.8841 17.1C56.8841 18.56 57.1841 19.83 57.7841 20.91C58.4041 21.97 59.2741 22.8 60.3941 23.4C61.5141 24 62.8241 24.3 64.3241 24.3Z" fill="#374483"/>
<path d="M73.9148 22.23C73.9148 22.87 74.1448 23.43 74.6048 23.91C75.0848 24.39 75.6748 24.63 76.3748 24.63C77.0948 24.63 77.6848 24.39 78.1448 23.91C78.6048 23.43 78.8348 22.87 78.8348 22.23C78.8348 21.55 78.6048 20.98 78.1448 20.52C77.6848 20.04 77.0948 19.8 76.3748 19.8C75.6748 19.8 75.0848 20.04 74.6048 20.52C74.1448 20.98 73.9148 21.55 73.9148 22.23Z" fill="#66A182"/>
</svg>
