<svg width="19" height="19" viewBox="0 0 19 19" fill="none" xmlns="http://www.w3.org/2000/svg">
<path d="M17.8821 0.424249C11.7498 -0.974595 4.36242 1.20645 1.74463 5.19292C0.380107 7.27063 0.497965 9.60442 2.07464 11.7674C2.24963 12.0593 2.45838 12.3293 2.69693 12.5722C3.78218 10.0138 5.69281 7.89255 8.12429 6.5465C8.36943 6.40243 8.68511 6.48446 8.82918 6.72961C8.97325 6.97475 8.89141 7.29043 8.64607 7.4345C6.21441 8.8637 4.59436 10.5531 3.59511 13.1091C2.8955 14.8087 2.42651 16.5943 2.2006 18.4182C2.1676 18.6992 2.36447 18.9553 2.64451 18.9956C2.67826 19 2.71239 19.0011 2.74634 18.9986C2.99111 18.9818 3.18986 18.7948 3.22154 18.5517C3.40804 16.9219 3.81103 15.3243 4.41993 13.8011C5.07994 14.1357 5.78295 14.3774 6.50896 14.5194C6.72846 14.5619 6.94683 14.5954 7.16407 14.6203C9.12298 14.873 11.1004 14.3193 12.6435 13.0866C14.2669 11.3493 14.4225 9.78489 14.5732 8.27196C14.7664 6.32417 14.9671 4.30982 18.1229 1.29905C18.26 1.16817 18.3141 0.972434 18.2637 0.789706C18.2134 0.606977 18.0669 0.466489 17.8821 0.424249Z" fill="#66A182"/>
</svg>
