<svg width="28" height="28" viewBox="0 0 28 28" fill="none" xmlns="http://www.w3.org/2000/svg">
<path d="M3.08639 9.34249C3.68103 7.92327 4.54611 6.63331 5.63341 5.54449C6.71746 4.45378 8.00518 3.5866 9.42345 2.99218C10.8764 2.38029 12.4374 2.06664 14.0139 2.06985H14.0669C15.6704 2.0778 17.2209 2.39585 18.6812 3.02133C20.0873 3.62184 21.363 4.49057 22.4368 5.57895C23.5136 6.66532 24.3687 7.95077 24.9547 9.36369C25.5629 10.833 25.8711 12.409 25.8611 13.9992C25.8531 15.8386 25.4132 17.6647 24.5916 19.2973V23.3259C24.5916 23.9991 24.0456 24.5451 23.375 24.5451H19.3518C17.7115 25.3727 15.9015 25.8082 14.0643 25.8172H14.0086C12.4237 25.8172 10.8891 25.5098 9.442 24.9082C8.03091 24.3208 6.748 23.4638 5.66521 22.385C4.57326 21.301 3.71453 20.0341 3.1129 18.6215C2.49006 17.1584 2.17201 15.6027 2.16406 13.9965C2.15876 12.3825 2.47151 10.8161 3.08639 9.34249ZM19.3041 15.2157C20.0038 15.2157 20.5736 14.6459 20.5736 13.9435C20.5736 13.2412 20.0038 12.6714 19.3041 12.6714C18.6044 12.6714 18.0345 13.2412 18.0345 13.9435C18.0345 14.6459 18.6017 15.2157 19.3041 15.2157ZM14.0139 15.2157C14.7136 15.2157 15.2834 14.6459 15.2834 13.9435C15.2834 13.2412 14.7136 12.6714 14.0139 12.6714C13.3142 12.6714 12.7444 13.2412 12.7444 13.9435C12.7444 14.6459 13.3142 15.2157 14.0139 15.2157ZM8.72375 15.2157C9.42345 15.2157 9.99328 14.6459 9.99328 13.9435C9.99328 13.2412 9.42345 12.6714 8.72375 12.6714C8.02405 12.6714 7.45422 13.2412 7.45422 13.9435C7.45422 14.6459 8.02405 15.2157 8.72375 15.2157Z" fill="#66A182"/>
<circle r="8.14196" transform="matrix(-1 0 0 1 14.0143 13.944)" fill="#66A182"/>
<g clip-path="url(#clip0_1060:2235)">
<path d="M19.1304 10.9274L18.5858 10.3829C18.3615 10.1585 17.9952 10.1585 17.7689 10.3829L12.0585 16.0953L9.0671 13.1039C8.84276 12.8795 8.47649 12.8795 8.25022 13.1039L7.70561 13.6485C7.48127 13.8728 7.48127 14.2391 7.70561 14.4653L11.6481 18.4078C11.7613 18.521 11.907 18.5785 12.0546 18.5785C12.2023 18.5785 12.3499 18.521 12.4612 18.4078L19.1247 11.7443C19.3548 11.5162 19.3548 11.1518 19.1304 10.9274Z" fill="white"/>
</g>
<defs>
<clipPath id="clip0_1060:2235">
<rect width="11.7606" height="11.7606" fill="white" transform="matrix(-1 0 0 1 19.2971 8.51636)"/>
</clipPath>
</defs>
</svg>
