<svg width="75" height="75" viewBox="0 0 75 75" fill="none" xmlns="http://www.w3.org/2000/svg">
<path d="M37.5 4.6875C19.3799 4.6875 4.6875 19.3799 4.6875 37.5C4.6875 55.6201 19.3799 70.3125 37.5 70.3125C55.6201 70.3125 70.3125 55.6201 70.3125 37.5C70.3125 19.3799 55.6201 4.6875 37.5 4.6875ZM51.6724 26.7847L36.2476 48.1714C36.032 48.4723 35.7478 48.7175 35.4185 48.8866C35.0892 49.0558 34.7244 49.144 34.3542 49.144C33.9841 49.144 33.6192 49.0558 33.29 48.8866C32.9607 48.7175 32.6765 48.4723 32.4609 48.1714L23.3276 35.5151C23.0493 35.127 23.3276 34.585 23.8037 34.585H27.2388C27.9858 34.585 28.6963 34.9438 29.1357 35.5591L34.3506 42.7954L45.8643 26.8286C46.3037 26.2207 47.0068 25.8545 47.7612 25.8545H51.1963C51.6724 25.8545 51.9507 26.3965 51.6724 26.7847Z" fill="#66A182"/>
</svg>
