<svg width="212" height="209" viewBox="0 0 212 209" fill="none" xmlns="http://www.w3.org/2000/svg">
<rect x="0.457031" y="0.581787" width="211.393" height="207.819" rx="2.55306" fill="white"/>
<path opacity="0.5" d="M38.5902 167.986V164.626H38.5795L37.5542 165.364V164.854L38.5848 164.113H39.0572V167.986H38.5902ZM40.9654 167.076H41.4458C41.4511 167.241 41.5102 167.375 41.6229 167.479C41.7374 167.581 41.8823 167.632 42.0577 167.632C42.2706 167.632 42.4334 167.57 42.5461 167.447C42.6589 167.321 42.7152 167.141 42.7152 166.905V164.113H43.1983V166.907C43.1983 167.274 43.0981 167.561 42.8977 167.769C42.6973 167.974 42.4182 168.077 42.0604 168.077C41.7383 168.077 41.4753 167.984 41.2713 167.798C41.0674 167.61 40.9654 167.37 40.9654 167.076ZM44.7979 167.637C45.0179 167.637 45.2022 167.569 45.3507 167.433C45.501 167.295 45.5762 167.126 45.5762 166.926V166.698L44.8301 166.743C44.6422 166.756 44.4964 166.802 44.3926 166.88C44.2906 166.959 44.2396 167.065 44.2396 167.197C44.2396 167.329 44.2906 167.436 44.3926 167.516C44.4946 167.597 44.6297 167.637 44.7979 167.637ZM44.6932 168.034C44.4159 168.034 44.1913 167.957 44.0196 167.804C43.8496 167.65 43.7646 167.448 43.7646 167.197C43.7646 166.957 43.8523 166.766 44.0276 166.623C44.2047 166.48 44.4543 166.399 44.7764 166.381L45.5762 166.336V166.102C45.5762 165.932 45.5225 165.799 45.4151 165.702C45.3078 165.606 45.1575 165.557 44.9643 165.557C44.7871 165.557 44.6431 165.597 44.5322 165.675C44.4212 165.752 44.3506 165.861 44.3201 166H43.8693C43.8854 165.751 43.9927 165.547 44.1913 165.388C44.3917 165.227 44.6529 165.147 44.975 165.147C45.3024 165.147 45.5618 165.229 45.7533 165.394C45.9465 165.558 46.0431 165.779 46.0431 166.056V167.986H45.6003V167.506H45.5896C45.5055 167.665 45.382 167.793 45.2192 167.889C45.0564 167.986 44.8811 168.034 44.6932 168.034ZM46.6363 167.986V165.195H47.0764V165.64H47.0872C47.1677 165.485 47.2831 165.364 47.4334 165.278C47.5837 165.19 47.7635 165.147 47.9728 165.147C48.277 165.147 48.514 165.239 48.684 165.423C48.854 165.606 48.939 165.856 48.939 166.175V167.986H48.472V166.258C48.472 166.03 48.4183 165.858 48.311 165.74C48.2036 165.62 48.0435 165.56 47.8306 165.56C47.6105 165.56 47.4343 165.631 47.3019 165.775C47.1695 165.918 47.1033 166.107 47.1033 166.344V167.986H46.6363Z" fill="#454459"/>
<path opacity="0.5" d="M14.9057 152.655V149.295H14.895L13.8698 150.033V149.523L14.9004 148.782H15.3727V152.655H14.9057ZM17.7103 152.72C17.2612 152.72 16.9105 152.541 16.6583 152.183C16.4078 151.823 16.2825 151.335 16.2825 150.717C16.2825 150.105 16.4087 149.62 16.6609 149.26C16.915 148.899 17.2648 148.718 17.7103 148.718C18.1558 148.718 18.5038 148.898 18.7543 149.257C19.0066 149.615 19.1327 150.101 19.1327 150.715C19.1327 151.332 19.0075 151.82 18.757 152.18C18.5065 152.54 18.1576 152.72 17.7103 152.72ZM17.0152 151.874C17.1798 152.157 17.4115 152.298 17.7103 152.298C18.0091 152.298 18.2399 152.158 18.4027 151.877C18.5656 151.594 18.647 151.208 18.647 150.717C18.647 150.234 18.5647 149.851 18.4 149.569C18.2354 149.284 18.0055 149.142 17.7103 149.142C17.4151 149.142 17.1843 149.284 17.0179 149.569C16.8515 149.853 16.7683 150.235 16.7683 150.715C16.7683 151.205 16.8506 151.591 17.0152 151.874ZM21.0436 152.72C20.5945 152.72 20.2438 152.541 19.9916 152.183C19.7411 151.823 19.6158 151.335 19.6158 150.717C19.6158 150.105 19.742 149.62 19.9942 149.26C20.2483 148.899 20.5981 148.718 21.0436 148.718C21.4891 148.718 21.8371 148.898 22.0876 149.257C22.3399 149.615 22.466 150.101 22.466 150.715C22.466 151.332 22.3408 151.82 22.0903 152.18C21.8398 152.54 21.4909 152.72 21.0436 152.72ZM20.3485 151.874C20.5131 152.157 20.7448 152.298 21.0436 152.298C21.3424 152.298 21.5732 152.158 21.736 151.877C21.8988 151.594 21.9803 151.208 21.9803 150.717C21.9803 150.234 21.898 149.851 21.7333 149.569C21.5687 149.284 21.3388 149.142 21.0436 149.142C20.7484 149.142 20.5176 149.284 20.3512 149.569C20.1848 149.853 20.1016 150.235 20.1016 150.715C20.1016 151.205 20.1839 151.591 20.3485 151.874Z" fill="#454459"/>
<path opacity="0.5" d="M13.8306 139.456C13.8306 139.118 13.9523 138.837 14.1956 138.613C14.4389 138.388 14.7431 138.275 15.1081 138.275C15.4534 138.275 15.7459 138.378 15.9857 138.584C16.2254 138.789 16.3453 139.041 16.3453 139.338C16.3453 139.552 16.2863 139.759 16.1682 139.958C16.0501 140.156 15.8282 140.424 15.5026 140.76L14.523 141.772V141.783H16.4097V142.212H13.8547V141.879L15.2181 140.444C15.4776 140.17 15.6493 139.962 15.7334 139.821C15.8193 139.68 15.8622 139.528 15.8622 139.367C15.8622 139.181 15.7871 139.023 15.6368 138.892C15.4883 138.762 15.3076 138.696 15.0947 138.696C14.8674 138.696 14.6778 138.769 14.5257 138.914C14.3736 139.059 14.2976 139.239 14.2976 139.456V139.459H13.8306V139.456ZM18.3233 142.277C17.8742 142.277 17.5235 142.098 17.2712 141.74C17.0207 141.38 16.8955 140.892 16.8955 140.274C16.8955 139.663 17.0216 139.177 17.2739 138.817C17.528 138.456 17.8778 138.275 18.3233 138.275C18.7688 138.275 19.1168 138.455 19.3673 138.814C19.6196 139.172 19.7457 139.658 19.7457 140.272C19.7457 140.889 19.6205 141.377 19.37 141.737C19.1195 142.097 18.7706 142.277 18.3233 142.277ZM17.6282 141.431C17.7928 141.714 18.0245 141.855 18.3233 141.855C18.6221 141.855 18.8529 141.715 19.0157 141.434C19.1785 141.151 19.2599 140.765 19.2599 140.274C19.2599 139.791 19.1776 139.408 19.013 139.126C18.8484 138.841 18.6185 138.699 18.3233 138.699C18.0281 138.699 17.7973 138.841 17.6309 139.126C17.4645 139.41 17.3813 139.792 17.3813 140.272C17.3813 140.762 17.4636 141.148 17.6282 141.431ZM21.6566 142.277C21.2075 142.277 20.8568 142.098 20.6045 141.74C20.354 141.38 20.2288 140.892 20.2288 140.274C20.2288 139.663 20.3549 139.177 20.6072 138.817C20.8613 138.456 21.2111 138.275 21.6566 138.275C22.1021 138.275 22.4501 138.455 22.7006 138.814C22.9529 139.172 23.079 139.658 23.079 140.272C23.079 140.889 22.9538 141.377 22.7033 141.737C22.4528 142.097 22.1039 142.277 21.6566 142.277ZM20.9615 141.431C21.1261 141.714 21.3578 141.855 21.6566 141.855C21.9554 141.855 22.1862 141.715 22.349 141.434C22.5118 141.151 22.5932 140.765 22.5932 140.274C22.5932 139.791 22.5109 139.408 22.3463 139.126C22.1817 138.841 21.9518 138.699 21.6566 138.699C21.3614 138.699 21.1306 138.841 20.9642 139.126C20.7978 139.41 20.7146 139.792 20.7146 140.272C20.7146 140.762 20.7969 141.148 20.9615 141.431Z" fill="#454459"/>
<path opacity="0.5" d="M14.574 129.981V129.573H15.0383C15.2602 129.573 15.4418 129.51 15.5831 129.383C15.7245 129.254 15.7951 129.091 15.7951 128.894C15.7951 128.697 15.7298 128.541 15.5992 128.425C15.4686 128.308 15.2834 128.25 15.0437 128.25C14.8218 128.25 14.6411 128.309 14.5015 128.427C14.362 128.545 14.2815 128.706 14.26 128.91H13.7957C13.8225 128.581 13.9496 128.319 14.1768 128.124C14.4058 127.929 14.7019 127.832 15.0651 127.832C15.414 127.832 15.7039 127.925 15.9347 128.113C16.1655 128.301 16.2809 128.54 16.2809 128.83C16.2809 129.071 16.2093 129.275 16.0662 129.439C15.9231 129.604 15.7298 129.708 15.4865 129.75V129.761C15.7799 129.779 16.0134 129.873 16.187 130.043C16.3605 130.211 16.4473 130.431 16.4473 130.703C16.4473 130.92 16.3865 131.115 16.2648 131.288C16.1431 131.462 15.9785 131.596 15.771 131.691C15.5634 131.786 15.3335 131.833 15.0812 131.833C14.6805 131.833 14.3575 131.733 14.1124 131.533C13.8673 131.332 13.7358 131.069 13.7179 130.743H14.1822C14.2036 130.946 14.294 131.108 14.4532 131.232C14.6125 131.354 14.82 131.414 15.0759 131.414C15.3317 131.414 15.542 131.349 15.7066 131.218C15.873 131.088 15.9562 130.921 15.9562 130.719C15.9562 130.492 15.8757 130.312 15.7146 130.18C15.5554 130.047 15.3371 129.981 15.0598 129.981H14.574ZM18.3931 131.833C17.944 131.833 17.5933 131.654 17.341 131.296C17.0905 130.937 16.9653 130.448 16.9653 129.831C16.9653 129.219 17.0914 128.733 17.3437 128.374C17.5978 128.012 17.9476 127.832 18.3931 127.832C18.8386 127.832 19.1866 128.011 19.4371 128.371C19.6894 128.729 19.8155 129.215 19.8155 129.828C19.8155 130.446 19.6902 130.934 19.4398 131.294C19.1893 131.653 18.8404 131.833 18.3931 131.833ZM17.698 130.988C17.8626 131.27 18.0943 131.412 18.3931 131.412C18.6919 131.412 18.9227 131.271 19.0855 130.99C19.2483 130.708 19.3297 130.321 19.3297 129.831C19.3297 129.348 19.2474 128.965 19.0828 128.682C18.9182 128.398 18.6883 128.256 18.3931 128.256C18.0979 128.256 17.867 128.398 17.7006 128.682C17.5343 128.967 17.4511 129.349 17.4511 129.828C17.4511 130.319 17.5334 130.705 17.698 130.988ZM21.7264 131.833C21.2773 131.833 20.9266 131.654 20.6743 131.296C20.4238 130.937 20.2986 130.448 20.2986 129.831C20.2986 129.219 20.4247 128.733 20.677 128.374C20.9311 128.012 21.2809 127.832 21.7264 127.832C22.1719 127.832 22.5199 128.011 22.7704 128.371C23.0227 128.729 23.1488 129.215 23.1488 129.828C23.1488 130.446 23.0235 130.934 22.7731 131.294C22.5226 131.653 22.1737 131.833 21.7264 131.833ZM21.0313 130.988C21.1959 131.27 21.4276 131.412 21.7264 131.412C22.0252 131.412 22.256 131.271 22.4188 130.99C22.5816 130.708 22.663 130.321 22.663 129.831C22.663 129.348 22.5807 128.965 22.4161 128.682C22.2515 128.398 22.0216 128.256 21.7264 128.256C21.4311 128.256 21.2003 128.398 21.0339 128.682C20.8675 128.967 20.7843 129.349 20.7843 129.828C20.7843 130.319 20.8667 130.705 21.0313 130.988Z" fill="#454459"/>
<path opacity="0.5" d="M15.3654 121.326V120.521H13.4197V120.083C13.5861 119.774 13.7972 119.42 14.0531 119.023C14.3107 118.626 14.6659 118.102 15.1185 117.453H15.8324V120.097H16.3799V120.521H15.8324V121.326H15.3654ZM13.8974 120.086V120.097H15.3654V117.856H15.3574C14.6793 118.824 14.1926 119.567 13.8974 120.086ZM18.2076 121.39C17.7585 121.39 17.4078 121.211 17.1555 120.853C16.9051 120.494 16.7798 120.005 16.7798 119.388C16.7798 118.776 16.906 118.29 17.1582 117.931C17.4123 117.569 17.7621 117.389 18.2076 117.389C18.6531 117.389 19.0011 117.568 19.2516 117.928C19.5039 118.286 19.63 118.772 19.63 119.385C19.63 120.003 19.5048 120.491 19.2543 120.851C19.0038 121.21 18.6549 121.39 18.2076 121.39ZM17.5125 120.545C17.6771 120.827 17.9088 120.969 18.2076 120.969C18.5064 120.969 18.7372 120.828 18.9 120.547C19.0628 120.265 19.1443 119.878 19.1443 119.388C19.1443 118.905 19.062 118.522 18.8973 118.239C18.7327 117.955 18.5028 117.813 18.2076 117.813C17.9124 117.813 17.6816 117.955 17.5152 118.239C17.3488 118.524 17.2656 118.906 17.2656 119.385C17.2656 119.876 17.3479 120.262 17.5125 120.545ZM21.5409 121.39C21.0918 121.39 20.7411 121.211 20.4888 120.853C20.2384 120.494 20.1131 120.005 20.1131 119.388C20.1131 118.776 20.2393 118.29 20.4915 117.931C20.7456 117.569 21.0954 117.389 21.5409 117.389C21.9864 117.389 22.3344 117.568 22.5849 117.928C22.8372 118.286 22.9633 118.772 22.9633 119.385C22.9633 120.003 22.8381 120.491 22.5876 120.851C22.3371 121.21 21.9882 121.39 21.5409 121.39ZM20.8458 120.545C21.0104 120.827 21.2421 120.969 21.5409 120.969C21.8397 120.969 22.0705 120.828 22.2333 120.547C22.3961 120.265 22.4776 119.878 22.4776 119.388C22.4776 118.905 22.3952 118.522 22.2306 118.239C22.066 117.955 21.8361 117.813 21.5409 117.813C21.2457 117.813 21.0149 117.955 20.8485 118.239C20.6821 118.524 20.5989 118.906 20.5989 119.385C20.5989 119.876 20.6812 120.262 20.8458 120.545Z" fill="#454459"/>
<path opacity="0.5" d="M15.1349 110.947C14.7646 110.947 14.455 110.842 14.2063 110.633C13.9594 110.423 13.8261 110.154 13.8064 109.825H14.2815C14.3029 110.031 14.3933 110.199 14.5525 110.329C14.7118 110.458 14.9077 110.523 15.1403 110.523C15.4033 110.523 15.6171 110.44 15.7817 110.276C15.9481 110.111 16.0313 109.898 16.0313 109.637C16.0313 109.376 15.9481 109.162 15.7817 108.996C15.6171 108.827 15.406 108.743 15.1483 108.743C14.9676 108.743 14.8039 108.782 14.6572 108.859C14.5105 108.936 14.3978 109.042 14.319 109.178H13.8655L14.0775 107.01H16.2943V107.439H14.4747L14.3566 108.7H14.3673C14.455 108.584 14.5749 108.493 14.727 108.427C14.8809 108.36 15.0499 108.327 15.2342 108.327C15.6064 108.327 15.9123 108.45 16.1521 108.695C16.3936 108.938 16.5144 109.248 16.5144 109.624C16.5144 110.012 16.3856 110.329 16.1279 110.576C15.8703 110.823 15.5393 110.947 15.1349 110.947ZM18.3743 110.947C17.9252 110.947 17.5745 110.768 17.3222 110.41C17.0717 110.05 16.9465 109.562 16.9465 108.945C16.9465 108.333 17.0726 107.847 17.3249 107.487C17.579 107.126 17.9288 106.945 18.3743 106.945C18.8198 106.945 19.1678 107.125 19.4183 107.485C19.6706 107.842 19.7967 108.328 19.7967 108.942C19.7967 109.559 19.6715 110.048 19.421 110.407C19.1705 110.767 18.8216 110.947 18.3743 110.947ZM17.6792 110.101C17.8438 110.384 18.0755 110.525 18.3743 110.525C18.6731 110.525 18.9039 110.385 19.0667 110.104C19.2295 109.821 19.3109 109.435 19.3109 108.945C19.3109 108.462 19.2286 108.079 19.064 107.796C18.8994 107.511 18.6695 107.369 18.3743 107.369C18.0791 107.369 17.8483 107.511 17.6819 107.796C17.5155 108.08 17.4323 108.462 17.4323 108.942C17.4323 109.432 17.5146 109.819 17.6792 110.101ZM21.7076 110.947C21.2585 110.947 20.9078 110.768 20.6555 110.41C20.405 110.05 20.2798 109.562 20.2798 108.945C20.2798 108.333 20.4059 107.847 20.6582 107.487C20.9123 107.126 21.2621 106.945 21.7076 106.945C22.1531 106.945 22.5011 107.125 22.7516 107.485C23.0039 107.842 23.13 108.328 23.13 108.942C23.13 109.559 23.0048 110.048 22.7543 110.407C22.5038 110.767 22.1549 110.947 21.7076 110.947ZM21.0125 110.101C21.1771 110.384 21.4088 110.525 21.7076 110.525C22.0064 110.525 22.2372 110.385 22.4 110.104C22.5628 109.821 22.6442 109.435 22.6442 108.945C22.6442 108.462 22.5619 108.079 22.3973 107.796C22.2327 107.511 22.0028 107.369 21.7076 107.369C21.4124 107.369 21.1816 107.511 21.0152 107.796C20.8488 108.08 20.7656 108.462 20.7656 108.942C20.7656 109.432 20.8479 109.819 21.0125 110.101Z" fill="#454459"/>
<path opacity="0.5" d="M14.669 100.623C14.3792 100.623 14.1233 100.548 13.9015 100.398C13.6796 100.246 13.5087 100.03 13.3889 99.7508C13.2618 99.4574 13.1983 99.1022 13.1983 98.6854C13.1983 98.0323 13.3298 97.5242 13.5928 97.1609C13.8576 96.7977 14.2271 96.6161 14.7013 96.6161C15.0305 96.6161 15.3114 96.7074 15.544 96.8899C15.7766 97.0724 15.9242 97.3157 15.9868 97.6199H15.4957C15.4438 97.4445 15.3454 97.305 15.2004 97.2012C15.0555 97.0956 14.8873 97.0429 14.6959 97.0429C14.372 97.0429 14.1216 97.1815 13.9444 97.4588C13.7673 97.7362 13.6742 98.1325 13.6653 98.6478H13.6734C13.761 98.4581 13.9033 98.306 14.1001 98.1915C14.2969 98.077 14.5152 98.0198 14.7549 98.0198C15.1235 98.0198 15.4295 98.1414 15.6728 98.3848C15.9179 98.6281 16.0405 98.9332 16.0405 99.2999C16.0405 99.6828 15.9108 99.9995 15.6513 100.25C15.3937 100.499 15.0663 100.623 14.669 100.623ZM14.0357 99.936C14.2074 100.108 14.4168 100.194 14.6637 100.194C14.9106 100.194 15.1199 100.109 15.2917 99.9387C15.4635 99.7687 15.5493 99.5612 15.5493 99.316C15.5493 99.062 15.467 98.8535 15.3024 98.6907C15.1378 98.5261 14.9276 98.4438 14.6717 98.4438C14.4159 98.4438 14.203 98.5252 14.033 98.688C13.8648 98.8509 13.7807 99.0557 13.7807 99.3026C13.7807 99.5513 13.8657 99.7625 14.0357 99.936ZM17.9138 100.62C17.4647 100.62 17.114 100.441 16.8617 100.084C16.6112 99.724 16.486 99.2355 16.486 98.6183C16.486 98.0063 16.6121 97.5206 16.8644 97.1609C17.1185 96.7995 17.4683 96.6188 17.9138 96.6188C18.3593 96.6188 18.7073 96.7986 18.9578 97.1583C19.2101 97.5161 19.3362 98.0019 19.3362 98.6156C19.3362 99.2328 19.211 99.7213 18.9605 100.081C18.71 100.441 18.3611 100.62 17.9138 100.62ZM17.2187 99.775C17.3833 100.058 17.615 100.199 17.9138 100.199C18.2126 100.199 18.4434 100.059 18.6062 99.7777C18.769 99.495 18.8504 99.1085 18.8504 98.6183C18.8504 98.1352 18.7681 97.7523 18.6035 97.4696C18.4389 97.1851 18.209 97.0429 17.9138 97.0429C17.6186 97.0429 17.3878 97.1851 17.2214 97.4696C17.055 97.7541 16.9718 98.1361 16.9718 98.6156C16.9718 99.1058 17.0541 99.4923 17.2187 99.775ZM21.2471 100.62C20.798 100.62 20.4473 100.441 20.195 100.084C19.9445 99.724 19.8193 99.2355 19.8193 98.6183C19.8193 98.0063 19.9454 97.5206 20.1977 97.1609C20.4518 96.7995 20.8016 96.6188 21.2471 96.6188C21.6926 96.6188 22.0406 96.7986 22.2911 97.1583C22.5434 97.5161 22.6695 98.0019 22.6695 98.6156C22.6695 99.2328 22.5443 99.7213 22.2938 100.081C22.0433 100.441 21.6944 100.62 21.2471 100.62ZM20.552 99.775C20.7166 100.058 20.9483 100.199 21.2471 100.199C21.5459 100.199 21.7767 100.059 21.9395 99.7777C22.1023 99.495 22.1837 99.1085 22.1837 98.6183C22.1837 98.1352 22.1014 97.7523 21.9368 97.4696C21.7722 97.1851 21.5423 97.0429 21.2471 97.0429C20.9519 97.0429 20.7211 97.1851 20.5547 97.4696C20.3883 97.7541 20.3051 98.1361 20.3051 98.6156C20.3051 99.1058 20.3874 99.4923 20.552 99.775Z" fill="#454459"/>
<path opacity="0.5" d="M132.929 168.05C132.558 168.05 132.249 167.946 132 167.736C131.753 167.527 131.62 167.258 131.6 166.929H132.075C132.097 167.134 132.187 167.303 132.346 167.433C132.505 167.562 132.701 167.626 132.934 167.626C133.197 167.626 133.411 167.544 133.575 167.38C133.742 167.215 133.825 167.002 133.825 166.741C133.825 166.48 133.742 166.266 133.575 166.099C133.411 165.931 133.2 165.847 132.942 165.847C132.761 165.847 132.598 165.886 132.451 165.962C132.304 166.039 132.191 166.146 132.113 166.282H131.659L131.871 164.113H134.088V164.543H132.268L132.15 165.804H132.161C132.249 165.688 132.369 165.597 132.521 165.53C132.675 165.464 132.844 165.431 133.028 165.431C133.4 165.431 133.706 165.554 133.946 165.799C134.187 166.042 134.308 166.352 134.308 166.727C134.308 167.116 134.179 167.433 133.922 167.68C133.664 167.927 133.333 168.05 132.929 168.05ZM135.739 167.076H136.219C136.224 167.241 136.283 167.375 136.396 167.479C136.511 167.581 136.656 167.632 136.831 167.632C137.044 167.632 137.207 167.57 137.319 167.447C137.432 167.321 137.488 167.141 137.488 166.905V164.113H137.972V166.907C137.972 167.274 137.871 167.561 137.671 167.769C137.471 167.974 137.191 168.077 136.834 168.077C136.512 168.077 136.249 167.984 136.045 167.798C135.841 167.61 135.739 167.37 135.739 167.076ZM139.571 167.637C139.791 167.637 139.975 167.569 140.124 167.433C140.274 167.295 140.349 167.126 140.349 166.926V166.698L139.603 166.743C139.415 166.756 139.27 166.802 139.166 166.88C139.064 166.959 139.013 167.065 139.013 167.197C139.013 167.329 139.064 167.436 139.166 167.516C139.268 167.597 139.403 167.637 139.571 167.637ZM139.466 168.034C139.189 168.034 138.965 167.957 138.793 167.804C138.623 167.65 138.538 167.448 138.538 167.197C138.538 166.957 138.625 166.766 138.801 166.623C138.978 166.48 139.228 166.399 139.55 166.381L140.349 166.336V166.102C140.349 165.932 140.296 165.799 140.188 165.702C140.081 165.606 139.931 165.557 139.737 165.557C139.56 165.557 139.416 165.597 139.305 165.675C139.194 165.752 139.124 165.861 139.093 166H138.642C138.659 165.751 138.766 165.547 138.965 165.388C139.165 165.227 139.426 165.147 139.748 165.147C140.076 165.147 140.335 165.229 140.527 165.394C140.72 165.558 140.816 165.779 140.816 166.056V167.986H140.374V167.506H140.363C140.279 167.665 140.155 167.793 139.992 167.889C139.83 167.986 139.654 168.034 139.466 168.034ZM141.409 167.986V165.195H141.85V165.64H141.86C141.941 165.485 142.056 165.364 142.207 165.278C142.357 165.19 142.537 165.147 142.746 165.147C143.05 165.147 143.287 165.239 143.457 165.423C143.627 165.606 143.712 165.856 143.712 166.175V167.986H143.245V166.258C143.245 166.03 143.192 165.858 143.084 165.74C142.977 165.62 142.817 165.56 142.604 165.56C142.384 165.56 142.207 165.631 142.075 165.775C141.943 165.918 141.876 166.107 141.876 166.344V167.986H141.409Z" fill="#454459"/>
<path opacity="0.5" d="M61.339 165.23C61.339 164.892 61.4607 164.611 61.704 164.387C61.9473 164.162 62.2515 164.049 62.6165 164.049C62.9618 164.049 63.2544 164.152 63.4941 164.358C63.7339 164.563 63.8538 164.815 63.8538 165.112C63.8538 165.326 63.7947 165.533 63.6766 165.732C63.5585 165.93 63.3367 166.198 63.011 166.534L62.0314 167.546V167.557H63.9182V167.986H61.3632V167.653L62.7266 166.217C62.986 165.944 63.1577 165.736 63.2418 165.595C63.3277 165.453 63.3707 165.302 63.3707 165.141C63.3707 164.955 63.2955 164.797 63.1452 164.666C62.9967 164.536 62.816 164.47 62.6031 164.47C62.3759 164.47 62.1862 164.543 62.0341 164.688C61.882 164.833 61.806 165.013 61.806 165.23V165.232H61.339V165.23ZM65.4023 167.076H65.8827C65.8881 167.241 65.9471 167.375 66.0598 167.479C66.1744 167.581 66.3193 167.632 66.4946 167.632C66.7075 167.632 66.8704 167.57 66.9831 167.447C67.0958 167.321 67.1522 167.141 67.1522 166.905V164.113H67.6352V166.907C67.6352 167.274 67.5351 167.561 67.3347 167.769C67.1343 167.974 66.8552 168.077 66.4973 168.077C66.1753 168.077 65.9122 167.984 65.7083 167.798C65.5043 167.61 65.4023 167.37 65.4023 167.076ZM69.2348 167.637C69.4549 167.637 69.6392 167.569 69.7877 167.433C69.938 167.295 70.0131 167.126 70.0131 166.926V166.698L69.267 166.743C69.0791 166.756 68.9333 166.802 68.8295 166.88C68.7276 166.959 68.6766 167.065 68.6766 167.197C68.6766 167.329 68.7276 167.436 68.8295 167.516C68.9315 167.597 69.0666 167.637 69.2348 167.637ZM69.1301 168.034C68.8528 168.034 68.6283 167.957 68.4565 167.804C68.2865 167.65 68.2015 167.448 68.2015 167.197C68.2015 166.957 68.2892 166.766 68.4645 166.623C68.6417 166.48 68.8913 166.399 69.2133 166.381L70.0131 166.336V166.102C70.0131 165.932 69.9594 165.799 69.8521 165.702C69.7447 165.606 69.5944 165.557 69.4012 165.557C69.2241 165.557 69.08 165.597 68.9691 165.675C68.8582 165.752 68.7875 165.861 68.7571 166H68.3062C68.3223 165.751 68.4297 165.547 68.6283 165.388C68.8286 165.227 69.0899 165.147 69.4119 165.147C69.7394 165.147 69.9988 165.229 70.1902 165.394C70.3835 165.558 70.4801 165.779 70.4801 166.056V167.986H70.0373V167.506H70.0265C69.9424 167.665 69.819 167.793 69.6562 167.889C69.4933 167.986 69.318 168.034 69.1301 168.034ZM71.0732 167.986V165.195H71.5134V165.64H71.5241C71.6046 165.485 71.72 165.364 71.8703 165.278C72.0206 165.19 72.2004 165.147 72.4098 165.147C72.7139 165.147 72.951 165.239 73.121 165.423C73.2909 165.606 73.3759 165.856 73.3759 166.175V167.986H72.9089V166.258C72.9089 166.03 72.8553 165.858 72.7479 165.74C72.6406 165.62 72.4804 165.56 72.2675 165.56C72.0474 165.56 71.8712 165.631 71.7388 165.775C71.6064 165.918 71.5402 166.107 71.5402 166.344V167.986H71.0732Z" fill="#454459"/>
<path opacity="0.5" d="M85.1811 166.199V165.791H85.6454C85.8673 165.791 86.0489 165.727 86.1902 165.6C86.3316 165.471 86.4022 165.309 86.4022 165.112C86.4022 164.915 86.3369 164.758 86.2063 164.642C86.0757 164.526 85.8905 164.468 85.6508 164.468C85.4289 164.468 85.2482 164.527 85.1086 164.645C84.9691 164.763 84.8886 164.924 84.8671 165.128H84.4028C84.4296 164.799 84.5567 164.536 84.7839 164.341C85.0129 164.146 85.309 164.049 85.6722 164.049C86.0211 164.049 86.311 164.143 86.5418 164.331C86.7726 164.519 86.888 164.757 86.888 165.047C86.888 165.289 86.8164 165.492 86.6733 165.657C86.5302 165.821 86.3369 165.925 86.0936 165.968V165.979C86.387 165.996 86.6205 166.09 86.7941 166.26C86.9676 166.429 87.0544 166.649 87.0544 166.921C87.0544 167.137 86.9936 167.332 86.8719 167.506C86.7502 167.679 86.5856 167.813 86.3781 167.908C86.1705 168.003 85.9406 168.05 85.6883 168.05C85.2876 168.05 84.9646 167.95 84.7195 167.75C84.4744 167.55 84.3429 167.287 84.325 166.961H84.7893C84.8107 167.163 84.9011 167.326 85.0603 167.449C85.2196 167.571 85.4271 167.632 85.683 167.632C85.9388 167.632 86.1491 167.567 86.3137 167.436C86.4801 167.305 86.5633 167.139 86.5633 166.937C86.5633 166.709 86.4827 166.53 86.3217 166.397C86.1625 166.265 85.9442 166.199 85.6669 166.199H85.1811ZM88.5708 167.076H89.0512C89.0565 167.241 89.1156 167.375 89.2283 167.479C89.3428 167.581 89.4877 167.632 89.6631 167.632C89.876 167.632 90.0388 167.57 90.1515 167.447C90.2642 167.321 90.3206 167.141 90.3206 166.905V164.113H90.8037V166.907C90.8037 167.274 90.7035 167.561 90.5031 167.769C90.3027 167.974 90.0236 168.077 89.6658 168.077C89.3437 168.077 89.0807 167.984 88.8767 167.798C88.6727 167.61 88.5708 167.37 88.5708 167.076ZM92.4032 167.637C92.6233 167.637 92.8076 167.569 92.9561 167.433C93.1064 167.295 93.1815 167.126 93.1815 166.926V166.698L92.4354 166.743C92.2476 166.756 92.1018 166.802 91.998 166.88C91.896 166.959 91.845 167.065 91.845 167.197C91.845 167.329 91.896 167.436 91.998 167.516C92.1 167.597 92.2351 167.637 92.4032 167.637ZM92.2986 168.034C92.0212 168.034 91.7967 167.957 91.6249 167.804C91.455 167.65 91.37 167.448 91.37 167.197C91.37 166.957 91.4576 166.766 91.633 166.623C91.8101 166.48 92.0597 166.399 92.3818 166.381L93.1815 166.336V166.102C93.1815 165.932 93.1279 165.799 93.0205 165.702C92.9132 165.606 92.7629 165.557 92.5696 165.557C92.3925 165.557 92.2485 165.597 92.1375 165.675C92.0266 165.752 91.9559 165.861 91.9255 166H91.4746C91.4907 165.751 91.5981 165.547 91.7967 165.388C91.9971 165.227 92.2583 165.147 92.5804 165.147C92.9078 165.147 93.1672 165.229 93.3587 165.394C93.5519 165.558 93.6485 165.779 93.6485 166.056V167.986H93.2057V167.506H93.195C93.1109 167.665 92.9874 167.793 92.8246 167.889C92.6618 167.986 92.4864 168.034 92.2986 168.034ZM94.2417 167.986V165.195H94.6818V165.64H94.6925C94.7731 165.485 94.8885 165.364 95.0387 165.278C95.189 165.19 95.3689 165.147 95.5782 165.147C95.8824 165.147 96.1194 165.239 96.2894 165.423C96.4594 165.606 96.5444 165.856 96.5444 166.175V167.986H96.0774V166.258C96.0774 166.03 96.0237 165.858 95.9164 165.74C95.809 165.62 95.6489 165.56 95.436 165.56C95.2159 165.56 95.0396 165.631 94.9072 165.775C94.7748 165.918 94.7086 166.107 94.7086 166.344V167.986H94.2417Z" fill="#454459"/>
<path opacity="0.5" d="M157.03 168.053C156.74 168.053 156.484 167.978 156.262 167.828C156.04 167.676 155.87 167.46 155.75 167.181C155.623 166.888 155.559 166.532 155.559 166.115C155.559 165.462 155.691 164.954 155.954 164.591C156.219 164.228 156.588 164.046 157.062 164.046C157.391 164.046 157.672 164.137 157.905 164.32C158.137 164.502 158.285 164.746 158.348 165.05H157.857C157.805 164.875 157.706 164.735 157.561 164.631C157.416 164.526 157.248 164.473 157.057 164.473C156.733 164.473 156.482 164.612 156.305 164.889C156.128 165.166 156.035 165.563 156.026 166.078H156.034C156.122 165.888 156.264 165.736 156.461 165.622C156.658 165.507 156.876 165.45 157.116 165.45C157.484 165.45 157.79 165.572 158.034 165.815C158.279 166.058 158.401 166.363 158.401 166.73C158.401 167.113 158.272 167.43 158.012 167.68C157.755 167.929 157.427 168.053 157.03 168.053ZM156.397 167.366C156.568 167.538 156.778 167.624 157.025 167.624C157.271 167.624 157.481 167.539 157.653 167.369C157.824 167.199 157.91 166.991 157.91 166.746C157.91 166.492 157.828 166.284 157.663 166.121C157.499 165.956 157.288 165.874 157.033 165.874C156.777 165.874 156.564 165.955 156.394 166.118C156.226 166.281 156.142 166.486 156.142 166.733C156.142 166.981 156.227 167.193 156.397 167.366ZM159.845 167.076H160.326C160.331 167.241 160.39 167.375 160.503 167.479C160.617 167.581 160.762 167.632 160.938 167.632C161.15 167.632 161.313 167.57 161.426 167.447C161.539 167.321 161.595 167.141 161.595 166.905V164.113H162.078V166.907C162.078 167.274 161.978 167.561 161.778 167.769C161.577 167.974 161.298 168.077 160.94 168.077C160.618 168.077 160.355 167.984 160.151 167.798C159.947 167.61 159.845 167.37 159.845 167.076ZM163.678 167.637C163.898 167.637 164.082 167.569 164.231 167.433C164.381 167.295 164.456 167.126 164.456 166.926V166.698L163.71 166.743C163.522 166.756 163.376 166.802 163.272 166.88C163.17 166.959 163.12 167.065 163.12 167.197C163.12 167.329 163.17 167.436 163.272 167.516C163.374 167.597 163.51 167.637 163.678 167.637ZM163.573 168.034C163.296 168.034 163.071 167.957 162.899 167.804C162.729 167.65 162.644 167.448 162.644 167.197C162.644 166.957 162.732 166.766 162.907 166.623C163.085 166.48 163.334 166.399 163.656 166.381L164.456 166.336V166.102C164.456 165.932 164.402 165.799 164.295 165.702C164.188 165.606 164.037 165.557 163.844 165.557C163.667 165.557 163.523 165.597 163.412 165.675C163.301 165.752 163.23 165.861 163.2 166H162.749C162.765 165.751 162.873 165.547 163.071 165.388C163.272 165.227 163.533 165.147 163.855 165.147C164.182 165.147 164.442 165.229 164.633 165.394C164.826 165.558 164.923 165.779 164.923 166.056V167.986H164.48V167.506H164.469C164.385 167.665 164.262 167.793 164.099 167.889C163.936 167.986 163.761 168.034 163.573 168.034ZM165.516 167.986V165.195H165.956V165.64H165.967C166.048 165.485 166.163 165.364 166.313 165.278C166.464 165.19 166.643 165.147 166.853 165.147C167.157 165.147 167.394 165.239 167.564 165.423C167.734 165.606 167.819 165.856 167.819 166.175V167.986H167.352V166.258C167.352 166.03 167.298 165.858 167.191 165.74C167.083 165.62 166.923 165.56 166.71 165.56C166.49 165.56 166.314 165.631 166.182 165.775C166.049 165.918 165.983 166.107 165.983 166.344V167.986H165.516Z" fill="#454459"/>
<path d="M115.166 167.986V167.253H113.234V166.658C113.552 166.056 114.088 165.208 114.841 164.113H115.826V166.687H116.347V167.253H115.826V167.986H115.166ZM113.862 166.684V166.703H115.177V164.626H115.166C114.839 165.1 114.577 165.492 114.38 165.801C114.183 166.111 114.01 166.405 113.862 166.684ZM110.402 173.929H111.076C111.08 174.088 111.131 174.217 111.232 174.315C111.334 174.414 111.465 174.463 111.626 174.463C111.812 174.463 111.954 174.408 112.05 174.299C112.149 174.188 112.198 174.028 112.198 173.819V171.113H112.888V173.824C112.888 174.218 112.777 174.524 112.555 174.742C112.335 174.96 112.028 175.069 111.634 175.069C111.264 175.069 110.966 174.966 110.74 174.758C110.515 174.549 110.402 174.272 110.402 173.929ZM114.562 174.527C114.754 174.527 114.915 174.471 115.045 174.358C115.178 174.244 115.244 174.101 115.244 173.931V173.714L114.586 173.754C114.425 173.765 114.3 173.805 114.211 173.875C114.123 173.943 114.079 174.033 114.079 174.146C114.079 174.262 114.123 174.355 114.211 174.425C114.3 174.493 114.417 174.527 114.562 174.527ZM114.361 175.032C114.084 175.032 113.855 174.952 113.677 174.793C113.499 174.634 113.411 174.427 113.411 174.173C113.411 173.921 113.504 173.721 113.69 173.574C113.878 173.428 114.145 173.344 114.492 173.322L115.244 173.279V173.075C115.244 172.927 115.197 172.811 115.102 172.729C115.009 172.647 114.879 172.606 114.713 172.606C114.557 172.606 114.43 172.64 114.331 172.71C114.233 172.78 114.173 172.875 114.152 172.995H113.532C113.546 172.725 113.661 172.505 113.878 172.337C114.096 172.167 114.383 172.082 114.739 172.082C115.092 172.082 115.374 172.168 115.585 172.34C115.798 172.512 115.904 172.741 115.904 173.027V174.986H115.26V174.533H115.247C115.166 174.685 115.044 174.806 114.882 174.898C114.719 174.987 114.545 175.032 114.361 175.032ZM116.444 174.986V172.141H117.085V172.63H117.098C117.177 172.458 117.292 172.325 117.442 172.23C117.594 172.135 117.777 172.088 117.992 172.088C118.303 172.088 118.545 172.181 118.717 172.369C118.89 172.557 118.977 172.817 118.977 173.148V174.986H118.309V173.282C118.309 173.078 118.261 172.922 118.164 172.815C118.069 172.708 117.928 172.654 117.74 172.654C117.548 172.654 117.395 172.716 117.281 172.842C117.168 172.967 117.112 173.132 117.112 173.338V174.986H116.444Z" fill="#454459"/>
<path opacity="0.5" d="M179.826 167.986L181.578 164.553V164.543H179.493V164.113H182.056V164.562L180.333 167.986H179.826ZM183.535 167.076H184.015C184.021 167.241 184.08 167.375 184.192 167.479C184.307 167.581 184.452 167.632 184.627 167.632C184.84 167.632 185.003 167.57 185.115 167.447C185.228 167.321 185.285 167.141 185.285 166.905V164.113H185.768V166.907C185.768 167.274 185.667 167.561 185.467 167.769C185.267 167.974 184.988 168.077 184.63 168.077C184.308 168.077 184.045 167.984 183.841 167.798C183.637 167.61 183.535 167.37 183.535 167.076ZM187.367 167.637C187.587 167.637 187.772 167.569 187.92 167.433C188.07 167.295 188.146 167.126 188.146 166.926V166.698L187.399 166.743C187.212 166.756 187.066 166.802 186.962 166.88C186.86 166.959 186.809 167.065 186.809 167.197C186.809 167.329 186.86 167.436 186.962 167.516C187.064 167.597 187.199 167.637 187.367 167.637ZM187.263 168.034C186.985 168.034 186.761 167.957 186.589 167.804C186.419 167.65 186.334 167.448 186.334 167.197C186.334 166.957 186.422 166.766 186.597 166.623C186.774 166.48 187.024 166.399 187.346 166.381L188.146 166.336V166.102C188.146 165.932 188.092 165.799 187.984 165.702C187.877 165.606 187.727 165.557 187.534 165.557C187.356 165.557 187.212 165.597 187.102 165.675C186.991 165.752 186.92 165.861 186.89 166H186.439C186.455 165.751 186.562 165.547 186.761 165.388C186.961 165.227 187.222 165.147 187.544 165.147C187.872 165.147 188.131 165.229 188.323 165.394C188.516 165.558 188.613 165.779 188.613 166.056V167.986H188.17V167.506H188.159C188.075 167.665 187.951 167.793 187.789 167.889C187.626 167.986 187.45 168.034 187.263 168.034ZM189.206 167.986V165.195H189.646V165.64H189.657C189.737 165.485 189.852 165.364 190.003 165.278C190.153 165.19 190.333 165.147 190.542 165.147C190.846 165.147 191.083 165.239 191.253 165.423C191.423 165.606 191.508 165.856 191.508 166.175V167.986H191.041V166.258C191.041 166.03 190.988 165.858 190.88 165.74C190.773 165.62 190.613 165.56 190.4 165.56C190.18 165.56 190.004 165.631 189.871 165.775C189.739 165.918 189.673 166.107 189.673 166.344V167.986H189.206Z" fill="#454459"/>
<mask id="mask0_745:3225" style="mask-type:alpha" maskUnits="userSpaceOnUse" x="31" y="97" width="167" height="60">
<rect x="31.95" y="97.0876" width="165.92" height="59.9113" rx="2.74823" fill="#F3F3F3"/>
</mask>
<g mask="url(#mask0_745:3225)">
<path d="M31.292 134.671C31.292 134.671 49.1707 109.857 62.4011 110.332C73.8305 110.742 89.2552 129.698 104.84 129.567C120.425 129.435 127.232 108.677 140.326 105.602C153.42 102.528 163.344 118.53 176.421 120.525C189.499 122.52 197.87 134.671 197.87 134.671" stroke="#D6EAFF" stroke-width="1.02686" stroke-linecap="round"/>
<path d="M31.292 140.522C31.292 140.522 53.5029 133.657 61.9082 133.657C70.3134 133.657 80.8633 131.126 90.454 133.657C100.045 136.189 108.265 145.559 124.501 140.522C140.737 135.486 142.191 126.922 154.086 123.672C165.981 120.422 170.317 129.081 176.421 126.376C182.525 123.672 197.87 108.756 197.87 108.756" stroke="url(#paint0_linear_745:3225)" stroke-width="1.02686" stroke-linecap="round"/>
<path opacity="0.2" d="M45.7767 156.584V99.1685" stroke="#171724" stroke-width="0.549645" stroke-linecap="round" stroke-dasharray="0 0.21 2.88 0 0.21 2.88"/>
<path opacity="0.2" d="M68.8201 156.584V99.1685" stroke="#171724" stroke-width="0.549645" stroke-linecap="round" stroke-dasharray="0 0.21 2.88 0 0.21 2.88"/>
<path opacity="0.2" d="M91.8658 156.584V99.1685" stroke="#171724" stroke-width="0.549645" stroke-linecap="round" stroke-dasharray="0 0.21 2.88 0 0.21 2.88"/>
<path opacity="0.2" d="M114.909 156.999V99.5843" stroke="#171724" stroke-width="0.549645" stroke-linecap="round" stroke-dasharray="0 0.21 2.88 0 0.21 2.88"/>
<path opacity="0.2" d="M137.296 156.999V99.5843" stroke="#171724" stroke-width="0.549645" stroke-linecap="round" stroke-dasharray="0 0.21 2.88 0 0.21 2.88"/>
<path opacity="0.2" d="M160.34 156.999V99.5843" stroke="#171724" stroke-width="0.549645" stroke-linecap="round" stroke-dasharray="0 0.21 2.88 0 0.21 2.88"/>
<path opacity="0.2" d="M183.386 156.999V99.5843" stroke="#171724" stroke-width="0.549645" stroke-linecap="round" stroke-dasharray="0 0.21 2.88 0 0.21 2.88"/>
</g>
<g filter="url(#filter0_d_745:3225)">
<circle cx="114.948" cy="126.258" r="4.39716" fill="#D6EAFF"/>
<circle cx="114.948" cy="126.258" r="3.27499" stroke="white" stroke-width="2.24435"/>
</g>
<g filter="url(#filter1_d_745:3225)">
<rect x="104.112" y="107.3" width="21.9563" height="12.2547" rx="2.55306" fill="white"/>
</g>
<path d="M110.415 114.129V113.598H111.019C111.307 113.598 111.543 113.515 111.727 113.35C111.911 113.183 112.003 112.971 112.003 112.715C112.003 112.459 111.918 112.255 111.748 112.104C111.578 111.953 111.337 111.877 111.026 111.877C110.737 111.877 110.502 111.954 110.321 112.108C110.139 112.261 110.034 112.471 110.006 112.736H109.403C109.437 112.308 109.603 111.967 109.898 111.713C110.196 111.459 110.581 111.333 111.054 111.333C111.507 111.333 111.884 111.455 112.184 111.699C112.485 111.943 112.635 112.254 112.635 112.631C112.635 112.945 112.542 113.209 112.355 113.423C112.169 113.638 111.918 113.772 111.602 113.828V113.842C111.983 113.866 112.287 113.988 112.513 114.209C112.738 114.428 112.851 114.714 112.851 115.067C112.851 115.349 112.772 115.603 112.614 115.828C112.456 116.054 112.241 116.229 111.972 116.352C111.702 116.475 111.403 116.537 111.074 116.537C110.553 116.537 110.133 116.407 109.814 116.146C109.496 115.885 109.325 115.543 109.301 115.12H109.905C109.933 115.383 110.051 115.595 110.258 115.755C110.465 115.913 110.735 115.992 111.067 115.992C111.4 115.992 111.674 115.908 111.888 115.738C112.104 115.568 112.212 115.351 112.212 115.088C112.212 114.793 112.108 114.559 111.898 114.387C111.691 114.215 111.407 114.129 111.047 114.129H110.415ZM115.35 116.537C114.869 116.537 114.466 116.401 114.143 116.129C113.821 115.856 113.648 115.506 113.623 115.078H114.24C114.268 115.346 114.386 115.564 114.593 115.734C114.8 115.902 115.055 115.985 115.357 115.985C115.699 115.985 115.977 115.878 116.192 115.664C116.408 115.45 116.516 115.173 116.516 114.834C116.516 114.494 116.408 114.216 116.192 113.999C115.977 113.781 115.703 113.671 115.368 113.671C115.133 113.671 114.92 113.721 114.729 113.821C114.538 113.921 114.392 114.06 114.289 114.237H113.699L113.975 111.416H116.858V111.975H114.492L114.338 113.615H114.352C114.466 113.464 114.622 113.345 114.82 113.259C115.02 113.173 115.24 113.13 115.479 113.13C115.964 113.13 116.361 113.29 116.673 113.608C116.987 113.925 117.144 114.327 117.144 114.816C117.144 115.321 116.977 115.734 116.642 116.055C116.307 116.376 115.876 116.537 115.35 116.537ZM120.195 116.453V115.406H117.665V114.837C117.881 114.435 118.156 113.975 118.488 113.458C118.823 112.942 119.285 112.261 119.874 111.416H120.803V114.855H121.515V115.406H120.803V116.453H120.195ZM118.286 114.841V114.855H120.195V111.94H120.185C119.303 113.199 118.67 114.166 118.286 114.841Z" fill="#262626"/>
<path d="M80.273 192.955H79.5041V189.29H78.2116V188.638H81.5625V189.29H80.273V192.955ZM82.6425 190.295C82.4351 190.295 82.2616 190.367 82.1219 190.511C81.9843 190.652 81.9075 190.835 81.8916 191.058H83.3725C83.3646 190.833 83.2938 190.649 83.1601 190.508C83.0265 190.366 82.854 190.295 82.6425 190.295ZM83.3755 192.007H84.0726C84.0248 192.308 83.8722 192.552 83.6149 192.74C83.3576 192.925 83.0424 193.018 82.6695 193.018C82.1948 193.018 81.8218 192.872 81.5505 192.581C81.2792 192.288 81.1436 191.888 81.1436 191.381C81.1436 190.879 81.2782 190.476 81.5475 190.173C81.8188 189.869 82.1828 189.718 82.6395 189.718C83.0883 189.718 83.4444 189.862 83.7076 190.152C83.9709 190.439 84.1026 190.824 84.1026 191.307V191.549H81.8856V191.594C81.8856 191.849 81.9574 192.054 82.101 192.21C82.2466 192.366 82.4411 192.443 82.6844 192.443C82.856 192.443 83.0036 192.405 83.1272 192.327C83.2529 192.247 83.3356 192.14 83.3755 192.007ZM84.5843 192.955V189.784H85.2993V190.337H85.3143C85.3681 190.144 85.4609 189.994 85.5925 189.888C85.7261 189.783 85.8867 189.73 86.0742 189.73C86.14 189.73 86.2178 189.74 86.3076 189.76V190.433C86.2338 190.405 86.133 190.391 86.0054 190.391C85.794 190.391 85.6284 190.455 85.5087 190.582C85.3891 190.71 85.3292 190.886 85.3292 191.109V192.955H84.5843ZM86.6905 192.955V189.784H87.4056V190.334H87.4205C87.4903 190.147 87.605 189.998 87.7646 189.888C87.9242 189.779 88.1107 189.724 88.3241 189.724C88.5475 189.724 88.736 189.78 88.8895 189.891C89.0451 190.001 89.1518 190.158 89.2097 190.361H89.2276C89.3034 190.166 89.4291 190.011 89.6046 189.897C89.7821 189.782 89.9856 189.724 90.2149 189.724C90.5281 189.724 90.7784 189.821 90.9659 190.014C91.1554 190.207 91.2501 190.463 91.2501 190.78V192.955H90.5051V190.962C90.5051 190.767 90.4553 190.616 90.3556 190.511C90.2578 190.405 90.1182 190.352 89.9367 190.352C89.7572 190.352 89.6116 190.412 89.4999 190.532C89.3882 190.651 89.3323 190.806 89.3323 190.995V192.955H88.6083V190.924C88.6083 190.748 88.5574 190.609 88.4557 190.508C88.356 190.404 88.2194 190.352 88.0458 190.352C87.8663 190.352 87.7197 190.415 87.606 190.541C87.4923 190.664 87.4355 190.822 87.4355 191.013V192.955H86.6905ZM91.8664 192.955V189.784H92.6114V192.955H91.8664ZM92.5306 189.251C92.4509 189.329 92.3531 189.368 92.2374 189.368C92.1217 189.368 92.024 189.329 91.9442 189.251C91.8644 189.171 91.8246 189.076 91.8246 188.964C91.8246 188.85 91.8644 188.754 91.9442 188.677C92.024 188.597 92.1217 188.557 92.2374 188.557C92.3531 188.557 92.4509 188.597 92.5306 188.677C92.6124 188.754 92.6533 188.85 92.6533 188.964C92.6533 189.076 92.6124 189.171 92.5306 189.251ZM93.2367 192.955V189.784H93.9518V190.328H93.9667C94.0545 190.137 94.1821 189.988 94.3497 189.882C94.5192 189.777 94.7237 189.724 94.963 189.724C95.3101 189.724 95.5793 189.829 95.7708 190.038C95.9643 190.247 96.061 190.537 96.061 190.906V192.955H95.3161V191.055C95.3161 190.828 95.2622 190.654 95.1545 190.535C95.0488 190.415 94.8912 190.355 94.6818 190.355C94.4684 190.355 94.2978 190.425 94.1702 190.565C94.0445 190.704 93.9817 190.889 93.9817 191.118V192.955H93.2367ZM98.0267 190.295C97.8192 190.295 97.6457 190.367 97.5061 190.511C97.3685 190.652 97.2917 190.835 97.2757 191.058H98.7567C98.7487 190.833 98.6779 190.649 98.5443 190.508C98.4106 190.366 98.2381 190.295 98.0267 190.295ZM98.7597 192.007H99.4568C99.4089 192.308 99.2563 192.552 98.999 192.74C98.7417 192.925 98.4266 193.018 98.0536 193.018C97.5789 193.018 97.2059 192.872 96.9347 192.581C96.6634 192.288 96.5278 191.888 96.5278 191.381C96.5278 190.879 96.6624 190.476 96.9317 190.173C97.2029 189.869 97.5669 189.718 98.0237 189.718C98.4725 189.718 98.8285 189.862 99.0918 190.152C99.3551 190.439 99.4867 190.824 99.4867 191.307V191.549H97.2697V191.594C97.2697 191.849 97.3415 192.054 97.4852 192.21C97.6308 192.366 97.8252 192.443 98.0686 192.443C98.2401 192.443 98.3877 192.405 98.5114 192.327C98.637 192.247 98.7198 192.14 98.7597 192.007ZM98.3259 189.332H97.7185L98.3678 188.413H99.0798L98.3259 189.332Z" fill="#262626"/>
<path d="M128.269 192.955H127.5V189.29H126.208V188.638H129.558V189.29H128.269V192.955ZM131.793 192.578C131.516 192.871 131.143 193.018 130.674 193.018C130.206 193.018 129.833 192.871 129.555 192.578C129.278 192.283 129.14 191.88 129.14 191.369C129.14 190.861 129.279 190.459 129.558 190.164C129.838 189.866 130.21 189.718 130.674 189.718C131.141 189.718 131.513 189.866 131.79 190.164C132.07 190.459 132.209 190.861 132.209 191.369C132.209 191.88 132.071 192.283 131.793 192.578ZM130.106 192.15C130.246 192.336 130.435 192.428 130.674 192.428C130.914 192.428 131.103 192.336 131.243 192.15C131.383 191.965 131.452 191.704 131.452 191.369C131.452 191.036 131.383 190.777 131.243 190.591C131.103 190.404 130.914 190.31 130.674 190.31C130.437 190.31 130.248 190.404 130.106 190.591C129.966 190.777 129.897 191.036 129.897 191.369C129.897 191.704 129.966 191.965 130.106 192.15ZM132.894 189.042H133.639V189.784H134.238V190.358H133.639V192.007C133.639 192.136 133.67 192.232 133.732 192.294C133.794 192.356 133.891 192.387 134.022 192.387C134.11 192.387 134.181 192.382 134.235 192.372V192.94C134.145 192.96 134.016 192.97 133.849 192.97C133.506 192.97 133.26 192.904 133.113 192.773C132.967 192.641 132.894 192.42 132.894 192.111V190.358H132.44V189.784H132.894V189.042ZM135.862 192.443C136.076 192.443 136.255 192.381 136.401 192.255C136.548 192.127 136.622 191.969 136.622 191.779V191.537L135.889 191.582C135.71 191.594 135.57 191.639 135.47 191.716C135.373 191.792 135.324 191.893 135.324 192.019C135.324 192.148 135.373 192.252 135.47 192.33C135.57 192.406 135.701 192.443 135.862 192.443ZM135.638 193.006C135.329 193.006 135.074 192.917 134.875 192.74C134.678 192.562 134.579 192.332 134.579 192.048C134.579 191.767 134.683 191.545 134.89 191.381C135.099 191.218 135.398 191.124 135.785 191.1L136.622 191.052V190.825C136.622 190.659 136.569 190.531 136.464 190.439C136.36 190.347 136.215 190.301 136.03 190.301C135.856 190.301 135.715 190.34 135.605 190.418C135.495 190.496 135.429 190.601 135.405 190.735H134.713C134.729 190.434 134.858 190.19 135.099 190.002C135.343 189.813 135.663 189.718 136.06 189.718C136.453 189.718 136.767 189.814 137.002 190.005C137.24 190.197 137.358 190.452 137.358 190.771V192.955H136.64V192.449H136.625C136.535 192.619 136.4 192.755 136.218 192.856C136.037 192.956 135.843 193.006 135.638 193.006ZM137.981 192.955V188.638H138.726V192.955H137.981Z" fill="#262626"/>
<circle r="2.29775" transform="matrix(-1 0 0 1 120.192 190.274)" fill="url(#paint1_linear_745:3225)"/>
<circle r="2.29775" transform="matrix(-1 0 0 1 72.7066 190.274)" fill="#D6EAFF"/>
<path d="M15.2834 20.3473H14.3864V16.0714H12.8785V15.3105H16.7878V16.0714H15.2834V20.3473ZM19.3953 19.9075C19.0718 20.2496 18.6367 20.4206 18.0898 20.4206C17.543 20.4206 17.1078 20.2496 16.7844 19.9075C16.4609 19.5631 16.2992 19.093 16.2992 18.4973C16.2992 17.9039 16.4621 17.435 16.7878 17.0906C17.1136 16.7439 17.5476 16.5706 18.0898 16.5706C18.6343 16.5706 19.0683 16.7439 19.3918 17.0906C19.7175 17.435 19.8804 17.9039 19.8804 18.4973C19.8804 19.093 19.7187 19.5631 19.3953 19.9075ZM17.4266 19.4083C17.5895 19.6248 17.8106 19.733 18.0898 19.733C18.369 19.733 18.5901 19.6248 18.753 19.4083C18.9159 19.1919 18.9973 18.8883 18.9973 18.4973C18.9973 18.1087 18.9159 17.8062 18.753 17.5898C18.5901 17.3711 18.369 17.2617 18.0898 17.2617C17.8129 17.2617 17.5918 17.3711 17.4266 17.5898C17.2637 17.8062 17.1823 18.1087 17.1823 18.4973C17.1823 18.8883 17.2637 19.1919 17.4266 19.4083ZM20.6798 15.7817H21.5489V16.6474H22.247V17.3175H21.5489V19.2408C21.5489 19.3921 21.585 19.5038 21.6571 19.5759C21.7292 19.648 21.8421 19.6841 21.9957 19.6841C22.0981 19.6841 22.1807 19.6783 22.2435 19.6666V20.3298C22.1388 20.3531 21.9887 20.3647 21.7932 20.3647C21.393 20.3647 21.1068 20.288 20.9346 20.1344C20.7647 19.9808 20.6798 19.7237 20.6798 19.363V17.3175H20.1492V16.6474H20.6798V15.7817ZM24.1423 19.7504C24.3913 19.7504 24.6008 19.6771 24.7706 19.5305C24.9428 19.3816 25.0289 19.1966 25.0289 18.9755V18.6928L24.1738 18.7451C23.9643 18.7591 23.8014 18.8115 23.6851 18.9022C23.5711 18.9906 23.514 19.1082 23.514 19.2548C23.514 19.406 23.5711 19.527 23.6851 19.6178C23.8014 19.7062 23.9539 19.7504 24.1423 19.7504ZM23.8806 20.4066C23.5199 20.4066 23.2232 20.3031 22.9905 20.096C22.7601 19.8889 22.6449 19.6201 22.6449 19.2897C22.6449 18.9616 22.7659 18.7021 23.0079 18.5113C23.2523 18.3205 23.6001 18.2111 24.0516 18.1832L25.0289 18.1273V17.8621C25.0289 17.6689 24.9673 17.5188 24.8439 17.4118C24.7229 17.3047 24.5542 17.2512 24.3378 17.2512C24.1354 17.2512 23.9701 17.2966 23.8422 17.3873C23.7142 17.4781 23.6362 17.6014 23.6083 17.7573H22.802C22.8206 17.406 22.9707 17.1209 23.2523 16.9022C23.5362 16.6811 23.9096 16.5706 24.3727 16.5706C24.8311 16.5706 25.1976 16.6823 25.4722 16.9057C25.7491 17.129 25.8876 17.4269 25.8876 17.7992V20.3473H25.0499V19.7574H25.0324C24.9277 19.9552 24.7695 20.1134 24.5577 20.2321C24.346 20.3485 24.1202 20.4066 23.8806 20.4066ZM26.6136 20.3473V15.3105H27.4828V20.3473H26.6136Z" fill="#262626"/>
<path d="M89.8335 20.3473H88.9365V16.0714H87.4286V15.3105H91.338V16.0714H89.8335V20.3473ZM92.598 17.2442C92.356 17.2442 92.1536 17.328 91.9907 17.4955C91.8301 17.6608 91.7405 17.8737 91.7219 18.1343H93.4497C93.4404 17.8714 93.3578 17.6573 93.2019 17.4921C93.046 17.3268 92.8447 17.2442 92.598 17.2442ZM93.4532 19.2408H94.2665C94.2106 19.5922 94.0326 19.8772 93.7324 20.096C93.4323 20.3124 93.0646 20.4206 92.6294 20.4206C92.0756 20.4206 91.6405 20.2507 91.324 19.911C91.0075 19.5689 90.8493 19.1023 90.8493 18.5113C90.8493 17.9249 91.0064 17.4548 91.3205 17.1011C91.637 16.7474 92.0617 16.5706 92.5945 16.5706C93.1181 16.5706 93.5335 16.7393 93.8406 17.0767C94.1478 17.4118 94.3014 17.8609 94.3014 18.424V18.7068H91.7149V18.7591C91.7149 19.057 91.7987 19.2966 91.9662 19.4782C92.1361 19.6597 92.363 19.7504 92.6469 19.7504C92.847 19.7504 93.0192 19.705 93.1635 19.6143C93.3101 19.5212 93.4067 19.3967 93.4532 19.2408ZM94.8634 20.3473V16.6474H95.6976V17.2931H95.7151C95.7779 17.0674 95.8861 16.8929 96.0397 16.7695C96.1956 16.6462 96.3829 16.5845 96.6016 16.5845C96.6784 16.5845 96.7692 16.5962 96.8739 16.6194V17.4048C96.7878 17.3722 96.6703 17.3559 96.5214 17.3559C96.2747 17.3559 96.0816 17.4304 95.9419 17.5793C95.8023 17.7282 95.7325 17.933 95.7325 18.1936V20.3473H94.8634ZM97.3207 20.3473V16.6474H98.1549V17.2896H98.1724C98.2538 17.0709 98.3876 16.8975 98.5738 16.7695C98.7599 16.6415 98.9775 16.5775 99.2265 16.5775C99.4871 16.5775 99.707 16.6427 99.8862 16.773C100.068 16.901 100.192 17.0837 100.26 17.321H100.281C100.369 17.093 100.516 16.9126 100.72 16.78C100.928 16.645 101.165 16.5775 101.432 16.5775C101.798 16.5775 102.09 16.6904 102.309 16.9161C102.53 17.1418 102.64 17.4397 102.64 17.8097V20.3473H101.771V18.0226C101.771 17.7946 101.713 17.6189 101.597 17.4955C101.483 17.3722 101.32 17.3106 101.108 17.3106C100.898 17.3106 100.729 17.3804 100.598 17.52C100.468 17.6596 100.403 17.8399 100.403 18.061V20.3473H99.5581V17.9772C99.5581 17.7725 99.4988 17.6107 99.3801 17.4921C99.2637 17.3711 99.1043 17.3106 98.9019 17.3106C98.6925 17.3106 98.5214 17.3839 98.3888 17.5305C98.2561 17.6747 98.1898 17.8586 98.1898 18.082V20.3473H97.3207ZM103.359 20.3473V16.6474H104.228V20.3473H103.359ZM104.134 16.026C104.041 16.1168 103.927 16.1622 103.792 16.1622C103.657 16.1622 103.543 16.1168 103.45 16.026C103.357 15.933 103.31 15.8213 103.31 15.691C103.31 15.5583 103.357 15.4466 103.45 15.3559C103.543 15.2628 103.657 15.2162 103.792 15.2162C103.927 15.2162 104.041 15.2628 104.134 15.3559C104.23 15.4466 104.277 15.5583 104.277 15.691C104.277 15.8213 104.23 15.933 104.134 16.026ZM104.958 20.3473V16.6474H105.792V17.2826H105.81C105.912 17.0592 106.061 16.8859 106.256 16.7625C106.454 16.6392 106.693 16.5775 106.972 16.5775C107.377 16.5775 107.691 16.6997 107.914 16.944C108.14 17.1884 108.253 17.5258 108.253 17.9563V20.3473H107.384V18.1308C107.384 17.8655 107.321 17.6631 107.195 17.5235C107.072 17.3839 106.888 17.314 106.644 17.314C106.395 17.314 106.196 17.3955 106.047 17.5584C105.9 17.7213 105.827 17.9365 105.827 18.2041V20.3473H104.958ZM110.546 17.2442C110.304 17.2442 110.102 17.328 109.939 17.4955C109.778 17.6608 109.689 17.8737 109.67 18.1343H111.398C111.389 17.8714 111.306 17.6573 111.15 17.4921C110.994 17.3268 110.793 17.2442 110.546 17.2442ZM111.401 19.2408H112.215C112.159 19.5922 111.981 19.8772 111.681 20.096C111.38 20.3124 111.013 20.4206 110.578 20.4206C110.024 20.4206 109.589 20.2507 109.272 19.911C108.956 19.5689 108.797 19.1023 108.797 18.5113C108.797 17.9249 108.955 17.4548 109.269 17.1011C109.585 16.7474 110.01 16.5706 110.543 16.5706C111.066 16.5706 111.482 16.7393 111.789 17.0767C112.096 17.4118 112.25 17.8609 112.25 18.424V18.7068H109.663V18.7591C109.663 19.057 109.747 19.2966 109.914 19.4782C110.084 19.6597 110.311 19.7504 110.595 19.7504C110.795 19.7504 110.967 19.705 111.112 19.6143C111.258 19.5212 111.355 19.3967 111.401 19.2408ZM110.895 16.1203H110.187L110.944 15.0487H111.775L110.895 16.1203ZM112.745 17.7085C112.745 17.3687 112.883 17.0941 113.157 16.8847C113.432 16.6753 113.794 16.5706 114.243 16.5706C114.675 16.5706 115.027 16.6776 115.297 16.8917C115.569 17.1034 115.711 17.3804 115.723 17.7224H114.913C114.899 17.5619 114.831 17.4362 114.71 17.3455C114.589 17.2547 114.428 17.2093 114.225 17.2093C114.034 17.2093 113.881 17.2512 113.764 17.335C113.648 17.4164 113.59 17.5246 113.59 17.6596C113.59 17.8644 113.767 18.0098 114.12 18.0959L114.78 18.2425C115.15 18.3286 115.414 18.4496 115.573 18.6055C115.731 18.7614 115.81 18.9767 115.81 19.2513C115.81 19.6003 115.663 19.8831 115.37 20.0995C115.077 20.3135 114.696 20.4206 114.229 20.4206C113.768 20.4206 113.397 20.3159 113.115 20.1064C112.836 19.8947 112.681 19.612 112.651 19.2583H113.506C113.532 19.4281 113.609 19.5584 113.737 19.6492C113.867 19.7399 114.041 19.7853 114.26 19.7853C114.472 19.7853 114.638 19.7458 114.759 19.6666C114.883 19.5852 114.944 19.4758 114.944 19.3385C114.944 19.2315 114.906 19.1466 114.829 19.0837C114.755 19.0186 114.628 18.9627 114.449 18.9162L113.775 18.7591C113.088 18.5985 112.745 18.2483 112.745 17.7085Z" fill="#262626"/>
<path d="M152.748 19.5864V20.3473H149.488V15.3105H152.748V16.0714H150.388V17.4327H152.619V18.1483H150.388V19.5864H152.748ZM153.443 20.3473V16.6474H154.277V17.2826H154.294C154.397 17.0592 154.546 16.8859 154.741 16.7625C154.939 16.6392 155.177 16.5775 155.457 16.5775C155.862 16.5775 156.176 16.6997 156.399 16.944C156.625 17.1884 156.738 17.5258 156.738 17.9563V20.3473H155.869V18.1308C155.869 17.8655 155.806 17.6631 155.68 17.5235C155.557 17.3839 155.373 17.314 155.129 17.314C154.88 17.314 154.681 17.3955 154.532 17.5584C154.385 17.7213 154.312 17.9365 154.312 18.2041V20.3473H153.443ZM162.127 17.9668H161.307C161.269 17.7597 161.181 17.5933 161.041 17.4676C160.902 17.3396 160.72 17.2756 160.497 17.2756C160.222 17.2756 160.004 17.385 159.841 17.6038C159.678 17.8202 159.596 18.118 159.596 18.4973C159.596 18.8813 159.678 19.1815 159.841 19.3979C160.004 19.612 160.225 19.719 160.504 19.719C160.723 19.719 160.902 19.6608 161.041 19.5445C161.181 19.4258 161.271 19.2606 161.31 19.0488H162.13C162.096 19.463 161.929 19.7958 161.631 20.0471C161.336 20.2961 160.957 20.4206 160.493 20.4206C159.949 20.4206 159.516 20.2496 159.195 19.9075C158.874 19.5631 158.713 19.093 158.713 18.4973C158.713 17.9086 158.874 17.4409 159.195 17.0941C159.516 16.7451 159.947 16.5706 160.486 16.5706C160.961 16.5706 161.345 16.7032 161.638 16.9685C161.934 17.2314 162.097 17.5642 162.127 17.9668ZM165.593 19.9075C165.27 20.2496 164.834 20.4206 164.288 20.4206C163.741 20.4206 163.306 20.2496 162.982 19.9075C162.659 19.5631 162.497 19.093 162.497 18.4973C162.497 17.9039 162.66 17.435 162.986 17.0906C163.311 16.7439 163.745 16.5706 164.288 16.5706C164.832 16.5706 165.266 16.7439 165.59 17.0906C165.915 17.435 166.078 17.9039 166.078 18.4973C166.078 19.093 165.917 19.5631 165.593 19.9075ZM163.624 19.4083C163.787 19.6248 164.008 19.733 164.288 19.733C164.567 19.733 164.788 19.6248 164.951 19.4083C165.114 19.1919 165.195 18.8883 165.195 18.4973C165.195 18.1087 165.114 17.8062 164.951 17.5898C164.788 17.3711 164.567 17.2617 164.288 17.2617C164.011 17.2617 163.79 17.3711 163.624 17.5898C163.462 17.8062 163.38 18.1087 163.38 18.4973C163.38 18.8883 163.462 19.1919 163.624 19.4083ZM169.918 16.6474V20.3473H169.08V19.705H169.063C168.858 20.1774 168.481 20.4136 167.932 20.4136C167.529 20.4136 167.209 20.2914 166.972 20.0471C166.737 19.8004 166.619 19.4642 166.619 19.0384V16.6474H167.488V18.8638C167.488 19.1291 167.551 19.3316 167.677 19.4712C167.805 19.6108 167.991 19.6806 168.235 19.6806C168.484 19.6806 168.682 19.5992 168.829 19.4363C168.975 19.2734 169.049 19.057 169.049 18.787V16.6474H169.918ZM170.63 20.3473V16.6474H171.464V17.2931H171.482C171.544 17.0674 171.653 16.8929 171.806 16.7695C171.962 16.6462 172.149 16.5845 172.368 16.5845C172.445 16.5845 172.536 16.5962 172.64 16.6194V17.4048C172.554 17.3722 172.437 17.3559 172.288 17.3559C172.041 17.3559 171.848 17.4304 171.708 17.5793C171.569 17.7282 171.499 17.933 171.499 18.1936V20.3473H170.63ZM173.021 17.7085C173.021 17.3687 173.158 17.0941 173.433 16.8847C173.707 16.6753 174.069 16.5706 174.518 16.5706C174.951 16.5706 175.302 16.6776 175.572 16.8917C175.845 17.1034 175.987 17.3804 175.998 17.7224H175.188C175.174 17.5619 175.107 17.4362 174.986 17.3455C174.865 17.2547 174.703 17.2093 174.501 17.2093C174.31 17.2093 174.156 17.2512 174.04 17.335C173.924 17.4164 173.866 17.5246 173.866 17.6596C173.866 17.8644 174.042 18.0098 174.396 18.0959L175.056 18.2425C175.426 18.3286 175.69 18.4496 175.848 18.6055C176.006 18.7614 176.086 18.9767 176.086 19.2513C176.086 19.6003 175.939 19.8831 175.646 20.0995C175.353 20.3135 174.972 20.4206 174.504 20.4206C174.044 20.4206 173.672 20.3159 173.391 20.1064C173.112 19.8947 172.957 19.612 172.927 19.2583H173.782C173.807 19.4281 173.884 19.5584 174.012 19.6492C174.142 19.7399 174.317 19.7853 174.536 19.7853C174.747 19.7853 174.914 19.7458 175.035 19.6666C175.158 19.5852 175.22 19.4758 175.22 19.3385C175.22 19.2315 175.181 19.1466 175.105 19.0837C175.03 19.0186 174.903 18.9627 174.724 18.9162L174.051 18.7591C173.364 18.5985 173.021 18.2483 173.021 17.7085Z" fill="#262626"/>
<g clip-path="url(#clip0_745:3225)">
<path d="M181.979 14.7838C180.375 14.7838 179.075 16.0842 179.075 17.6879C179.075 19.2917 180.375 20.592 181.979 20.592C183.583 20.592 184.883 19.2917 184.883 17.6879C184.883 16.0842 183.583 14.7838 181.979 14.7838ZM181.979 20.0994C180.647 20.0994 179.567 19.0194 179.567 17.6879C179.567 16.3564 180.647 15.2765 181.979 15.2765C183.31 15.2765 184.39 16.3564 184.39 17.6879C184.39 19.0194 183.31 20.0994 181.979 20.0994Z" fill="#262626"/>
<path d="M182.702 16.4219C182.508 16.2514 182.251 16.1581 181.979 16.1581C181.707 16.1581 181.45 16.2521 181.255 16.4219C181.053 16.5989 180.942 16.8368 180.942 17.0915V17.1408C180.942 17.1693 180.965 17.1927 180.994 17.1927H181.305C181.333 17.1927 181.357 17.1693 181.357 17.1408V17.0915C181.357 16.8057 181.636 16.573 181.979 16.573C182.322 16.573 182.601 16.8057 182.601 17.0915C182.601 17.2931 182.459 17.4779 182.238 17.5628C182.1 17.6153 181.983 17.7074 181.9 17.8279C181.815 17.9511 181.771 18.0989 181.771 18.2486V18.388C181.771 18.4165 181.794 18.4399 181.823 18.4399H182.134C182.162 18.4399 182.186 18.4165 182.186 18.388V18.2409C182.186 18.1779 182.205 18.1166 182.241 18.0648C182.277 18.013 182.327 17.9731 182.386 17.9505C182.768 17.8033 183.015 17.4662 183.015 17.0915C183.016 16.8368 182.905 16.5989 182.702 16.4219ZM181.72 19.114C181.72 19.1828 181.747 19.2488 181.796 19.2974C181.844 19.346 181.91 19.3733 181.979 19.3733C182.048 19.3733 182.114 19.346 182.162 19.2974C182.211 19.2488 182.238 19.1828 182.238 19.114C182.238 19.0453 182.211 18.9793 182.162 18.9307C182.114 18.8821 182.048 18.8547 181.979 18.8547C181.91 18.8547 181.844 18.8821 181.796 18.9307C181.747 18.9793 181.72 19.0453 181.72 19.114Z" fill="#262626"/>
</g>
<g clip-path="url(#clip1_745:3225)">
<path d="M52.2827 74.5251C50.679 74.5251 49.3786 75.8255 49.3786 77.4292C49.3786 79.033 50.679 80.3333 52.2827 80.3333C53.8864 80.3333 55.1868 79.033 55.1868 77.4292C55.1868 75.8255 53.8864 74.5251 52.2827 74.5251ZM52.2827 79.8407C50.9512 79.8407 49.8713 78.7607 49.8713 77.4292C49.8713 76.0978 50.9512 75.0178 52.2827 75.0178C53.6142 75.0178 54.6941 76.0978 54.6941 77.4292C54.6941 78.7607 53.6142 79.8407 52.2827 79.8407Z" fill="#262626"/>
<path d="M53.0061 76.1632C52.8117 75.9928 52.555 75.8994 52.2827 75.8994C52.0104 75.8994 51.7537 75.9934 51.5593 76.1632C51.357 76.3402 51.2455 76.5781 51.2455 76.8329V76.8821C51.2455 76.9107 51.2689 76.934 51.2974 76.934H51.6085C51.637 76.934 51.6604 76.9107 51.6604 76.8821V76.8329C51.6604 76.547 51.9398 76.3143 52.2827 76.3143C52.6256 76.3143 52.905 76.547 52.905 76.8329C52.905 77.0345 52.7624 77.2192 52.5413 77.3041C52.4039 77.3566 52.2872 77.4487 52.2036 77.5693C52.1187 77.6924 52.0746 77.8402 52.0746 77.99V78.1293C52.0746 78.1579 52.0979 78.1812 52.1265 78.1812H52.4376C52.4661 78.1812 52.4895 78.1579 52.4895 78.1293V77.9822C52.4898 77.9193 52.5091 77.8579 52.5448 77.8061C52.5806 77.7543 52.6311 77.7145 52.6898 77.6918C53.0722 77.5446 53.3192 77.2076 53.3192 76.8329C53.3199 76.5781 53.2084 76.3402 53.0061 76.1632ZM52.0234 78.8554C52.0234 78.9241 52.0507 78.9901 52.0993 79.0387C52.148 79.0873 52.2139 79.1147 52.2827 79.1147C52.3515 79.1147 52.4174 79.0873 52.466 79.0387C52.5147 78.9901 52.542 78.9241 52.542 78.8554C52.542 78.7866 52.5147 78.7207 52.466 78.672C52.4174 78.6234 52.3515 78.5961 52.2827 78.5961C52.2139 78.5961 52.148 78.6234 52.0993 78.672C52.0507 78.7207 52.0234 78.7866 52.0234 78.8554Z" fill="#262626"/>
</g>
<path d="M14.4562 43.6233L20.1544 32.4624V32.4275H13.3741V31.0313H21.7077V32.4886L16.1055 43.6233H14.4562ZM27.7376 43.8327C26.2774 43.8327 25.1371 43.251 24.3169 42.0875C23.5024 40.9181 23.0952 39.33 23.0952 37.3229C23.0952 35.3333 23.5053 33.7539 24.3256 32.5846C25.1517 31.4094 26.289 30.8219 27.7376 30.8219C29.1861 30.8219 30.3176 31.4065 31.1321 32.5758C31.9523 33.7393 32.3625 35.3188 32.3625 37.3142C32.3625 39.3212 31.9553 40.9094 31.1408 42.0787C30.3264 43.2481 29.1919 43.8327 27.7376 43.8327ZM25.4775 41.0839C26.0127 42.0031 26.766 42.4627 27.7376 42.4627C28.7091 42.4627 29.4595 42.006 29.9889 41.0927C30.5183 40.1735 30.783 38.9169 30.783 37.3229C30.783 35.7522 30.5154 34.5073 29.9802 33.5881C29.445 32.6631 28.6975 32.2006 27.7376 32.2006C26.7777 32.2006 26.0272 32.6631 25.4862 33.5881C24.9452 34.5131 24.6746 35.7551 24.6746 37.3142C24.6746 38.9082 24.9422 40.1648 25.4775 41.0839ZM36.7343 37.8116V36.4852H38.244C38.9654 36.4852 39.5558 36.2787 40.0154 35.8656C40.475 35.4468 40.7048 34.9174 40.7048 34.2775C40.7048 33.6375 40.4924 33.1285 40.0678 32.7504C39.6431 32.3722 39.041 32.1832 38.2614 32.1832C37.5401 32.1832 36.9525 32.3751 36.4987 32.7591C36.045 33.143 35.7832 33.6666 35.7134 34.3298H34.2037C34.291 33.2594 34.704 32.4071 35.4429 31.773C36.1875 31.1389 37.1503 30.8219 38.3312 30.8219C39.4657 30.8219 40.4081 31.1273 41.1586 31.7381C41.909 32.349 42.2842 33.1256 42.2842 34.068C42.2842 34.8534 42.0515 35.5137 41.5861 36.0489C41.1207 36.5841 40.4924 36.9215 39.7013 37.0611V37.096C40.6553 37.1542 41.4145 37.4596 41.9788 38.0123C42.5431 38.5592 42.8253 39.2747 42.8253 40.159C42.8253 40.8629 42.6275 41.497 42.2319 42.0613C41.8363 42.6256 41.3011 43.0619 40.6263 43.3702C39.9514 43.6786 39.2039 43.8327 38.3836 43.8327C37.0805 43.8327 36.0304 43.5069 35.2334 42.8554C34.4364 42.2038 34.0088 41.3486 33.9507 40.2899H35.4603C35.5301 40.9472 35.8239 41.4766 36.3417 41.878C36.8594 42.2736 37.5342 42.4714 38.3661 42.4714C39.1981 42.4714 39.8816 42.2591 40.4168 41.8344C40.9578 41.4097 41.2284 40.8687 41.2284 40.2113C41.2284 39.4725 40.9666 38.8878 40.443 38.4573C39.9252 38.0268 39.2155 37.8116 38.3138 37.8116H36.7343Z" fill="#262626"/>
<path d="M88.2035 34.6614C88.2035 33.5619 88.5991 32.6486 89.3903 31.9214C90.1814 31.1884 91.1704 30.8219 92.3572 30.8219C93.48 30.8219 94.4311 31.1564 95.2107 31.8254C95.9902 32.4944 96.38 33.3118 96.38 34.2775C96.38 34.9756 96.188 35.6475 95.8041 36.2932C95.4201 36.939 94.6987 37.8087 93.6399 38.9024L90.4549 42.1922V42.2271H96.5894V43.6233H88.282V42.5412L92.715 37.8727C93.5585 36.9826 94.117 36.3078 94.3904 35.8482C94.6696 35.3886 94.8093 34.897 94.8093 34.3735C94.8093 33.7684 94.5649 33.2536 94.0763 32.8289C93.5934 32.4042 93.0058 32.1919 92.3136 32.1919C91.5747 32.1919 90.9581 32.4275 90.4636 32.8987C89.9691 33.3699 89.7219 33.9575 89.7219 34.6614V34.6701H88.2035V34.6614ZM102.811 43.8327C101.351 43.8327 100.211 43.251 99.3906 42.0875C98.5761 40.9181 98.1689 39.33 98.1689 37.3229C98.1689 35.3333 98.579 33.7539 99.3993 32.5846C100.225 31.4094 101.363 30.8219 102.811 30.8219C104.26 30.8219 105.391 31.4065 106.206 32.5758C107.026 33.7393 107.436 35.3188 107.436 37.3142C107.436 39.3212 107.029 40.9094 106.214 42.0787C105.4 43.2481 104.266 43.8327 102.811 43.8327ZM100.551 41.0839C101.086 42.0031 101.84 42.4627 102.811 42.4627C103.783 42.4627 104.533 42.006 105.063 41.0927C105.592 40.1735 105.857 38.9169 105.857 37.3229C105.857 35.7522 105.589 34.5073 105.054 33.5881C104.519 32.6631 103.771 32.2006 102.811 32.2006C101.851 32.2006 101.101 32.6631 100.56 33.5881C100.019 34.5131 99.7483 35.7551 99.7483 37.3142C99.7483 38.9082 100.016 40.1648 100.551 41.0839ZM113.571 43.8327C112.367 43.8327 111.36 43.4924 110.551 42.8117C109.749 42.1311 109.315 41.2556 109.251 40.1851H110.796C110.866 40.8542 111.159 41.401 111.677 41.8257C112.195 42.2445 112.832 42.454 113.588 42.454C114.443 42.454 115.139 42.1864 115.674 41.6512C116.215 41.1159 116.485 40.4237 116.485 39.5743C116.485 38.7249 116.215 38.0298 115.674 37.4887C115.139 36.9419 114.452 36.6685 113.614 36.6685C113.027 36.6685 112.494 36.7935 112.017 37.0437C111.54 37.2938 111.174 37.64 110.918 38.0821H109.443L110.133 31.0313H117.34V32.4275H111.424L111.04 36.5288H111.075C111.36 36.1507 111.75 35.854 112.244 35.6388C112.745 35.4235 113.294 35.3159 113.894 35.3159C115.104 35.3159 116.098 35.7144 116.878 36.5114C117.663 37.3026 118.056 38.309 118.056 39.5307C118.056 40.7931 117.637 41.8257 116.799 42.6285C115.962 43.4313 114.885 43.8327 113.571 43.8327Z" fill="#262626"/>
<path d="M149.987 34.6614C149.987 33.5619 150.383 32.6486 151.174 31.9214C151.965 31.1884 152.954 30.8219 154.141 30.8219C155.263 30.8219 156.215 31.1564 156.994 31.8254C157.774 32.4944 158.164 33.3118 158.164 34.2775C158.164 34.9756 157.972 35.6475 157.588 36.2932C157.204 36.939 156.482 37.8087 155.423 38.9024L152.238 42.1922V42.2271H158.373V43.6233H150.066V42.5412L154.498 37.8727C155.342 36.9826 155.901 36.3078 156.174 35.8482C156.453 35.3886 156.593 34.897 156.593 34.3735C156.593 33.7684 156.348 33.2536 155.86 32.8289C155.377 32.4042 154.789 32.1919 154.097 32.1919C153.358 32.1919 152.742 32.4275 152.247 32.8987C151.753 33.3699 151.505 33.9575 151.505 34.6614V34.6701H149.987V34.6614ZM164.595 43.8327C163.135 43.8327 161.994 43.251 161.174 42.0875C160.36 40.9181 159.952 39.33 159.952 37.3229C159.952 35.3333 160.363 33.7539 161.183 32.5846C162.009 31.4094 163.146 30.8219 164.595 30.8219C166.043 30.8219 167.175 31.4065 167.989 32.5758C168.81 33.7393 169.22 35.3188 169.22 37.3142C169.22 39.3212 168.812 40.9094 167.998 42.0787C167.184 43.2481 166.049 43.8327 164.595 43.8327ZM162.335 41.0839C162.87 42.0031 163.623 42.4627 164.595 42.4627C165.566 42.4627 166.317 42.006 166.846 41.0927C167.376 40.1735 167.64 38.9169 167.64 37.3229C167.64 35.7522 167.373 34.5073 166.837 33.5881C166.302 32.6631 165.555 32.2006 164.595 32.2006C163.635 32.2006 162.884 32.6631 162.343 33.5881C161.802 34.5131 161.532 35.7551 161.532 37.3142C161.532 38.9082 161.799 40.1648 162.335 41.0839Z" fill="#262626"/>
<rect x="60.7091" y="73.0892" width="14.2971" height="8.16978" rx="4.08489" fill="#5398DF"/>
<g filter="url(#filter2_d_745:3225)">
<rect x="67.5607" y="74.0255" width="6.12733" height="6.12733" rx="3.06367" fill="white"/>
</g>
<path d="M81.7474 79.5997H82.4176V75.8599H83.7729V75.2825H80.3891V75.8599H81.7474V79.5997ZM85.3108 79.6626C86.2622 79.6626 86.8456 79.0253 86.8456 77.9781V77.9722C86.8456 76.925 86.2592 76.2877 85.3108 76.2877C84.3593 76.2877 83.7729 76.928 83.7729 77.9722V77.9781C83.7729 79.0253 84.3564 79.6626 85.3108 79.6626ZM85.3108 79.121C84.7513 79.121 84.4371 78.6992 84.4371 77.9781V77.9722C84.4371 77.2511 84.7513 76.8293 85.3108 76.8293C85.8672 76.8293 86.1844 77.2511 86.1844 77.9722V77.9781C86.1844 78.6962 85.8672 79.121 85.3108 79.121ZM88.8471 79.6207C88.9728 79.6207 89.0925 79.6057 89.1972 79.5878V79.0702C89.1074 79.0791 89.0506 79.0821 88.9519 79.0821C88.6317 79.0821 88.5001 78.9385 88.5001 78.5885V76.8622H89.1972V76.3506H88.5001V75.5308H87.8389V76.3506H87.3303V76.8622H87.8389V78.7441C87.8389 79.3694 88.1321 79.6207 88.8471 79.6207ZM90.8457 79.6536C91.2765 79.6536 91.6176 79.4681 91.8091 79.139H91.8599V79.5997H92.5032V77.3768C92.5032 76.6946 92.0424 76.2877 91.2257 76.2877C90.4867 76.2877 89.9751 76.6438 89.8973 77.1763L89.8943 77.1973H90.5196L90.5226 77.1853C90.6004 76.9549 90.8367 76.8233 91.1957 76.8233C91.6356 76.8233 91.8599 77.0207 91.8599 77.3768V77.664L90.9803 77.7149C90.2054 77.7627 89.7686 78.1008 89.7686 78.6812V78.6872C89.7686 79.2766 90.2264 79.6536 90.8457 79.6536ZM90.4149 78.6603V78.6543C90.4149 78.3611 90.6183 78.1995 91.0671 78.1726L91.8599 78.1218V78.4C91.8599 78.8189 91.5039 79.136 91.0192 79.136C90.6692 79.136 90.4149 78.9595 90.4149 78.6603ZM93.4486 79.5997H94.0979V75.076H93.4486V79.5997Z" fill="black"/>
<path opacity="0.5" d="M13.2525 79.5997H13.9226V78.1247H14.9339C15.7806 78.1247 16.367 77.5473 16.367 76.7036V76.6976C16.367 75.8509 15.7806 75.2825 14.9339 75.2825H13.2525V79.5997ZM14.7663 75.8479C15.3468 75.8479 15.6848 76.1621 15.6848 76.7006V76.7066C15.6848 77.2481 15.3468 77.5623 14.7663 77.5623H13.9226V75.8479H14.7663ZM17.9287 79.6536C18.3596 79.6536 18.7006 79.4681 18.8921 79.139H18.943V79.5997H19.5862V77.3768C19.5862 76.6946 19.1255 76.2877 18.3087 76.2877C17.5697 76.2877 17.0581 76.6438 16.9803 77.1763L16.9773 77.1973H17.6026L17.6056 77.1853C17.6834 76.9549 17.9198 76.8233 18.2788 76.8233C18.7186 76.8233 18.943 77.0207 18.943 77.3768V77.664L18.0634 77.7149C17.2885 77.7627 16.8517 78.1008 16.8517 78.6812V78.6872C16.8517 79.2766 17.3094 79.6536 17.9287 79.6536ZM17.4979 78.6603V78.6543C17.4979 78.3611 17.7014 78.1995 18.1501 78.1726L18.943 78.1218V78.4C18.943 78.8189 18.587 79.136 18.1023 79.136C17.7522 79.136 17.4979 78.9595 17.4979 78.6603ZM20.5017 79.5997H21.151V77.658C21.151 77.1883 21.4891 76.8831 21.9857 76.8831C22.1084 76.8831 22.2191 76.8981 22.3358 76.922V76.3236C22.2699 76.3087 22.1562 76.2937 22.0515 76.2937C21.6177 76.2937 21.3155 76.4972 21.1988 76.8412H21.151V76.3506H20.5017V79.5997ZM24.6305 80.6828H25.2797V79.0851H25.3276C25.5011 79.4352 25.8811 79.6536 26.3269 79.6536C27.1527 79.6536 27.6732 79.0073 27.6732 77.9781V77.9722C27.6732 76.9489 27.1467 76.2937 26.3269 76.2937C25.8721 76.2937 25.5161 76.5061 25.3276 76.8622H25.2797V76.3506H24.6305V80.6828ZM26.1444 79.1001C25.6029 79.1001 25.2678 78.6723 25.2678 77.9781V77.9722C25.2678 77.278 25.6029 76.8502 26.1444 76.8502C26.6859 76.8502 27.012 77.2721 27.012 77.9722V77.9781C27.012 78.6752 26.6859 79.1001 26.1444 79.1001ZM30.0159 75.9018L30.7219 74.8726H30.0278L29.5043 75.9018H30.0159ZM29.8184 79.6626C30.6501 79.6626 31.0989 79.1839 31.2066 78.756L31.2126 78.7291L30.5873 78.7321L30.5753 78.756C30.4976 78.9236 30.2492 79.13 29.8334 79.13C29.2978 79.13 28.9567 78.768 28.9448 78.1457H31.2485V77.9183C31.2485 76.943 30.692 76.2877 29.7855 76.2877C28.879 76.2877 28.2926 76.9669 28.2926 77.9811V77.9841C28.2926 79.0133 28.867 79.6626 29.8184 79.6626ZM29.7885 76.8203C30.2283 76.8203 30.5544 77.1015 30.6053 77.6819H28.9538C29.0106 77.1225 29.3457 76.8203 29.7885 76.8203ZM32.0204 79.5997H32.6696V77.658C32.6696 77.1883 33.0077 76.8831 33.5044 76.8831C33.627 76.8831 33.7377 76.8981 33.8544 76.922V76.3236C33.7886 76.3087 33.6749 76.2937 33.5702 76.2937C33.1364 76.2937 32.8342 76.4972 32.7175 76.8412H32.6696V76.3506H32.0204V79.5997ZM34.8118 75.7701C35.0332 75.7701 35.2187 75.5876 35.2187 75.3662C35.2187 75.1419 35.0332 74.9594 34.8118 74.9594C34.5874 74.9594 34.4049 75.1419 34.4049 75.3662C34.4049 75.5876 34.5874 75.7701 34.8118 75.7701ZM34.4857 79.5997H35.1319V76.3506H34.4857V79.5997ZM37.4536 79.6626C38.405 79.6626 38.9885 79.0253 38.9885 77.9781V77.9722C38.9885 76.925 38.402 76.2877 37.4536 76.2877C36.5022 76.2877 35.9158 76.928 35.9158 77.9722V77.9781C35.9158 79.0253 36.4992 79.6626 37.4536 79.6626ZM37.4536 79.121C36.8942 79.121 36.58 78.6992 36.58 77.9781V77.9722C36.58 77.2511 36.8942 76.8293 37.4536 76.8293C38.0101 76.8293 38.3273 77.2511 38.3273 77.9722V77.9781C38.3273 78.6962 38.0101 79.121 37.4536 79.121ZM40.9481 79.6536C41.4029 79.6536 41.7589 79.4442 41.9474 79.0881H41.9983V79.5997H42.6445V75.076H41.9983V76.8652H41.9474C41.7739 76.5151 41.3939 76.2937 40.9481 76.2937C40.1224 76.2937 39.6018 76.943 39.6018 77.9722V77.9781C39.6018 78.9984 40.1313 79.6536 40.9481 79.6536ZM41.1336 79.1001C40.5891 79.1001 40.263 78.6752 40.263 77.9781V77.9722C40.263 77.2751 40.5891 76.8502 41.1336 76.8502C41.6722 76.8502 42.0072 77.278 42.0072 77.9722V77.9781C42.0072 78.6723 41.6751 79.1001 41.1336 79.1001ZM44.9752 79.6626C45.8069 79.6626 46.2557 79.1839 46.3634 78.756L46.3694 78.7291L45.7441 78.7321L45.7321 78.756C45.6543 78.9236 45.406 79.13 44.9901 79.13C44.4546 79.13 44.1135 78.768 44.1015 78.1457H46.4053V77.9183C46.4053 76.943 45.8488 76.2877 44.9423 76.2877C44.0357 76.2877 43.4493 76.9669 43.4493 77.9811V77.9841C43.4493 79.0133 44.0238 79.6626 44.9752 79.6626ZM44.9453 76.8203C45.3851 76.8203 45.7112 77.1015 45.762 77.6819H44.1105C44.1674 77.1225 44.5025 76.8203 44.9453 76.8203Z" fill="black"/>
<line opacity="0.1" x1="75.2625" y1="11.816" x2="75.2625" y2="53.6861" stroke="black" stroke-width="0.510611"/>
<line opacity="0.1" x1="137.046" y1="11.816" x2="137.046" y2="53.6861" stroke="black" stroke-width="0.510611"/>
<line opacity="0.1" x1="198.575" y1="62.1108" x2="12.7121" y2="62.1108" stroke="black" stroke-width="0.510611"/>
<defs>
<filter id="filter0_d_745:3225" x="103.537" y="116.25" width="22.8215" height="22.8215" filterUnits="userSpaceOnUse" color-interpolation-filters="sRGB">
<feFlood flood-opacity="0" result="BackgroundImageFix"/>
<feColorMatrix in="SourceAlpha" type="matrix" values="0 0 0 0 0 0 0 0 0 0 0 0 0 0 0 0 0 0 127 0" result="hardAlpha"/>
<feOffset dy="1.40272"/>
<feGaussianBlur stdDeviation="3.5068"/>
<feColorMatrix type="matrix" values="0 0 0 0 0 0 0 0 0 0 0 0 0 0 0 0 0 0 0.1 0"/>
<feBlend mode="normal" in2="BackgroundImageFix" result="effect1_dropShadow_745:3225"/>
<feBlend mode="normal" in="SourceGraphic" in2="effect1_dropShadow_745:3225" result="shape"/>
</filter>
<filter id="filter1_d_745:3225" x="99.0063" y="103.215" width="32.1685" height="22.4669" filterUnits="userSpaceOnUse" color-interpolation-filters="sRGB">
<feFlood flood-opacity="0" result="BackgroundImageFix"/>
<feColorMatrix in="SourceAlpha" type="matrix" values="0 0 0 0 0 0 0 0 0 0 0 0 0 0 0 0 0 0 127 0" result="hardAlpha"/>
<feOffset dy="1.02122"/>
<feGaussianBlur stdDeviation="2.55306"/>
<feComposite in2="hardAlpha" operator="out"/>
<feColorMatrix type="matrix" values="0 0 0 0 0 0 0 0 0 0 0 0 0 0 0 0 0 0 0.05 0"/>
<feBlend mode="normal" in2="BackgroundImageFix" result="effect1_dropShadow_745:3225"/>
<feBlend mode="normal" in="SourceGraphic" in2="effect1_dropShadow_745:3225" result="shape"/>
</filter>
<filter id="filter2_d_745:3225" x="65.5182" y="73.0043" width="10.2122" height="10.2122" filterUnits="userSpaceOnUse" color-interpolation-filters="sRGB">
<feFlood flood-opacity="0" result="BackgroundImageFix"/>
<feColorMatrix in="SourceAlpha" type="matrix" values="0 0 0 0 0 0 0 0 0 0 0 0 0 0 0 0 0 0 127 0" result="hardAlpha"/>
<feOffset dy="1.02122"/>
<feGaussianBlur stdDeviation="1.02122"/>
<feColorMatrix type="matrix" values="0 0 0 0 0 0 0 0 0 0.137255 0 0 0 0 0.0431373 0 0 0 0.2 0"/>
<feBlend mode="normal" in2="BackgroundImageFix" result="effect1_dropShadow_745:3225"/>
<feBlend mode="normal" in="SourceGraphic" in2="effect1_dropShadow_745:3225" result="shape"/>
</filter>
<linearGradient id="paint0_linear_745:3225" x1="114.581" y1="108.756" x2="114.581" y2="141.986" gradientUnits="userSpaceOnUse">
<stop stop-color="#90C6FD"/>
<stop offset="1" stop-color="#5398DF"/>
</linearGradient>
<linearGradient id="paint1_linear_745:3225" x1="2.29775" y1="0" x2="2.29775" y2="4.5955" gradientUnits="userSpaceOnUse">
<stop stop-color="#90C6FD"/>
<stop offset="1" stop-color="#5398DF"/>
</linearGradient>
<clipPath id="clip0_745:3225">
<rect width="6.63794" height="6.63794" fill="white" transform="translate(178.66 14.369)"/>
</clipPath>
<clipPath id="clip1_745:3225">
<rect width="6.63794" height="6.63794" fill="white" transform="translate(48.9637 74.1103)"/>
</clipPath>
</defs>
</svg>
