<svg width="44" height="44" viewBox="0 0 44 44" fill="none" xmlns="http://www.w3.org/2000/svg">
<rect width="43.8851" height="43.8851" rx="21.9425" fill="#66A182"/>
<g clip-path="url(#clip0_856:2578)">
<path d="M30.9837 14.836L22.0067 10.0526C21.8735 9.98149 21.7139 9.98249 21.5817 10.0551L12.853 14.8385C12.7099 14.9171 12.6211 15.0672 12.6211 15.2306V21.479C12.6263 26.6153 15.6695 31.2621 20.3756 33.3199L21.5872 33.8478C21.7004 33.8972 21.8293 33.8975 21.9428 33.8483L23.308 33.2588C28.1014 31.2456 31.2199 26.554 31.2204 21.355V15.2306C31.2204 15.0655 31.1294 14.9136 30.9837 14.836V14.836ZM26.303 20.1173L20.8048 24.5902C20.6168 24.7433 20.3407 24.7184 20.1831 24.5338L17.8223 21.7693C17.6619 21.5815 17.6841 21.2994 17.8719 21.139C18.0597 20.9789 18.3418 21.0011 18.5021 21.1887L20.5794 23.6213L25.7387 19.4239C25.9302 19.2681 26.2118 19.297 26.3674 19.4885C26.5233 19.6801 26.4943 19.9616 26.3028 20.1173H26.303Z" fill="white"/>
</g>
<defs>
<clipPath id="clip0_856:2578">
<rect width="23.8851" height="23.8851" fill="white" transform="translate(10 10)"/>
</clipPath>
</defs>
</svg>
