<svg width="20" height="20" viewBox="0 0 20 20" fill="none" xmlns="http://www.w3.org/2000/svg">
<g clip-path="url(#clip0_1766_3750)">
<path d="M0.43494 14.8949C0.843273 16.3433 2.09244 16.6083 2.17577 16.6591C4.23161 17.2191 15.7549 17.2208 17.8416 16.6591C19.2708 16.2458 19.5333 14.9783 19.5824 14.8949C20.1266 11.9999 20.1624 8.22575 19.5574 4.94075L19.5824 5.10409C19.1741 3.65575 17.9249 3.39075 17.8416 3.33992C15.8133 2.78909 4.25994 2.76825 2.17577 3.33992C0.746606 3.75409 0.484107 5.02075 0.43494 5.10409C-0.14756 8.14659 -0.176727 11.6374 0.43494 14.8949ZM8.00661 13.0424V6.96492L13.2283 10.0083L8.00661 13.0424Z" fill="#E53935"/>
</g>
<defs>
<clipPath id="clip0_1766_3750">
<rect width="20" height="20" fill="white"/>
</clipPath>
</defs>
</svg>
